%TF.GenerationSoftware,Altium Limited,Altium Designer,19.1.8 (144)*%
G04 Layer_Color=16711935*
%FSLAX26Y26*%
%MOIN*%
%TF.FileFunction,Soldermask,Bot*%
%TF.Part,Single*%
G01*
G75*
%TA.AperFunction,ComponentPad*%
%ADD33R,0.047370X0.067055*%
%ADD34R,0.067055X0.047370*%
%ADD35C,0.244220*%
%ADD36C,0.068000*%
%ADD37R,0.068000X0.068000*%
%ADD38C,0.074929*%
%ADD39R,0.074929X0.074929*%
%ADD40R,0.074929X0.074929*%
%TA.AperFunction,WasherPad*%
%ADD41C,0.068000*%
%TA.AperFunction,ViaPad*%
%ADD42C,0.058000*%
D33*
X3467559Y210197D02*
D03*
X3648661Y210000D02*
D03*
X3069921Y210197D02*
D03*
X2886850Y210000D02*
D03*
D34*
X760000Y1130000D02*
D03*
X760197Y1311102D02*
D03*
X760000Y732362D02*
D03*
X760197Y549291D02*
D03*
D35*
X4420000Y1975746D02*
D03*
Y1692281D02*
D03*
X3001124Y1975746D02*
D03*
Y1692281D02*
D03*
X1580000Y1983465D02*
D03*
Y1700000D02*
D03*
X3641124Y1975746D02*
D03*
Y1692281D02*
D03*
X310000Y1010000D02*
D03*
Y726535D02*
D03*
D36*
X1080000Y820000D02*
D03*
X1180000D02*
D03*
X1770000Y580000D02*
D03*
X1670000D02*
D03*
X1570000D02*
D03*
X1720000Y680000D02*
D03*
X1620000D02*
D03*
X1845000Y330000D02*
D03*
X1445000D02*
D03*
X2470000Y580000D02*
D03*
X2370000D02*
D03*
X2270000D02*
D03*
X2420000Y680000D02*
D03*
X2320000D02*
D03*
X2545000Y330000D02*
D03*
X2145000D02*
D03*
D37*
X1280000Y820000D02*
D03*
X1520000Y680000D02*
D03*
X2220000D02*
D03*
D38*
X4410000Y260000D02*
D03*
X1170000Y1870000D02*
D03*
D39*
X4210000Y260000D02*
D03*
D40*
X1170000Y1670000D02*
D03*
D41*
X130000Y2210000D02*
D03*
X120000Y110000D02*
D03*
X4790000Y2200000D02*
D03*
X4780000Y120000D02*
D03*
D42*
X3550000Y960000D02*
D03*
%TF.MD5,ae292eb6f585f7963fb31f82617e1bf1*%
M02*
