%TF.GenerationSoftware,Altium Limited,Altium Designer,19.1.8 (144)*%
G04 Layer_Color=16711935*
%FSLAX26Y26*%
%MOIN*%
%TF.FileFunction,Other,Mechanical_13*%
%TF.Part,Single*%
G01*
G75*
%TA.AperFunction,NonConductor*%
%ADD44C,0.003937*%
D44*
X2162559Y1089606D02*
X2320039D01*
X2162559D02*
Y1290394D01*
X2320039D01*
Y1089606D02*
Y1290394D01*
X3808583Y989882D02*
X3966063D01*
X3808583D02*
Y1190669D01*
X3966063D01*
Y989882D02*
Y1190669D01*
X1204803Y591260D02*
Y675906D01*
X1155197Y591260D02*
Y675906D01*
X1204803D01*
X1155197Y591260D02*
X1204803D01*
X1900197Y1212677D02*
Y1297323D01*
X1949803Y1212677D02*
Y1297323D01*
X1900197Y1212677D02*
X1949803D01*
X1900197Y1297323D02*
X1949803D01*
X3585197Y1157677D02*
Y1242323D01*
X3634803Y1157677D02*
Y1242323D01*
X3585197Y1157677D02*
X3634803D01*
X3585197Y1242323D02*
X3634803D01*
X3785197Y808425D02*
X3834803D01*
X3785197Y893071D02*
X3834803D01*
X3785197Y808425D02*
Y893071D01*
X3834803Y808425D02*
Y893071D01*
X4428740Y1035197D02*
Y1084803D01*
X4344094Y1035197D02*
Y1084803D01*
Y1035197D02*
X4428740D01*
X4344094Y1084803D02*
X4428740D01*
X2165197Y926260D02*
X2214803D01*
X2165197Y1010906D02*
X2214803D01*
X2165197Y926260D02*
Y1010906D01*
X2214803Y926260D02*
Y1010906D01*
X2455197Y926260D02*
X2504803D01*
X2455197Y1010906D02*
X2504803D01*
X2455197Y926260D02*
Y1010906D01*
X2504803Y926260D02*
Y1010906D01*
X2708740Y1145197D02*
Y1194803D01*
X2624094Y1145197D02*
Y1194803D01*
Y1145197D02*
X2708740D01*
X2624094Y1194803D02*
X2708740D01*
X4065197Y811260D02*
X4114803D01*
X4065197Y895906D02*
X4114803D01*
X4065197Y811260D02*
Y895906D01*
X4114803Y811260D02*
Y895906D01*
X4137677Y1035197D02*
Y1084803D01*
X4222323Y1035197D02*
Y1084803D01*
X4137677D02*
X4222323D01*
X4137677Y1035197D02*
X4222323D01*
X2265197Y1010905D02*
X2314803D01*
X2265197Y926260D02*
X2314803D01*
Y1010905D01*
X2265197Y926260D02*
Y1010905D01*
X2464095Y1145197D02*
Y1194803D01*
X2548740Y1145197D02*
Y1194803D01*
X2464095D02*
X2548740D01*
X2464095Y1145197D02*
X2548740D01*
X3875197Y895905D02*
X3924803D01*
X3875197Y811260D02*
X3924803D01*
Y895905D01*
X3875197Y811260D02*
Y895905D01*
%TF.MD5,7c3721d11dca3c844fc78a3d530fbd04*%
M02*
