M48
;Layer_Color=9474304
;FILE_FORMAT=2:5
INCH,LZ
;TYPE=PLATED
T1F00S00C0.02800
T3F00S00C0.03504
T4F00S00C0.04016
T5F00S00C0.04331
T6F00S00C0.17717
;TYPE=NON_PLATED
T7F00S00C0.12795
T8F00S00C0.15748
%
T01
X0355Y0096
T03
X0157Y0058
X0167
X0177
X0172Y0068
X0162
X0152
X0222
X0232
X0242
X0247Y0058
X0237
X0227
T04
X0108Y0082
X0118
X0128
T05
X0421Y0026
X0441
X0117Y0167
Y0187
T06
X0031Y0072654
X0442Y0169228
Y0197575
X0364112
Y0169228
X0300112
Y0197575
X0158Y0198346
Y017
X0031Y0101
T07
X01445Y0033
X01845
X02145
X02545
T08
X0012Y0011
X0478Y0012
X0479Y022
X0013Y0221
M30
