%TF.GenerationSoftware,Altium Limited,Altium Designer,19.1.8 (144)*%
G04 Layer_Color=255*
%FSLAX26Y26*%
%MOIN*%
%TF.FileFunction,Pads,Top*%
%TF.Part,Single*%
G01*
G75*
%TA.AperFunction,SMDPad,CuDef*%
%ADD10R,0.125984X0.062992*%
%ADD11R,0.062992X0.125984*%
%ADD12R,0.043307X0.019685*%
%ADD13R,0.051181X0.041339*%
%ADD14R,0.098425X0.127953*%
%ADD15R,0.127953X0.098425*%
%ADD16R,0.055118X0.041339*%
%ADD17R,0.041339X0.051181*%
%ADD18R,0.041339X0.055118*%
%TA.AperFunction,ComponentPad*%
%ADD23R,0.039370X0.059055*%
%ADD24R,0.059055X0.039370*%
%ADD25C,0.236220*%
%ADD26C,0.060000*%
%ADD27R,0.060000X0.060000*%
%ADD28C,0.066929*%
%ADD29R,0.066929X0.066929*%
%ADD30R,0.066929X0.066929*%
%TA.AperFunction,WasherPad*%
%ADD31C,0.060000*%
D10*
X2710000Y790000D02*
D03*
X2910787D02*
D03*
X4570000Y550000D02*
D03*
X4770787D02*
D03*
D11*
X2070000Y1789213D02*
D03*
Y1990000D02*
D03*
X2490000Y1790000D02*
D03*
Y1990787D02*
D03*
D12*
X2347598Y1165000D02*
D03*
Y1215000D02*
D03*
Y1265000D02*
D03*
Y1115000D02*
D03*
X2135000D02*
D03*
Y1265000D02*
D03*
Y1215000D02*
D03*
Y1165000D02*
D03*
X3993622Y1065276D02*
D03*
Y1115276D02*
D03*
Y1165276D02*
D03*
Y1015276D02*
D03*
X3781024D02*
D03*
Y1165276D02*
D03*
Y1115276D02*
D03*
Y1065276D02*
D03*
D13*
X1180000Y670000D02*
D03*
Y597165D02*
D03*
X3810000Y814331D02*
D03*
Y887165D02*
D03*
X2190000Y932165D02*
D03*
Y1005000D02*
D03*
X2480000Y932165D02*
D03*
Y1005000D02*
D03*
X4090000Y817165D02*
D03*
Y890000D02*
D03*
D14*
X1540473Y1150000D02*
D03*
X1320000D02*
D03*
D15*
X3300000Y970000D02*
D03*
Y749528D02*
D03*
D16*
X1925000Y1218583D02*
D03*
Y1291417D02*
D03*
X3610000Y1163583D02*
D03*
Y1236417D02*
D03*
X2290000Y1005000D02*
D03*
Y932165D02*
D03*
X3900000Y890000D02*
D03*
Y817165D02*
D03*
D17*
X4422835Y1060000D02*
D03*
X4350000D02*
D03*
X2702835Y1170000D02*
D03*
X2630000D02*
D03*
D18*
X4143583Y1060000D02*
D03*
X4216417D02*
D03*
X2470000Y1170000D02*
D03*
X2542835D02*
D03*
D23*
X3467559Y210197D02*
D03*
X3648661Y210000D02*
D03*
X3069921Y210197D02*
D03*
X2886850Y210000D02*
D03*
D24*
X760000Y1130000D02*
D03*
X760197Y1311102D02*
D03*
X760000Y732362D02*
D03*
X760197Y549291D02*
D03*
D25*
X4420000Y1975746D02*
D03*
Y1692281D02*
D03*
X3001124Y1975746D02*
D03*
Y1692281D02*
D03*
X1580000Y1983465D02*
D03*
Y1700000D02*
D03*
X3641124Y1975746D02*
D03*
Y1692281D02*
D03*
X310000Y1010000D02*
D03*
Y726535D02*
D03*
D26*
X1080000Y820000D02*
D03*
X1180000D02*
D03*
X1770000Y580000D02*
D03*
X1670000D02*
D03*
X1570000D02*
D03*
X1720000Y680000D02*
D03*
X1620000D02*
D03*
X1845000Y330000D02*
D03*
X1445000D02*
D03*
X2470000Y580000D02*
D03*
X2370000D02*
D03*
X2270000D02*
D03*
X2420000Y680000D02*
D03*
X2320000D02*
D03*
X2545000Y330000D02*
D03*
X2145000D02*
D03*
D27*
X1280000Y820000D02*
D03*
X1520000Y680000D02*
D03*
X2220000D02*
D03*
D28*
X4410000Y260000D02*
D03*
X1170000Y1870000D02*
D03*
D29*
X4210000Y260000D02*
D03*
D30*
X1170000Y1670000D02*
D03*
D31*
X130000Y2210000D02*
D03*
X120000Y110000D02*
D03*
X4790000Y2200000D02*
D03*
X4780000Y120000D02*
D03*
%TF.MD5,97801a3f7dc35d8d0cf4ffc26c1a8fa0*%
M02*
