%TF.GenerationSoftware,Altium Limited,Altium Designer,19.1.8 (144)*%
G04 Layer_Color=8388736*
%FSLAX26Y26*%
%MOIN*%
%TF.FileFunction,Soldermask,Top*%
%TF.Part,Single*%
G01*
G75*
%TA.AperFunction,ComponentPad*%
%ADD33R,0.047370X0.067055*%
%ADD34R,0.067055X0.047370*%
%ADD35C,0.244220*%
%ADD36C,0.068000*%
%ADD37R,0.068000X0.068000*%
%ADD38C,0.074929*%
%ADD39R,0.074929X0.074929*%
%ADD40R,0.074929X0.074929*%
%TA.AperFunction,WasherPad*%
%ADD41C,0.068000*%
%TA.AperFunction,ViaPad*%
%ADD42C,0.058000*%
%TA.AperFunction,SMDPad,CuDef*%
%ADD47R,0.133984X0.070992*%
%ADD48R,0.070992X0.133984*%
%ADD49R,0.051307X0.027685*%
%ADD50R,0.059181X0.049339*%
%ADD51R,0.106425X0.135953*%
%ADD52R,0.135953X0.106425*%
%ADD53R,0.063118X0.049339*%
%ADD54R,0.049339X0.059181*%
%ADD55R,0.049339X0.063118*%
D33*
X3467559Y210197D02*
D03*
X3648661Y210000D02*
D03*
X3069921Y210197D02*
D03*
X2886850Y210000D02*
D03*
D34*
X760000Y1130000D02*
D03*
X760197Y1311102D02*
D03*
X760000Y732362D02*
D03*
X760197Y549291D02*
D03*
D35*
X4420000Y1975746D02*
D03*
Y1692281D02*
D03*
X3001124Y1975746D02*
D03*
Y1692281D02*
D03*
X1580000Y1983465D02*
D03*
Y1700000D02*
D03*
X3641124Y1975746D02*
D03*
Y1692281D02*
D03*
X310000Y1010000D02*
D03*
Y726535D02*
D03*
D36*
X1080000Y820000D02*
D03*
X1180000D02*
D03*
X1770000Y580000D02*
D03*
X1670000D02*
D03*
X1570000D02*
D03*
X1720000Y680000D02*
D03*
X1620000D02*
D03*
X1845000Y330000D02*
D03*
X1445000D02*
D03*
X2470000Y580000D02*
D03*
X2370000D02*
D03*
X2270000D02*
D03*
X2420000Y680000D02*
D03*
X2320000D02*
D03*
X2545000Y330000D02*
D03*
X2145000D02*
D03*
D37*
X1280000Y820000D02*
D03*
X1520000Y680000D02*
D03*
X2220000D02*
D03*
D38*
X4410000Y260000D02*
D03*
X1170000Y1870000D02*
D03*
D39*
X4210000Y260000D02*
D03*
D40*
X1170000Y1670000D02*
D03*
D41*
X130000Y2210000D02*
D03*
X120000Y110000D02*
D03*
X4790000Y2200000D02*
D03*
X4780000Y120000D02*
D03*
D42*
X3550000Y960000D02*
D03*
D47*
X2710000Y790000D02*
D03*
X2910787D02*
D03*
X4570000Y550000D02*
D03*
X4770787D02*
D03*
D48*
X2070000Y1789213D02*
D03*
Y1990000D02*
D03*
X2490000Y1790000D02*
D03*
Y1990787D02*
D03*
D49*
X2347598Y1165000D02*
D03*
Y1215000D02*
D03*
Y1265000D02*
D03*
Y1115000D02*
D03*
X2135000D02*
D03*
Y1265000D02*
D03*
Y1215000D02*
D03*
Y1165000D02*
D03*
X3993622Y1065276D02*
D03*
Y1115276D02*
D03*
Y1165276D02*
D03*
Y1015276D02*
D03*
X3781024D02*
D03*
Y1165276D02*
D03*
Y1115276D02*
D03*
Y1065276D02*
D03*
D50*
X1180000Y670000D02*
D03*
Y597165D02*
D03*
X3810000Y814331D02*
D03*
Y887165D02*
D03*
X2190000Y932165D02*
D03*
Y1005000D02*
D03*
X2480000Y932165D02*
D03*
Y1005000D02*
D03*
X4090000Y817165D02*
D03*
Y890000D02*
D03*
D51*
X1540473Y1150000D02*
D03*
X1320000D02*
D03*
D52*
X3300000Y970000D02*
D03*
Y749528D02*
D03*
D53*
X1925000Y1218583D02*
D03*
Y1291417D02*
D03*
X3610000Y1163583D02*
D03*
Y1236417D02*
D03*
X2290000Y1005000D02*
D03*
Y932165D02*
D03*
X3900000Y890000D02*
D03*
Y817165D02*
D03*
D54*
X4422835Y1060000D02*
D03*
X4350000D02*
D03*
X2702835Y1170000D02*
D03*
X2630000D02*
D03*
D55*
X4143583Y1060000D02*
D03*
X4216417D02*
D03*
X2470000Y1170000D02*
D03*
X2542835D02*
D03*
%TF.MD5,7dc9d799d5238c3ef1004457258962e0*%
M02*
