G04*
G04 #@! TF.GenerationSoftware,Altium Limited,Altium Designer,19.1.8 (144)*
G04*
G04 Layer_Color=32768*
%FSLAX25Y25*%
%MOIN*%
G70*
G01*
G75*
%ADD10C,0.01000*%
D10*
X268244Y72701D02*
Y86480D01*
Y72701D02*
X274150Y66795D01*
X273756Y91992D02*
X293835D01*
X268244Y86480D02*
X273756Y91992D01*
X293835Y66795D02*
Y91992D01*
X274150Y66795D02*
X293835D01*
X199520Y176165D02*
X213299D01*
X219205Y182071D01*
X194008Y181677D02*
Y201756D01*
Y181677D02*
X199520Y176165D01*
X194008Y201756D02*
X219205D01*
Y182071D02*
Y201756D01*
X454244Y48701D02*
Y62480D01*
Y48701D02*
X460150Y42795D01*
X459756Y67992D02*
X479835D01*
X454244Y62480D02*
X459756Y67992D01*
X479835Y42795D02*
Y67992D01*
X460150Y42795D02*
X479835D01*
X241520Y176244D02*
X255299D01*
X261205Y182150D01*
X236008Y181756D02*
Y201835D01*
Y181756D02*
X241520Y176244D01*
X236008Y201835D02*
X261205D01*
Y182150D02*
Y201835D01*
X345791Y9583D02*
Y32260D01*
Y9583D02*
X368291D01*
X346018Y32417D02*
X368134D01*
X368291Y9583D02*
Y32260D01*
X308596Y9504D02*
Y32181D01*
X308439Y32339D02*
X308596Y32181D01*
X286323Y32339D02*
X308439D01*
X286097Y9504D02*
X308596D01*
X286097D02*
Y32181D01*
X64760Y112035D02*
X87437D01*
Y134535D01*
X64602Y112262D02*
Y134378D01*
X64760Y134535D02*
X87437D01*
X64839Y74840D02*
X87516D01*
X64681Y74683D02*
X64839Y74840D01*
X64681Y52567D02*
Y74683D01*
X87516Y52341D02*
Y74840D01*
X64839Y52341D02*
X87516D01*
X422000Y152575D02*
X462000D01*
X280112D02*
X320112D01*
X138000Y153347D02*
X178000D01*
X344112Y152575D02*
X384112D01*
X11000Y56000D02*
X51000D01*
X126488Y129961D02*
X159165D01*
Y97284D02*
Y129961D01*
X126488Y97284D02*
X159165D01*
X126488D02*
Y129961D01*
X315039Y69441D02*
Y102118D01*
X347716D01*
Y69441D02*
Y102118D01*
X315039Y69441D02*
X347716D01*
X103000Y87000D02*
X133001D01*
Y77000D02*
Y87000D01*
X103000Y77000D02*
X133001D01*
X103000D02*
Y87000D01*
X18000Y47597D02*
Y53595D01*
X20999D01*
X21999Y52595D01*
Y50596D01*
X20999Y49596D01*
X18000D01*
X19999D02*
X21999Y47597D01*
X26997D02*
X24998D01*
X23998Y48597D01*
Y50596D01*
X24998Y51596D01*
X26997D01*
X27997Y50596D01*
Y49596D01*
X23998D01*
X30996Y51596D02*
X32995D01*
X33995Y50596D01*
Y47597D01*
X30996D01*
X29996Y48597D01*
X30996Y49596D01*
X33995D01*
X35994Y51596D02*
Y47597D01*
Y49596D01*
X36994Y50596D01*
X37993Y51596D01*
X38993D01*
X18000Y37999D02*
X19999D01*
X19000D01*
Y43997D01*
X18000D01*
X22998Y37999D02*
X24998D01*
X23998D01*
Y41998D01*
X22998D01*
X29996Y36000D02*
X30996D01*
X31995Y37000D01*
Y41998D01*
X28996D01*
X27997Y40998D01*
Y38999D01*
X28996Y37999D01*
X31995D01*
X33995Y43997D02*
Y37999D01*
Y40998D01*
X34995Y41998D01*
X36994D01*
X37993Y40998D01*
Y37999D01*
X40993Y42998D02*
Y41998D01*
X39993D01*
X41992D01*
X40993D01*
Y38999D01*
X41992Y37999D01*
X316999Y229596D02*
X313000D01*
Y226597D01*
X314999D01*
X313000D01*
Y223598D01*
X318998Y227596D02*
Y223598D01*
Y225597D01*
X319998Y226597D01*
X320997Y227596D01*
X321997D01*
X325996Y223598D02*
X327995D01*
X328995Y224597D01*
Y226597D01*
X327995Y227596D01*
X325996D01*
X324996Y226597D01*
Y224597D01*
X325996Y223598D01*
X330994D02*
Y227596D01*
X333993D01*
X334993Y226597D01*
Y223598D01*
X337992Y228596D02*
Y227596D01*
X336992D01*
X338992D01*
X337992D01*
Y224597D01*
X338992Y223598D01*
X313000Y219998D02*
Y214000D01*
X315999D01*
X316999Y215000D01*
Y215999D01*
X315999Y216999D01*
X313000D01*
X315999D01*
X316999Y217999D01*
Y218998D01*
X315999Y219998D01*
X313000D01*
X319998Y214000D02*
X321997D01*
X322997Y215000D01*
Y216999D01*
X321997Y217999D01*
X319998D01*
X318998Y216999D01*
Y215000D01*
X319998Y214000D01*
X325996Y217999D02*
X327995D01*
X328995Y216999D01*
Y214000D01*
X325996D01*
X324996Y215000D01*
X325996Y215999D01*
X328995D01*
X330994Y217999D02*
Y214000D01*
Y215999D01*
X331994Y216999D01*
X332994Y217999D01*
X333993D01*
X340991Y219998D02*
Y214000D01*
X337992D01*
X336992Y215000D01*
Y216999D01*
X337992Y217999D01*
X340991D01*
X381000Y222000D02*
Y227998D01*
X382999Y225999D01*
X384999Y227998D01*
Y222000D01*
X390997Y226998D02*
X389997Y227998D01*
X387998D01*
X386998Y226998D01*
Y223000D01*
X387998Y222000D01*
X389997D01*
X390997Y223000D01*
X392996Y224999D02*
X396995D01*
X402993Y222000D02*
X398994D01*
X402993Y225999D01*
Y226998D01*
X401993Y227998D01*
X399994D01*
X398994Y226998D01*
X445000Y222000D02*
Y227998D01*
X446999Y225999D01*
X448999Y227998D01*
Y222000D01*
X454997Y226998D02*
X453997Y227998D01*
X451998D01*
X450998Y226998D01*
Y223000D01*
X451998Y222000D01*
X453997D01*
X454997Y223000D01*
X456996Y224999D02*
X460995D01*
X462994Y222000D02*
X464993D01*
X463994D01*
Y227998D01*
X462994Y226998D01*
X900Y600D02*
X490300D01*
X490300Y231300D02*
X490300Y600D01*
X900Y231300D02*
X490300D01*
X900D02*
X900Y600D01*
M02*
