%TF.GenerationSoftware,Altium Limited,Altium Designer,19.1.8 (144)*%
G04 Layer_Physical_Order=1*
G04 Layer_Color=255*
%FSLAX26Y26*%
%MOIN*%
%TF.FileFunction,Copper,L1,Top,Signal*%
%TF.Part,Single*%
G01*
G75*
%TA.AperFunction,SMDPad,CuDef*%
%ADD10R,0.125984X0.062992*%
%ADD11R,0.062992X0.125984*%
%ADD12R,0.043307X0.019685*%
%ADD13R,0.051181X0.041339*%
%ADD14R,0.098425X0.127953*%
%ADD15R,0.127953X0.098425*%
%ADD16R,0.055118X0.041339*%
%ADD17R,0.041339X0.051181*%
%ADD18R,0.041339X0.055118*%
%TA.AperFunction,Conductor*%
%ADD19C,0.010000*%
%ADD20C,0.020000*%
%ADD21C,0.019685*%
%ADD22C,0.177165*%
%TA.AperFunction,ComponentPad*%
%ADD23R,0.039370X0.059055*%
%ADD24R,0.059055X0.039370*%
%ADD25C,0.236220*%
%ADD26C,0.060000*%
%ADD27R,0.060000X0.060000*%
%ADD28C,0.066929*%
%ADD29R,0.066929X0.066929*%
%ADD30R,0.066929X0.066929*%
%TA.AperFunction,WasherPad*%
%ADD31C,0.060000*%
%TA.AperFunction,ViaPad*%
%ADD32C,0.050000*%
G36*
X4910000Y10000D02*
X25000D01*
Y2315000D01*
X4910000D01*
Y10000D01*
D02*
G37*
%LPC*%
G36*
X130000Y2299169D02*
X112604Y2297456D01*
X95876Y2292382D01*
X80460Y2284142D01*
X66948Y2273052D01*
X55858Y2259540D01*
X47618Y2244124D01*
X42544Y2227396D01*
X40831Y2210000D01*
X42544Y2192604D01*
X47618Y2175876D01*
X55858Y2160460D01*
X66948Y2146948D01*
X80460Y2135858D01*
X95876Y2127618D01*
X112604Y2122544D01*
X130000Y2120831D01*
X147396Y2122544D01*
X164124Y2127618D01*
X179540Y2135858D01*
X193052Y2146948D01*
X204142Y2160460D01*
X212382Y2175876D01*
X217456Y2192604D01*
X219169Y2210000D01*
X217456Y2227396D01*
X212382Y2244124D01*
X204142Y2259540D01*
X193052Y2273052D01*
X179540Y2284142D01*
X164124Y2292382D01*
X147396Y2297456D01*
X130000Y2299169D01*
D02*
G37*
G36*
X4790000Y2289169D02*
X4772604Y2287456D01*
X4755876Y2282382D01*
X4740460Y2274142D01*
X4726948Y2263052D01*
X4715858Y2249540D01*
X4707618Y2234124D01*
X4702544Y2217396D01*
X4700831Y2200000D01*
X4702544Y2182604D01*
X4707618Y2165876D01*
X4715858Y2150460D01*
X4726948Y2136948D01*
X4740460Y2125858D01*
X4755876Y2117618D01*
X4772604Y2112544D01*
X4790000Y2110831D01*
X4807396Y2112544D01*
X4824124Y2117618D01*
X4839540Y2125858D01*
X4853052Y2136948D01*
X4864142Y2150460D01*
X4872382Y2165876D01*
X4877456Y2182604D01*
X4879169Y2200000D01*
X4877456Y2217396D01*
X4872382Y2234124D01*
X4864142Y2249540D01*
X4853052Y2263052D01*
X4839540Y2274142D01*
X4824124Y2282382D01*
X4807396Y2287456D01*
X4790000Y2289169D01*
D02*
G37*
G36*
X2531496Y2063779D02*
X2500000D01*
Y2000787D01*
X2531496D01*
Y2063779D01*
D02*
G37*
G36*
X2480000D02*
X2448504D01*
Y2000787D01*
X2480000D01*
Y2063779D01*
D02*
G37*
G36*
X2111496Y2062992D02*
X2080000D01*
Y2000000D01*
X2111496D01*
Y2062992D01*
D02*
G37*
G36*
X2060000D02*
X2028504D01*
Y2000000D01*
X2060000D01*
Y2062992D01*
D02*
G37*
G36*
X1590000Y2111184D02*
Y1993465D01*
X1707719D01*
X1706924Y2003567D01*
X1702217Y2023175D01*
X1694500Y2041805D01*
X1683964Y2058999D01*
X1670868Y2074332D01*
X1655534Y2087428D01*
X1638341Y2097965D01*
X1619711Y2105681D01*
X1600103Y2110389D01*
X1590000Y2111184D01*
D02*
G37*
G36*
X1570000D02*
X1559897Y2110389D01*
X1540289Y2105681D01*
X1521659Y2097965D01*
X1504466Y2087428D01*
X1489132Y2074332D01*
X1476036Y2058999D01*
X1465500Y2041805D01*
X1457783Y2023175D01*
X1453076Y2003567D01*
X1452281Y1993465D01*
X1570000D01*
Y2111184D01*
D02*
G37*
G36*
X3651124Y2103465D02*
Y1985746D01*
X3768843D01*
X3768048Y1995849D01*
X3763341Y2015457D01*
X3755624Y2034087D01*
X3745088Y2051280D01*
X3731992Y2066614D01*
X3716658Y2079710D01*
X3699464Y2090246D01*
X3680834Y2097963D01*
X3661227Y2102670D01*
X3651124Y2103465D01*
D02*
G37*
G36*
X3011124D02*
Y1985746D01*
X3128843D01*
X3128048Y1995849D01*
X3123341Y2015457D01*
X3115624Y2034087D01*
X3105088Y2051280D01*
X3091992Y2066614D01*
X3076658Y2079710D01*
X3059464Y2090246D01*
X3040834Y2097963D01*
X3021227Y2102670D01*
X3011124Y2103465D01*
D02*
G37*
G36*
X4430000D02*
Y1985746D01*
X4547719D01*
X4546924Y1995849D01*
X4542217Y2015457D01*
X4534500Y2034087D01*
X4523964Y2051280D01*
X4510868Y2066614D01*
X4495534Y2079710D01*
X4478341Y2090246D01*
X4459711Y2097963D01*
X4440103Y2102670D01*
X4430000Y2103465D01*
D02*
G37*
G36*
X4410000D02*
X4399897Y2102670D01*
X4380289Y2097963D01*
X4361659Y2090246D01*
X4344466Y2079710D01*
X4329132Y2066614D01*
X4316036Y2051280D01*
X4305500Y2034087D01*
X4297783Y2015457D01*
X4293076Y1995849D01*
X4292281Y1985746D01*
X4410000D01*
Y2103465D01*
D02*
G37*
G36*
X3631124D02*
X3621021Y2102670D01*
X3601413Y2097963D01*
X3582783Y2090246D01*
X3565590Y2079710D01*
X3550256Y2066614D01*
X3537160Y2051280D01*
X3526624Y2034087D01*
X3518907Y2015457D01*
X3514200Y1995849D01*
X3513405Y1985746D01*
X3631124D01*
Y2103465D01*
D02*
G37*
G36*
X2991124D02*
X2981021Y2102670D01*
X2961413Y2097963D01*
X2942783Y2090246D01*
X2925590Y2079710D01*
X2910256Y2066614D01*
X2897160Y2051280D01*
X2886624Y2034087D01*
X2878907Y2015457D01*
X2874200Y1995849D01*
X2873405Y1985746D01*
X2991124D01*
Y2103465D01*
D02*
G37*
G36*
X2531496Y1980787D02*
X2500000D01*
Y1917795D01*
X2531496D01*
Y1980787D01*
D02*
G37*
G36*
X2480000D02*
X2448504D01*
Y1917795D01*
X2480000D01*
Y1980787D01*
D02*
G37*
G36*
X2111496Y1980000D02*
X2080000D01*
Y1917008D01*
X2111496D01*
Y1980000D01*
D02*
G37*
G36*
X2060000D02*
X2028504D01*
Y1917008D01*
X2060000D01*
Y1980000D01*
D02*
G37*
G36*
X1180000Y1912523D02*
Y1880000D01*
X1212523D01*
X1212346Y1881347D01*
X1207966Y1891920D01*
X1200999Y1900999D01*
X1191920Y1907966D01*
X1181347Y1912346D01*
X1180000Y1912523D01*
D02*
G37*
G36*
X1160000D02*
X1158653Y1912346D01*
X1148080Y1907966D01*
X1139001Y1900999D01*
X1132034Y1891920D01*
X1127654Y1881347D01*
X1127477Y1880000D01*
X1160000D01*
Y1912523D01*
D02*
G37*
G36*
X1707719Y1973465D02*
X1590000D01*
Y1855745D01*
X1600103Y1856540D01*
X1619711Y1861248D01*
X1638341Y1868965D01*
X1655534Y1879501D01*
X1670868Y1892597D01*
X1683964Y1907930D01*
X1694500Y1925124D01*
X1702217Y1943754D01*
X1706924Y1963362D01*
X1707719Y1973465D01*
D02*
G37*
G36*
X1570000D02*
X1452281D01*
X1453076Y1963362D01*
X1457783Y1943754D01*
X1465500Y1925124D01*
X1476036Y1907930D01*
X1489132Y1892597D01*
X1504466Y1879501D01*
X1521659Y1868965D01*
X1540289Y1861248D01*
X1559897Y1856540D01*
X1570000Y1855745D01*
Y1973465D01*
D02*
G37*
G36*
X3768843Y1965746D02*
X3651124D01*
Y1848027D01*
X3661227Y1848822D01*
X3680834Y1853529D01*
X3699464Y1861246D01*
X3716658Y1871782D01*
X3731992Y1884878D01*
X3745088Y1900212D01*
X3755624Y1917405D01*
X3763341Y1936035D01*
X3768048Y1955643D01*
X3768843Y1965746D01*
D02*
G37*
G36*
X3128843D02*
X3011124D01*
Y1848027D01*
X3021227Y1848822D01*
X3040834Y1853529D01*
X3059464Y1861246D01*
X3076658Y1871782D01*
X3091992Y1884878D01*
X3105088Y1900212D01*
X3115624Y1917405D01*
X3123341Y1936035D01*
X3128048Y1955643D01*
X3128843Y1965746D01*
D02*
G37*
G36*
X4547719D02*
X4430000D01*
Y1848027D01*
X4440103Y1848822D01*
X4459711Y1853529D01*
X4478341Y1861246D01*
X4495534Y1871782D01*
X4510868Y1884878D01*
X4523964Y1900212D01*
X4534500Y1917405D01*
X4542217Y1936035D01*
X4546924Y1955643D01*
X4547719Y1965746D01*
D02*
G37*
G36*
X4410000D02*
X4292281D01*
X4293076Y1955643D01*
X4297783Y1936035D01*
X4305500Y1917405D01*
X4316036Y1900212D01*
X4329132Y1884878D01*
X4344466Y1871782D01*
X4361659Y1861246D01*
X4380289Y1853529D01*
X4399897Y1848822D01*
X4410000Y1848027D01*
Y1965746D01*
D02*
G37*
G36*
X3631124D02*
X3513405D01*
X3514200Y1955643D01*
X3518907Y1936035D01*
X3526624Y1917405D01*
X3537160Y1900212D01*
X3550256Y1884878D01*
X3565590Y1871782D01*
X3582783Y1861246D01*
X3601413Y1853529D01*
X3621021Y1848822D01*
X3631124Y1848027D01*
Y1965746D01*
D02*
G37*
G36*
X2991124D02*
X2873405D01*
X2874200Y1955643D01*
X2878907Y1936035D01*
X2886624Y1917405D01*
X2897160Y1900212D01*
X2910256Y1884878D01*
X2925590Y1871782D01*
X2942783Y1861246D01*
X2961413Y1853529D01*
X2981021Y1848822D01*
X2991124Y1848027D01*
Y1965746D01*
D02*
G37*
G36*
X1212523Y1860000D02*
X1180000D01*
Y1827477D01*
X1181347Y1827654D01*
X1191920Y1832034D01*
X1200999Y1839001D01*
X1207966Y1848080D01*
X1212346Y1858653D01*
X1212523Y1860000D01*
D02*
G37*
G36*
X1160000D02*
X1127477D01*
X1127654Y1858653D01*
X1132034Y1848080D01*
X1139001Y1839001D01*
X1148080Y1832034D01*
X1158653Y1827654D01*
X1160000Y1827477D01*
Y1860000D01*
D02*
G37*
G36*
X2531496Y1862992D02*
X2448504D01*
Y1795200D01*
X2111496D01*
Y1862205D01*
X2028504D01*
Y1795200D01*
X1665795D01*
X1655534Y1803964D01*
X1638341Y1814500D01*
X1619711Y1822217D01*
X1600103Y1826924D01*
X1580000Y1828506D01*
X1559897Y1826924D01*
X1540289Y1822217D01*
X1521659Y1814500D01*
X1504466Y1803964D01*
X1489132Y1790868D01*
X1476036Y1775534D01*
X1465500Y1758341D01*
X1457783Y1739711D01*
X1453076Y1720103D01*
X1451494Y1700000D01*
X1453076Y1679897D01*
X1457783Y1660289D01*
X1465500Y1641659D01*
X1476036Y1624466D01*
X1489132Y1609132D01*
X1504466Y1596036D01*
X1521659Y1585500D01*
X1540289Y1577783D01*
X1559897Y1573076D01*
X1580000Y1571494D01*
X1600103Y1573076D01*
X1619711Y1577783D01*
X1638341Y1585500D01*
X1655534Y1596036D01*
X1656757Y1597081D01*
X2915329D01*
X2925590Y1588318D01*
X2942783Y1577781D01*
X2961413Y1570065D01*
X2980893Y1565388D01*
Y1489504D01*
X2821781Y1330392D01*
X2290000D01*
X2282196Y1328840D01*
X2275581Y1324419D01*
X2186553Y1235392D01*
X2135000D01*
X2132238Y1234842D01*
X2103347D01*
Y1195158D01*
X2132238D01*
X2135000Y1194608D01*
X2195000D01*
X2202804Y1196160D01*
X2209419Y1200581D01*
X2298447Y1289608D01*
X2315379D01*
X2315945Y1284842D01*
X2315945Y1284608D01*
Y1245158D01*
X2379252D01*
Y1284608D01*
X2379252Y1284842D01*
X2379818Y1289608D01*
X2830000D01*
X2837804Y1291160D01*
X2844419Y1295581D01*
X2844877Y1296265D01*
X3015429Y1466818D01*
X3019815Y1473382D01*
X3021355Y1481124D01*
Y1565388D01*
X3040834Y1570065D01*
X3059464Y1577781D01*
X3076658Y1588318D01*
X3082400Y1593222D01*
X3559848D01*
X3565590Y1588318D01*
X3582783Y1577781D01*
X3601413Y1570065D01*
X3621021Y1565357D01*
X3641124Y1563775D01*
X3661227Y1565357D01*
X3680834Y1570065D01*
X3699464Y1577781D01*
X3716405Y1588162D01*
X3839608Y1464959D01*
Y1158447D01*
X3816829Y1135667D01*
X3781024D01*
X3778262Y1135118D01*
X3749370D01*
Y1095433D01*
X3778262D01*
X3781024Y1094884D01*
X3825276D01*
X3833079Y1096436D01*
X3839695Y1100856D01*
X3874419Y1135581D01*
X3878840Y1142196D01*
X3880392Y1150000D01*
Y1473405D01*
X3878840Y1481209D01*
X3874419Y1487824D01*
X3773641Y1588602D01*
X3775555Y1593222D01*
X4338724D01*
X4344466Y1588318D01*
X4361659Y1577781D01*
X4380289Y1570065D01*
X4399897Y1565357D01*
X4420000Y1563775D01*
X4440103Y1565357D01*
X4459711Y1570065D01*
X4478341Y1577781D01*
X4495534Y1588318D01*
X4510868Y1601414D01*
X4523964Y1616747D01*
X4534500Y1633941D01*
X4542217Y1652571D01*
X4546924Y1672179D01*
X4548506Y1692281D01*
X4546924Y1712384D01*
X4542217Y1731992D01*
X4534500Y1750622D01*
X4523964Y1767815D01*
X4510868Y1783149D01*
X4495534Y1796245D01*
X4478341Y1806781D01*
X4459711Y1814498D01*
X4440103Y1819206D01*
X4420000Y1820788D01*
X4399897Y1819206D01*
X4380289Y1814498D01*
X4361659Y1806781D01*
X4344466Y1796245D01*
X4338724Y1791341D01*
X3722400D01*
X3716658Y1796245D01*
X3699464Y1806781D01*
X3680834Y1814498D01*
X3661227Y1819206D01*
X3641124Y1820788D01*
X3621021Y1819206D01*
X3601413Y1814498D01*
X3582783Y1806781D01*
X3565590Y1796245D01*
X3559848Y1791341D01*
X3082400D01*
X3076658Y1796245D01*
X3059464Y1806781D01*
X3040834Y1814498D01*
X3021227Y1819206D01*
X3001124Y1820788D01*
X2981021Y1819206D01*
X2961413Y1814498D01*
X2942783Y1806781D01*
X2925590Y1796245D01*
X2924366Y1795200D01*
X2531496D01*
Y1862992D01*
D02*
G37*
G36*
X1990000Y1355294D02*
X1945000D01*
X1939147Y1354130D01*
X1934186Y1350814D01*
X1914186Y1330814D01*
X1910870Y1325853D01*
X1910121Y1322087D01*
X1887441D01*
Y1260748D01*
X1962559D01*
Y1322086D01*
X1966474Y1324706D01*
X1983665D01*
X2054186Y1254186D01*
X2059147Y1250870D01*
X2065000Y1249706D01*
X2103347D01*
Y1245158D01*
X2166653D01*
Y1284842D01*
X2103347D01*
Y1280294D01*
X2071335D01*
X2000814Y1350814D01*
X1995853Y1354130D01*
X1990000Y1355294D01*
D02*
G37*
G36*
X2379252Y1234842D02*
X2315945D01*
Y1195158D01*
X2379252D01*
Y1234842D01*
D02*
G37*
G36*
X2500669Y1207559D02*
X2439331D01*
Y1180294D01*
X2379252D01*
Y1184842D01*
X2315945D01*
Y1145158D01*
X2379252D01*
Y1149706D01*
X2439331D01*
Y1135294D01*
X2439331Y1132441D01*
X2435220Y1130294D01*
X2379252D01*
Y1134842D01*
X2315945D01*
Y1130294D01*
X2260000D01*
X2254147Y1129130D01*
X2249186Y1125814D01*
X2179186Y1055814D01*
X2175870Y1050853D01*
X2174706Y1045000D01*
Y1035669D01*
X2154410D01*
Y974331D01*
X2225590D01*
Y1035669D01*
X2209369D01*
X2207298Y1040669D01*
X2266335Y1099706D01*
X2271701D01*
X2274873Y1095841D01*
X2274706Y1095000D01*
Y1035669D01*
X2252441D01*
Y974331D01*
X2327559D01*
Y1035669D01*
X2305294D01*
Y1088665D01*
X2313004Y1096376D01*
X2315945Y1095157D01*
Y1095158D01*
X2379252D01*
Y1099706D01*
X2433665D01*
X2464706Y1068665D01*
Y1035669D01*
X2444410D01*
Y974331D01*
X2515590D01*
Y1035669D01*
X2495294D01*
Y1075000D01*
X2494130Y1080853D01*
X2490814Y1085814D01*
X2450814Y1125814D01*
X2448380Y1127441D01*
X2449897Y1132441D01*
X2500669D01*
Y1207559D01*
D02*
G37*
G36*
X2733504Y1205591D02*
X2712834D01*
Y1180000D01*
X2733504D01*
Y1205591D01*
D02*
G37*
G36*
X2692834D02*
X2672165D01*
Y1180000D01*
X2692834D01*
Y1205591D01*
D02*
G37*
G36*
X4025276Y1185118D02*
X3961969D01*
Y1145433D01*
X4025276D01*
Y1185118D01*
D02*
G37*
G36*
X3678371Y1295294D02*
X3630000D01*
X3624147Y1294130D01*
X3619186Y1290814D01*
X3599186Y1270814D01*
X3596695Y1267087D01*
X3572441D01*
Y1205748D01*
X3647559D01*
Y1264706D01*
X3672036D01*
X3694706Y1242036D01*
Y1190000D01*
X3695870Y1184147D01*
X3699186Y1179186D01*
X3719186Y1159186D01*
X3724147Y1155870D01*
X3730000Y1154706D01*
X3749370D01*
Y1145433D01*
X3812677D01*
Y1185118D01*
X3777659D01*
X3776181Y1185412D01*
X3775588Y1185294D01*
X3736335D01*
X3725294Y1196335D01*
Y1248371D01*
X3724130Y1254224D01*
X3720814Y1259186D01*
X3689186Y1290814D01*
X3684224Y1294130D01*
X3678371Y1295294D01*
D02*
G37*
G36*
X1213465Y1713465D02*
X1126535D01*
Y1626535D01*
X1149769D01*
Y1475512D01*
X1151309Y1467770D01*
X1155694Y1461206D01*
X1466206Y1150694D01*
X1472770Y1146309D01*
X1480512Y1144769D01*
X1481260D01*
Y1076024D01*
X1599685D01*
Y1144769D01*
X1784193D01*
X1785000Y1144608D01*
X2135000D01*
X2137762Y1145158D01*
X2166653D01*
Y1184842D01*
X2137762D01*
X2135000Y1185392D01*
X1966515D01*
X1962559Y1187914D01*
Y1249252D01*
X1887441D01*
Y1187914D01*
X1883485Y1185392D01*
X1785000D01*
X1784193Y1185231D01*
X1599685D01*
Y1223976D01*
X1481260D01*
Y1199396D01*
X1476640Y1197483D01*
X1190231Y1483892D01*
Y1626535D01*
X1213465D01*
Y1713465D01*
D02*
G37*
G36*
X2733504Y1160000D02*
X2712834D01*
Y1134409D01*
X2733504D01*
Y1160000D01*
D02*
G37*
G36*
X2692834D02*
X2672165D01*
Y1134409D01*
X2692834D01*
Y1160000D01*
D02*
G37*
G36*
X2573504Y1207559D02*
X2512165D01*
Y1132441D01*
X2573504D01*
Y1154706D01*
X2599331D01*
Y1134409D01*
X2660669D01*
Y1205591D01*
X2599331D01*
Y1185294D01*
X2573504D01*
Y1207559D01*
D02*
G37*
G36*
X2166653Y1134842D02*
X2145000D01*
Y1125000D01*
X2166653D01*
Y1134842D01*
D02*
G37*
G36*
X2125000D02*
X2103347D01*
Y1125000D01*
X2125000D01*
Y1134842D01*
D02*
G37*
G36*
X4025276Y1135118D02*
X3961969D01*
Y1095433D01*
X4025276D01*
Y1135118D01*
D02*
G37*
G36*
X2166653Y1105000D02*
X2145000D01*
Y1095158D01*
X2166653D01*
Y1105000D01*
D02*
G37*
G36*
X2125000D02*
X2103347D01*
Y1095158D01*
X2125000D01*
Y1105000D01*
D02*
G37*
G36*
X3647559Y1194252D02*
X3572441D01*
Y1132913D01*
X3594706D01*
Y1106335D01*
X3573878Y1085507D01*
X3445532D01*
X3444724Y1085667D01*
X3325276D01*
X3317472Y1084115D01*
X3310856Y1079695D01*
X3285581Y1054419D01*
X3281160Y1047804D01*
X3279608Y1040000D01*
Y1029213D01*
X3226024D01*
Y910787D01*
X3373976D01*
Y1029213D01*
X3325122D01*
X3323051Y1034213D01*
X3333722Y1044884D01*
X3444724D01*
X3445532Y1045044D01*
X3574468D01*
X3575276Y1044884D01*
X3723747D01*
X3725660Y1040264D01*
X3660689Y975294D01*
X3581549D01*
X3580572Y977651D01*
X3574962Y984962D01*
X3567651Y990572D01*
X3559137Y994099D01*
X3550000Y995302D01*
X3540863Y994099D01*
X3532349Y990572D01*
X3525038Y984962D01*
X3519428Y977651D01*
X3515901Y969137D01*
X3514698Y960000D01*
X3515901Y950863D01*
X3519428Y942349D01*
X3525038Y935038D01*
X3532349Y929428D01*
X3540863Y925901D01*
X3550000Y924698D01*
X3559137Y925901D01*
X3567651Y929428D01*
X3574962Y935038D01*
X3580572Y942349D01*
X3581549Y944706D01*
X3667024D01*
X3672877Y945870D01*
X3677839Y949186D01*
X3744751Y1016098D01*
X3749370Y1014184D01*
Y995433D01*
X3771024D01*
Y1015276D01*
Y1035118D01*
X3770136D01*
X3769421Y1036845D01*
X3768606Y1040118D01*
X3771587Y1044580D01*
X3771748Y1045388D01*
X3771974Y1045433D01*
X3812677D01*
Y1085118D01*
X3771974D01*
X3769213Y1085667D01*
X3623864D01*
X3621805Y1090667D01*
X3624130Y1094147D01*
X3625294Y1100000D01*
Y1132913D01*
X3647559D01*
Y1194252D01*
D02*
G37*
G36*
X4174252Y1097559D02*
X4112913D01*
Y1080570D01*
X4025276D01*
Y1085118D01*
X3961969D01*
Y1045433D01*
X4025276D01*
Y1049982D01*
X4112913D01*
Y1022441D01*
X4174252D01*
Y1097559D01*
D02*
G37*
G36*
X4453504Y1095591D02*
X4432834D01*
Y1070000D01*
X4453504D01*
Y1095591D01*
D02*
G37*
G36*
X4412834D02*
X4392165D01*
Y1070000D01*
X4412834D01*
Y1095591D01*
D02*
G37*
G36*
X3812677Y1035118D02*
X3791024D01*
Y1025276D01*
X3812677D01*
Y1035118D01*
D02*
G37*
G36*
X4453504Y1050000D02*
X4432834D01*
Y1024409D01*
X4453504D01*
Y1050000D01*
D02*
G37*
G36*
X4412834D02*
X4392165D01*
Y1024409D01*
X4412834D01*
Y1050000D01*
D02*
G37*
G36*
X4247087Y1097559D02*
X4185748D01*
Y1022441D01*
X4247087D01*
Y1044706D01*
X4319331D01*
Y1024409D01*
X4380669D01*
Y1095591D01*
X4319331D01*
Y1075294D01*
X4247087D01*
Y1097559D01*
D02*
G37*
G36*
X320000Y1137719D02*
Y1020000D01*
X437719D01*
X436924Y1030103D01*
X432217Y1049711D01*
X424500Y1068341D01*
X413964Y1085534D01*
X400868Y1100868D01*
X385534Y1113964D01*
X368341Y1124500D01*
X349711Y1132217D01*
X330103Y1136924D01*
X320000Y1137719D01*
D02*
G37*
G36*
X300000D02*
X289897Y1136924D01*
X270289Y1132217D01*
X251659Y1124500D01*
X234466Y1113964D01*
X219132Y1100868D01*
X206036Y1085534D01*
X195500Y1068341D01*
X187783Y1049711D01*
X183076Y1030103D01*
X182281Y1020000D01*
X300000D01*
Y1137719D01*
D02*
G37*
G36*
X3812677Y1005276D02*
X3791024D01*
Y995433D01*
X3812677D01*
Y1005276D01*
D02*
G37*
G36*
X2515590Y962835D02*
X2490000D01*
Y942165D01*
X2515590D01*
Y962835D01*
D02*
G37*
G36*
X2470000D02*
X2444410D01*
Y942165D01*
X2470000D01*
Y962835D01*
D02*
G37*
G36*
X2515590Y922165D02*
X2490000D01*
Y901496D01*
X2515590D01*
Y922165D01*
D02*
G37*
G36*
X2470000D02*
X2444410D01*
Y901496D01*
X2470000D01*
Y922165D01*
D02*
G37*
G36*
X437719Y1000000D02*
X320000D01*
Y882281D01*
X330103Y883076D01*
X349711Y887783D01*
X368341Y895500D01*
X385534Y906036D01*
X400868Y919132D01*
X413964Y934466D01*
X424500Y951659D01*
X432217Y970289D01*
X436924Y989897D01*
X437719Y1000000D01*
D02*
G37*
G36*
X300000D02*
X182281D01*
X183076Y989897D01*
X187783Y970289D01*
X195500Y951659D01*
X206036Y934466D01*
X219132Y919132D01*
X234466Y906036D01*
X251659Y895500D01*
X270289Y887783D01*
X289897Y883076D01*
X300000Y882281D01*
Y1000000D01*
D02*
G37*
G36*
X4025276Y1035118D02*
X3961969D01*
Y1030570D01*
X3885276D01*
X3879423Y1029405D01*
X3874461Y1026090D01*
X3799186Y950814D01*
X3795870Y945853D01*
X3794706Y940000D01*
Y917835D01*
X3774410D01*
Y856496D01*
X3845590D01*
Y917835D01*
X3825294D01*
Y933665D01*
X3891610Y999982D01*
X3901820D01*
X3903733Y995362D01*
X3889186Y980814D01*
X3885870Y975853D01*
X3884706Y970000D01*
Y920669D01*
X3862441D01*
Y859331D01*
X3937559D01*
Y920669D01*
X3915294D01*
Y963665D01*
X3951610Y999982D01*
X3961969D01*
Y995433D01*
X4025276D01*
Y999982D01*
X4048390D01*
X4074706Y973665D01*
Y920669D01*
X4054410D01*
Y859331D01*
X4125591D01*
Y920669D01*
X4105294D01*
Y980000D01*
X4104130Y985853D01*
X4100814Y990814D01*
X4065539Y1026090D01*
X4060577Y1029405D01*
X4054724Y1030570D01*
X4025276D01*
Y1035118D01*
D02*
G37*
G36*
X4125591Y847835D02*
X4100000D01*
Y827165D01*
X4125591D01*
Y847835D01*
D02*
G37*
G36*
X4080000D02*
X4054410D01*
Y827165D01*
X4080000D01*
Y847835D01*
D02*
G37*
G36*
X2983779Y831496D02*
X2920787D01*
Y800000D01*
X2983779D01*
Y831496D01*
D02*
G37*
G36*
X2900787D02*
X2837795D01*
Y800000D01*
X2900787D01*
Y831496D01*
D02*
G37*
G36*
X4125591Y807165D02*
X4100000D01*
Y786496D01*
X4125591D01*
Y807165D01*
D02*
G37*
G36*
X4080000D02*
X4054410D01*
Y786496D01*
X4080000D01*
Y807165D01*
D02*
G37*
G36*
X1080000Y860345D02*
X1069558Y858971D01*
X1059827Y854940D01*
X1051472Y848528D01*
X1045060Y840173D01*
X1041030Y830442D01*
X1039655Y820000D01*
X1041030Y809558D01*
X1045060Y799827D01*
X1051472Y791472D01*
X1059827Y785060D01*
X1069558Y781029D01*
X1080000Y779655D01*
X1090442Y781029D01*
X1100173Y785060D01*
X1108528Y791472D01*
X1114940Y799827D01*
X1118970Y809558D01*
X1120345Y820000D01*
X1118970Y830442D01*
X1114940Y840173D01*
X1108528Y848528D01*
X1100173Y854940D01*
X1090442Y858971D01*
X1080000Y860345D01*
D02*
G37*
G36*
X3937559Y847835D02*
X3862441D01*
Y786496D01*
X3877796D01*
X3879867Y781496D01*
X3873665Y775294D01*
X3836335D01*
X3832587Y779042D01*
X3834500Y783662D01*
X3845590D01*
Y845000D01*
X3774410D01*
Y783662D01*
X3785500D01*
X3787413Y779042D01*
X3783665Y775294D01*
X3373976D01*
Y808740D01*
X3226024D01*
Y690315D01*
X3279608D01*
Y387598D01*
X3281160Y379795D01*
X3285581Y373179D01*
X3437874Y220886D01*
Y170669D01*
X3497244D01*
Y194903D01*
X3618976D01*
Y170472D01*
X3678346D01*
Y249528D01*
X3618976D01*
Y225491D01*
X3497244D01*
Y249724D01*
X3466712D01*
X3320392Y396045D01*
Y690315D01*
X3373976D01*
Y744706D01*
X3790000D01*
X3795853Y745870D01*
X3800814Y749186D01*
X3801433Y749804D01*
X3818567D01*
X3819186Y749186D01*
X3824147Y745870D01*
X3830000Y744706D01*
X3880000D01*
X3885853Y745870D01*
X3890814Y749186D01*
X3900000Y758371D01*
X4119186Y539186D01*
X4124147Y535870D01*
X4130000Y534706D01*
X4497008D01*
Y508504D01*
X4642992D01*
Y591496D01*
X4497008D01*
Y565294D01*
X4136335D01*
X3920133Y781496D01*
X3922204Y786496D01*
X3937559D01*
Y847835D01*
D02*
G37*
G36*
X2983779Y780000D02*
X2920787D01*
Y748504D01*
X2983779D01*
Y780000D01*
D02*
G37*
G36*
X2900787D02*
X2837795D01*
Y748504D01*
X2900787D01*
Y780000D01*
D02*
G37*
G36*
X799724Y1340787D02*
X720669D01*
Y1281417D01*
X744706D01*
Y1159685D01*
X720472D01*
Y1100315D01*
X799528D01*
Y1107541D01*
X978996D01*
X986799Y1109093D01*
X993415Y1113514D01*
X1009509Y1129608D01*
X1260787D01*
Y1076024D01*
X1304706D01*
Y1050000D01*
X1305870Y1044147D01*
X1309186Y1039186D01*
X1469186Y879186D01*
X1474147Y875870D01*
X1480000Y874706D01*
X2180000D01*
X2185853Y875870D01*
X2190000Y878641D01*
X2194147Y875870D01*
X2200000Y874706D01*
X2280000D01*
X2285853Y875870D01*
X2289838Y878533D01*
X2389186Y779186D01*
X2394147Y775870D01*
X2400000Y774706D01*
X2637008D01*
Y748504D01*
X2782992D01*
Y831496D01*
X2637008D01*
Y805294D01*
X2406335D01*
X2314752Y896877D01*
X2316666Y901496D01*
X2327559D01*
Y962835D01*
X2299401D01*
X2296142Y963483D01*
X2289252D01*
X2285993Y962835D01*
X2252441D01*
Y905294D01*
X2225590D01*
Y962835D01*
X2154410D01*
Y905294D01*
X1486335D01*
X1335294Y1056335D01*
Y1076024D01*
X1379213D01*
Y1223976D01*
X1260787D01*
Y1170392D01*
X1001062D01*
X993259Y1168840D01*
X986643Y1164419D01*
X970549Y1148325D01*
X799528D01*
Y1159685D01*
X775294D01*
Y1281417D01*
X799724D01*
Y1340787D01*
D02*
G37*
G36*
X1510000Y720000D02*
X1480000D01*
Y690000D01*
X1510000D01*
Y720000D01*
D02*
G37*
G36*
X2260000Y670000D02*
X2230000D01*
Y640000D01*
X2260000D01*
Y670000D01*
D02*
G37*
G36*
X2210000D02*
X2180000D01*
Y640000D01*
X2210000D01*
Y670000D01*
D02*
G37*
G36*
X1560000D02*
X1530000D01*
Y640000D01*
X1560000D01*
Y670000D01*
D02*
G37*
G36*
X1510000D02*
X1480000D01*
Y640000D01*
X1510000D01*
Y670000D01*
D02*
G37*
G36*
X1320000Y860000D02*
X1240000D01*
Y780000D01*
X1320000D01*
Y804706D01*
X1473665D01*
X1553752Y724619D01*
X1551838Y720000D01*
X1530000D01*
Y690000D01*
X1560000D01*
Y711838D01*
X1564619Y713752D01*
X1583050Y695321D01*
X1581030Y690442D01*
X1579655Y680000D01*
X1581030Y669558D01*
X1585060Y659827D01*
X1591472Y651472D01*
X1596369Y647714D01*
X1596168Y641566D01*
X1595043Y640814D01*
X1582895Y628666D01*
X1581662Y626821D01*
X1574583Y619742D01*
X1570000Y620345D01*
X1559558Y618971D01*
X1549827Y614940D01*
X1541472Y608528D01*
X1535060Y600173D01*
X1531030Y590442D01*
X1530352Y585294D01*
X1215591D01*
Y627835D01*
X1144409D01*
Y566496D01*
X1189041D01*
X1196351Y559186D01*
X1201313Y555870D01*
X1207165Y554706D01*
X1538990D01*
X1541472Y551472D01*
X1549827Y545060D01*
X1559558Y541029D01*
X1570000Y539655D01*
X1580442Y541029D01*
X1590173Y545060D01*
X1598528Y551472D01*
X1604940Y559827D01*
X1608970Y569558D01*
X1610345Y580000D01*
X1608970Y590442D01*
X1604940Y600173D01*
X1602045Y603946D01*
X1604524Y606425D01*
X1605756Y608270D01*
X1612193Y614706D01*
X1641745D01*
X1643352Y609971D01*
X1641472Y608528D01*
X1635060Y600173D01*
X1631030Y590442D01*
X1629655Y580000D01*
X1631030Y569558D01*
X1635060Y559827D01*
X1641472Y551472D01*
X1649827Y545060D01*
X1659558Y541029D01*
X1670000Y539655D01*
X1680442Y541029D01*
X1690173Y545060D01*
X1698528Y551472D01*
X1704940Y559827D01*
X1708970Y569558D01*
X1710345Y580000D01*
X1708970Y590442D01*
X1704940Y600173D01*
X1698528Y608528D01*
X1696648Y609971D01*
X1698255Y614706D01*
X1741745D01*
X1743352Y609971D01*
X1741472Y608528D01*
X1735060Y600173D01*
X1731030Y590442D01*
X1729655Y580000D01*
X1731030Y569558D01*
X1735060Y559827D01*
X1741472Y551472D01*
X1749827Y545060D01*
X1759558Y541029D01*
X1770000Y539655D01*
X1780442Y541029D01*
X1785321Y543050D01*
X1809186Y519186D01*
X1814147Y515870D01*
X1820000Y514706D01*
X2430000D01*
X2435853Y515870D01*
X2440814Y519186D01*
X2462298Y540669D01*
X2470000Y539655D01*
X2480442Y541029D01*
X2490173Y545060D01*
X2498528Y551472D01*
X2504940Y559827D01*
X2506961Y564706D01*
X2733665D01*
X2871557Y426815D01*
Y249528D01*
X2857165D01*
Y170472D01*
X2916535D01*
Y194706D01*
X3040236D01*
Y170669D01*
X3099606D01*
Y249724D01*
X3040236D01*
Y225294D01*
X2916535D01*
Y249528D01*
X2902144D01*
Y433150D01*
X2900980Y439002D01*
X2897665Y443964D01*
X2750814Y590814D01*
X2745853Y594130D01*
X2740000Y595294D01*
X2506961D01*
X2504940Y600173D01*
X2498528Y608528D01*
X2490173Y614940D01*
X2480442Y618971D01*
X2470000Y620345D01*
X2459558Y618971D01*
X2449827Y614940D01*
X2441472Y608528D01*
X2435060Y600173D01*
X2431030Y590442D01*
X2429655Y580000D01*
X2431030Y569558D01*
X2435060Y559827D01*
X2436423Y558052D01*
X2423665Y545294D01*
X2398255D01*
X2396648Y550029D01*
X2398528Y551472D01*
X2404940Y559827D01*
X2408970Y569558D01*
X2410345Y580000D01*
X2408970Y590442D01*
X2404940Y600173D01*
X2398528Y608528D01*
X2390173Y614940D01*
X2380442Y618971D01*
X2370000Y620345D01*
X2359558Y618971D01*
X2349827Y614940D01*
X2341472Y608528D01*
X2335060Y600173D01*
X2331030Y590442D01*
X2329655Y580000D01*
X2331030Y569558D01*
X2335060Y559827D01*
X2341472Y551472D01*
X2343352Y550029D01*
X2341745Y545294D01*
X2298255D01*
X2296648Y550029D01*
X2298528Y551472D01*
X2304940Y559827D01*
X2308970Y569558D01*
X2310345Y580000D01*
X2308970Y590442D01*
X2304940Y600173D01*
X2298528Y608528D01*
X2290173Y614940D01*
X2280442Y618971D01*
X2270000Y620345D01*
X2259558Y618971D01*
X2249827Y614940D01*
X2241472Y608528D01*
X2235060Y600173D01*
X2233039Y595294D01*
X1959570D01*
X1914049Y640814D01*
X1909088Y644130D01*
X1903235Y645294D01*
X1748255D01*
X1746648Y650029D01*
X1748528Y651472D01*
X1754940Y659827D01*
X1758970Y669558D01*
X1760345Y680000D01*
X1758970Y690442D01*
X1756950Y695321D01*
X1786335Y724706D01*
X2179290D01*
X2180000Y720000D01*
X2180000Y719706D01*
Y690000D01*
X2260000D01*
Y719706D01*
X2260000Y720000D01*
X2260710Y724706D01*
X2314818D01*
X2315145Y719706D01*
X2309558Y718971D01*
X2299827Y714940D01*
X2291472Y708528D01*
X2285060Y700173D01*
X2281030Y690442D01*
X2279655Y680000D01*
X2281030Y669558D01*
X2285060Y659827D01*
X2291472Y651472D01*
X2299827Y645060D01*
X2309558Y641029D01*
X2320000Y639655D01*
X2330442Y641029D01*
X2340173Y645060D01*
X2348528Y651472D01*
X2354940Y659827D01*
X2358970Y669558D01*
X2360345Y680000D01*
X2358970Y690442D01*
X2354940Y700173D01*
X2348528Y708528D01*
X2340173Y714940D01*
X2330442Y718971D01*
X2324855Y719706D01*
X2325182Y724706D01*
X2353665D01*
X2383050Y695321D01*
X2381030Y690442D01*
X2379655Y680000D01*
X2381030Y669558D01*
X2385060Y659827D01*
X2391472Y651472D01*
X2399827Y645060D01*
X2409558Y641029D01*
X2420000Y639655D01*
X2430442Y641029D01*
X2440173Y645060D01*
X2448528Y651472D01*
X2454940Y659827D01*
X2458970Y669558D01*
X2460345Y680000D01*
X2458970Y690442D01*
X2454940Y700173D01*
X2448528Y708528D01*
X2440173Y714940D01*
X2430442Y718971D01*
X2420000Y720345D01*
X2409558Y718971D01*
X2404679Y716950D01*
X2370814Y750814D01*
X2365853Y754130D01*
X2360000Y755294D01*
X1780000D01*
X1774147Y754130D01*
X1769186Y750814D01*
X1735321Y716950D01*
X1730442Y718971D01*
X1720000Y720345D01*
X1709558Y718971D01*
X1699827Y714940D01*
X1691472Y708528D01*
X1685060Y700173D01*
X1681030Y690442D01*
X1679655Y680000D01*
X1681030Y669558D01*
X1685060Y659827D01*
X1691472Y651472D01*
X1693352Y650029D01*
X1691745Y645294D01*
X1648255D01*
X1646648Y650029D01*
X1648528Y651472D01*
X1654940Y659827D01*
X1658970Y669558D01*
X1660345Y680000D01*
X1658970Y690442D01*
X1654940Y700173D01*
X1648528Y708528D01*
X1640173Y714940D01*
X1630442Y718971D01*
X1620000Y720345D01*
X1609558Y718971D01*
X1604679Y716950D01*
X1490814Y830814D01*
X1485853Y834130D01*
X1480000Y835294D01*
X1320000D01*
Y860000D01*
D02*
G37*
G36*
X1180000Y860345D02*
X1169558Y858971D01*
X1159827Y854940D01*
X1151472Y848528D01*
X1145060Y840173D01*
X1141030Y830442D01*
X1139655Y820000D01*
X1141030Y809558D01*
X1145060Y799827D01*
X1151472Y791472D01*
X1159827Y785060D01*
X1164706Y783039D01*
Y700669D01*
X1144409D01*
Y639331D01*
X1215591D01*
Y700669D01*
X1195294D01*
Y783039D01*
X1200173Y785060D01*
X1208528Y791472D01*
X1214940Y799827D01*
X1218970Y809558D01*
X1220345Y820000D01*
X1218970Y830442D01*
X1214940Y840173D01*
X1208528Y848528D01*
X1200173Y854940D01*
X1190442Y858971D01*
X1180000Y860345D01*
D02*
G37*
G36*
X4843779Y591496D02*
X4780787D01*
Y560000D01*
X4843779D01*
Y591496D01*
D02*
G37*
G36*
X4760787D02*
X4697795D01*
Y560000D01*
X4760787D01*
Y591496D01*
D02*
G37*
G36*
X310000Y855042D02*
X289897Y853460D01*
X270289Y848752D01*
X251659Y841035D01*
X234466Y830499D01*
X219132Y817403D01*
X206036Y802069D01*
X195500Y784876D01*
X187783Y766246D01*
X183076Y746638D01*
X181494Y726535D01*
X183076Y706433D01*
X187783Y686825D01*
X195500Y668195D01*
X206036Y651001D01*
X219132Y635668D01*
X234466Y622572D01*
X251659Y612035D01*
X270289Y604319D01*
X289897Y599611D01*
X310000Y598029D01*
X330103Y599611D01*
X349711Y604319D01*
X368341Y612035D01*
X385534Y622572D01*
X400868Y635668D01*
X413964Y651001D01*
X424500Y668195D01*
X432217Y686825D01*
X436855Y706144D01*
X720472D01*
Y702677D01*
X744903D01*
Y578976D01*
X720669D01*
Y519606D01*
X799724D01*
Y578976D01*
X775491D01*
Y702677D01*
X799528D01*
Y762047D01*
X720472D01*
Y746927D01*
X436855D01*
X432217Y766246D01*
X424500Y784876D01*
X413964Y802069D01*
X400868Y817403D01*
X385534Y830499D01*
X368341Y841035D01*
X349711Y848752D01*
X330103Y853460D01*
X310000Y855042D01*
D02*
G37*
G36*
X4843779Y540000D02*
X4780787D01*
Y508504D01*
X4843779D01*
Y540000D01*
D02*
G37*
G36*
X4760787D02*
X4697795D01*
Y508504D01*
X4760787D01*
Y540000D01*
D02*
G37*
G36*
X4420000Y302523D02*
Y270000D01*
X4452523D01*
X4452346Y271346D01*
X4447966Y281920D01*
X4440999Y290999D01*
X4431920Y297966D01*
X4421346Y302346D01*
X4420000Y302523D01*
D02*
G37*
G36*
X4400000D02*
X4398654Y302346D01*
X4388080Y297966D01*
X4379001Y290999D01*
X4372034Y281920D01*
X4367654Y271346D01*
X4367477Y270000D01*
X4400000D01*
Y302523D01*
D02*
G37*
G36*
X2545000Y404334D02*
X2530498Y402906D01*
X2516553Y398676D01*
X2503702Y391807D01*
X2492438Y382562D01*
X2483193Y371298D01*
X2476324Y358447D01*
X2472094Y344502D01*
X2470666Y330000D01*
X2472094Y315498D01*
X2476324Y301553D01*
X2483193Y288702D01*
X2492438Y277438D01*
X2503702Y268193D01*
X2516553Y261324D01*
X2530498Y257094D01*
X2545000Y255666D01*
X2559502Y257094D01*
X2573447Y261324D01*
X2586298Y268193D01*
X2597562Y277438D01*
X2606807Y288702D01*
X2613676Y301553D01*
X2617906Y315498D01*
X2619334Y330000D01*
X2617906Y344502D01*
X2613676Y358447D01*
X2606807Y371298D01*
X2597562Y382562D01*
X2586298Y391807D01*
X2573447Y398676D01*
X2559502Y402906D01*
X2545000Y404334D01*
D02*
G37*
G36*
X2145000D02*
X2130498Y402906D01*
X2116553Y398676D01*
X2103702Y391807D01*
X2092438Y382562D01*
X2083193Y371298D01*
X2076324Y358447D01*
X2072094Y344502D01*
X2070666Y330000D01*
X2072094Y315498D01*
X2076324Y301553D01*
X2083193Y288702D01*
X2092438Y277438D01*
X2103702Y268193D01*
X2116553Y261324D01*
X2130498Y257094D01*
X2145000Y255666D01*
X2159502Y257094D01*
X2173447Y261324D01*
X2186298Y268193D01*
X2197562Y277438D01*
X2206807Y288702D01*
X2213676Y301553D01*
X2217906Y315498D01*
X2219334Y330000D01*
X2217906Y344502D01*
X2213676Y358447D01*
X2206807Y371298D01*
X2197562Y382562D01*
X2186298Y391807D01*
X2173447Y398676D01*
X2159502Y402906D01*
X2145000Y404334D01*
D02*
G37*
G36*
X1845000D02*
X1830498Y402906D01*
X1816553Y398676D01*
X1803702Y391807D01*
X1792438Y382562D01*
X1783193Y371298D01*
X1776324Y358447D01*
X1772094Y344502D01*
X1770666Y330000D01*
X1772094Y315498D01*
X1776324Y301553D01*
X1783193Y288702D01*
X1792438Y277438D01*
X1803702Y268193D01*
X1816553Y261324D01*
X1830498Y257094D01*
X1845000Y255666D01*
X1859502Y257094D01*
X1873447Y261324D01*
X1886298Y268193D01*
X1897562Y277438D01*
X1906807Y288702D01*
X1913676Y301553D01*
X1917906Y315498D01*
X1919334Y330000D01*
X1917906Y344502D01*
X1913676Y358447D01*
X1906807Y371298D01*
X1897562Y382562D01*
X1886298Y391807D01*
X1873447Y398676D01*
X1859502Y402906D01*
X1845000Y404334D01*
D02*
G37*
G36*
X1445000D02*
X1430498Y402906D01*
X1416553Y398676D01*
X1403702Y391807D01*
X1392438Y382562D01*
X1383193Y371298D01*
X1376324Y358447D01*
X1372094Y344502D01*
X1370666Y330000D01*
X1372094Y315498D01*
X1376324Y301553D01*
X1383193Y288702D01*
X1392438Y277438D01*
X1403702Y268193D01*
X1416553Y261324D01*
X1430498Y257094D01*
X1445000Y255666D01*
X1459502Y257094D01*
X1473447Y261324D01*
X1486298Y268193D01*
X1497562Y277438D01*
X1506807Y288702D01*
X1513676Y301553D01*
X1517906Y315498D01*
X1519334Y330000D01*
X1517906Y344502D01*
X1513676Y358447D01*
X1506807Y371298D01*
X1497562Y382562D01*
X1486298Y391807D01*
X1473447Y398676D01*
X1459502Y402906D01*
X1445000Y404334D01*
D02*
G37*
G36*
X4452523Y250000D02*
X4420000D01*
Y217477D01*
X4421346Y217654D01*
X4431920Y222034D01*
X4440999Y229001D01*
X4447966Y238080D01*
X4452346Y248654D01*
X4452523Y250000D01*
D02*
G37*
G36*
X4400000D02*
X4367477D01*
X4367654Y248654D01*
X4372034Y238080D01*
X4379001Y229001D01*
X4388080Y222034D01*
X4398654Y217654D01*
X4400000Y217477D01*
Y250000D01*
D02*
G37*
G36*
X4253465Y303464D02*
X4166535D01*
Y216536D01*
X4253465D01*
Y303464D01*
D02*
G37*
G36*
X4780000Y209169D02*
X4762604Y207456D01*
X4745876Y202382D01*
X4730460Y194142D01*
X4716948Y183052D01*
X4705858Y169540D01*
X4697618Y154124D01*
X4692544Y137396D01*
X4690831Y120000D01*
X4692544Y102604D01*
X4697618Y85876D01*
X4705858Y70460D01*
X4716948Y56948D01*
X4730460Y45858D01*
X4745876Y37618D01*
X4762604Y32544D01*
X4780000Y30831D01*
X4797396Y32544D01*
X4814124Y37618D01*
X4829540Y45858D01*
X4843052Y56948D01*
X4854142Y70460D01*
X4862382Y85876D01*
X4867456Y102604D01*
X4869169Y120000D01*
X4867456Y137396D01*
X4862382Y154124D01*
X4854142Y169540D01*
X4843052Y183052D01*
X4829540Y194142D01*
X4814124Y202382D01*
X4797396Y207456D01*
X4780000Y209169D01*
D02*
G37*
G36*
X120000Y199169D02*
X102604Y197456D01*
X85876Y192382D01*
X70460Y184142D01*
X56948Y173052D01*
X45858Y159540D01*
X37618Y144124D01*
X32544Y127396D01*
X30831Y110000D01*
X32544Y92604D01*
X37618Y75876D01*
X45858Y60460D01*
X56948Y46948D01*
X70460Y35858D01*
X85876Y27618D01*
X102604Y22544D01*
X120000Y20831D01*
X137396Y22544D01*
X154124Y27618D01*
X169540Y35858D01*
X183052Y46948D01*
X194142Y60460D01*
X202382Y75876D01*
X207456Y92604D01*
X209169Y110000D01*
X207456Y127396D01*
X202382Y144124D01*
X194142Y159540D01*
X183052Y173052D01*
X169540Y184142D01*
X154124Y192382D01*
X137396Y197456D01*
X120000Y199169D01*
D02*
G37*
%LPD*%
G36*
X3830000Y760000D02*
X3790000D01*
X3810000Y780000D01*
X3830000Y760000D01*
D02*
G37*
G36*
X1942421Y569186D02*
X1947382Y565870D01*
X1953235Y564706D01*
X2233039D01*
X2235060Y559827D01*
X2241472Y551472D01*
X2243352Y550029D01*
X2241745Y545294D01*
X1826335D01*
X1806950Y564679D01*
X1808970Y569558D01*
X1810345Y580000D01*
X1808970Y590442D01*
X1804940Y600173D01*
X1798528Y608528D01*
X1796648Y609971D01*
X1798255Y614706D01*
X1896900D01*
X1942421Y569186D01*
D02*
G37*
D10*
X2710000Y790000D02*
D03*
X2910787D02*
D03*
X4570000Y550000D02*
D03*
X4770787D02*
D03*
D11*
X2070000Y1789213D02*
D03*
Y1990000D02*
D03*
X2490000Y1790000D02*
D03*
Y1990787D02*
D03*
D12*
X2347598Y1165000D02*
D03*
Y1215000D02*
D03*
Y1265000D02*
D03*
Y1115000D02*
D03*
X2135000D02*
D03*
Y1265000D02*
D03*
Y1215000D02*
D03*
Y1165000D02*
D03*
X3993622Y1065276D02*
D03*
Y1115276D02*
D03*
Y1165276D02*
D03*
Y1015276D02*
D03*
X3781024D02*
D03*
Y1165276D02*
D03*
Y1115276D02*
D03*
Y1065276D02*
D03*
D13*
X1180000Y670000D02*
D03*
Y597165D02*
D03*
X3810000Y814331D02*
D03*
Y887165D02*
D03*
X2190000Y932165D02*
D03*
Y1005000D02*
D03*
X2480000Y932165D02*
D03*
Y1005000D02*
D03*
X4090000Y817165D02*
D03*
Y890000D02*
D03*
D14*
X1540473Y1150000D02*
D03*
X1320000D02*
D03*
D15*
X3300000Y970000D02*
D03*
Y749528D02*
D03*
D16*
X1925000Y1218583D02*
D03*
Y1291417D02*
D03*
X3610000Y1163583D02*
D03*
Y1236417D02*
D03*
X2290000Y1005000D02*
D03*
Y932165D02*
D03*
X3900000Y890000D02*
D03*
Y817165D02*
D03*
D17*
X4422835Y1060000D02*
D03*
X4350000D02*
D03*
X2702835Y1170000D02*
D03*
X2630000D02*
D03*
D18*
X4143583Y1060000D02*
D03*
X4216417D02*
D03*
X2470000Y1170000D02*
D03*
X2542835D02*
D03*
D19*
X1280000Y820000D02*
X1480000D01*
X1180000Y670000D02*
Y820000D01*
X1560000Y570000D02*
X1570000Y580000D01*
X1207165Y570000D02*
X1560000D01*
X1180000Y597165D02*
X1207165Y570000D01*
X2480000Y580000D02*
X2740000D01*
X2430000Y530000D02*
X2480000Y580000D01*
X2470000D02*
X2480000D01*
X1820000Y530000D02*
X2430000D01*
X1770000Y580000D02*
X1820000Y530000D01*
X754173Y726535D02*
X760000Y732362D01*
X760197Y732165D01*
Y549291D02*
Y732165D01*
X760000Y1310906D02*
X760197Y1311102D01*
X760000Y1130000D02*
Y1310906D01*
X2296142Y948189D02*
X2304528Y939803D01*
X2289252Y948189D02*
X2296142D01*
X2180000Y890000D02*
X2190000Y900000D01*
X1480000Y890000D02*
X2180000D01*
X1320000Y1050000D02*
X1480000Y890000D01*
X1320000Y1050000D02*
Y1150000D01*
X3467559Y210197D02*
Y220039D01*
X3300000Y749528D02*
X3310472Y760000D01*
X2290000Y900000D02*
X2400000Y790000D01*
X2710000D01*
X4210000Y1050000D02*
X4220000Y1060000D01*
X4345551D02*
X4353583Y1051969D01*
X4220000Y1060000D02*
X4345551D01*
X3993622Y1065276D02*
X4121890D01*
X3776063Y1170000D02*
X3776181Y1170118D01*
X3710000Y1190000D02*
Y1248371D01*
X3678371Y1280000D02*
X3710000Y1248371D01*
X3630000Y1280000D02*
X3678371D01*
X3610000Y1260000D02*
X3630000Y1280000D01*
X3610000Y1236417D02*
Y1260000D01*
X3069724Y210000D02*
X3069921Y210197D01*
X2886850Y210000D02*
X3069724D01*
X3648465Y210197D02*
X3648661Y210000D01*
X3467559Y210197D02*
X3648465D01*
X2190000Y900000D02*
Y932165D01*
X3575276Y1065276D02*
X3610000Y1100000D01*
Y1163583D01*
X3730000Y1170000D02*
X3776063D01*
X3710000Y1190000D02*
X3730000Y1170000D01*
X1605858Y630000D02*
X1903235D01*
X1780000Y740000D02*
X2360000D01*
X1720000Y680000D02*
X1780000Y740000D01*
X2360000D02*
X2420000Y680000D01*
X1593709Y617239D02*
Y617851D01*
X1903235Y630000D02*
X1953235Y580000D01*
X1570000Y593530D02*
X1593709Y617239D01*
X1570000Y580000D02*
Y593530D01*
X1593709Y617851D02*
X1605858Y630000D01*
X1953235Y580000D02*
X2270000D01*
X1480000Y820000D02*
X1620000Y680000D01*
X2740000Y580000D02*
X2886850Y433150D01*
Y210000D02*
Y433150D01*
X2347598Y1115000D02*
X2440000D01*
X2480000Y1075000D01*
Y1005000D02*
Y1075000D01*
X2290000Y900000D02*
Y932165D01*
X2190000D02*
X2195000Y927165D01*
X2997265Y1696141D02*
X3001124Y1692281D01*
X1580000Y1700000D02*
X1583859Y1696141D01*
X3900000Y780000D02*
X4130000Y550000D01*
X4570000D01*
X1160000Y1660000D02*
X1170000Y1670000D01*
X3550000Y960000D02*
X3667024D01*
X3757457Y1050433D01*
Y1053521D01*
X3769213Y1065276D01*
X3781024D01*
X3310472Y760000D02*
X3790000D01*
X3776181Y1170118D02*
X3781024Y1165276D01*
X3790000Y760000D02*
X3810000Y780000D01*
X2280000Y890000D02*
X2290000Y900000D01*
X2200000Y890000D02*
X2280000D01*
X2190000Y900000D02*
X2200000Y890000D01*
X3830000Y760000D02*
X3880000D01*
X3900000Y780000D01*
X3810000D02*
X3830000Y760000D01*
X3810000Y780000D02*
Y814331D01*
X3900000Y780000D02*
Y817165D01*
X4090000Y890000D02*
Y980000D01*
X4054724Y1015276D02*
X4090000Y980000D01*
X3993622Y1015276D02*
X4054724D01*
X3810000Y887165D02*
Y940000D01*
X3885276Y1015276D01*
X3945276D01*
X3900000Y890000D02*
Y970000D01*
X3945276Y1015276D01*
X3993622D01*
X2190000Y1005000D02*
Y1045000D01*
X2260000Y1115000D01*
X2310000D01*
X2290000Y1005000D02*
Y1095000D01*
X2310000Y1115000D01*
X2347598D01*
X2542835Y1170000D02*
X2630000D01*
X1925000Y1320000D02*
X1945000Y1340000D01*
X1925000Y1291417D02*
Y1320000D01*
X1945000Y1340000D02*
X1990000D01*
X2065000Y1265000D01*
X2135000D01*
X2347598Y1165000D02*
X2465000D01*
X2470000Y1170000D01*
X3797382Y874331D02*
X3802303D01*
D20*
X310000Y726535D02*
X754173D01*
X760000Y1130000D02*
X762067Y1127933D01*
X978996D01*
X1001062Y1150000D01*
X1320000D01*
X3300000Y387598D02*
X3467559Y220039D01*
X3300000Y387598D02*
Y749528D01*
Y970000D02*
Y1040000D01*
X3325276Y1065276D01*
X3444724D01*
X3860000Y1150000D02*
Y1473405D01*
X3641124Y1692281D02*
X3860000Y1473405D01*
X3825276Y1115276D02*
X3860000Y1150000D01*
X3781024Y1115276D02*
X3825276D01*
X2290000Y1310000D02*
X2830000D01*
X2195000Y1215000D02*
X2290000Y1310000D01*
X2135000Y1215000D02*
X2195000D01*
X3575276Y1065276D02*
X3769213D01*
X1785000Y1165000D02*
X1945000D01*
X2135000D01*
X1925000Y1185000D02*
X1945000Y1165000D01*
X1925000Y1185000D02*
Y1218583D01*
D21*
X2830000Y1310000D02*
X3001124Y1481124D01*
X3444724Y1065276D02*
X3575276D01*
X1170000Y1475512D02*
Y1670000D01*
X1480512Y1165000D02*
X1785000D01*
X1170000Y1475512D02*
X1480512Y1165000D01*
X3001124Y1481124D02*
Y1692281D01*
D22*
X1583859Y1696141D02*
X2997265D01*
X3001124Y1692281D02*
X3641124D01*
X4420000D01*
D23*
X3467559Y210197D02*
D03*
X3648661Y210000D02*
D03*
X3069921Y210197D02*
D03*
X2886850Y210000D02*
D03*
D24*
X760000Y1130000D02*
D03*
X760197Y1311102D02*
D03*
X760000Y732362D02*
D03*
X760197Y549291D02*
D03*
D25*
X4420000Y1975746D02*
D03*
Y1692281D02*
D03*
X3001124Y1975746D02*
D03*
Y1692281D02*
D03*
X1580000Y1983465D02*
D03*
Y1700000D02*
D03*
X3641124Y1975746D02*
D03*
Y1692281D02*
D03*
X310000Y1010000D02*
D03*
Y726535D02*
D03*
D26*
X1080000Y820000D02*
D03*
X1180000D02*
D03*
X1770000Y580000D02*
D03*
X1670000D02*
D03*
X1570000D02*
D03*
X1720000Y680000D02*
D03*
X1620000D02*
D03*
X1845000Y330000D02*
D03*
X1445000D02*
D03*
X2470000Y580000D02*
D03*
X2370000D02*
D03*
X2270000D02*
D03*
X2420000Y680000D02*
D03*
X2320000D02*
D03*
X2545000Y330000D02*
D03*
X2145000D02*
D03*
D27*
X1280000Y820000D02*
D03*
X1520000Y680000D02*
D03*
X2220000D02*
D03*
D28*
X4410000Y260000D02*
D03*
X1170000Y1870000D02*
D03*
D29*
X4210000Y260000D02*
D03*
D30*
X1170000Y1670000D02*
D03*
D31*
X130000Y2210000D02*
D03*
X120000Y110000D02*
D03*
X4790000Y2200000D02*
D03*
X4780000Y120000D02*
D03*
D32*
X3550000Y960000D02*
D03*
%TF.MD5,ff5a948178b8af96332d275058d4c47e*%
M02*
