G04*
G04 #@! TF.GenerationSoftware,Altium Limited,Altium Designer,19.1.8 (144)*
G04*
G04 Layer_Color=16711935*
%FSLAX25Y25*%
%MOIN*%
G70*
G01*
G75*
%ADD10C,0.01000*%
%ADD11C,0.00394*%
D10*
X900Y600D02*
X490300D01*
X490300Y231300D02*
X490300Y600D01*
X900Y231300D02*
X490300D01*
X900D02*
X900Y600D01*
D11*
X216256Y108961D02*
X232004D01*
X216256D02*
Y129039D01*
X232004D01*
Y108961D02*
Y129039D01*
X380858Y98988D02*
X396606D01*
X380858D02*
Y119067D01*
X396606D01*
Y98988D02*
Y119067D01*
X120480Y59126D02*
Y67591D01*
X115520Y59126D02*
Y67591D01*
X120480D01*
X115520Y59126D02*
X120480D01*
X190020Y121268D02*
Y129732D01*
X194980Y121268D02*
Y129732D01*
X190020Y121268D02*
X194980D01*
X190020Y129732D02*
X194980D01*
X358520Y115768D02*
Y124232D01*
X363480Y115768D02*
Y124232D01*
X358520Y115768D02*
X363480D01*
X358520Y124232D02*
X363480D01*
X378520Y80843D02*
X383480D01*
X378520Y89307D02*
X383480D01*
X378520Y80843D02*
Y89307D01*
X383480Y80843D02*
Y89307D01*
X442874Y103520D02*
Y108480D01*
X434409Y103520D02*
Y108480D01*
Y103520D02*
X442874D01*
X434409Y108480D02*
X442874D01*
X216520Y92626D02*
X221480D01*
X216520Y101091D02*
X221480D01*
X216520Y92626D02*
Y101091D01*
X221480Y92626D02*
Y101091D01*
X245520Y92626D02*
X250480D01*
X245520Y101091D02*
X250480D01*
X245520Y92626D02*
Y101091D01*
X250480Y92626D02*
Y101091D01*
X270874Y114520D02*
Y119480D01*
X262409Y114520D02*
Y119480D01*
Y114520D02*
X270874D01*
X262409Y119480D02*
X270874D01*
X406520Y81126D02*
X411480D01*
X406520Y89591D02*
X411480D01*
X406520Y81126D02*
Y89591D01*
X411480Y81126D02*
Y89591D01*
X413768Y103520D02*
Y108480D01*
X422232Y103520D02*
Y108480D01*
X413768D02*
X422232D01*
X413768Y103520D02*
X422232D01*
X226520Y101091D02*
X231480D01*
X226520Y92626D02*
X231480D01*
Y101091D01*
X226520Y92626D02*
Y101091D01*
X246410Y114520D02*
Y119480D01*
X254874Y114520D02*
Y119480D01*
X246410D02*
X254874D01*
X246410Y114520D02*
X254874D01*
X387520Y89591D02*
X392480D01*
X387520Y81126D02*
X392480D01*
Y89591D01*
X387520Y81126D02*
Y89591D01*
M02*
