M48
;Layer_Color=9474304
;FILE_FORMAT=2:5
INCH,TZ
;TYPE=PLATED
T1F00S00C0.02800
T3F00S00C0.03504
T4F00S00C0.04016
T5F00S00C0.04331
T6F00S00C0.17717
;TYPE=NON_PLATED
T7F00S00C0.12795
T8F00S00C0.15748
%
T01
X355000Y96000
T03
X157000Y58000
X167000
X177000
X172000Y68000
X162000
X152000
X222000
X232000
X242000
X247000Y58000
X237000
X227000
T04
X108000Y82000
X118000
X128000
T05
X421000Y26000
X441000
X117000Y167000
Y187000
T06
X31000Y72654
X442000Y169228
Y197575
X364112
Y169228
X300112
Y197575
X158000Y198346
Y170000
X31000Y101000
T07
X144500Y33000
X184500
X214500
X254500
T08
X12000Y11000
X478000Y12000
X479000Y220000
X13000Y221000
M30
