G04*
G04 #@! TF.GenerationSoftware,Altium Limited,Altium Designer,19.1.8 (144)*
G04*
G04 Layer_Physical_Order=2*
G04 Layer_Color=16711680*
%FSLAX25Y25*%
%MOIN*%
G70*
G01*
G75*
%ADD10C,0.01000*%
%ADD44R,0.03937X0.05906*%
%ADD45R,0.05906X0.03937*%
%ADD46C,0.23622*%
%ADD47C,0.06000*%
%ADD48R,0.06000X0.06000*%
%ADD49C,0.06693*%
%ADD50R,0.06693X0.06693*%
%ADD51R,0.06693X0.06693*%
%ADD52C,0.05000*%
G36*
X491000Y1000D02*
X2000D01*
Y232000D01*
X491000D01*
Y1000D01*
D02*
G37*
%LPC*%
G36*
X13000Y229917D02*
X11260Y229746D01*
X9588Y229238D01*
X8046Y228414D01*
X6695Y227305D01*
X5586Y225954D01*
X4762Y224412D01*
X4254Y222740D01*
X4083Y221000D01*
X4254Y219260D01*
X4762Y217588D01*
X5586Y216046D01*
X6695Y214695D01*
X8046Y213586D01*
X9588Y212762D01*
X11260Y212254D01*
X13000Y212083D01*
X14740Y212254D01*
X16412Y212762D01*
X17954Y213586D01*
X19305Y214695D01*
X20414Y216046D01*
X21238Y217588D01*
X21746Y219260D01*
X21917Y221000D01*
X21746Y222740D01*
X21238Y224412D01*
X20414Y225954D01*
X19305Y227305D01*
X17954Y228414D01*
X16412Y229238D01*
X14740Y229746D01*
X13000Y229917D01*
D02*
G37*
G36*
X479000Y228917D02*
X477260Y228746D01*
X475588Y228238D01*
X474046Y227414D01*
X472695Y226305D01*
X471586Y224954D01*
X470762Y223412D01*
X470254Y221740D01*
X470083Y220000D01*
X470254Y218260D01*
X470762Y216588D01*
X471586Y215046D01*
X472695Y213695D01*
X474046Y212586D01*
X475588Y211762D01*
X477260Y211254D01*
X479000Y211083D01*
X480740Y211254D01*
X482412Y211762D01*
X483954Y212586D01*
X485305Y213695D01*
X486414Y215046D01*
X487238Y216588D01*
X487746Y218260D01*
X487917Y220000D01*
X487746Y221740D01*
X487238Y223412D01*
X486414Y224954D01*
X485305Y226305D01*
X483954Y227414D01*
X482412Y228238D01*
X480740Y228746D01*
X479000Y228917D01*
D02*
G37*
G36*
X159000Y211118D02*
Y199346D01*
X170772D01*
X170692Y200357D01*
X170222Y202318D01*
X169450Y204181D01*
X168396Y205900D01*
X167087Y207433D01*
X165553Y208743D01*
X163834Y209797D01*
X161971Y210568D01*
X160010Y211039D01*
X159000Y211118D01*
D02*
G37*
G36*
X157000D02*
X155990Y211039D01*
X154029Y210568D01*
X152166Y209797D01*
X150447Y208743D01*
X148913Y207433D01*
X147604Y205900D01*
X146550Y204181D01*
X145778Y202318D01*
X145308Y200357D01*
X145228Y199346D01*
X157000D01*
Y211118D01*
D02*
G37*
G36*
X365112Y210347D02*
Y198575D01*
X376884D01*
X376805Y199585D01*
X376334Y201546D01*
X375562Y203409D01*
X374509Y205128D01*
X373199Y206661D01*
X371666Y207971D01*
X369946Y209025D01*
X368083Y209796D01*
X366123Y210267D01*
X365112Y210347D01*
D02*
G37*
G36*
X301112D02*
Y198575D01*
X312884D01*
X312805Y199585D01*
X312334Y201546D01*
X311562Y203409D01*
X310509Y205128D01*
X309199Y206661D01*
X307666Y207971D01*
X305946Y209025D01*
X304083Y209796D01*
X302123Y210267D01*
X301112Y210347D01*
D02*
G37*
G36*
X443000D02*
Y198575D01*
X454772D01*
X454692Y199585D01*
X454222Y201546D01*
X453450Y203409D01*
X452396Y205128D01*
X451087Y206661D01*
X449553Y207971D01*
X447834Y209025D01*
X445971Y209796D01*
X444010Y210267D01*
X443000Y210347D01*
D02*
G37*
G36*
X441000D02*
X439990Y210267D01*
X438029Y209796D01*
X436166Y209025D01*
X434447Y207971D01*
X432913Y206661D01*
X431604Y205128D01*
X430550Y203409D01*
X429778Y201546D01*
X429308Y199585D01*
X429228Y198575D01*
X441000D01*
Y210347D01*
D02*
G37*
G36*
X363112D02*
X362102Y210267D01*
X360141Y209796D01*
X358278Y209025D01*
X356559Y207971D01*
X355026Y206661D01*
X353716Y205128D01*
X352662Y203409D01*
X351891Y201546D01*
X351420Y199585D01*
X351341Y198575D01*
X363112D01*
Y210347D01*
D02*
G37*
G36*
X299112D02*
X298102Y210267D01*
X296141Y209796D01*
X294278Y209025D01*
X292559Y207971D01*
X291026Y206661D01*
X289716Y205128D01*
X288662Y203409D01*
X287891Y201546D01*
X287420Y199585D01*
X287340Y198575D01*
X299112D01*
Y210347D01*
D02*
G37*
G36*
X118000Y191252D02*
Y188000D01*
X121252D01*
X121235Y188135D01*
X120797Y189192D01*
X120100Y190100D01*
X119192Y190797D01*
X118135Y191235D01*
X118000Y191252D01*
D02*
G37*
G36*
X116000D02*
X115865Y191235D01*
X114808Y190797D01*
X113900Y190100D01*
X113203Y189192D01*
X112765Y188135D01*
X112748Y188000D01*
X116000D01*
Y191252D01*
D02*
G37*
G36*
X170772Y197346D02*
X159000D01*
Y185574D01*
X160010Y185654D01*
X161971Y186125D01*
X163834Y186897D01*
X165553Y187950D01*
X167087Y189260D01*
X168396Y190793D01*
X169450Y192512D01*
X170222Y194375D01*
X170692Y196336D01*
X170772Y197346D01*
D02*
G37*
G36*
X157000D02*
X145228D01*
X145308Y196336D01*
X145778Y194375D01*
X146550Y192512D01*
X147604Y190793D01*
X148913Y189260D01*
X150447Y187950D01*
X152166Y186897D01*
X154029Y186125D01*
X155990Y185654D01*
X157000Y185574D01*
Y197346D01*
D02*
G37*
G36*
X376884Y196575D02*
X365112D01*
Y184803D01*
X366123Y184882D01*
X368083Y185353D01*
X369946Y186125D01*
X371666Y187178D01*
X373199Y188488D01*
X374509Y190021D01*
X375562Y191741D01*
X376334Y193604D01*
X376805Y195564D01*
X376884Y196575D01*
D02*
G37*
G36*
X312884D02*
X301112D01*
Y184803D01*
X302123Y184882D01*
X304083Y185353D01*
X305946Y186125D01*
X307666Y187178D01*
X309199Y188488D01*
X310509Y190021D01*
X311562Y191741D01*
X312334Y193604D01*
X312805Y195564D01*
X312884Y196575D01*
D02*
G37*
G36*
X454772D02*
X443000D01*
Y184803D01*
X444010Y184882D01*
X445971Y185353D01*
X447834Y186125D01*
X449553Y187178D01*
X451087Y188488D01*
X452396Y190021D01*
X453450Y191741D01*
X454222Y193604D01*
X454692Y195564D01*
X454772Y196575D01*
D02*
G37*
G36*
X441000D02*
X429228D01*
X429308Y195564D01*
X429778Y193604D01*
X430550Y191741D01*
X431604Y190021D01*
X432913Y188488D01*
X434447Y187178D01*
X436166Y186125D01*
X438029Y185353D01*
X439990Y184882D01*
X441000Y184803D01*
Y196575D01*
D02*
G37*
G36*
X363112D02*
X351341D01*
X351420Y195564D01*
X351891Y193604D01*
X352662Y191741D01*
X353716Y190021D01*
X355026Y188488D01*
X356559Y187178D01*
X358278Y186125D01*
X360141Y185353D01*
X362102Y184882D01*
X363112Y184803D01*
Y196575D01*
D02*
G37*
G36*
X299112D02*
X287340D01*
X287420Y195564D01*
X287891Y193604D01*
X288662Y191741D01*
X289716Y190021D01*
X291026Y188488D01*
X292559Y187178D01*
X294278Y186125D01*
X296141Y185353D01*
X298102Y184882D01*
X299112Y184803D01*
Y196575D01*
D02*
G37*
G36*
X121252Y186000D02*
X118000D01*
Y182748D01*
X118135Y182765D01*
X119192Y183203D01*
X120100Y183900D01*
X120797Y184808D01*
X121235Y185865D01*
X121252Y186000D01*
D02*
G37*
G36*
X116000D02*
X112748D01*
X112765Y185865D01*
X113203Y184808D01*
X113900Y183900D01*
X114808Y183203D01*
X115865Y182765D01*
X116000Y182748D01*
Y186000D01*
D02*
G37*
G36*
X121346Y171346D02*
X112654D01*
Y162654D01*
X121346D01*
Y171346D01*
D02*
G37*
G36*
X158000Y182851D02*
X155990Y182692D01*
X154029Y182222D01*
X152166Y181450D01*
X150447Y180396D01*
X148913Y179087D01*
X147604Y177553D01*
X146550Y175834D01*
X145778Y173971D01*
X145308Y172010D01*
X145149Y170000D01*
X145308Y167990D01*
X145778Y166029D01*
X146550Y164166D01*
X147604Y162447D01*
X148913Y160913D01*
X150447Y159604D01*
X152166Y158550D01*
X154029Y157778D01*
X155990Y157308D01*
X158000Y157149D01*
X160010Y157308D01*
X161971Y157778D01*
X163834Y158550D01*
X165553Y159604D01*
X167087Y160913D01*
X168396Y162447D01*
X169450Y164166D01*
X170222Y166029D01*
X170692Y167990D01*
X170851Y170000D01*
X170692Y172010D01*
X170222Y173971D01*
X169450Y175834D01*
X168396Y177553D01*
X167087Y179087D01*
X165553Y180396D01*
X163834Y181450D01*
X161971Y182222D01*
X160010Y182692D01*
X158000Y182851D01*
D02*
G37*
G36*
X442000Y182079D02*
X439990Y181921D01*
X438029Y181450D01*
X436166Y180678D01*
X434447Y179624D01*
X432913Y178315D01*
X431604Y176781D01*
X430550Y175062D01*
X429778Y173199D01*
X429308Y171238D01*
X429149Y169228D01*
X429308Y167218D01*
X429778Y165257D01*
X430550Y163394D01*
X431604Y161675D01*
X432913Y160141D01*
X434447Y158832D01*
X436166Y157778D01*
X438029Y157007D01*
X439990Y156536D01*
X442000Y156377D01*
X444010Y156536D01*
X445971Y157007D01*
X447834Y157778D01*
X449553Y158832D01*
X451087Y160141D01*
X452396Y161675D01*
X453450Y163394D01*
X454222Y165257D01*
X454692Y167218D01*
X454851Y169228D01*
X454692Y171238D01*
X454222Y173199D01*
X453450Y175062D01*
X452396Y176781D01*
X451087Y178315D01*
X449553Y179624D01*
X447834Y180678D01*
X445971Y181450D01*
X444010Y181921D01*
X442000Y182079D01*
D02*
G37*
G36*
X364112D02*
X362102Y181921D01*
X360141Y181450D01*
X358278Y180678D01*
X356559Y179624D01*
X355026Y178315D01*
X353716Y176781D01*
X352662Y175062D01*
X351891Y173199D01*
X351420Y171238D01*
X351262Y169228D01*
X351420Y167218D01*
X351891Y165257D01*
X352662Y163394D01*
X353716Y161675D01*
X355026Y160141D01*
X356559Y158832D01*
X358278Y157778D01*
X360141Y157007D01*
X362102Y156536D01*
X364112Y156377D01*
X366123Y156536D01*
X368083Y157007D01*
X369946Y157778D01*
X371666Y158832D01*
X373199Y160141D01*
X374509Y161675D01*
X375562Y163394D01*
X376334Y165257D01*
X376805Y167218D01*
X376963Y169228D01*
X376805Y171238D01*
X376334Y173199D01*
X375562Y175062D01*
X374509Y176781D01*
X373199Y178315D01*
X371666Y179624D01*
X369946Y180678D01*
X368083Y181450D01*
X366123Y181921D01*
X364112Y182079D01*
D02*
G37*
G36*
X300112D02*
X298102Y181921D01*
X296141Y181450D01*
X294278Y180678D01*
X292559Y179624D01*
X291026Y178315D01*
X289716Y176781D01*
X288662Y175062D01*
X287891Y173199D01*
X287420Y171238D01*
X287262Y169228D01*
X287420Y167218D01*
X287891Y165257D01*
X288662Y163394D01*
X289716Y161675D01*
X291026Y160141D01*
X292559Y158832D01*
X294278Y157778D01*
X296141Y157007D01*
X298102Y156536D01*
X300112Y156377D01*
X302123Y156536D01*
X304083Y157007D01*
X305946Y157778D01*
X307666Y158832D01*
X309199Y160141D01*
X310509Y161675D01*
X311562Y163394D01*
X312334Y165257D01*
X312805Y167218D01*
X312963Y169228D01*
X312805Y171238D01*
X312334Y173199D01*
X311562Y175062D01*
X310509Y176781D01*
X309199Y178315D01*
X307666Y179624D01*
X305946Y180678D01*
X304083Y181450D01*
X302123Y181921D01*
X300112Y182079D01*
D02*
G37*
G36*
X79972Y134079D02*
X72067D01*
Y128142D01*
X79972D01*
Y134079D01*
D02*
G37*
G36*
X79953Y115969D02*
X72047D01*
Y110031D01*
X79953D01*
Y115969D01*
D02*
G37*
G36*
X32000Y113772D02*
Y102000D01*
X43772D01*
X43692Y103010D01*
X43222Y104971D01*
X42450Y106834D01*
X41396Y108553D01*
X40087Y110087D01*
X38553Y111396D01*
X36834Y112450D01*
X34971Y113222D01*
X33010Y113692D01*
X32000Y113772D01*
D02*
G37*
G36*
X30000D02*
X28990Y113692D01*
X27029Y113222D01*
X25166Y112450D01*
X23447Y111396D01*
X21913Y110087D01*
X20604Y108553D01*
X19550Y106834D01*
X18778Y104971D01*
X18308Y103010D01*
X18228Y102000D01*
X30000D01*
Y113772D01*
D02*
G37*
G36*
X43772Y100000D02*
X32000D01*
Y88228D01*
X33010Y88308D01*
X34971Y88778D01*
X36834Y89550D01*
X38553Y90604D01*
X40087Y91913D01*
X41396Y93447D01*
X42450Y95166D01*
X43222Y97029D01*
X43692Y98990D01*
X43772Y100000D01*
D02*
G37*
G36*
X30000D02*
X18228D01*
X18308Y98990D01*
X18778Y97029D01*
X19550Y95166D01*
X20604Y93447D01*
X21913Y91913D01*
X23447Y90604D01*
X25166Y89550D01*
X27029Y88778D01*
X28990Y88308D01*
X30000Y88228D01*
Y100000D01*
D02*
G37*
G36*
X132000Y86000D02*
X124000D01*
Y78000D01*
X132000D01*
Y86000D01*
D02*
G37*
G36*
X118000Y86035D02*
X116956Y85897D01*
X115983Y85494D01*
X115147Y84853D01*
X114506Y84017D01*
X114103Y83044D01*
X113965Y82000D01*
X114103Y80956D01*
X114506Y79983D01*
X115147Y79147D01*
X115983Y78506D01*
X116956Y78103D01*
X118000Y77965D01*
X119044Y78103D01*
X120017Y78506D01*
X120853Y79147D01*
X121494Y79983D01*
X121897Y80956D01*
X122035Y82000D01*
X121897Y83044D01*
X121494Y84017D01*
X120853Y84853D01*
X120017Y85494D01*
X119044Y85897D01*
X118000Y86035D01*
D02*
G37*
G36*
X108000D02*
X106956Y85897D01*
X105983Y85494D01*
X105147Y84853D01*
X104506Y84017D01*
X104103Y83044D01*
X103965Y82000D01*
X104103Y80956D01*
X104506Y79983D01*
X105147Y79147D01*
X105983Y78506D01*
X106956Y78103D01*
X108000Y77965D01*
X109044Y78103D01*
X110017Y78506D01*
X110853Y79147D01*
X111494Y79983D01*
X111897Y80956D01*
X112034Y82000D01*
X111897Y83044D01*
X111494Y84017D01*
X110853Y84853D01*
X110017Y85494D01*
X109044Y85897D01*
X108000Y86035D01*
D02*
G37*
G36*
X79953Y76205D02*
X72047D01*
Y70268D01*
X79953D01*
Y76205D01*
D02*
G37*
G36*
X221000Y72000D02*
X218000D01*
Y69000D01*
X221000D01*
Y72000D01*
D02*
G37*
G36*
X156000D02*
X153000D01*
Y69000D01*
X156000D01*
Y72000D01*
D02*
G37*
G36*
X151000D02*
X148000D01*
Y69000D01*
X151000D01*
Y72000D01*
D02*
G37*
G36*
X226000Y67000D02*
X223000D01*
Y64000D01*
X226000D01*
Y67000D01*
D02*
G37*
G36*
X221000D02*
X218000D01*
Y64000D01*
X221000D01*
Y67000D01*
D02*
G37*
G36*
X156000D02*
X153000D01*
Y64000D01*
X156000D01*
Y67000D01*
D02*
G37*
G36*
X151000D02*
X148000D01*
Y64000D01*
X151000D01*
Y67000D01*
D02*
G37*
G36*
X242000Y72035D02*
X240956Y71897D01*
X239983Y71494D01*
X239147Y70853D01*
X238506Y70017D01*
X238103Y69044D01*
X237965Y68000D01*
X238103Y66956D01*
X238506Y65983D01*
X239147Y65147D01*
X239983Y64506D01*
X240956Y64103D01*
X242000Y63965D01*
X243044Y64103D01*
X244017Y64506D01*
X244853Y65147D01*
X245494Y65983D01*
X245897Y66956D01*
X246035Y68000D01*
X245897Y69044D01*
X245494Y70017D01*
X244853Y70853D01*
X244017Y71494D01*
X243044Y71897D01*
X242000Y72035D01*
D02*
G37*
G36*
X225000Y76529D02*
X169000D01*
X168415Y76413D01*
X167919Y76081D01*
X163532Y71695D01*
X163044Y71897D01*
X162000Y72035D01*
X160956Y71897D01*
X159983Y71494D01*
X159147Y70853D01*
X158506Y70017D01*
X158103Y69044D01*
X157966Y68000D01*
X158103Y66956D01*
X158506Y65983D01*
X159147Y65147D01*
X159983Y64506D01*
X160956Y64103D01*
X162000Y63965D01*
X163044Y64103D01*
X164017Y64506D01*
X164853Y65147D01*
X165494Y65983D01*
X165897Y66956D01*
X166034Y68000D01*
X165897Y69044D01*
X165695Y69532D01*
X169633Y73471D01*
X224366D01*
X225375Y72462D01*
X225184Y72000D01*
X223000D01*
Y69000D01*
X226000D01*
Y71184D01*
X226462Y71375D01*
X228305Y69532D01*
X228103Y69044D01*
X227965Y68000D01*
X228103Y66956D01*
X228506Y65983D01*
X229147Y65147D01*
X229983Y64506D01*
X230956Y64103D01*
X232000Y63965D01*
X233044Y64103D01*
X234017Y64506D01*
X234853Y65147D01*
X235494Y65983D01*
X235897Y66956D01*
X236034Y68000D01*
X235897Y69044D01*
X235494Y70017D01*
X234853Y70853D01*
X234017Y71494D01*
X233044Y71897D01*
X232000Y72035D01*
X230956Y71897D01*
X230468Y71695D01*
X226081Y76081D01*
X225585Y76413D01*
X225000Y76529D01*
D02*
G37*
G36*
X172000Y72035D02*
X170956Y71897D01*
X169983Y71494D01*
X169147Y70853D01*
X168506Y70017D01*
X168103Y69044D01*
X167965Y68000D01*
X168103Y66956D01*
X168506Y65983D01*
X169147Y65147D01*
X169983Y64506D01*
X170956Y64103D01*
X172000Y63965D01*
X173044Y64103D01*
X174017Y64506D01*
X174853Y65147D01*
X175494Y65983D01*
X175897Y66956D01*
X176034Y68000D01*
X175897Y69044D01*
X175494Y70017D01*
X174853Y70853D01*
X174017Y71494D01*
X173044Y71897D01*
X172000Y72035D01*
D02*
G37*
G36*
X31000Y85504D02*
X28990Y85346D01*
X27029Y84875D01*
X25166Y84104D01*
X23447Y83050D01*
X21913Y81740D01*
X20604Y80207D01*
X19550Y78488D01*
X18778Y76625D01*
X18308Y74664D01*
X18149Y72654D01*
X18308Y70643D01*
X18778Y68682D01*
X19550Y66820D01*
X20604Y65100D01*
X21913Y63567D01*
X23447Y62257D01*
X25166Y61203D01*
X27029Y60432D01*
X28990Y59961D01*
X31000Y59803D01*
X33010Y59961D01*
X34971Y60432D01*
X36834Y61203D01*
X38553Y62257D01*
X40087Y63567D01*
X41396Y65100D01*
X42450Y66820D01*
X43222Y68682D01*
X43692Y70643D01*
X43851Y72654D01*
X43692Y74664D01*
X43222Y76625D01*
X42450Y78488D01*
X41396Y80207D01*
X40087Y81740D01*
X38553Y83050D01*
X36834Y84104D01*
X34971Y84875D01*
X33010Y85346D01*
X31000Y85504D01*
D02*
G37*
G36*
X247000Y62034D02*
X245956Y61897D01*
X244983Y61494D01*
X244147Y60853D01*
X243506Y60017D01*
X243103Y59044D01*
X242966Y58000D01*
X243103Y56956D01*
X243506Y55983D01*
X244147Y55147D01*
X244983Y54506D01*
X245956Y54103D01*
X247000Y53966D01*
X248044Y54103D01*
X249017Y54506D01*
X249853Y55147D01*
X250494Y55983D01*
X250897Y56956D01*
X251034Y58000D01*
X250897Y59044D01*
X250494Y60017D01*
X249853Y60853D01*
X249017Y61494D01*
X248044Y61897D01*
X247000Y62034D01*
D02*
G37*
G36*
X157000D02*
X155956Y61897D01*
X154983Y61494D01*
X154147Y60853D01*
X153506Y60017D01*
X153103Y59044D01*
X152965Y58000D01*
X153103Y56956D01*
X153506Y55983D01*
X154147Y55147D01*
X154983Y54506D01*
X155956Y54103D01*
X157000Y53966D01*
X158044Y54103D01*
X159017Y54506D01*
X159853Y55147D01*
X160494Y55983D01*
X160897Y56956D01*
X161035Y58000D01*
X160897Y59044D01*
X160494Y60017D01*
X159853Y60853D01*
X159017Y61494D01*
X158044Y61897D01*
X157000Y62034D01*
D02*
G37*
G36*
X237000D02*
X235956Y61897D01*
X234983Y61494D01*
X234147Y60853D01*
X233506Y60017D01*
X233103Y59044D01*
X232965Y58000D01*
X233103Y56956D01*
X233305Y56468D01*
X230366Y53529D01*
X227518D01*
X227485Y54029D01*
X228044Y54103D01*
X229017Y54506D01*
X229853Y55147D01*
X230494Y55983D01*
X230897Y56956D01*
X231034Y58000D01*
X230897Y59044D01*
X230494Y60017D01*
X229853Y60853D01*
X229017Y61494D01*
X228044Y61897D01*
X227000Y62034D01*
X225956Y61897D01*
X224983Y61494D01*
X224147Y60853D01*
X223506Y60017D01*
X223103Y59044D01*
X222966Y58000D01*
X223103Y56956D01*
X223506Y55983D01*
X224147Y55147D01*
X224983Y54506D01*
X225956Y54103D01*
X226515Y54029D01*
X226482Y53529D01*
X177518D01*
X177486Y54029D01*
X178044Y54103D01*
X179017Y54506D01*
X179853Y55147D01*
X180494Y55983D01*
X180897Y56956D01*
X181035Y58000D01*
X180897Y59044D01*
X180494Y60017D01*
X179853Y60853D01*
X179017Y61494D01*
X178044Y61897D01*
X177000Y62034D01*
X175956Y61897D01*
X174983Y61494D01*
X174147Y60853D01*
X173506Y60017D01*
X173103Y59044D01*
X172966Y58000D01*
X173103Y56956D01*
X173506Y55983D01*
X174147Y55147D01*
X174983Y54506D01*
X175956Y54103D01*
X176514Y54029D01*
X176482Y53529D01*
X173634D01*
X170695Y56468D01*
X170897Y56956D01*
X171035Y58000D01*
X170897Y59044D01*
X170494Y60017D01*
X169853Y60853D01*
X169017Y61494D01*
X168044Y61897D01*
X167000Y62034D01*
X165956Y61897D01*
X164983Y61494D01*
X164147Y60853D01*
X163506Y60017D01*
X163103Y59044D01*
X162966Y58000D01*
X163103Y56956D01*
X163506Y55983D01*
X164147Y55147D01*
X164983Y54506D01*
X165956Y54103D01*
X167000Y53966D01*
X168044Y54103D01*
X168532Y54305D01*
X171919Y50919D01*
X172415Y50587D01*
X173000Y50471D01*
X231000D01*
X231585Y50587D01*
X232081Y50919D01*
X235468Y54305D01*
X235956Y54103D01*
X237000Y53966D01*
X238044Y54103D01*
X239017Y54506D01*
X239853Y55147D01*
X240494Y55983D01*
X240897Y56956D01*
X241035Y58000D01*
X240897Y59044D01*
X240494Y60017D01*
X239853Y60853D01*
X239017Y61494D01*
X238044Y61897D01*
X237000Y62034D01*
D02*
G37*
G36*
X79972Y57898D02*
X72067D01*
Y51961D01*
X79972D01*
Y57898D01*
D02*
G37*
G36*
X442000Y30252D02*
Y27000D01*
X445252D01*
X445235Y27135D01*
X444797Y28192D01*
X444100Y29100D01*
X443192Y29797D01*
X442135Y30235D01*
X442000Y30252D01*
D02*
G37*
G36*
X440000D02*
X439865Y30235D01*
X438808Y29797D01*
X437900Y29100D01*
X437203Y28192D01*
X436765Y27135D01*
X436748Y27000D01*
X440000D01*
Y30252D01*
D02*
G37*
G36*
X254500Y40433D02*
X253050Y40291D01*
X251655Y39868D01*
X250370Y39181D01*
X249244Y38256D01*
X248319Y37130D01*
X247632Y35845D01*
X247209Y34450D01*
X247067Y33000D01*
X247209Y31550D01*
X247632Y30155D01*
X248319Y28870D01*
X249244Y27744D01*
X250370Y26819D01*
X251655Y26132D01*
X253050Y25709D01*
X254500Y25567D01*
X255950Y25709D01*
X257345Y26132D01*
X258630Y26819D01*
X259756Y27744D01*
X260681Y28870D01*
X261368Y30155D01*
X261791Y31550D01*
X261933Y33000D01*
X261791Y34450D01*
X261368Y35845D01*
X260681Y37130D01*
X259756Y38256D01*
X258630Y39181D01*
X257345Y39868D01*
X255950Y40291D01*
X254500Y40433D01*
D02*
G37*
G36*
X214500D02*
X213050Y40291D01*
X211655Y39868D01*
X210370Y39181D01*
X209244Y38256D01*
X208319Y37130D01*
X207632Y35845D01*
X207209Y34450D01*
X207067Y33000D01*
X207209Y31550D01*
X207632Y30155D01*
X208319Y28870D01*
X209244Y27744D01*
X210370Y26819D01*
X211655Y26132D01*
X213050Y25709D01*
X214500Y25567D01*
X215950Y25709D01*
X217345Y26132D01*
X218630Y26819D01*
X219756Y27744D01*
X220681Y28870D01*
X221368Y30155D01*
X221791Y31550D01*
X221933Y33000D01*
X221791Y34450D01*
X221368Y35845D01*
X220681Y37130D01*
X219756Y38256D01*
X218630Y39181D01*
X217345Y39868D01*
X215950Y40291D01*
X214500Y40433D01*
D02*
G37*
G36*
X184500D02*
X183050Y40291D01*
X181655Y39868D01*
X180370Y39181D01*
X179244Y38256D01*
X178319Y37130D01*
X177632Y35845D01*
X177209Y34450D01*
X177067Y33000D01*
X177209Y31550D01*
X177632Y30155D01*
X178319Y28870D01*
X179244Y27744D01*
X180370Y26819D01*
X181655Y26132D01*
X183050Y25709D01*
X184500Y25567D01*
X185950Y25709D01*
X187345Y26132D01*
X188630Y26819D01*
X189756Y27744D01*
X190681Y28870D01*
X191368Y30155D01*
X191791Y31550D01*
X191933Y33000D01*
X191791Y34450D01*
X191368Y35845D01*
X190681Y37130D01*
X189756Y38256D01*
X188630Y39181D01*
X187345Y39868D01*
X185950Y40291D01*
X184500Y40433D01*
D02*
G37*
G36*
X144500D02*
X143050Y40291D01*
X141655Y39868D01*
X140370Y39181D01*
X139244Y38256D01*
X138319Y37130D01*
X137632Y35845D01*
X137209Y34450D01*
X137067Y33000D01*
X137209Y31550D01*
X137632Y30155D01*
X138319Y28870D01*
X139244Y27744D01*
X140370Y26819D01*
X141655Y26132D01*
X143050Y25709D01*
X144500Y25567D01*
X145950Y25709D01*
X147345Y26132D01*
X148630Y26819D01*
X149756Y27744D01*
X150681Y28870D01*
X151368Y30155D01*
X151791Y31550D01*
X151933Y33000D01*
X151791Y34450D01*
X151368Y35845D01*
X150681Y37130D01*
X149756Y38256D01*
X148630Y39181D01*
X147345Y39868D01*
X145950Y40291D01*
X144500Y40433D01*
D02*
G37*
G36*
X445252Y25000D02*
X442000D01*
Y21748D01*
X442135Y21765D01*
X443192Y22203D01*
X444100Y22900D01*
X444797Y23808D01*
X445235Y24865D01*
X445252Y25000D01*
D02*
G37*
G36*
X440000D02*
X436748D01*
X436765Y24865D01*
X437203Y23808D01*
X437900Y22900D01*
X438808Y22203D01*
X439865Y21765D01*
X440000Y21748D01*
Y25000D01*
D02*
G37*
G36*
X355000Y99530D02*
X354086Y99410D01*
X353235Y99057D01*
X352504Y98496D01*
X351943Y97765D01*
X351590Y96914D01*
X351470Y96000D01*
X351590Y95086D01*
X351943Y94235D01*
X352504Y93504D01*
X353235Y92943D01*
X353471Y92845D01*
Y68000D01*
X353587Y67415D01*
X353919Y66919D01*
X395919Y24919D01*
X396415Y24587D01*
X397000Y24471D01*
X416653D01*
Y21654D01*
X425347D01*
Y30346D01*
X416653D01*
Y27529D01*
X397634D01*
X356529Y68634D01*
Y92845D01*
X356765Y92943D01*
X357496Y93504D01*
X358057Y94235D01*
X358410Y95086D01*
X358530Y96000D01*
X358410Y96914D01*
X358057Y97765D01*
X357496Y98496D01*
X356765Y99057D01*
X355914Y99410D01*
X355000Y99530D01*
D02*
G37*
G36*
X349724Y24972D02*
X343787D01*
Y17067D01*
X349724D01*
Y24972D01*
D02*
G37*
G36*
X309961D02*
X304024D01*
Y17067D01*
X309961D01*
Y24972D01*
D02*
G37*
G36*
X367835Y24953D02*
X361898D01*
Y17047D01*
X367835D01*
Y24953D01*
D02*
G37*
G36*
X291653D02*
X285717D01*
Y17047D01*
X291653D01*
Y24953D01*
D02*
G37*
G36*
X478000Y20917D02*
X476260Y20746D01*
X474588Y20238D01*
X473046Y19414D01*
X471695Y18305D01*
X470586Y16954D01*
X469762Y15412D01*
X469254Y13740D01*
X469083Y12000D01*
X469254Y10260D01*
X469762Y8588D01*
X470586Y7046D01*
X471695Y5695D01*
X473046Y4586D01*
X474588Y3762D01*
X476260Y3254D01*
X478000Y3083D01*
X479740Y3254D01*
X481412Y3762D01*
X482954Y4586D01*
X484305Y5695D01*
X485414Y7046D01*
X486238Y8588D01*
X486746Y10260D01*
X486917Y12000D01*
X486746Y13740D01*
X486238Y15412D01*
X485414Y16954D01*
X484305Y18305D01*
X482954Y19414D01*
X481412Y20238D01*
X479740Y20746D01*
X478000Y20917D01*
D02*
G37*
G36*
X12000Y19917D02*
X10260Y19746D01*
X8588Y19238D01*
X7046Y18414D01*
X5695Y17305D01*
X4586Y15954D01*
X3762Y14412D01*
X3254Y12740D01*
X3083Y11000D01*
X3254Y9260D01*
X3762Y7588D01*
X4586Y6046D01*
X5695Y4695D01*
X7046Y3586D01*
X8588Y2762D01*
X10260Y2254D01*
X12000Y2083D01*
X13740Y2254D01*
X15412Y2762D01*
X16954Y3586D01*
X18305Y4695D01*
X19414Y6046D01*
X20238Y7588D01*
X20746Y9260D01*
X20917Y11000D01*
X20746Y12740D01*
X20238Y14412D01*
X19414Y15954D01*
X18305Y17305D01*
X16954Y18414D01*
X15412Y19238D01*
X13740Y19746D01*
X12000Y19917D01*
D02*
G37*
%LPD*%
D10*
X231000Y52000D02*
X237000Y58000D01*
X173000Y52000D02*
X231000D01*
X167000Y58000D02*
X173000Y52000D01*
X355000Y68000D02*
X397000Y26000D01*
X421000D01*
X225000Y75000D02*
X232000Y68000D01*
X169000Y75000D02*
X225000D01*
X162000Y68000D02*
X169000Y75000D01*
X355000Y68000D02*
Y96000D01*
X900Y600D02*
X490300D01*
X490300Y231300D02*
X490300Y600D01*
X900Y231300D02*
X490300D01*
X900D02*
X900Y600D01*
D44*
X346756Y21020D02*
D03*
X364866Y21000D02*
D03*
X306992Y21020D02*
D03*
X288685Y21000D02*
D03*
D45*
X76000Y113000D02*
D03*
X76020Y131110D02*
D03*
X76000Y73236D02*
D03*
X76020Y54929D02*
D03*
D46*
X442000Y197575D02*
D03*
Y169228D02*
D03*
X300112Y197575D02*
D03*
Y169228D02*
D03*
X158000Y198346D02*
D03*
Y170000D02*
D03*
X364112Y197575D02*
D03*
Y169228D02*
D03*
X31000Y101000D02*
D03*
Y72654D02*
D03*
D47*
X108000Y82000D02*
D03*
X118000D02*
D03*
X177000Y58000D02*
D03*
X167000D02*
D03*
X157000D02*
D03*
X172000Y68000D02*
D03*
X162000D02*
D03*
X184500Y33000D02*
D03*
X144500D02*
D03*
X247000Y58000D02*
D03*
X237000D02*
D03*
X227000D02*
D03*
X242000Y68000D02*
D03*
X232000D02*
D03*
X254500Y33000D02*
D03*
X214500D02*
D03*
X13000Y221000D02*
D03*
X12000Y11000D02*
D03*
X479000Y220000D02*
D03*
X478000Y12000D02*
D03*
D48*
X128000Y82000D02*
D03*
X152000Y68000D02*
D03*
X222000D02*
D03*
D49*
X441000Y26000D02*
D03*
X117000Y187000D02*
D03*
D50*
X421000Y26000D02*
D03*
D51*
X117000Y167000D02*
D03*
D52*
X355000Y96000D02*
D03*
M02*
