%TF.GenerationSoftware,Altium Limited,Altium Designer,19.1.8 (144)*%
G04 Layer_Color=2752767*
%FSLAX26Y26*%
%MOIN*%
%TF.FileFunction,Drawing*%
%TF.Part,Single*%
G01*
G75*
%TA.AperFunction,NonConductor*%
%ADD72C,0.005000*%
%ADD73C,0.006667*%
D72*
X3447559Y190197D02*
Y230197D01*
X3487559D01*
Y190197D01*
X3447559D01*
X3628661Y190000D02*
Y230000D01*
X3668661D01*
Y190000D01*
X3628661D01*
X3049921Y190197D02*
Y230197D01*
X3089921D01*
Y190197D01*
X3049921D01*
X2866850Y190000D02*
Y230000D01*
X2906850D01*
Y190000D01*
X2866850D01*
X740000Y1110000D02*
Y1150000D01*
X780000D01*
Y1110000D01*
X740000D01*
X740197Y1291102D02*
Y1331102D01*
X780197D01*
Y1291102D01*
X740197D01*
X740000Y712362D02*
Y752362D01*
X780000D01*
Y712362D01*
X740000D01*
X740197Y529291D02*
Y569291D01*
X780197D01*
Y529291D01*
X740197D01*
X1080000Y800000D02*
X1060000Y840000D01*
X1100000D01*
X1080000Y800000D01*
X1180000D02*
X1160000Y840000D01*
X1200000D01*
X1180000Y800000D01*
X1280000D02*
X1260000Y840000D01*
X1300000D01*
X1280000Y800000D01*
X1770000Y560000D02*
X1780000Y570000D01*
X1790000D01*
X1780000Y580000D01*
X1790000Y590000D01*
X1780000D01*
X1770000Y600000D01*
X1760000Y590000D01*
X1750000D01*
X1760000Y580000D01*
X1750000Y570000D01*
X1760000D01*
X1770000Y560000D01*
X1670000D02*
X1680000Y570000D01*
X1690000D01*
X1680000Y580000D01*
X1690000Y590000D01*
X1680000D01*
X1670000Y600000D01*
X1660000Y590000D01*
X1650000D01*
X1660000Y580000D01*
X1650000Y570000D01*
X1660000D01*
X1670000Y560000D01*
X1570000D02*
X1580000Y570000D01*
X1590000D01*
X1580000Y580000D01*
X1590000Y590000D01*
X1580000D01*
X1570000Y600000D01*
X1560000Y590000D01*
X1550000D01*
X1560000Y580000D01*
X1550000Y570000D01*
X1560000D01*
X1570000Y560000D01*
X1720000Y660000D02*
X1730000Y670000D01*
X1740000D01*
X1730000Y680000D01*
X1740000Y690000D01*
X1730000D01*
X1720000Y700000D01*
X1710000Y690000D01*
X1700000D01*
X1710000Y680000D01*
X1700000Y670000D01*
X1710000D01*
X1720000Y660000D01*
X1620000D02*
X1630000Y670000D01*
X1640000D01*
X1630000Y680000D01*
X1640000Y690000D01*
X1630000D01*
X1620000Y700000D01*
X1610000Y690000D01*
X1600000D01*
X1610000Y680000D01*
X1600000Y670000D01*
X1610000D01*
X1620000Y660000D01*
X1520000D02*
X1530000Y670000D01*
X1540000D01*
X1530000Y680000D01*
X1540000Y690000D01*
X1530000D01*
X1520000Y700000D01*
X1510000Y690000D01*
X1500000D01*
X1510000Y680000D01*
X1500000Y670000D01*
X1510000D01*
X1520000Y660000D01*
X1825000Y310000D02*
X1835000Y330000D01*
X1825000Y350000D01*
X1845000Y340000D01*
X1865000Y350000D01*
X1855000Y330000D01*
X1865000Y310000D01*
X1845000Y320000D01*
X1825000Y310000D01*
X1425000D02*
X1435000Y330000D01*
X1425000Y350000D01*
X1445000Y340000D01*
X1465000Y350000D01*
X1455000Y330000D01*
X1465000Y310000D01*
X1445000Y320000D01*
X1425000Y310000D01*
X4400000Y250000D02*
Y240000D01*
X4420000D01*
Y250000D01*
X4430000D01*
Y270000D01*
X4420000D01*
Y280000D01*
X4400000D01*
Y270000D01*
X4390000D01*
Y250000D01*
X4400000D01*
X4200000D02*
Y240000D01*
X4220000D01*
Y250000D01*
X4230000D01*
Y270000D01*
X4220000D01*
Y280000D01*
X4200000D01*
Y270000D01*
X4190000D01*
Y250000D01*
X4200000D01*
X2470000Y560000D02*
X2480000Y570000D01*
X2490000D01*
X2480000Y580000D01*
X2490000Y590000D01*
X2480000D01*
X2470000Y600000D01*
X2460000Y590000D01*
X2450000D01*
X2460000Y580000D01*
X2450000Y570000D01*
X2460000D01*
X2470000Y560000D01*
X2370000D02*
X2380000Y570000D01*
X2390000D01*
X2380000Y580000D01*
X2390000Y590000D01*
X2380000D01*
X2370000Y600000D01*
X2360000Y590000D01*
X2350000D01*
X2360000Y580000D01*
X2350000Y570000D01*
X2360000D01*
X2370000Y560000D01*
X2270000D02*
X2280000Y570000D01*
X2290000D01*
X2280000Y580000D01*
X2290000Y590000D01*
X2280000D01*
X2270000Y600000D01*
X2260000Y590000D01*
X2250000D01*
X2260000Y580000D01*
X2250000Y570000D01*
X2260000D01*
X2270000Y560000D01*
X2420000Y660000D02*
X2430000Y670000D01*
X2440000D01*
X2430000Y680000D01*
X2440000Y690000D01*
X2430000D01*
X2420000Y700000D01*
X2410000Y690000D01*
X2400000D01*
X2410000Y680000D01*
X2400000Y670000D01*
X2410000D01*
X2420000Y660000D01*
X2320000D02*
X2330000Y670000D01*
X2340000D01*
X2330000Y680000D01*
X2340000Y690000D01*
X2330000D01*
X2320000Y700000D01*
X2310000Y690000D01*
X2300000D01*
X2310000Y680000D01*
X2300000Y670000D01*
X2310000D01*
X2320000Y660000D01*
X2220000D02*
X2230000Y670000D01*
X2240000D01*
X2230000Y680000D01*
X2240000Y690000D01*
X2230000D01*
X2220000Y700000D01*
X2210000Y690000D01*
X2200000D01*
X2210000Y680000D01*
X2200000Y670000D01*
X2210000D01*
X2220000Y660000D01*
X2525000Y310000D02*
X2535000Y330000D01*
X2525000Y350000D01*
X2545000Y340000D01*
X2565000Y350000D01*
X2555000Y330000D01*
X2565000Y310000D01*
X2545000Y320000D01*
X2525000Y310000D01*
X2125000D02*
X2135000Y330000D01*
X2125000Y350000D01*
X2145000Y340000D01*
X2165000Y350000D01*
X2155000Y330000D01*
X2165000Y310000D01*
X2145000Y320000D01*
X2125000Y310000D01*
X1160000Y1660000D02*
Y1650000D01*
X1180000D01*
Y1660000D01*
X1190000D01*
Y1680000D01*
X1180000D01*
Y1690000D01*
X1160000D01*
Y1680000D01*
X1150000D01*
Y1660000D01*
X1160000D01*
Y1860000D02*
Y1850000D01*
X1180000D01*
Y1860000D01*
X1190000D01*
Y1880000D01*
X1180000D01*
Y1890000D01*
X1160000D01*
Y1880000D01*
X1150000D01*
Y1860000D01*
X1160000D01*
X110000Y2190000D02*
X120000D01*
X130000Y2200000D01*
X140000Y2190000D01*
X150000D01*
Y2200000D01*
X140000Y2210000D01*
X150000Y2220000D01*
Y2230000D01*
X140000D01*
X130000Y2220000D01*
X120000Y2230000D01*
X110000D01*
Y2220000D01*
X120000Y2210000D01*
X110000Y2200000D01*
Y2190000D01*
X100000Y90000D02*
X110000D01*
X120000Y100000D01*
X130000Y90000D01*
X140000D01*
Y100000D01*
X130000Y110000D01*
X140000Y120000D01*
Y130000D01*
X130000D01*
X120000Y120000D01*
X110000Y130000D01*
X100000D01*
Y120000D01*
X110000Y110000D01*
X100000Y100000D01*
Y90000D01*
X4770000Y2180000D02*
X4780000D01*
X4790000Y2190000D01*
X4800000Y2180000D01*
X4810000D01*
Y2190000D01*
X4800000Y2200000D01*
X4810000Y2210000D01*
Y2220000D01*
X4800000D01*
X4790000Y2210000D01*
X4780000Y2220000D01*
X4770000D01*
Y2210000D01*
X4780000Y2200000D01*
X4770000Y2190000D01*
Y2180000D01*
X4760000Y100000D02*
X4770000D01*
X4780000Y110000D01*
X4790000Y100000D01*
X4800000D01*
Y110000D01*
X4790000Y120000D01*
X4800000Y130000D01*
Y140000D01*
X4790000D01*
X4780000Y130000D01*
X4770000Y140000D01*
X4760000D01*
Y130000D01*
X4770000Y120000D01*
X4760000Y110000D01*
Y100000D01*
X3530000Y960000D02*
X3550000Y980000D01*
X3570000Y960000D01*
X3550000Y940000D01*
X3530000Y960000D01*
D73*
X4440000Y1975746D02*
G03*
X4440000Y1975746I-20000J0D01*
G01*
Y1692281D02*
G03*
X4440000Y1692281I-20000J0D01*
G01*
X3021124Y1975746D02*
G03*
X3021124Y1975746I-20000J0D01*
G01*
Y1692281D02*
G03*
X3021124Y1692281I-20000J0D01*
G01*
X1600000Y1983465D02*
G03*
X1600000Y1983465I-20000J0D01*
G01*
Y1700000D02*
G03*
X1600000Y1700000I-20000J0D01*
G01*
X3661124Y1975746D02*
G03*
X3661124Y1975746I-20000J0D01*
G01*
Y1692281D02*
G03*
X3661124Y1692281I-20000J0D01*
G01*
X330000Y1010000D02*
G03*
X330000Y1010000I-20000J0D01*
G01*
Y726535D02*
G03*
X330000Y726535I-20000J0D01*
G01*
%TF.MD5,f9208e14845ce6b1989f305b67a75ea1*%
M02*
