G04*
G04 #@! TF.GenerationSoftware,Altium Limited,Altium Designer,19.1.8 (144)*
G04*
G04 Layer_Color=8421504*
%FSLAX25Y25*%
%MOIN*%
G70*
G01*
G75*
%ADD10C,0.01000*%
%ADD14R,0.12598X0.06299*%
%ADD15R,0.06299X0.12598*%
%ADD16R,0.04331X0.01968*%
%ADD17R,0.05118X0.04134*%
%ADD18R,0.09843X0.12795*%
%ADD19R,0.12795X0.09843*%
%ADD20R,0.05512X0.04134*%
%ADD21R,0.04134X0.05118*%
%ADD22R,0.04134X0.05512*%
D10*
X900Y600D02*
X490300D01*
X490300Y231300D02*
X490300Y600D01*
X900Y231300D02*
X490300D01*
X900D02*
X900Y600D01*
D14*
X271000Y79000D02*
D03*
X291079D02*
D03*
X457000Y55000D02*
D03*
X477079D02*
D03*
D15*
X207000Y178921D02*
D03*
Y199000D02*
D03*
X249000Y179000D02*
D03*
Y199079D02*
D03*
D16*
X234760Y116500D02*
D03*
Y121500D02*
D03*
Y126500D02*
D03*
Y111500D02*
D03*
X213500D02*
D03*
Y126500D02*
D03*
Y121500D02*
D03*
Y116500D02*
D03*
X399362Y106528D02*
D03*
Y111528D02*
D03*
Y116528D02*
D03*
Y101528D02*
D03*
X378102D02*
D03*
Y116528D02*
D03*
Y111528D02*
D03*
Y106528D02*
D03*
D17*
X118000Y67000D02*
D03*
Y59716D02*
D03*
X381000Y81433D02*
D03*
Y88717D02*
D03*
X219000Y93217D02*
D03*
Y100500D02*
D03*
X248000Y93217D02*
D03*
Y100500D02*
D03*
X409000Y81717D02*
D03*
Y89000D02*
D03*
D18*
X154047Y115000D02*
D03*
X132000D02*
D03*
D19*
X330000Y97000D02*
D03*
Y74953D02*
D03*
D20*
X192500Y121858D02*
D03*
Y129142D02*
D03*
X361000Y116358D02*
D03*
Y123642D02*
D03*
X229000Y100500D02*
D03*
Y93217D02*
D03*
X390000Y89000D02*
D03*
Y81717D02*
D03*
D21*
X442283Y106000D02*
D03*
X435000D02*
D03*
X270284Y117000D02*
D03*
X263000D02*
D03*
D22*
X414358Y106000D02*
D03*
X421642D02*
D03*
X247000Y117000D02*
D03*
X254283D02*
D03*
M02*
