G04*
G04 #@! TF.GenerationSoftware,Altium Limited,Altium Designer,19.1.8 (144)*
G04*
G04 Layer_Color=16711935*
%FSLAX25Y25*%
%MOIN*%
G70*
G01*
G75*
%ADD10C,0.01000*%
%ADD32R,0.04737X0.06706*%
%ADD33R,0.06706X0.04737*%
%ADD34C,0.24422*%
%ADD35C,0.06800*%
%ADD36R,0.06800X0.06800*%
%ADD37C,0.07493*%
%ADD38R,0.07493X0.07493*%
%ADD39R,0.07493X0.07493*%
%ADD40C,0.05800*%
D10*
X900Y600D02*
X490300D01*
X490300Y231300D02*
X490300Y600D01*
X900Y231300D02*
X490300D01*
X900D02*
X900Y600D01*
D32*
X346756Y21020D02*
D03*
X364866Y21000D02*
D03*
X306992Y21020D02*
D03*
X288685Y21000D02*
D03*
D33*
X76000Y113000D02*
D03*
X76020Y131110D02*
D03*
X76000Y73236D02*
D03*
X76020Y54929D02*
D03*
D34*
X442000Y197575D02*
D03*
Y169228D02*
D03*
X300112Y197575D02*
D03*
Y169228D02*
D03*
X158000Y198346D02*
D03*
Y170000D02*
D03*
X364112Y197575D02*
D03*
Y169228D02*
D03*
X31000Y101000D02*
D03*
Y72654D02*
D03*
D35*
X108000Y82000D02*
D03*
X118000D02*
D03*
X177000Y58000D02*
D03*
X167000D02*
D03*
X157000D02*
D03*
X172000Y68000D02*
D03*
X162000D02*
D03*
X184500Y33000D02*
D03*
X144500D02*
D03*
X247000Y58000D02*
D03*
X237000D02*
D03*
X227000D02*
D03*
X242000Y68000D02*
D03*
X232000D02*
D03*
X254500Y33000D02*
D03*
X214500D02*
D03*
X13000Y221000D02*
D03*
X12000Y11000D02*
D03*
X479000Y220000D02*
D03*
X478000Y12000D02*
D03*
D36*
X128000Y82000D02*
D03*
X152000Y68000D02*
D03*
X222000D02*
D03*
D37*
X441000Y26000D02*
D03*
X117000Y187000D02*
D03*
D38*
X421000Y26000D02*
D03*
D39*
X117000Y167000D02*
D03*
D40*
X355000Y96000D02*
D03*
M02*
