G04*
G04 #@! TF.GenerationSoftware,Altium Limited,Altium Designer,19.1.8 (144)*
G04*
G04 Layer_Color=255*
%FSLAX25Y25*%
%MOIN*%
G70*
G01*
G75*
%ADD10C,0.01000*%
%ADD14R,0.12598X0.06299*%
%ADD15R,0.06299X0.12598*%
%ADD16R,0.04331X0.01968*%
%ADD17R,0.05118X0.04134*%
%ADD18R,0.09843X0.12795*%
%ADD19R,0.12795X0.09843*%
%ADD20R,0.05512X0.04134*%
%ADD21R,0.04134X0.05118*%
%ADD22R,0.04134X0.05512*%
%ADD44R,0.03937X0.05906*%
%ADD45R,0.05906X0.03937*%
%ADD46C,0.23622*%
%ADD47C,0.06000*%
%ADD48R,0.06000X0.06000*%
%ADD49C,0.06693*%
%ADD50R,0.06693X0.06693*%
%ADD51R,0.06693X0.06693*%
D10*
X900Y600D02*
X490300D01*
X490300Y231300D02*
X490300Y600D01*
X900Y231300D02*
X490300D01*
X900D02*
X900Y600D01*
D14*
X271000Y79000D02*
D03*
X291079D02*
D03*
X457000Y55000D02*
D03*
X477079D02*
D03*
D15*
X207000Y178921D02*
D03*
Y199000D02*
D03*
X249000Y179000D02*
D03*
Y199079D02*
D03*
D16*
X234760Y116500D02*
D03*
Y121500D02*
D03*
Y126500D02*
D03*
Y111500D02*
D03*
X213500D02*
D03*
Y126500D02*
D03*
Y121500D02*
D03*
Y116500D02*
D03*
X399362Y106528D02*
D03*
Y111528D02*
D03*
Y116528D02*
D03*
Y101528D02*
D03*
X378102D02*
D03*
Y116528D02*
D03*
Y111528D02*
D03*
Y106528D02*
D03*
D17*
X118000Y67000D02*
D03*
Y59716D02*
D03*
X381000Y81433D02*
D03*
Y88717D02*
D03*
X219000Y93217D02*
D03*
Y100500D02*
D03*
X248000Y93217D02*
D03*
Y100500D02*
D03*
X409000Y81717D02*
D03*
Y89000D02*
D03*
D18*
X154047Y115000D02*
D03*
X132000D02*
D03*
D19*
X330000Y97000D02*
D03*
Y74953D02*
D03*
D20*
X192500Y121858D02*
D03*
Y129142D02*
D03*
X361000Y116358D02*
D03*
Y123642D02*
D03*
X229000Y100500D02*
D03*
Y93217D02*
D03*
X390000Y89000D02*
D03*
Y81717D02*
D03*
D21*
X442283Y106000D02*
D03*
X435000D02*
D03*
X270284Y117000D02*
D03*
X263000D02*
D03*
D22*
X414358Y106000D02*
D03*
X421642D02*
D03*
X247000Y117000D02*
D03*
X254283D02*
D03*
D44*
X346756Y21020D02*
D03*
X364866Y21000D02*
D03*
X306992Y21020D02*
D03*
X288685Y21000D02*
D03*
D45*
X76000Y113000D02*
D03*
X76020Y131110D02*
D03*
X76000Y73236D02*
D03*
X76020Y54929D02*
D03*
D46*
X442000Y197575D02*
D03*
Y169228D02*
D03*
X300112Y197575D02*
D03*
Y169228D02*
D03*
X158000Y198346D02*
D03*
Y170000D02*
D03*
X364112Y197575D02*
D03*
Y169228D02*
D03*
X31000Y101000D02*
D03*
Y72654D02*
D03*
D47*
X108000Y82000D02*
D03*
X118000D02*
D03*
X177000Y58000D02*
D03*
X167000D02*
D03*
X157000D02*
D03*
X172000Y68000D02*
D03*
X162000D02*
D03*
X184500Y33000D02*
D03*
X144500D02*
D03*
X247000Y58000D02*
D03*
X237000D02*
D03*
X227000D02*
D03*
X242000Y68000D02*
D03*
X232000D02*
D03*
X254500Y33000D02*
D03*
X214500D02*
D03*
X13000Y221000D02*
D03*
X12000Y11000D02*
D03*
X479000Y220000D02*
D03*
X478000Y12000D02*
D03*
D48*
X128000Y82000D02*
D03*
X152000Y68000D02*
D03*
X222000D02*
D03*
D49*
X441000Y26000D02*
D03*
X117000Y187000D02*
D03*
D50*
X421000Y26000D02*
D03*
D51*
X117000Y167000D02*
D03*
M02*
