%TF.GenerationSoftware,Altium Limited,Altium Designer,19.1.8 (144)*%
G04 Layer_Color=8421504*
%FSLAX26Y26*%
%MOIN*%
%TF.FileFunction,Paste,Top*%
%TF.Part,Single*%
G01*
G75*
%TA.AperFunction,SMDPad,CuDef*%
%ADD10R,0.125984X0.062992*%
%ADD11R,0.062992X0.125984*%
%ADD12R,0.043307X0.019685*%
%ADD13R,0.051181X0.041339*%
%ADD14R,0.098425X0.127953*%
%ADD15R,0.127953X0.098425*%
%ADD16R,0.055118X0.041339*%
%ADD17R,0.041339X0.051181*%
%ADD18R,0.041339X0.055118*%
D10*
X2710000Y790000D02*
D03*
X2910787D02*
D03*
X4570000Y550000D02*
D03*
X4770787D02*
D03*
D11*
X2070000Y1789213D02*
D03*
Y1990000D02*
D03*
X2490000Y1790000D02*
D03*
Y1990787D02*
D03*
D12*
X2347598Y1165000D02*
D03*
Y1215000D02*
D03*
Y1265000D02*
D03*
Y1115000D02*
D03*
X2135000D02*
D03*
Y1265000D02*
D03*
Y1215000D02*
D03*
Y1165000D02*
D03*
X3993622Y1065276D02*
D03*
Y1115276D02*
D03*
Y1165276D02*
D03*
Y1015276D02*
D03*
X3781024D02*
D03*
Y1165276D02*
D03*
Y1115276D02*
D03*
Y1065276D02*
D03*
D13*
X1180000Y670000D02*
D03*
Y597165D02*
D03*
X3810000Y814331D02*
D03*
Y887165D02*
D03*
X2190000Y932165D02*
D03*
Y1005000D02*
D03*
X2480000Y932165D02*
D03*
Y1005000D02*
D03*
X4090000Y817165D02*
D03*
Y890000D02*
D03*
D14*
X1540473Y1150000D02*
D03*
X1320000D02*
D03*
D15*
X3300000Y970000D02*
D03*
Y749528D02*
D03*
D16*
X1925000Y1218583D02*
D03*
Y1291417D02*
D03*
X3610000Y1163583D02*
D03*
Y1236417D02*
D03*
X2290000Y1005000D02*
D03*
Y932165D02*
D03*
X3900000Y890000D02*
D03*
Y817165D02*
D03*
D17*
X4422835Y1060000D02*
D03*
X4350000D02*
D03*
X2702835Y1170000D02*
D03*
X2630000D02*
D03*
D18*
X4143583Y1060000D02*
D03*
X4216417D02*
D03*
X2470000Y1170000D02*
D03*
X2542835D02*
D03*
%TF.MD5,032f9c91fb5028578fb5b429a8ea886a*%
M02*
