M48
;Layer_Color=9474304
;FILE_FORMAT=2:5
INCH,TZ
;TYPE=PLATED
T1F00S00C0.01181
T3F00S00C0.04331
T4F00S00C0.17717
;TYPE=NON_PLATED
T5F00S00C0.15748
%
T01
X324000Y84000
X354724Y115354
X358268Y118898
X361104Y130896
X374016Y137008
X381496
X385000Y142000
X377535Y142004
X370000Y142000
X243000Y152000
X192000Y141000
X193110Y120374
X199705
X197441Y124508
X202362
T03
X342000Y48000
Y68000
X217000Y187000
X197000
T04
X167654Y32000
X196000
X325000Y181000
Y209347
X71000Y137346
Y109000
T05
X45000Y12000
X429000Y13000
X45000Y217000
X429000Y220000
M30
