G04*
G04 #@! TF.GenerationSoftware,Altium Limited,Altium Designer,20.0.12 (288)*
G04*
G04 Layer_Physical_Order=2*
G04 Layer_Color=16711680*
%FSLAX25Y25*%
%MOIN*%
G70*
G01*
G75*
%ADD40C,0.03000*%
%ADD41C,0.07000*%
%ADD47C,0.25197*%
%ADD48R,0.05512X0.09449*%
%ADD49R,0.06693X0.06693*%
%ADD50C,0.06693*%
%ADD51R,0.06693X0.06693*%
%ADD52C,0.06000*%
%ADD53C,0.02362*%
G36*
X437008Y196850D02*
X437008Y39370D01*
X401574Y3936D01*
X72062Y3938D01*
X39370Y36630D01*
Y192913D01*
X74435Y228346D01*
X405512D01*
X437008Y196850D01*
D02*
G37*
%LPC*%
G36*
X330906Y221619D02*
Y215252D01*
X337273D01*
X337154Y215539D01*
X336035Y217364D01*
X334645Y218992D01*
X333018Y220382D01*
X331193Y221500D01*
X330906Y221619D01*
D02*
G37*
G36*
X319094D02*
X318807Y221500D01*
X316982Y220382D01*
X315355Y218992D01*
X313965Y217364D01*
X312846Y215539D01*
X312727Y215252D01*
X319094D01*
Y221619D01*
D02*
G37*
G36*
X337273Y203441D02*
X330906D01*
Y197074D01*
X331193Y197193D01*
X333018Y198311D01*
X334645Y199701D01*
X336035Y201329D01*
X337154Y203154D01*
X337273Y203441D01*
D02*
G37*
G36*
X319094D02*
X312727D01*
X312846Y203154D01*
X313965Y201329D01*
X315355Y199701D01*
X316982Y198311D01*
X318807Y197193D01*
X319094Y197074D01*
Y203441D01*
D02*
G37*
G36*
X218969Y190889D02*
Y188969D01*
X220889D01*
X220797Y189192D01*
X220100Y190100D01*
X219192Y190797D01*
X218969Y190889D01*
D02*
G37*
G36*
X215032D02*
X214808Y190797D01*
X213900Y190100D01*
X213203Y189192D01*
X213111Y188969D01*
X215032D01*
Y190889D01*
D02*
G37*
G36*
X220889Y185031D02*
X218969D01*
Y183111D01*
X219192Y183203D01*
X220100Y183900D01*
X220797Y184808D01*
X220889Y185031D01*
D02*
G37*
G36*
X215032D02*
X213111D01*
X213203Y184808D01*
X213900Y183900D01*
X214808Y183203D01*
X215032Y183111D01*
Y185031D01*
D02*
G37*
G36*
X201346Y191347D02*
X192654D01*
Y182653D01*
X201346D01*
Y191347D01*
D02*
G37*
G36*
X76906Y149619D02*
Y143252D01*
X83273D01*
X83154Y143539D01*
X82035Y145364D01*
X80645Y146992D01*
X79018Y148382D01*
X77193Y149500D01*
X76906Y149619D01*
D02*
G37*
G36*
X65095D02*
X64807Y149500D01*
X62982Y148382D01*
X61355Y146992D01*
X59965Y145364D01*
X58846Y143539D01*
X58727Y143252D01*
X65095D01*
Y149619D01*
D02*
G37*
G36*
X243000Y156539D02*
X203000D01*
X201825Y156384D01*
X200731Y155931D01*
X199791Y155209D01*
X188791Y144209D01*
X188069Y143269D01*
X187616Y142175D01*
X187461Y141000D01*
X187616Y139825D01*
X188069Y138731D01*
X188791Y137791D01*
X189731Y137069D01*
X190825Y136616D01*
X192000Y136461D01*
X193175Y136616D01*
X194269Y137069D01*
X195209Y137791D01*
X204880Y147461D01*
X243000D01*
X244175Y147616D01*
X245269Y148069D01*
X246209Y148791D01*
X246931Y149731D01*
X247384Y150825D01*
X247539Y152000D01*
X247384Y153175D01*
X246931Y154269D01*
X246209Y155209D01*
X245269Y155931D01*
X244175Y156384D01*
X243000Y156539D01*
D02*
G37*
G36*
X325000Y194641D02*
X322866Y194473D01*
X320785Y193973D01*
X318807Y193154D01*
X316982Y192035D01*
X315355Y190645D01*
X313965Y189018D01*
X312846Y187193D01*
X312027Y185215D01*
X311527Y183134D01*
X311360Y181000D01*
X311527Y178866D01*
X312027Y176785D01*
X312846Y174807D01*
X313965Y172982D01*
X315355Y171355D01*
X316982Y169965D01*
X318807Y168846D01*
X320606Y168101D01*
X320461Y167000D01*
X320616Y165825D01*
X321069Y164731D01*
X321791Y163791D01*
X357895Y127686D01*
X358835Y126965D01*
X359930Y126512D01*
X361104Y126357D01*
X362279Y126512D01*
X363374Y126965D01*
X364314Y127686D01*
X365035Y128626D01*
X365489Y129721D01*
X365643Y130896D01*
X365489Y132070D01*
X365035Y133165D01*
X364314Y134105D01*
X330365Y168054D01*
X330463Y168544D01*
X331193Y168846D01*
X333018Y169965D01*
X334645Y171355D01*
X336035Y172982D01*
X337154Y174807D01*
X337973Y176785D01*
X338473Y178866D01*
X338640Y181000D01*
X338473Y183134D01*
X337973Y185215D01*
X337154Y187193D01*
X336035Y189018D01*
X334645Y190645D01*
X333018Y192035D01*
X331193Y193154D01*
X329215Y193973D01*
X327134Y194473D01*
X325000Y194641D01*
D02*
G37*
G36*
X83273Y131441D02*
X76906D01*
Y125074D01*
X77193Y125193D01*
X79018Y126311D01*
X80645Y127701D01*
X82035Y129329D01*
X83154Y131154D01*
X83273Y131441D01*
D02*
G37*
G36*
X65095D02*
X58727D01*
X58846Y131154D01*
X59965Y129329D01*
X61355Y127701D01*
X62982Y126311D01*
X64807Y125193D01*
X65095Y125074D01*
Y131441D01*
D02*
G37*
G36*
X71000Y122641D02*
X68866Y122473D01*
X66785Y121973D01*
X64807Y121154D01*
X62982Y120035D01*
X61355Y118645D01*
X59965Y117018D01*
X58846Y115193D01*
X58027Y113215D01*
X57528Y111134D01*
X57359Y109000D01*
X57528Y106866D01*
X58027Y104785D01*
X58846Y102807D01*
X59965Y100982D01*
X61355Y99355D01*
X62982Y97965D01*
X64807Y96846D01*
X66785Y96027D01*
X68866Y95527D01*
X71000Y95359D01*
X73134Y95527D01*
X75215Y96027D01*
X77193Y96846D01*
X79018Y97965D01*
X80645Y99355D01*
X82035Y100982D01*
X83154Y102807D01*
X83973Y104785D01*
X84473Y106866D01*
X84641Y109000D01*
X84473Y111134D01*
X83973Y113215D01*
X83154Y115193D01*
X82035Y117018D01*
X80645Y118645D01*
X79018Y120035D01*
X77193Y121154D01*
X75215Y121973D01*
X73134Y122473D01*
X71000Y122641D01*
D02*
G37*
G36*
X358268Y121447D02*
X357292Y121253D01*
X356465Y120700D01*
X352922Y117157D01*
X322198Y86432D01*
X321645Y85605D01*
X321451Y84630D01*
Y84000D01*
X321645Y83025D01*
X322198Y82198D01*
X323025Y81645D01*
X324000Y81451D01*
X324975Y81645D01*
X325802Y82198D01*
X326355Y83025D01*
X326443Y83468D01*
X356527Y113552D01*
X360070Y117095D01*
X360623Y117922D01*
X360817Y118898D01*
X360623Y119873D01*
X360070Y120700D01*
X359243Y121253D01*
X358268Y121447D01*
D02*
G37*
G36*
X346346Y72347D02*
X337653D01*
Y63653D01*
X346346D01*
Y72347D01*
D02*
G37*
G36*
X343969Y51889D02*
Y49968D01*
X345889D01*
X345797Y50192D01*
X345100Y51100D01*
X344192Y51797D01*
X343969Y51889D01*
D02*
G37*
G36*
X340032D02*
X339808Y51797D01*
X338900Y51100D01*
X338203Y50192D01*
X338111Y49968D01*
X340032D01*
Y51889D01*
D02*
G37*
G36*
X129756Y55724D02*
X122244D01*
Y44276D01*
X129756D01*
Y55724D01*
D02*
G37*
G36*
X89992D02*
X82480D01*
Y44276D01*
X89992D01*
Y55724D01*
D02*
G37*
G36*
X147866Y55705D02*
X140354D01*
Y44256D01*
X147866D01*
Y55705D01*
D02*
G37*
G36*
X71685D02*
X64173D01*
Y44256D01*
X71685D01*
Y55705D01*
D02*
G37*
G36*
X345889Y46031D02*
X343969D01*
Y44111D01*
X344192Y44203D01*
X345100Y44900D01*
X345797Y45808D01*
X345889Y46031D01*
D02*
G37*
G36*
X340032D02*
X338111D01*
X338203Y45808D01*
X338900Y44900D01*
X339808Y44203D01*
X340032Y44111D01*
Y46031D01*
D02*
G37*
G36*
X173559Y44273D02*
Y37905D01*
X179926D01*
X179807Y38193D01*
X178689Y40018D01*
X177299Y41645D01*
X175671Y43035D01*
X173846Y44154D01*
X173559Y44273D01*
D02*
G37*
G36*
X161748Y44273D02*
X161461Y44154D01*
X159636Y43035D01*
X158008Y41645D01*
X156618Y40018D01*
X155500Y38193D01*
X155381Y37905D01*
X161748D01*
Y44273D01*
D02*
G37*
G36*
X294520Y38724D02*
X287008D01*
Y27276D01*
X294520D01*
Y38724D01*
D02*
G37*
G36*
X254756D02*
X247244D01*
Y27276D01*
X254756D01*
Y38724D01*
D02*
G37*
G36*
X312630Y38705D02*
X305118D01*
Y27256D01*
X312630D01*
Y38705D01*
D02*
G37*
G36*
X236449D02*
X228937D01*
Y27256D01*
X236449D01*
Y38705D01*
D02*
G37*
G36*
X161748Y26094D02*
X155381D01*
X155500Y25807D01*
X156618Y23982D01*
X158008Y22355D01*
X159636Y20965D01*
X161461Y19846D01*
X161748Y19727D01*
Y26094D01*
D02*
G37*
G36*
X179926D02*
X173559D01*
Y19727D01*
X173846Y19846D01*
X175671Y20965D01*
X177299Y22355D01*
X178689Y23982D01*
X179807Y25807D01*
X179926Y26094D01*
D02*
G37*
G36*
X196000Y45641D02*
X193866Y45472D01*
X191785Y44973D01*
X189807Y44154D01*
X187982Y43035D01*
X186355Y41645D01*
X184965Y40018D01*
X183846Y38193D01*
X183027Y36215D01*
X182527Y34134D01*
X182360Y32000D01*
X182527Y29866D01*
X183027Y27785D01*
X183846Y25807D01*
X184965Y23982D01*
X186355Y22355D01*
X187982Y20965D01*
X189807Y19846D01*
X191785Y19027D01*
X193866Y18528D01*
X196000Y18360D01*
X198134Y18528D01*
X200215Y19027D01*
X202193Y19846D01*
X204018Y20965D01*
X205645Y22355D01*
X207035Y23982D01*
X208154Y25807D01*
X208973Y27785D01*
X209472Y29866D01*
X209641Y32000D01*
X209472Y34134D01*
X208973Y36215D01*
X208154Y38193D01*
X207035Y40018D01*
X205645Y41645D01*
X204018Y43035D01*
X202193Y44154D01*
X200215Y44973D01*
X198134Y45472D01*
X196000Y45641D01*
D02*
G37*
%LPD*%
D40*
X354724Y115354D02*
X358268Y118898D01*
X324000Y84000D02*
Y84630D01*
X354724Y115354D01*
X325000Y167000D02*
Y181000D01*
D41*
Y167000D02*
X361104Y130896D01*
X192000Y141000D02*
X203000Y152000D01*
X243000D01*
D47*
X196000Y32000D02*
D03*
X167654D02*
D03*
X71000Y109000D02*
D03*
Y137346D02*
D03*
X325000Y181000D02*
D03*
Y209347D02*
D03*
D48*
X290764Y33000D02*
D03*
X308874Y32980D02*
D03*
X251000Y33000D02*
D03*
X232693Y32980D02*
D03*
X126000Y50000D02*
D03*
X144110Y49980D02*
D03*
X86236Y50000D02*
D03*
X67929Y49980D02*
D03*
D49*
X197000Y187000D02*
D03*
D50*
X217000D02*
D03*
X342000Y48000D02*
D03*
D51*
Y68000D02*
D03*
D52*
X45000Y217000D02*
D03*
Y12000D02*
D03*
X429000Y220000D02*
D03*
Y13000D02*
D03*
D53*
X199705Y120374D02*
D03*
X193110D02*
D03*
X202362Y124508D02*
D03*
X197441D02*
D03*
X381496Y137008D02*
D03*
X374016D02*
D03*
X358268Y118898D02*
D03*
X354724Y115354D02*
D03*
X361104Y130896D02*
D03*
X192000Y141000D02*
D03*
X324000Y84000D02*
D03*
X243000Y152000D02*
D03*
X385000Y142000D02*
D03*
X377535Y142004D02*
D03*
X370000Y142000D02*
D03*
M02*
