G04*
G04 #@! TF.GenerationSoftware,Altium Limited,Altium Designer,19.1.8 (144)*
G04*
G04 Layer_Color=16711935*
%FSLAX25Y25*%
%MOIN*%
G70*
G01*
G75*
%ADD11C,0.00394*%
D11*
X205256Y127961D02*
X221004D01*
X205256D02*
Y148039D01*
X221004D01*
Y127961D02*
Y148039D01*
X369858Y117988D02*
X385606D01*
X369858D02*
Y138067D01*
X385606D01*
Y117988D02*
Y138067D01*
X367520Y99843D02*
X372480D01*
X367520Y108307D02*
X372480D01*
X367520Y99843D02*
Y108307D01*
X372480Y99843D02*
Y108307D01*
X412520Y128768D02*
X417480D01*
X412520Y137232D02*
X417480D01*
X412520Y128768D02*
Y137232D01*
X417480Y128768D02*
Y137232D01*
X205520Y111626D02*
X210480D01*
X205520Y120091D02*
X210480D01*
X205520Y111626D02*
Y120091D01*
X210480Y111626D02*
Y120091D01*
X234520Y111626D02*
X239480D01*
X234520Y120091D02*
X239480D01*
X234520Y111626D02*
Y120091D01*
X239480Y111626D02*
Y120091D01*
X259874Y133520D02*
Y138480D01*
X251409Y133520D02*
Y138480D01*
Y133520D02*
X259874D01*
X251409Y138480D02*
X259874D01*
X395520Y100126D02*
X400480D01*
X395520Y108591D02*
X400480D01*
X395520Y100126D02*
Y108591D01*
X400480Y100126D02*
Y108591D01*
X347520Y143232D02*
X352480D01*
X347520Y134768D02*
X352480D01*
Y143232D01*
X347520Y134768D02*
Y143232D01*
X400520Y129126D02*
X405480D01*
X400520Y137591D02*
X405480D01*
X400520Y129126D02*
Y137591D01*
X405480Y129126D02*
Y137591D01*
X179020Y148732D02*
X183980D01*
X179020Y140268D02*
X183980D01*
Y148732D01*
X179020Y140268D02*
Y148732D01*
X215520Y120091D02*
X220480D01*
X215520Y111626D02*
X220480D01*
Y120091D01*
X215520Y111626D02*
Y120091D01*
X235409Y133520D02*
Y138480D01*
X243874Y133520D02*
Y138480D01*
X235409D02*
X243874D01*
X235409Y133520D02*
X243874D01*
X376520Y108591D02*
X381480D01*
X376520Y100126D02*
X381480D01*
Y108591D01*
X376520Y100126D02*
Y108591D01*
M02*
