G04*
G04 #@! TF.GenerationSoftware,Altium Limited,Altium Designer,20.0.12 (288)*
G04*
G04 Layer_Color=32768*
%FSLAX25Y25*%
%MOIN*%
G70*
G01*
G75*
%ADD11C,0.00394*%
%ADD54C,0.00197*%
D11*
X361713Y141988D02*
X392815D01*
Y114429D02*
Y141988D01*
X361713Y114429D02*
X392815D01*
X361713D02*
Y141988D01*
X196358Y152067D02*
X227461D01*
Y124508D02*
Y152067D01*
X196358Y124508D02*
X227461D01*
X196358D02*
Y152067D01*
X255642Y134031D02*
Y137969D01*
X253673Y136000D02*
X257610D01*
X235032Y115858D02*
X238968D01*
X237000Y113890D02*
Y117827D01*
X206031Y115858D02*
X209968D01*
X208000Y113890D02*
Y117827D01*
X413031Y139358D02*
X416968D01*
X415000Y137390D02*
Y141327D01*
X396031Y104358D02*
X399969D01*
X398000Y102390D02*
Y106327D01*
X368032Y104075D02*
X371969D01*
X370000Y102106D02*
Y106043D01*
X237673Y136000D02*
X241610D01*
X239642Y134031D02*
Y137969D01*
X218000Y113890D02*
Y117827D01*
X216032Y115858D02*
X219969D01*
X178000Y147390D02*
Y151327D01*
X176031Y149358D02*
X179969D01*
X403000Y137390D02*
Y141327D01*
X401031Y139358D02*
X404969D01*
X379000Y102390D02*
Y106327D01*
X377031Y104358D02*
X380968D01*
X350000Y137031D02*
Y140969D01*
X348031Y139000D02*
X351969D01*
D54*
X248949Y139543D02*
X262335D01*
X248949Y132457D02*
X262335D01*
X248949D02*
Y139543D01*
X262335Y132457D02*
Y139543D01*
X240543Y109165D02*
Y122551D01*
X233457Y109165D02*
Y122551D01*
X240543D01*
X233457Y109165D02*
X240543D01*
X211543D02*
Y122551D01*
X204457Y109165D02*
Y122551D01*
X211543D01*
X204457Y109165D02*
X211543D01*
X418543Y132665D02*
Y146051D01*
X411457Y132665D02*
Y146051D01*
X418543D01*
X411457Y132665D02*
X418543D01*
X401543Y97665D02*
Y111051D01*
X394457Y97665D02*
Y111051D01*
X401543D01*
X394457Y97665D02*
X401543D01*
X373543Y97382D02*
Y110768D01*
X366457Y97382D02*
Y110768D01*
X373543D01*
X366457Y97382D02*
X373543D01*
X232949Y132260D02*
Y139740D01*
X246335Y132260D02*
Y139740D01*
X232949D02*
X246335D01*
X232949Y132260D02*
X246335D01*
X214260Y122551D02*
X221740D01*
X214260Y109165D02*
X221740D01*
Y122551D01*
X214260Y109165D02*
Y122551D01*
X174260Y156051D02*
X181740D01*
X174260Y142665D02*
X181740D01*
Y156051D01*
X174260Y142665D02*
Y156051D01*
X399260Y132665D02*
X406740D01*
X399260Y146051D02*
X406740D01*
X399260Y132665D02*
Y146051D01*
X406740Y132665D02*
Y146051D01*
X375260Y111051D02*
X382740D01*
X375260Y97665D02*
X382740D01*
Y111051D01*
X375260Y97665D02*
Y111051D01*
X346260Y145693D02*
X353740D01*
X346260Y132307D02*
X353740D01*
Y145693D01*
X346260Y132307D02*
Y145693D01*
M02*
