G04*
G04 #@! TF.GenerationSoftware,Altium Limited,Altium Designer,20.0.12 (288)*
G04*
G04 Layer_Color=32768*
%FSLAX25Y25*%
%MOIN*%
G70*
G01*
G75*
%ADD10C,0.01000*%
D10*
X212653Y12000D02*
Y52000D01*
X51000Y92347D02*
X91000D01*
X305000Y164347D02*
X345000D01*
X101197Y83024D02*
X150803D01*
X101197Y128299D02*
X150803D01*
Y83024D02*
Y128299D01*
X101197Y83024D02*
Y128299D01*
X284701Y97197D02*
Y146803D01*
X329976Y97197D02*
Y146803D01*
X284701Y97197D02*
X329976D01*
X284701Y146803D02*
X329976D01*
X289799Y21563D02*
Y44240D01*
Y21563D02*
X312299D01*
X290026Y44398D02*
X312142D01*
X312299Y21563D02*
Y44240D01*
X252604Y21484D02*
Y44161D01*
X252447Y44319D02*
X252604Y44161D01*
X230331Y44319D02*
X252447D01*
X230104Y21484D02*
X252604D01*
X230104D02*
Y44161D01*
X125035Y38563D02*
Y61240D01*
Y38563D02*
X147535D01*
X125262Y61398D02*
X147378D01*
X147535Y38563D02*
Y61240D01*
X87840Y38484D02*
Y61161D01*
X87683Y61319D02*
X87840Y61161D01*
X65567Y61319D02*
X87683D01*
X65341Y38484D02*
X87840D01*
X65341D02*
Y61161D01*
X160630Y77165D02*
X180315D01*
Y102362D01*
X154724Y96850D02*
X160236Y102362D01*
X160236D02*
X180315D01*
X154724Y83071D02*
X160630Y77165D01*
X154724Y83071D02*
Y96850D01*
X265244Y193205D02*
X284929D01*
X265244Y168008D02*
Y193205D01*
X285323Y168008D02*
X290835Y173520D01*
X265244Y168008D02*
X285323D01*
X284929Y193205D02*
X290835Y187299D01*
Y173520D02*
Y187299D01*
X263779Y81102D02*
X283465D01*
X263779Y55905D02*
Y81102D01*
X283858Y55905D02*
X289370Y61417D01*
X263779Y55905D02*
X283858D01*
X283465Y81102D02*
X289370Y75197D01*
Y61417D02*
Y75197D01*
X368504Y169291D02*
X388189D01*
Y194488D01*
X362598Y188976D02*
X368110Y194488D01*
X368110D02*
X388189D01*
X362598Y175197D02*
X368504Y169291D01*
X362598Y175197D02*
Y188976D01*
M02*
