%TF.GenerationSoftware,Altium Limited,Altium Designer,19.1.8 (144)*%
G04 Layer_Color=8421504*
%FSLAX26Y26*%
%MOIN*%
%TF.FileFunction,Paste,Top*%
%TF.Part,Single*%
G01*
G75*
%TA.AperFunction,SMDPad,CuDef*%
%ADD10R,0.086614X0.122047*%
%ADD11R,0.043307X0.019685*%
%ADD12R,0.062992X0.125984*%
%ADD13R,0.125984X0.062992*%
%ADD14R,0.098425X0.127953*%
%ADD15R,0.051181X0.041339*%
%ADD16R,0.041339X0.051181*%
%ADD17R,0.055118X0.041339*%
%ADD18R,0.041339X0.055118*%
D10*
X2132559Y1380394D02*
D03*
X3778583Y1280669D02*
D03*
D11*
X2237598Y1355000D02*
D03*
Y1405000D02*
D03*
Y1455000D02*
D03*
Y1305000D02*
D03*
X2025000D02*
D03*
Y1455000D02*
D03*
Y1405000D02*
D03*
Y1355000D02*
D03*
X3883622Y1255276D02*
D03*
Y1305276D02*
D03*
Y1355276D02*
D03*
Y1205276D02*
D03*
X3671024D02*
D03*
Y1355276D02*
D03*
Y1305276D02*
D03*
Y1255276D02*
D03*
D12*
X2180000Y629213D02*
D03*
Y830000D02*
D03*
X3800000Y480000D02*
D03*
Y680787D02*
D03*
D13*
X2680000Y1810000D02*
D03*
X2880787D02*
D03*
X4000000D02*
D03*
X3799213D02*
D03*
D14*
X1579527Y1170000D02*
D03*
X1800000D02*
D03*
X3109528Y1260000D02*
D03*
X3330000D02*
D03*
D15*
X3700000Y1004331D02*
D03*
Y1077165D02*
D03*
X4150000Y1293583D02*
D03*
Y1366417D02*
D03*
X2080000Y1122165D02*
D03*
Y1195000D02*
D03*
X2370000Y1122165D02*
D03*
Y1195000D02*
D03*
X3980000Y1007165D02*
D03*
Y1080000D02*
D03*
D16*
X2592835Y1360000D02*
D03*
X2520000D02*
D03*
D17*
X3500000Y1426417D02*
D03*
Y1353583D02*
D03*
X4030000Y1297165D02*
D03*
Y1370000D02*
D03*
X1815000Y1481417D02*
D03*
Y1408583D02*
D03*
X2180000Y1195000D02*
D03*
Y1122165D02*
D03*
X3790000Y1080000D02*
D03*
Y1007165D02*
D03*
D18*
X2360000Y1360000D02*
D03*
X2432835D02*
D03*
%TF.MD5,c63c1d9669912976fd5d9482ea78ab62*%
M02*
