%TF.GenerationSoftware,Altium Limited,Altium Designer,19.1.8 (144)*%
G04 Layer_Color=65535*
%FSLAX26Y26*%
%MOIN*%
%TF.FileFunction,Legend,Top*%
%TF.Part,Single*%
G01*
G75*
%TA.AperFunction,NonConductor*%
%ADD22C,0.010000*%
%ADD35C,0.003937*%
%ADD36C,0.007874*%
%ADD37C,0.005906*%
G36*
X714614Y1995653D02*
X732150D01*
Y1992730D01*
X749686D01*
Y1989808D01*
X767222D01*
Y1986885D01*
X784759D01*
Y1983962D01*
X802295D01*
Y1981040D01*
X784759D01*
Y1978117D01*
X767222D01*
Y1975194D01*
X749686D01*
Y1972272D01*
X732150D01*
Y1969349D01*
X714614D01*
Y1966426D01*
X708768D01*
Y1969349D01*
X691232D01*
Y1972272D01*
X673696D01*
Y1975194D01*
X656159D01*
Y1978117D01*
X638623D01*
Y1981040D01*
X621087D01*
Y1983962D01*
X638623D01*
Y1986885D01*
X656159D01*
Y1989808D01*
X673696D01*
Y1992730D01*
X691232D01*
Y1995653D01*
X708768D01*
Y1998576D01*
X714614D01*
Y1995653D01*
D02*
G37*
G36*
X875363Y1928431D02*
X872440D01*
Y1925508D01*
X869517D01*
Y1922585D01*
X866595D01*
Y1919663D01*
X863672D01*
Y1916740D01*
X860749D01*
Y1913817D01*
Y1910895D01*
X857827D01*
Y1907972D01*
X854904D01*
Y1905049D01*
X851981D01*
Y1902126D01*
X849058D01*
Y1899204D01*
X846136D01*
Y1896281D01*
Y1893358D01*
X843213D01*
Y1890436D01*
X840290D01*
Y1887513D01*
X837368D01*
Y1884590D01*
X834445D01*
Y1881667D01*
X831522D01*
Y1878745D01*
Y1875822D01*
X828600D01*
Y1872899D01*
X825677D01*
Y1869976D01*
X822754D01*
Y1867054D01*
X819831D01*
Y1864131D01*
X816909D01*
Y1861208D01*
Y1858286D01*
X813986D01*
Y1855363D01*
X811063D01*
Y1852440D01*
X808140D01*
Y1849517D01*
Y1846595D01*
Y1843672D01*
X805218D01*
Y1840749D01*
Y1837827D01*
X802295D01*
Y1834904D01*
Y1831981D01*
Y1829059D01*
X799372D01*
Y1826136D01*
Y1823213D01*
X796450D01*
Y1820290D01*
Y1817368D01*
Y1814445D01*
X793527D01*
Y1811522D01*
Y1808600D01*
X790604D01*
Y1805677D01*
Y1802754D01*
Y1799831D01*
X787682D01*
Y1796909D01*
Y1793986D01*
X784759D01*
Y1791063D01*
Y1788140D01*
Y1785218D01*
X781836D01*
Y1782295D01*
Y1779372D01*
X778913D01*
Y1776450D01*
Y1773527D01*
Y1770604D01*
X775991D01*
Y1767681D01*
Y1764759D01*
X773068D01*
Y1761836D01*
Y1758913D01*
Y1755991D01*
X770145D01*
Y1753068D01*
Y1750145D01*
X767222D01*
Y1747222D01*
Y1744300D01*
Y1741377D01*
X764300D01*
Y1738454D01*
Y1735532D01*
X761377D01*
Y1732609D01*
Y1729686D01*
Y1726763D01*
X758454D01*
Y1729686D01*
Y1732609D01*
Y1735532D01*
Y1738454D01*
Y1741377D01*
Y1744300D01*
X761377D01*
Y1747222D01*
Y1750145D01*
Y1753068D01*
Y1755991D01*
Y1758913D01*
Y1761836D01*
X764300D01*
Y1764759D01*
Y1767681D01*
Y1770604D01*
Y1773527D01*
Y1776450D01*
Y1779372D01*
X767222D01*
Y1782295D01*
Y1785218D01*
Y1788140D01*
Y1791063D01*
Y1793986D01*
X770145D01*
Y1796909D01*
Y1799831D01*
Y1802754D01*
Y1805677D01*
Y1808600D01*
Y1811522D01*
X773068D01*
Y1814445D01*
Y1817368D01*
Y1820290D01*
Y1823213D01*
Y1826136D01*
Y1829059D01*
X775991D01*
Y1831981D01*
Y1834904D01*
Y1837827D01*
Y1840749D01*
Y1843672D01*
Y1846595D01*
X778913D01*
Y1849517D01*
Y1852440D01*
Y1855363D01*
Y1858286D01*
Y1861208D01*
Y1864131D01*
X781836D01*
Y1867054D01*
Y1869976D01*
Y1872899D01*
Y1875822D01*
X787682D01*
Y1878745D01*
X790604D01*
Y1881667D01*
X796450D01*
Y1884590D01*
X799372D01*
Y1887513D01*
X805218D01*
Y1890436D01*
X808140D01*
Y1893358D01*
X813986D01*
Y1896281D01*
X819831D01*
Y1899204D01*
X822754D01*
Y1902126D01*
X828600D01*
Y1905049D01*
X831522D01*
Y1907972D01*
X837368D01*
Y1910895D01*
X840290D01*
Y1913817D01*
X846136D01*
Y1916740D01*
X851981D01*
Y1919663D01*
X854904D01*
Y1922585D01*
X860749D01*
Y1925508D01*
X863672D01*
Y1928431D01*
X869517D01*
Y1931353D01*
X875363D01*
Y1928431D01*
D02*
G37*
G36*
X553864D02*
X559710D01*
Y1925508D01*
X562632D01*
Y1922585D01*
X568478D01*
Y1919663D01*
X571401D01*
Y1916740D01*
X577246D01*
Y1913817D01*
X580169D01*
Y1910895D01*
X586014D01*
Y1907972D01*
X591860D01*
Y1905049D01*
X594782D01*
Y1902126D01*
X600628D01*
Y1899204D01*
X603550D01*
Y1896281D01*
X609396D01*
Y1893358D01*
X612318D01*
Y1890436D01*
X618164D01*
Y1887513D01*
X624009D01*
Y1884590D01*
X626932D01*
Y1881667D01*
X632778D01*
Y1878745D01*
X635700D01*
Y1875822D01*
X641546D01*
Y1872899D01*
Y1869976D01*
Y1867054D01*
Y1864131D01*
X644468D01*
Y1861208D01*
Y1858286D01*
Y1855363D01*
Y1852440D01*
Y1849517D01*
Y1846595D01*
X647391D01*
Y1843672D01*
Y1840749D01*
Y1837827D01*
Y1834904D01*
Y1831981D01*
Y1829059D01*
X650314D01*
Y1826136D01*
Y1823213D01*
Y1820290D01*
Y1817368D01*
Y1814445D01*
Y1811522D01*
X653236D01*
Y1808600D01*
Y1805677D01*
Y1802754D01*
Y1799831D01*
Y1796909D01*
Y1793986D01*
X656159D01*
Y1791063D01*
Y1788140D01*
Y1785218D01*
Y1782295D01*
Y1779372D01*
Y1776450D01*
X659082D01*
Y1773527D01*
Y1770604D01*
Y1767681D01*
Y1764759D01*
Y1761836D01*
Y1758913D01*
X662005D01*
Y1755991D01*
Y1753068D01*
Y1750145D01*
Y1747222D01*
Y1744300D01*
Y1741377D01*
X664927D01*
Y1738454D01*
Y1735532D01*
Y1732609D01*
Y1729686D01*
Y1726763D01*
X662005D01*
Y1729686D01*
Y1732609D01*
X659082D01*
Y1735532D01*
Y1738454D01*
Y1741377D01*
X656159D01*
Y1744300D01*
Y1747222D01*
X653236D01*
Y1750145D01*
Y1753068D01*
Y1755991D01*
X650314D01*
Y1758913D01*
Y1761836D01*
X647391D01*
Y1764759D01*
Y1767681D01*
Y1770604D01*
X644468D01*
Y1773527D01*
Y1776450D01*
X641546D01*
Y1779372D01*
Y1782295D01*
Y1785218D01*
X638623D01*
Y1788140D01*
Y1791063D01*
X635700D01*
Y1793986D01*
Y1796909D01*
Y1799831D01*
X632778D01*
Y1802754D01*
Y1805677D01*
X629855D01*
Y1808600D01*
Y1811522D01*
Y1814445D01*
X626932D01*
Y1817368D01*
Y1820290D01*
X624009D01*
Y1823213D01*
Y1826136D01*
Y1829059D01*
X621087D01*
Y1831981D01*
Y1834904D01*
X618164D01*
Y1837827D01*
Y1840749D01*
Y1843672D01*
X615241D01*
Y1846595D01*
Y1849517D01*
X612318D01*
Y1852440D01*
Y1855363D01*
X609396D01*
Y1858286D01*
X606473D01*
Y1861208D01*
Y1864131D01*
X603550D01*
Y1867054D01*
X600628D01*
Y1869976D01*
X597705D01*
Y1872899D01*
X594782D01*
Y1875822D01*
X591860D01*
Y1878745D01*
Y1881667D01*
X588937D01*
Y1884590D01*
X586014D01*
Y1887513D01*
X583091D01*
Y1890436D01*
X580169D01*
Y1893358D01*
X577246D01*
Y1896281D01*
Y1899204D01*
X574323D01*
Y1902126D01*
X571401D01*
Y1905049D01*
X568478D01*
Y1907972D01*
X565555D01*
Y1910895D01*
X562632D01*
Y1913817D01*
Y1916740D01*
X559710D01*
Y1919663D01*
X556787D01*
Y1922585D01*
X553864D01*
Y1925508D01*
X550942D01*
Y1928431D01*
X548019D01*
Y1931353D01*
X553864D01*
Y1928431D01*
D02*
G37*
G36*
X866595Y1963503D02*
X860749D01*
Y1960581D01*
X857827D01*
Y1957658D01*
X851981D01*
Y1954735D01*
X849058D01*
Y1951812D01*
X843213D01*
Y1948890D01*
X840290D01*
Y1945967D01*
X834445D01*
Y1943044D01*
X831522D01*
Y1940122D01*
X825677D01*
Y1937199D01*
X822754D01*
Y1934276D01*
X816909D01*
Y1931353D01*
X811063D01*
Y1928431D01*
X808140D01*
Y1925508D01*
X802295D01*
Y1922585D01*
X799372D01*
Y1919663D01*
X793527D01*
Y1916740D01*
X790604D01*
Y1913817D01*
X784759D01*
Y1910895D01*
X781836D01*
Y1907972D01*
X775991D01*
Y1905049D01*
X773068D01*
Y1902126D01*
X767222D01*
Y1899204D01*
X764300D01*
Y1896281D01*
X758454D01*
Y1893358D01*
Y1890436D01*
Y1887513D01*
X755532D01*
Y1884590D01*
Y1881667D01*
Y1878745D01*
Y1875822D01*
Y1872899D01*
Y1869976D01*
X752609D01*
Y1867054D01*
Y1864131D01*
Y1861208D01*
Y1858286D01*
Y1855363D01*
Y1852440D01*
Y1849517D01*
X749686D01*
Y1846595D01*
Y1843672D01*
Y1840749D01*
Y1837827D01*
Y1834904D01*
Y1831981D01*
X746763D01*
Y1829059D01*
Y1826136D01*
Y1823213D01*
Y1820290D01*
Y1817368D01*
Y1814445D01*
X743841D01*
Y1811522D01*
Y1808600D01*
Y1805677D01*
Y1802754D01*
Y1799831D01*
Y1796909D01*
Y1793986D01*
X740918D01*
Y1791063D01*
Y1788140D01*
Y1785218D01*
Y1782295D01*
Y1779372D01*
Y1776450D01*
X737995D01*
Y1773527D01*
Y1770604D01*
Y1767681D01*
Y1764759D01*
Y1761836D01*
Y1758913D01*
Y1755991D01*
X735073D01*
Y1753068D01*
Y1750145D01*
Y1747222D01*
Y1744300D01*
Y1741377D01*
Y1738454D01*
X732150D01*
Y1735532D01*
Y1732609D01*
Y1729686D01*
Y1726763D01*
Y1723841D01*
Y1720918D01*
X729227D01*
Y1717995D01*
Y1715073D01*
Y1712150D01*
Y1709227D01*
Y1706304D01*
Y1703382D01*
Y1700459D01*
X726304D01*
Y1697536D01*
Y1694614D01*
Y1691691D01*
Y1688768D01*
Y1685845D01*
Y1682923D01*
X723382D01*
Y1685845D01*
Y1688768D01*
Y1691691D01*
Y1694614D01*
Y1697536D01*
Y1700459D01*
Y1703382D01*
Y1706304D01*
Y1709227D01*
Y1712150D01*
Y1715073D01*
Y1717995D01*
Y1720918D01*
Y1723841D01*
Y1726763D01*
Y1729686D01*
Y1732609D01*
Y1735532D01*
Y1738454D01*
Y1741377D01*
Y1744300D01*
Y1747222D01*
Y1750145D01*
Y1753068D01*
Y1755991D01*
Y1758913D01*
Y1761836D01*
Y1764759D01*
Y1767681D01*
Y1770604D01*
Y1773527D01*
Y1776450D01*
Y1779372D01*
Y1782295D01*
Y1785218D01*
Y1788140D01*
Y1791063D01*
Y1793986D01*
Y1796909D01*
Y1799831D01*
Y1802754D01*
Y1805677D01*
Y1808600D01*
Y1811522D01*
Y1814445D01*
Y1817368D01*
Y1820290D01*
Y1823213D01*
Y1826136D01*
Y1829059D01*
Y1831981D01*
Y1834904D01*
Y1837827D01*
Y1840749D01*
Y1843672D01*
Y1846595D01*
Y1849517D01*
Y1852440D01*
Y1855363D01*
Y1858286D01*
Y1861208D01*
Y1864131D01*
Y1867054D01*
Y1869976D01*
Y1872899D01*
Y1875822D01*
Y1878745D01*
Y1881667D01*
Y1884590D01*
Y1887513D01*
Y1890436D01*
Y1893358D01*
Y1896281D01*
Y1899204D01*
Y1902126D01*
Y1905049D01*
Y1907972D01*
Y1910895D01*
Y1913817D01*
Y1916740D01*
Y1919663D01*
Y1922585D01*
Y1925508D01*
Y1928431D01*
Y1931353D01*
Y1934276D01*
Y1937199D01*
Y1940122D01*
Y1943044D01*
X726304D01*
Y1945967D01*
X743841D01*
Y1948890D01*
X761377D01*
Y1951812D01*
X778913D01*
Y1954735D01*
X796450D01*
Y1957658D01*
X813986D01*
Y1960581D01*
X834445D01*
Y1963503D01*
X851981D01*
Y1966426D01*
X866595D01*
Y1963503D01*
D02*
G37*
G36*
X571401D02*
X588937D01*
Y1960581D01*
X606473D01*
Y1957658D01*
X626932D01*
Y1954735D01*
X644468D01*
Y1951812D01*
X662005D01*
Y1948890D01*
X679541D01*
Y1945967D01*
X697077D01*
Y1943044D01*
X700000D01*
Y1940122D01*
Y1937199D01*
Y1934276D01*
Y1931353D01*
Y1928431D01*
Y1925508D01*
Y1922585D01*
Y1919663D01*
Y1916740D01*
Y1913817D01*
Y1910895D01*
Y1907972D01*
Y1905049D01*
Y1902126D01*
Y1899204D01*
Y1896281D01*
Y1893358D01*
Y1890436D01*
Y1887513D01*
Y1884590D01*
Y1881667D01*
Y1878745D01*
Y1875822D01*
Y1872899D01*
Y1869976D01*
Y1867054D01*
Y1864131D01*
Y1861208D01*
Y1858286D01*
Y1855363D01*
Y1852440D01*
Y1849517D01*
Y1846595D01*
Y1843672D01*
Y1840749D01*
Y1837827D01*
Y1834904D01*
Y1831981D01*
Y1829059D01*
Y1826136D01*
Y1823213D01*
Y1820290D01*
Y1817368D01*
Y1814445D01*
Y1811522D01*
Y1808600D01*
Y1805677D01*
Y1802754D01*
Y1799831D01*
Y1796909D01*
Y1793986D01*
Y1791063D01*
Y1788140D01*
Y1785218D01*
Y1782295D01*
Y1779372D01*
Y1776450D01*
Y1773527D01*
Y1770604D01*
Y1767681D01*
Y1764759D01*
Y1761836D01*
Y1758913D01*
Y1755991D01*
Y1753068D01*
Y1750145D01*
Y1747222D01*
Y1744300D01*
Y1741377D01*
Y1738454D01*
Y1735532D01*
Y1732609D01*
Y1729686D01*
Y1726763D01*
Y1723841D01*
Y1720918D01*
Y1717995D01*
Y1715073D01*
Y1712150D01*
Y1709227D01*
Y1706304D01*
Y1703382D01*
Y1700459D01*
Y1697536D01*
Y1694614D01*
Y1691691D01*
Y1688768D01*
Y1685845D01*
Y1682923D01*
Y1680000D01*
X697077D01*
Y1682923D01*
Y1685845D01*
Y1688768D01*
Y1691691D01*
Y1694614D01*
Y1697536D01*
Y1700459D01*
X694154D01*
Y1703382D01*
Y1706304D01*
Y1709227D01*
Y1712150D01*
Y1715073D01*
Y1717995D01*
X691232D01*
Y1720918D01*
Y1723841D01*
Y1726763D01*
Y1729686D01*
Y1732609D01*
Y1735532D01*
Y1738454D01*
X688309D01*
Y1741377D01*
Y1744300D01*
Y1747222D01*
Y1750145D01*
Y1753068D01*
Y1755991D01*
X685386D01*
Y1758913D01*
Y1761836D01*
Y1764759D01*
Y1767681D01*
Y1770604D01*
Y1773527D01*
X682464D01*
Y1776450D01*
Y1779372D01*
Y1782295D01*
Y1785218D01*
Y1788140D01*
Y1791063D01*
Y1793986D01*
X679541D01*
Y1796909D01*
Y1799831D01*
Y1802754D01*
Y1805677D01*
Y1808600D01*
Y1811522D01*
X676618D01*
Y1814445D01*
Y1817368D01*
Y1820290D01*
Y1823213D01*
Y1826136D01*
Y1829059D01*
Y1831981D01*
X673696D01*
Y1834904D01*
Y1837827D01*
Y1840749D01*
Y1843672D01*
Y1846595D01*
Y1849517D01*
X670773D01*
Y1852440D01*
Y1855363D01*
Y1858286D01*
Y1861208D01*
Y1864131D01*
Y1867054D01*
X667850D01*
Y1869976D01*
Y1872899D01*
Y1875822D01*
Y1878745D01*
Y1881667D01*
Y1884590D01*
Y1887513D01*
X664927D01*
Y1890436D01*
Y1893358D01*
Y1896281D01*
X659082D01*
Y1899204D01*
X656159D01*
Y1902126D01*
X650314D01*
Y1905049D01*
X647391D01*
Y1907972D01*
X641546D01*
Y1910895D01*
X638623D01*
Y1913817D01*
X632778D01*
Y1916740D01*
X629855D01*
Y1919663D01*
X624009D01*
Y1922585D01*
X618164D01*
Y1925508D01*
X615241D01*
Y1928431D01*
X609396D01*
Y1931353D01*
X606473D01*
Y1934276D01*
X600628D01*
Y1937199D01*
X597705D01*
Y1940122D01*
X591860D01*
Y1943044D01*
X588937D01*
Y1945967D01*
X583091D01*
Y1948890D01*
X580169D01*
Y1951812D01*
X574323D01*
Y1954735D01*
X571401D01*
Y1957658D01*
X565555D01*
Y1960581D01*
X562632D01*
Y1963503D01*
X556787D01*
Y1966426D01*
X571401D01*
Y1963503D01*
D02*
G37*
G36*
X618454Y293841D02*
Y290918D01*
X615532D01*
Y293841D01*
Y296763D01*
X618454D01*
Y293841D01*
D02*
G37*
G36*
X527850Y290918D02*
Y287995D01*
X524927D01*
Y290918D01*
Y293841D01*
X527850D01*
Y290918D01*
D02*
G37*
G36*
X776611Y1664465D02*
X777194D01*
X778579Y1664319D01*
X780110Y1664100D01*
X781714Y1663736D01*
X783463Y1663298D01*
X785140Y1662715D01*
X785213D01*
X785359Y1662642D01*
X785577Y1662569D01*
X785869Y1662423D01*
X786671Y1661986D01*
X787691Y1661476D01*
X788785Y1660747D01*
X789951Y1659872D01*
X791045Y1658924D01*
X792065Y1657758D01*
X792211Y1657612D01*
X792503Y1657175D01*
X792940Y1656518D01*
X793523Y1655571D01*
X794107Y1654404D01*
X794763Y1652946D01*
X795419Y1651342D01*
X795929Y1649520D01*
X789878Y1647916D01*
Y1647989D01*
X789806Y1648062D01*
X789733Y1648281D01*
X789660Y1648572D01*
X789441Y1649228D01*
X789149Y1650103D01*
X788712Y1651124D01*
X788202Y1652072D01*
X787691Y1653092D01*
X787035Y1653967D01*
X786962Y1654040D01*
X786744Y1654331D01*
X786306Y1654696D01*
X785796Y1655206D01*
X785140Y1655789D01*
X784265Y1656373D01*
X783317Y1656956D01*
X782224Y1657466D01*
X782078Y1657539D01*
X781714Y1657685D01*
X781058Y1657903D01*
X780183Y1658195D01*
X779162Y1658414D01*
X777996Y1658632D01*
X776683Y1658778D01*
X775298Y1658851D01*
X774496D01*
X774132Y1658778D01*
X773695D01*
X772601Y1658705D01*
X771362Y1658487D01*
X769977Y1658268D01*
X768664Y1657903D01*
X767352Y1657393D01*
X767207Y1657320D01*
X766769Y1657175D01*
X766186Y1656810D01*
X765457Y1656446D01*
X764582Y1655862D01*
X763634Y1655279D01*
X762760Y1654550D01*
X761958Y1653748D01*
X761885Y1653675D01*
X761593Y1653384D01*
X761229Y1652873D01*
X760791Y1652290D01*
X760281Y1651561D01*
X759771Y1650686D01*
X759260Y1649739D01*
X758750Y1648718D01*
Y1648645D01*
X758677Y1648499D01*
X758604Y1648281D01*
X758458Y1647916D01*
X758313Y1647479D01*
X758167Y1646968D01*
X757948Y1646385D01*
X757802Y1645729D01*
X757438Y1644198D01*
X757146Y1642449D01*
X756928Y1640626D01*
X756855Y1638585D01*
Y1638512D01*
Y1638293D01*
Y1637929D01*
X756928Y1637492D01*
Y1636908D01*
X757000Y1636179D01*
X757073Y1635450D01*
X757146Y1634648D01*
X757438Y1632826D01*
X757802Y1630930D01*
X758386Y1629035D01*
X759115Y1627213D01*
Y1627140D01*
X759260Y1626994D01*
X759333Y1626775D01*
X759552Y1626484D01*
X760062Y1625682D01*
X760864Y1624661D01*
X761812Y1623568D01*
X762978Y1622474D01*
X764363Y1621454D01*
X765894Y1620506D01*
X765967D01*
X766113Y1620433D01*
X766332Y1620287D01*
X766696Y1620141D01*
X767061Y1619995D01*
X767571Y1619850D01*
X768737Y1619412D01*
X770195Y1619048D01*
X771799Y1618683D01*
X773549Y1618392D01*
X775371Y1618319D01*
X776100D01*
X776538Y1618392D01*
X776975D01*
X778069Y1618537D01*
X779381Y1618683D01*
X780766Y1618975D01*
X782297Y1619412D01*
X783828Y1619923D01*
X783901D01*
X784046Y1619995D01*
X784192Y1620068D01*
X784484Y1620214D01*
X785286Y1620579D01*
X786160Y1621016D01*
X787181Y1621526D01*
X788275Y1622110D01*
X789295Y1622766D01*
X790170Y1623495D01*
Y1632972D01*
X775298D01*
Y1638949D01*
X796731D01*
Y1620214D01*
X796658Y1620141D01*
X796512Y1620068D01*
X796221Y1619850D01*
X795856Y1619558D01*
X795419Y1619266D01*
X794909Y1618902D01*
X794252Y1618465D01*
X793596Y1618027D01*
X792065Y1617080D01*
X790316Y1616059D01*
X788493Y1615111D01*
X786525Y1614309D01*
X786452D01*
X786306Y1614236D01*
X786015Y1614164D01*
X785650Y1614018D01*
X785140Y1613872D01*
X784557Y1613653D01*
X783901Y1613507D01*
X783245Y1613362D01*
X781641Y1612997D01*
X779818Y1612633D01*
X777850Y1612414D01*
X775809Y1612341D01*
X775080D01*
X774569Y1612414D01*
X773913D01*
X773111Y1612487D01*
X772237Y1612633D01*
X771289Y1612706D01*
X769175Y1613143D01*
X766915Y1613653D01*
X764582Y1614455D01*
X763416Y1614892D01*
X762249Y1615476D01*
X762176Y1615549D01*
X761958Y1615621D01*
X761666Y1615840D01*
X761229Y1616059D01*
X760718Y1616423D01*
X760208Y1616788D01*
X758823Y1617809D01*
X757365Y1619121D01*
X755834Y1620725D01*
X754376Y1622547D01*
X753064Y1624661D01*
Y1624734D01*
X752918Y1624953D01*
X752772Y1625244D01*
X752554Y1625755D01*
X752335Y1626265D01*
X752116Y1626994D01*
X751825Y1627723D01*
X751533Y1628598D01*
X751241Y1629545D01*
X750950Y1630639D01*
X750731Y1631732D01*
X750512Y1632899D01*
X750148Y1635450D01*
X750002Y1638148D01*
Y1638220D01*
Y1638512D01*
Y1638877D01*
X750075Y1639387D01*
Y1640043D01*
X750148Y1640845D01*
X750294Y1641647D01*
X750367Y1642594D01*
X750585Y1643615D01*
X750731Y1644709D01*
X751314Y1647041D01*
X752043Y1649447D01*
X753064Y1651853D01*
X753137Y1651926D01*
X753210Y1652144D01*
X753356Y1652436D01*
X753647Y1652873D01*
X753939Y1653457D01*
X754303Y1654040D01*
X755324Y1655425D01*
X756563Y1657029D01*
X758094Y1658560D01*
X759844Y1660091D01*
X760864Y1660747D01*
X761885Y1661403D01*
X761958Y1661476D01*
X762176Y1661549D01*
X762468Y1661694D01*
X762905Y1661913D01*
X763489Y1662132D01*
X764145Y1662423D01*
X764874Y1662715D01*
X765749Y1663006D01*
X766696Y1663298D01*
X767717Y1663517D01*
X768810Y1663808D01*
X769977Y1664027D01*
X772528Y1664392D01*
X773840Y1664537D01*
X776173D01*
X776611Y1664465D01*
D02*
G37*
G36*
X673894Y1613216D02*
X666969D01*
X640579Y1652801D01*
Y1613216D01*
X634164D01*
Y1663663D01*
X641017D01*
X667479Y1624005D01*
Y1663663D01*
X673894D01*
Y1613216D01*
D02*
G37*
G36*
X706408D02*
X699409D01*
X679872Y1663663D01*
X687162D01*
X700284Y1626994D01*
Y1626921D01*
X700357Y1626775D01*
X700430Y1626556D01*
X700576Y1626265D01*
X700649Y1625828D01*
X700795Y1625390D01*
X701159Y1624297D01*
X701596Y1623057D01*
X702034Y1621672D01*
X702909Y1618756D01*
Y1618829D01*
X702982Y1618975D01*
X703054Y1619194D01*
X703127Y1619485D01*
X703346Y1620287D01*
X703711Y1621381D01*
X704075Y1622620D01*
X704513Y1624005D01*
X705023Y1625463D01*
X705606Y1626994D01*
X719311Y1663663D01*
X726091D01*
X706408Y1613216D01*
D02*
G37*
G36*
X812988Y1619194D02*
X837847D01*
Y1613216D01*
X806281D01*
Y1663663D01*
X812988D01*
Y1619194D01*
D02*
G37*
G36*
X604056Y1663590D02*
X605514Y1663517D01*
X606972Y1663371D01*
X608430Y1663152D01*
X609670Y1662934D01*
X609742D01*
X609888Y1662861D01*
X610107D01*
X610399Y1662715D01*
X611201Y1662496D01*
X612221Y1662132D01*
X613388Y1661621D01*
X614627Y1660965D01*
X615866Y1660236D01*
X617033Y1659289D01*
X617105Y1659216D01*
X617178Y1659143D01*
X617397Y1658924D01*
X617689Y1658705D01*
X618418Y1657976D01*
X619292Y1656956D01*
X620240Y1655716D01*
X621261Y1654258D01*
X622208Y1652582D01*
X623010Y1650686D01*
Y1650613D01*
X623083Y1650468D01*
X623229Y1650176D01*
X623302Y1649739D01*
X623521Y1649228D01*
X623666Y1648645D01*
X623812Y1647989D01*
X624031Y1647187D01*
X624250Y1646385D01*
X624395Y1645438D01*
X624760Y1643396D01*
X624979Y1641137D01*
X625052Y1638658D01*
Y1638585D01*
Y1638439D01*
Y1638075D01*
Y1637710D01*
X624979Y1637200D01*
Y1636617D01*
X624906Y1635232D01*
X624687Y1633628D01*
X624468Y1631951D01*
X624104Y1630201D01*
X623666Y1628452D01*
Y1628379D01*
X623593Y1628233D01*
X623521Y1628014D01*
X623448Y1627723D01*
X623156Y1626921D01*
X622719Y1625900D01*
X622281Y1624734D01*
X621698Y1623568D01*
X620969Y1622328D01*
X620240Y1621162D01*
X620167Y1621016D01*
X619876Y1620652D01*
X619438Y1620141D01*
X618855Y1619485D01*
X618199Y1618756D01*
X617397Y1618027D01*
X616595Y1617225D01*
X615647Y1616569D01*
X615502Y1616496D01*
X615210Y1616278D01*
X614700Y1615986D01*
X613971Y1615621D01*
X613096Y1615184D01*
X612075Y1614820D01*
X610909Y1614382D01*
X609597Y1614018D01*
X609451D01*
X609232Y1613945D01*
X609014Y1613872D01*
X608284Y1613799D01*
X607264Y1613653D01*
X606097Y1613507D01*
X604712Y1613362D01*
X603182Y1613289D01*
X601505Y1613216D01*
X583353D01*
Y1663663D01*
X602744D01*
X604056Y1663590D01*
D02*
G37*
G36*
X720040Y1595180D02*
X713844D01*
Y1602252D01*
X720040D01*
Y1595180D01*
D02*
G37*
G36*
X881368Y1589130D02*
X882170Y1588984D01*
X883117Y1588692D01*
X884138Y1588328D01*
X885304Y1587817D01*
X886544Y1587161D01*
X884284Y1581475D01*
X884211Y1581548D01*
X883919Y1581694D01*
X883482Y1581912D01*
X882899Y1582131D01*
X882243Y1582350D01*
X881441Y1582569D01*
X880639Y1582714D01*
X879837Y1582787D01*
X879472D01*
X879108Y1582714D01*
X878598Y1582641D01*
X878087Y1582496D01*
X877431Y1582277D01*
X876775Y1581985D01*
X876192Y1581548D01*
X876119Y1581475D01*
X875900Y1581329D01*
X875682Y1581038D01*
X875317Y1580673D01*
X874953Y1580163D01*
X874588Y1579580D01*
X874224Y1578924D01*
X873932Y1578122D01*
X873859Y1577976D01*
X873786Y1577539D01*
X873640Y1576882D01*
X873422Y1576008D01*
X873203Y1574914D01*
X873057Y1573675D01*
X872984Y1572363D01*
X872912Y1570905D01*
Y1551805D01*
X866715D01*
Y1588401D01*
X872328D01*
Y1582860D01*
X872401Y1582933D01*
X872693Y1583443D01*
X873057Y1584100D01*
X873640Y1584901D01*
X874224Y1585703D01*
X874880Y1586578D01*
X875536Y1587307D01*
X876192Y1587890D01*
X876265Y1587963D01*
X876484Y1588109D01*
X876921Y1588328D01*
X877358Y1588546D01*
X877942Y1588765D01*
X878671Y1588984D01*
X879400Y1589130D01*
X880202Y1589203D01*
X880712D01*
X881368Y1589130D01*
D02*
G37*
G36*
X606170Y1551805D02*
X600630D01*
Y1557127D01*
X600557Y1557054D01*
X600411Y1556835D01*
X600193Y1556543D01*
X599828Y1556179D01*
X599391Y1555741D01*
X598880Y1555158D01*
X598297Y1554648D01*
X597568Y1554065D01*
X596766Y1553482D01*
X595891Y1552971D01*
X594944Y1552461D01*
X593923Y1551951D01*
X592757Y1551586D01*
X591590Y1551294D01*
X590278Y1551076D01*
X588966Y1551003D01*
X588456D01*
X587800Y1551076D01*
X586998Y1551149D01*
X586050Y1551294D01*
X585029Y1551513D01*
X584009Y1551805D01*
X582915Y1552242D01*
X582769Y1552315D01*
X582478Y1552461D01*
X581968Y1552753D01*
X581384Y1553117D01*
X580655Y1553554D01*
X579999Y1554065D01*
X579343Y1554648D01*
X578760Y1555304D01*
X578687Y1555377D01*
X578541Y1555668D01*
X578323Y1556033D01*
X578031Y1556616D01*
X577667Y1557272D01*
X577375Y1558074D01*
X577083Y1558949D01*
X576865Y1559897D01*
Y1559970D01*
X576792Y1560261D01*
X576719Y1560699D01*
Y1561282D01*
X576646Y1562157D01*
X576573Y1563104D01*
X576500Y1564344D01*
Y1565729D01*
Y1588401D01*
X582697D01*
Y1568062D01*
Y1567989D01*
Y1567843D01*
Y1567624D01*
Y1567260D01*
Y1566458D01*
X582769Y1565437D01*
Y1564344D01*
X582842Y1563250D01*
X582915Y1562302D01*
X583061Y1561501D01*
Y1561428D01*
X583207Y1561136D01*
X583353Y1560699D01*
X583571Y1560115D01*
X583936Y1559532D01*
X584373Y1558876D01*
X584884Y1558293D01*
X585540Y1557710D01*
X585613Y1557637D01*
X585904Y1557491D01*
X586269Y1557272D01*
X586852Y1557054D01*
X587508Y1556762D01*
X588310Y1556543D01*
X589185Y1556398D01*
X590205Y1556325D01*
X590716D01*
X591226Y1556398D01*
X591882Y1556470D01*
X592684Y1556689D01*
X593559Y1556908D01*
X594506Y1557272D01*
X595454Y1557710D01*
X595600Y1557783D01*
X595891Y1558001D01*
X596329Y1558293D01*
X596839Y1558730D01*
X597422Y1559313D01*
X598006Y1559970D01*
X598516Y1560699D01*
X598953Y1561573D01*
X599026Y1561719D01*
X599099Y1562011D01*
X599245Y1562594D01*
X599464Y1563396D01*
X599682Y1564417D01*
X599828Y1565656D01*
X599901Y1567114D01*
X599974Y1568791D01*
Y1588401D01*
X606170D01*
Y1551805D01*
D02*
G37*
G36*
X774934Y1584172D02*
X775007Y1584245D01*
X775153Y1584391D01*
X775371Y1584610D01*
X775736Y1584974D01*
X776100Y1585339D01*
X776611Y1585776D01*
X777267Y1586214D01*
X777923Y1586724D01*
X778652Y1587161D01*
X779454Y1587599D01*
X781349Y1588401D01*
X782370Y1588765D01*
X783463Y1588984D01*
X784630Y1589130D01*
X785796Y1589203D01*
X786452D01*
X787254Y1589130D01*
X788202Y1588984D01*
X789295Y1588838D01*
X790462Y1588546D01*
X791628Y1588109D01*
X792794Y1587599D01*
X792940Y1587526D01*
X793305Y1587307D01*
X793815Y1586943D01*
X794471Y1586432D01*
X795127Y1585776D01*
X795856Y1585047D01*
X796512Y1584172D01*
X797096Y1583152D01*
X797168Y1583006D01*
X797314Y1582641D01*
X797533Y1581985D01*
X797752Y1581038D01*
X797970Y1579871D01*
X798189Y1578486D01*
X798335Y1576810D01*
X798408Y1574914D01*
Y1551805D01*
X792211D01*
Y1574987D01*
Y1575060D01*
Y1575206D01*
Y1575424D01*
Y1575716D01*
X792138Y1576518D01*
X791992Y1577539D01*
X791701Y1578632D01*
X791336Y1579726D01*
X790826Y1580819D01*
X790170Y1581694D01*
X790097Y1581767D01*
X789806Y1582058D01*
X789368Y1582423D01*
X788712Y1582787D01*
X787910Y1583225D01*
X786962Y1583516D01*
X785796Y1583808D01*
X784484Y1583881D01*
X784046D01*
X783536Y1583808D01*
X782807Y1583735D01*
X782078Y1583516D01*
X781203Y1583298D01*
X780328Y1582933D01*
X779381Y1582423D01*
X779308Y1582350D01*
X779016Y1582131D01*
X778579Y1581840D01*
X778069Y1581402D01*
X777485Y1580819D01*
X776902Y1580163D01*
X776392Y1579361D01*
X775955Y1578486D01*
X775882Y1578340D01*
X775809Y1578049D01*
X775663Y1577466D01*
X775444Y1576737D01*
X775226Y1575789D01*
X775080Y1574622D01*
X775007Y1573310D01*
X774934Y1571779D01*
Y1551805D01*
X768737D01*
Y1602252D01*
X774934D01*
Y1584172D01*
D02*
G37*
G36*
X720040Y1551805D02*
X713844D01*
Y1588401D01*
X720040D01*
Y1551805D01*
D02*
G37*
G36*
X705971Y1596274D02*
X678560D01*
Y1580673D01*
X702253D01*
Y1574695D01*
X678560D01*
Y1551805D01*
X671853D01*
Y1602252D01*
X705971D01*
Y1596274D01*
D02*
G37*
G36*
X661137Y1551805D02*
X654941D01*
Y1602252D01*
X661137D01*
Y1551805D01*
D02*
G37*
G36*
X568773Y1596274D02*
X541362D01*
Y1580673D01*
X565055D01*
Y1574695D01*
X541362D01*
Y1551805D01*
X534655D01*
Y1602252D01*
X568773D01*
Y1596274D01*
D02*
G37*
G36*
X815175Y1588401D02*
X821444D01*
Y1583589D01*
X815175D01*
Y1562084D01*
Y1561938D01*
Y1561646D01*
Y1561209D01*
X815248Y1560699D01*
X815321Y1559532D01*
X815393Y1559022D01*
X815466Y1558657D01*
X815539Y1558512D01*
X815758Y1558220D01*
X816049Y1557855D01*
X816560Y1557491D01*
X816706Y1557418D01*
X817070Y1557272D01*
X817726Y1557127D01*
X818674Y1557054D01*
X819403D01*
X819767Y1557127D01*
X820278D01*
X820861Y1557199D01*
X821444Y1557272D01*
X822246Y1551805D01*
X822100D01*
X821809Y1551732D01*
X821298Y1551659D01*
X820642Y1551586D01*
X819913Y1551440D01*
X819111Y1551367D01*
X817508Y1551294D01*
X816924D01*
X816341Y1551367D01*
X815612Y1551440D01*
X814737Y1551513D01*
X813862Y1551732D01*
X813061Y1551951D01*
X812259Y1552315D01*
X812186Y1552388D01*
X811967Y1552534D01*
X811676Y1552753D01*
X811238Y1553117D01*
X810874Y1553482D01*
X810436Y1553992D01*
X809999Y1554502D01*
X809707Y1555158D01*
Y1555231D01*
X809561Y1555523D01*
X809489Y1556033D01*
X809343Y1556762D01*
X809197Y1557710D01*
X809124Y1558293D01*
Y1558949D01*
X809051Y1559751D01*
X808978Y1560553D01*
Y1561428D01*
Y1562448D01*
Y1583589D01*
X804385D01*
Y1588401D01*
X808978D01*
Y1597440D01*
X815175Y1601158D01*
Y1588401D01*
D02*
G37*
G36*
X843751Y1589130D02*
X844335Y1589057D01*
X845064Y1588911D01*
X845866Y1588765D01*
X846813Y1588546D01*
X847688Y1588328D01*
X848709Y1587963D01*
X849656Y1587599D01*
X850677Y1587088D01*
X851698Y1586505D01*
X852718Y1585849D01*
X853666Y1585047D01*
X854541Y1584172D01*
X854614Y1584100D01*
X854759Y1583954D01*
X854978Y1583662D01*
X855270Y1583225D01*
X855634Y1582714D01*
X855999Y1582131D01*
X856436Y1581402D01*
X856874Y1580527D01*
X857311Y1579580D01*
X857748Y1578559D01*
X858113Y1577393D01*
X858477Y1576153D01*
X858769Y1574768D01*
X858988Y1573310D01*
X859133Y1571779D01*
X859206Y1570103D01*
Y1570030D01*
Y1569738D01*
Y1569228D01*
X859133Y1568499D01*
X831796D01*
Y1568426D01*
Y1568207D01*
X831869Y1567916D01*
Y1567478D01*
X831942Y1566968D01*
X832087Y1566385D01*
X832306Y1565073D01*
X832744Y1563615D01*
X833327Y1562011D01*
X834129Y1560553D01*
X835149Y1559241D01*
X835222D01*
X835295Y1559095D01*
X835732Y1558730D01*
X836389Y1558220D01*
X837263Y1557710D01*
X838430Y1557127D01*
X839742Y1556616D01*
X841200Y1556252D01*
X842002Y1556179D01*
X842877Y1556106D01*
X843460D01*
X844116Y1556179D01*
X844918Y1556325D01*
X845793Y1556543D01*
X846813Y1556835D01*
X847761Y1557272D01*
X848709Y1557855D01*
X848782Y1557928D01*
X849146Y1558220D01*
X849583Y1558657D01*
X850094Y1559241D01*
X850677Y1560043D01*
X851333Y1561063D01*
X851989Y1562229D01*
X852572Y1563615D01*
X858988Y1562813D01*
Y1562740D01*
X858915Y1562594D01*
X858842Y1562302D01*
X858696Y1561865D01*
X858477Y1561428D01*
X858259Y1560844D01*
X857675Y1559605D01*
X856946Y1558220D01*
X855926Y1556762D01*
X854759Y1555377D01*
X853301Y1554065D01*
X853229D01*
X853083Y1553919D01*
X852864Y1553773D01*
X852572Y1553554D01*
X852135Y1553336D01*
X851698Y1553117D01*
X851114Y1552825D01*
X850458Y1552534D01*
X849729Y1552242D01*
X849000Y1551951D01*
X847178Y1551513D01*
X845137Y1551149D01*
X842877Y1551003D01*
X842075D01*
X841564Y1551076D01*
X840908Y1551149D01*
X840106Y1551294D01*
X839232Y1551440D01*
X838284Y1551586D01*
X836243Y1552169D01*
X835149Y1552607D01*
X834129Y1553044D01*
X833035Y1553627D01*
X832015Y1554283D01*
X831067Y1555012D01*
X830119Y1555887D01*
X830046Y1555960D01*
X829900Y1556106D01*
X829682Y1556398D01*
X829390Y1556835D01*
X829026Y1557345D01*
X828661Y1557928D01*
X828224Y1558657D01*
X827786Y1559459D01*
X827349Y1560407D01*
X826912Y1561428D01*
X826547Y1562594D01*
X826183Y1563833D01*
X825891Y1565146D01*
X825672Y1566603D01*
X825527Y1568134D01*
X825454Y1569738D01*
Y1569811D01*
Y1570176D01*
Y1570613D01*
X825527Y1571269D01*
X825599Y1572071D01*
X825672Y1572946D01*
X825818Y1573966D01*
X826037Y1574987D01*
X826620Y1577320D01*
X826985Y1578486D01*
X827422Y1579726D01*
X828005Y1580892D01*
X828661Y1581985D01*
X829390Y1583079D01*
X830192Y1584100D01*
X830265Y1584172D01*
X830411Y1584318D01*
X830702Y1584537D01*
X831067Y1584901D01*
X831504Y1585266D01*
X832087Y1585703D01*
X832744Y1586214D01*
X833545Y1586651D01*
X834347Y1587161D01*
X835295Y1587599D01*
X836316Y1588036D01*
X837409Y1588401D01*
X838576Y1588765D01*
X839815Y1588984D01*
X841127Y1589130D01*
X842512Y1589203D01*
X843241D01*
X843751Y1589130D01*
D02*
G37*
G36*
X632050D02*
X632633Y1589057D01*
X633362Y1588911D01*
X634164Y1588765D01*
X635112Y1588546D01*
X635986Y1588328D01*
X637007Y1587963D01*
X637955Y1587599D01*
X638975Y1587088D01*
X639996Y1586505D01*
X641017Y1585849D01*
X641964Y1585047D01*
X642839Y1584172D01*
X642912Y1584100D01*
X643058Y1583954D01*
X643277Y1583662D01*
X643568Y1583225D01*
X643933Y1582714D01*
X644297Y1582131D01*
X644735Y1581402D01*
X645172Y1580527D01*
X645609Y1579580D01*
X646047Y1578559D01*
X646411Y1577393D01*
X646776Y1576153D01*
X647067Y1574768D01*
X647286Y1573310D01*
X647432Y1571779D01*
X647505Y1570103D01*
Y1570030D01*
Y1569738D01*
Y1569228D01*
X647432Y1568499D01*
X620094D01*
Y1568426D01*
Y1568207D01*
X620167Y1567916D01*
Y1567478D01*
X620240Y1566968D01*
X620386Y1566385D01*
X620605Y1565073D01*
X621042Y1563615D01*
X621625Y1562011D01*
X622427Y1560553D01*
X623448Y1559241D01*
X623521D01*
X623593Y1559095D01*
X624031Y1558730D01*
X624687Y1558220D01*
X625562Y1557710D01*
X626728Y1557127D01*
X628040Y1556616D01*
X629498Y1556252D01*
X630300Y1556179D01*
X631175Y1556106D01*
X631758D01*
X632414Y1556179D01*
X633216Y1556325D01*
X634091Y1556543D01*
X635112Y1556835D01*
X636059Y1557272D01*
X637007Y1557855D01*
X637080Y1557928D01*
X637444Y1558220D01*
X637882Y1558657D01*
X638392Y1559241D01*
X638975Y1560043D01*
X639631Y1561063D01*
X640288Y1562229D01*
X640871Y1563615D01*
X647286Y1562813D01*
Y1562740D01*
X647213Y1562594D01*
X647140Y1562302D01*
X646994Y1561865D01*
X646776Y1561428D01*
X646557Y1560844D01*
X645974Y1559605D01*
X645245Y1558220D01*
X644224Y1556762D01*
X643058Y1555377D01*
X641600Y1554065D01*
X641527D01*
X641381Y1553919D01*
X641162Y1553773D01*
X640871Y1553554D01*
X640433Y1553336D01*
X639996Y1553117D01*
X639413Y1552825D01*
X638757Y1552534D01*
X638028Y1552242D01*
X637299Y1551951D01*
X635476Y1551513D01*
X633435Y1551149D01*
X631175Y1551003D01*
X630373D01*
X629863Y1551076D01*
X629207Y1551149D01*
X628405Y1551294D01*
X627530Y1551440D01*
X626582Y1551586D01*
X624541Y1552169D01*
X623448Y1552607D01*
X622427Y1553044D01*
X621334Y1553627D01*
X620313Y1554283D01*
X619365Y1555012D01*
X618418Y1555887D01*
X618345Y1555960D01*
X618199Y1556106D01*
X617980Y1556398D01*
X617689Y1556835D01*
X617324Y1557345D01*
X616960Y1557928D01*
X616522Y1558657D01*
X616085Y1559459D01*
X615647Y1560407D01*
X615210Y1561428D01*
X614846Y1562594D01*
X614481Y1563833D01*
X614189Y1565146D01*
X613971Y1566603D01*
X613825Y1568134D01*
X613752Y1569738D01*
Y1569811D01*
Y1570176D01*
Y1570613D01*
X613825Y1571269D01*
X613898Y1572071D01*
X613971Y1572946D01*
X614116Y1573966D01*
X614335Y1574987D01*
X614918Y1577320D01*
X615283Y1578486D01*
X615720Y1579726D01*
X616303Y1580892D01*
X616960Y1581985D01*
X617689Y1583079D01*
X618490Y1584100D01*
X618563Y1584172D01*
X618709Y1584318D01*
X619001Y1584537D01*
X619365Y1584901D01*
X619803Y1585266D01*
X620386Y1585703D01*
X621042Y1586214D01*
X621844Y1586651D01*
X622646Y1587161D01*
X623593Y1587599D01*
X624614Y1588036D01*
X625708Y1588401D01*
X626874Y1588765D01*
X628113Y1588984D01*
X629426Y1589130D01*
X630811Y1589203D01*
X631540D01*
X632050Y1589130D01*
D02*
G37*
G36*
X744024D02*
X744535Y1589057D01*
X745191Y1588911D01*
X745920Y1588765D01*
X746722Y1588546D01*
X747524Y1588255D01*
X748398Y1587890D01*
X749273Y1587453D01*
X750221Y1586943D01*
X751096Y1586359D01*
X751970Y1585630D01*
X752845Y1584829D01*
X753647Y1583881D01*
Y1588401D01*
X759333D01*
Y1556762D01*
Y1556689D01*
Y1556398D01*
Y1555960D01*
Y1555377D01*
X759260Y1554721D01*
Y1553919D01*
X759188Y1553044D01*
X759115Y1552096D01*
X758896Y1550128D01*
X758604Y1548087D01*
X758386Y1547139D01*
X758167Y1546264D01*
X757875Y1545463D01*
X757584Y1544734D01*
Y1544661D01*
X757511Y1544588D01*
X757219Y1544150D01*
X756855Y1543494D01*
X756271Y1542692D01*
X755470Y1541818D01*
X754522Y1540870D01*
X753356Y1539922D01*
X752043Y1539120D01*
X751970D01*
X751898Y1539047D01*
X751679Y1538901D01*
X751387Y1538829D01*
X751023Y1538610D01*
X750585Y1538464D01*
X749492Y1538100D01*
X748180Y1537662D01*
X746576Y1537371D01*
X744753Y1537079D01*
X742785Y1537006D01*
X742129D01*
X741692Y1537079D01*
X741108D01*
X740525Y1537152D01*
X739796Y1537225D01*
X738994Y1537371D01*
X737317Y1537735D01*
X735568Y1538245D01*
X733818Y1538974D01*
X732215Y1539995D01*
X732142Y1540068D01*
X732069Y1540141D01*
X731558Y1540578D01*
X730975Y1541234D01*
X730246Y1542182D01*
X729517Y1543421D01*
X728861Y1544952D01*
X728642Y1545827D01*
X728497Y1546775D01*
X728351Y1547722D01*
Y1548816D01*
X734402Y1548014D01*
Y1547868D01*
X734474Y1547577D01*
X734620Y1547066D01*
X734766Y1546410D01*
X735058Y1545754D01*
X735422Y1545098D01*
X735860Y1544442D01*
X736443Y1543932D01*
X736588Y1543859D01*
X736880Y1543640D01*
X737390Y1543348D01*
X738119Y1543057D01*
X738994Y1542692D01*
X740088Y1542401D01*
X741400Y1542182D01*
X742785Y1542109D01*
X743514D01*
X744243Y1542182D01*
X745264Y1542328D01*
X746284Y1542546D01*
X747378Y1542838D01*
X748471Y1543275D01*
X749419Y1543859D01*
X749492Y1543932D01*
X749783Y1544150D01*
X750221Y1544588D01*
X750731Y1545098D01*
X751241Y1545827D01*
X751752Y1546629D01*
X752262Y1547577D01*
X752626Y1548670D01*
Y1548743D01*
X752699Y1549035D01*
X752772Y1549618D01*
X752845Y1550347D01*
X752918Y1550857D01*
Y1551440D01*
X752991Y1552096D01*
Y1552825D01*
Y1553627D01*
X753064Y1554575D01*
Y1555523D01*
Y1556616D01*
X752991Y1556543D01*
X752845Y1556398D01*
X752626Y1556179D01*
X752335Y1555887D01*
X751970Y1555523D01*
X751460Y1555085D01*
X750877Y1554648D01*
X750294Y1554210D01*
X748763Y1553336D01*
X747086Y1552534D01*
X746138Y1552242D01*
X745118Y1552024D01*
X744024Y1551878D01*
X742931Y1551805D01*
X742566D01*
X742202Y1551878D01*
X741692D01*
X741035Y1551951D01*
X740306Y1552096D01*
X739505Y1552242D01*
X738630Y1552461D01*
X737682Y1552753D01*
X736734Y1553117D01*
X735787Y1553554D01*
X734766Y1554065D01*
X733818Y1554721D01*
X732871Y1555450D01*
X731996Y1556252D01*
X731194Y1557199D01*
X731121Y1557272D01*
X731048Y1557418D01*
X730829Y1557783D01*
X730538Y1558147D01*
X730246Y1558730D01*
X729882Y1559313D01*
X729517Y1560043D01*
X729153Y1560917D01*
X728788Y1561792D01*
X728424Y1562813D01*
X728059Y1563833D01*
X727768Y1565000D01*
X727257Y1567478D01*
X727184Y1568863D01*
X727111Y1570248D01*
Y1570321D01*
Y1570467D01*
Y1570759D01*
Y1571123D01*
X727184Y1571634D01*
Y1572144D01*
X727330Y1573456D01*
X727549Y1574914D01*
X727913Y1576518D01*
X728351Y1578195D01*
X729007Y1579871D01*
Y1579944D01*
X729080Y1580090D01*
X729226Y1580309D01*
X729371Y1580600D01*
X729809Y1581402D01*
X730392Y1582423D01*
X731194Y1583516D01*
X732142Y1584610D01*
X733235Y1585776D01*
X734474Y1586724D01*
X734547D01*
X734620Y1586797D01*
X734839Y1586943D01*
X735130Y1587088D01*
X735860Y1587526D01*
X736880Y1587963D01*
X738119Y1588401D01*
X739577Y1588838D01*
X741181Y1589130D01*
X742931Y1589203D01*
X743587D01*
X744024Y1589130D01*
D02*
G37*
%LPC*%
G36*
X601723Y1657685D02*
X590059D01*
Y1619194D01*
X602015D01*
X602525Y1619266D01*
X603619Y1619339D01*
X604858Y1619412D01*
X606170Y1619558D01*
X607483Y1619777D01*
X608576Y1620068D01*
X608722Y1620141D01*
X609086Y1620214D01*
X609597Y1620433D01*
X610253Y1620725D01*
X610982Y1621162D01*
X611711Y1621599D01*
X612440Y1622110D01*
X613169Y1622693D01*
X613242Y1622839D01*
X613533Y1623130D01*
X613971Y1623640D01*
X614481Y1624370D01*
X615064Y1625317D01*
X615720Y1626411D01*
X616303Y1627650D01*
X616814Y1629035D01*
Y1629108D01*
X616887Y1629254D01*
X616960Y1629473D01*
X617033Y1629764D01*
X617105Y1630129D01*
X617251Y1630639D01*
X617397Y1631149D01*
X617543Y1631732D01*
X617761Y1633190D01*
X617980Y1634867D01*
X618126Y1636763D01*
X618199Y1638804D01*
Y1638877D01*
Y1639168D01*
Y1639533D01*
X618126Y1640116D01*
Y1640772D01*
X618053Y1641501D01*
X617980Y1642376D01*
X617907Y1643251D01*
X617543Y1645219D01*
X617105Y1647260D01*
X616449Y1649156D01*
X616012Y1650103D01*
X615574Y1650905D01*
Y1650978D01*
X615429Y1651124D01*
X615283Y1651342D01*
X615137Y1651634D01*
X614554Y1652363D01*
X613825Y1653238D01*
X612877Y1654186D01*
X611784Y1655133D01*
X610544Y1655935D01*
X609232Y1656591D01*
X609086Y1656664D01*
X608722Y1656737D01*
X608066Y1656956D01*
X607118Y1657175D01*
X605952Y1657320D01*
X604494Y1657539D01*
X603619Y1657612D01*
X602671D01*
X601723Y1657685D01*
D02*
G37*
G36*
X842585Y1584100D02*
X842148D01*
X841856Y1584027D01*
X841054Y1583954D01*
X840106Y1583735D01*
X838940Y1583370D01*
X837701Y1582860D01*
X836534Y1582131D01*
X835368Y1581184D01*
X835222Y1581038D01*
X834931Y1580673D01*
X834420Y1580017D01*
X833910Y1579142D01*
X833327Y1578122D01*
X832817Y1576810D01*
X832379Y1575279D01*
X832160Y1573602D01*
X852645D01*
Y1573675D01*
Y1573821D01*
X852572Y1574039D01*
Y1574331D01*
X852427Y1575206D01*
X852208Y1576153D01*
X851843Y1577320D01*
X851479Y1578413D01*
X850896Y1579507D01*
X850240Y1580455D01*
Y1580527D01*
X850094Y1580600D01*
X849729Y1581038D01*
X849073Y1581621D01*
X848198Y1582277D01*
X847105Y1582933D01*
X845793Y1583516D01*
X844262Y1583954D01*
X843460Y1584027D01*
X842585Y1584100D01*
D02*
G37*
G36*
X630884D02*
X630446D01*
X630154Y1584027D01*
X629353Y1583954D01*
X628405Y1583735D01*
X627239Y1583370D01*
X625999Y1582860D01*
X624833Y1582131D01*
X623666Y1581184D01*
X623521Y1581038D01*
X623229Y1580673D01*
X622719Y1580017D01*
X622208Y1579142D01*
X621625Y1578122D01*
X621115Y1576810D01*
X620678Y1575279D01*
X620459Y1573602D01*
X640944D01*
Y1573675D01*
Y1573821D01*
X640871Y1574039D01*
Y1574331D01*
X640725Y1575206D01*
X640506Y1576153D01*
X640142Y1577320D01*
X639777Y1578413D01*
X639194Y1579507D01*
X638538Y1580455D01*
Y1580527D01*
X638392Y1580600D01*
X638028Y1581038D01*
X637372Y1581621D01*
X636497Y1582277D01*
X635403Y1582933D01*
X634091Y1583516D01*
X632560Y1583954D01*
X631758Y1584027D01*
X630884Y1584100D01*
D02*
G37*
G36*
X744170D02*
X743004D01*
X742712Y1584027D01*
X741910Y1583954D01*
X740962Y1583662D01*
X739796Y1583298D01*
X738630Y1582641D01*
X737463Y1581840D01*
X736880Y1581256D01*
X736297Y1580673D01*
Y1580600D01*
X736151Y1580527D01*
X736005Y1580309D01*
X735860Y1580017D01*
X735641Y1579726D01*
X735422Y1579288D01*
X735130Y1578778D01*
X734912Y1578195D01*
X734620Y1577539D01*
X734329Y1576737D01*
X734110Y1575935D01*
X733891Y1575060D01*
X733745Y1574039D01*
X733600Y1573019D01*
X733454Y1571925D01*
Y1570686D01*
Y1570613D01*
Y1570394D01*
Y1570030D01*
X733527Y1569520D01*
Y1568936D01*
X733600Y1568207D01*
X733818Y1566676D01*
X734183Y1564927D01*
X734620Y1563250D01*
X735349Y1561573D01*
X735787Y1560844D01*
X736297Y1560188D01*
X736443Y1560043D01*
X736807Y1559678D01*
X737390Y1559168D01*
X738265Y1558584D01*
X739286Y1557928D01*
X740525Y1557418D01*
X741910Y1557054D01*
X742639Y1556981D01*
X743441Y1556908D01*
X743879D01*
X744170Y1556981D01*
X744972Y1557054D01*
X745993Y1557345D01*
X747086Y1557710D01*
X748325Y1558293D01*
X749492Y1559095D01*
X750075Y1559605D01*
X750658Y1560188D01*
Y1560261D01*
X750804Y1560334D01*
X750950Y1560553D01*
X751096Y1560844D01*
X751314Y1561136D01*
X751606Y1561573D01*
X751825Y1562084D01*
X752116Y1562740D01*
X752408Y1563396D01*
X752626Y1564125D01*
X752918Y1565000D01*
X753137Y1565947D01*
X753283Y1566895D01*
X753428Y1567989D01*
X753574Y1569228D01*
Y1570467D01*
Y1570540D01*
Y1570759D01*
Y1571123D01*
X753501Y1571561D01*
Y1572144D01*
X753428Y1572800D01*
X753210Y1574258D01*
X752845Y1575935D01*
X752335Y1577611D01*
X751606Y1579288D01*
X751096Y1580017D01*
X750585Y1580673D01*
Y1580746D01*
X750439Y1580819D01*
X750075Y1581184D01*
X749419Y1581767D01*
X748544Y1582423D01*
X747524Y1583006D01*
X746284Y1583589D01*
X744899Y1583954D01*
X744170Y1584100D01*
D02*
G37*
%LPD*%
D22*
X2028937Y1488268D02*
G03*
X2028937Y1488268I-3937J0D01*
G01*
X3674961Y1388543D02*
G03*
X3674961Y1388543I-3937J0D01*
G01*
X2309921Y548000D02*
Y849685D01*
X2057953Y838858D02*
X2134724Y915630D01*
X2057953Y548000D02*
Y838858D01*
Y548000D02*
X2309921D01*
X2134724Y915630D02*
X2243976D01*
X2309921Y849685D01*
X2598787Y1680079D02*
X2900472D01*
X2889646Y1932047D02*
X2966417Y1855276D01*
X2598787Y1932047D02*
X2889646D01*
X2598787Y1680079D02*
Y1932047D01*
X2966417Y1746024D02*
Y1855276D01*
X2900472Y1680079D02*
X2966417Y1746024D01*
X3929921Y398787D02*
Y700472D01*
X3677953Y689646D02*
X3754724Y766417D01*
X3677953Y398787D02*
Y689646D01*
Y398787D02*
X3929921D01*
X3754724Y766417D02*
X3863976D01*
X3929921Y700472D01*
X3779528Y1939921D02*
X4081213D01*
X3713583Y1764724D02*
X3790354Y1687953D01*
X4081213D01*
Y1939921D01*
X3713583Y1764724D02*
Y1873976D01*
X3779528Y1939921D01*
X2506535Y30000D02*
Y430000D01*
X2006535Y30000D02*
X2506535D01*
X1856535Y180000D02*
X2006535Y30000D01*
X1856535Y180000D02*
Y280000D01*
X2006535Y430000D01*
X2506535D01*
X2566378Y190000D02*
Y270000D01*
X2526378Y230000D02*
X2606378D01*
X260000Y523465D02*
X660000D01*
X260000D02*
Y1023465D01*
X410000Y1173465D01*
X510000D01*
X660000Y1023465D01*
Y523465D02*
Y1023465D01*
X420000Y463622D02*
X500000D01*
X460000Y423622D02*
Y503622D01*
X3050000Y1643465D02*
X3450000D01*
X3050000D02*
Y2143465D01*
X3200000Y2293465D01*
X3300000D01*
X3450000Y2143465D01*
Y1643465D02*
Y2143465D01*
X3210000Y1583622D02*
X3290000D01*
X3250000Y1543622D02*
Y1623622D01*
X4380019Y779987D02*
Y740000D01*
X4410010D01*
Y759994D01*
Y740000D01*
X4440000D01*
X4400013Y799981D02*
X4440000D01*
X4420007D01*
X4410010Y809977D01*
X4400013Y819974D01*
Y829971D01*
X4440000Y869958D02*
Y889952D01*
X4430003Y899948D01*
X4410010D01*
X4400013Y889952D01*
Y869958D01*
X4410010Y859961D01*
X4430003D01*
X4440000Y869958D01*
Y919942D02*
X4400013D01*
Y949932D01*
X4410010Y959929D01*
X4440000D01*
X4390016Y989919D02*
X4400013D01*
Y979922D01*
Y999916D01*
Y989919D01*
X4430003D01*
X4440000Y999916D01*
Y1089887D02*
X4380019D01*
Y1119877D01*
X4390016Y1129874D01*
X4410010D01*
X4420007Y1119877D01*
Y1089887D01*
X4380019Y1149867D02*
X4440000D01*
Y1179858D01*
X4430003Y1189854D01*
X4390016D01*
X4380019Y1179858D01*
Y1149867D01*
Y1209848D02*
X4440000D01*
Y1239838D01*
X4430003Y1249835D01*
X4420007D01*
X4410010Y1239838D01*
Y1209848D01*
Y1239838D01*
X4400013Y1249835D01*
X4390016D01*
X4380019Y1239838D01*
Y1209848D01*
X4400013Y1329809D02*
X4440000Y1349803D01*
X4400013Y1369796D01*
X4390016Y1389790D02*
X4380019Y1399787D01*
Y1419780D01*
X4390016Y1429777D01*
X4430003D01*
X4440000Y1419780D01*
Y1399787D01*
X4430003Y1389790D01*
X4390016D01*
X4440000Y1449770D02*
X4430003D01*
Y1459767D01*
X4440000D01*
Y1449770D01*
Y1499754D02*
Y1519748D01*
Y1509751D01*
X4380019D01*
X4390016Y1499754D01*
X529987Y2139984D02*
X519990Y2149981D01*
X499997D01*
X490000Y2139984D01*
Y2129987D01*
X499997Y2119990D01*
X519990D01*
X529987Y2109994D01*
Y2099997D01*
X519990Y2090000D01*
X499997D01*
X490000Y2099997D01*
X589968Y2149981D02*
X549981D01*
Y2090000D01*
X589968D01*
X549981Y2119990D02*
X569974D01*
X609961Y2090000D02*
Y2149981D01*
X629955Y2129987D01*
X649948Y2149981D01*
Y2090000D01*
X769909D02*
X729922D01*
X769909Y2129987D01*
Y2139984D01*
X759913Y2149981D01*
X739919D01*
X729922Y2139984D01*
X789903D02*
X799900Y2149981D01*
X819893D01*
X829890Y2139984D01*
Y2099997D01*
X819893Y2090000D01*
X799900D01*
X789903Y2099997D01*
Y2139984D01*
X889871Y2090000D02*
X849884D01*
X889871Y2129987D01*
Y2139984D01*
X879874Y2149981D01*
X859880D01*
X849884Y2139984D01*
X909864D02*
X919861Y2149981D01*
X939855D01*
X949851Y2139984D01*
Y2099997D01*
X939855Y2090000D01*
X919861D01*
X909864Y2099997D01*
Y2139984D01*
X2662987Y2016984D02*
X2652990Y2026981D01*
X2632997D01*
X2623000Y2016984D01*
Y1976997D01*
X2632997Y1967000D01*
X2652990D01*
X2662987Y1976997D01*
X2682981Y2026981D02*
X2722968D01*
Y2016984D01*
X2682981Y1976997D01*
Y1967000D01*
X1862000Y465000D02*
Y524981D01*
X1891990D01*
X1901987Y514984D01*
Y494990D01*
X1891990Y484993D01*
X1862000D01*
X1921981Y514984D02*
X1931977Y524981D01*
X1951971D01*
X1961968Y514984D01*
Y504987D01*
X1951971Y494990D01*
X1941974D01*
X1951971D01*
X1961968Y484993D01*
Y474997D01*
X1951971Y465000D01*
X1931977D01*
X1921981Y474997D01*
X4010000Y840000D02*
X3950019D01*
Y869990D01*
X3960016Y879987D01*
X3980010D01*
X3990006Y869990D01*
Y840000D01*
Y859994D02*
X4010000Y879987D01*
Y939968D02*
Y899981D01*
X3970013Y939968D01*
X3960016D01*
X3950019Y929971D01*
Y909977D01*
X3960016Y899981D01*
X3770016Y879987D02*
X3760019Y869990D01*
Y849997D01*
X3770016Y840000D01*
X3810003D01*
X3820000Y849997D01*
Y869990D01*
X3810003Y879987D01*
X3770016Y899981D02*
X3760019Y909977D01*
Y929971D01*
X3770016Y939968D01*
X3780013D01*
X3790010Y929971D01*
Y919974D01*
Y929971D01*
X3800006Y939968D01*
X3810003D01*
X3820000Y929971D01*
Y909977D01*
X3810003Y899981D01*
X3660000Y1479981D02*
Y1420000D01*
X3689990D01*
X3699987Y1429997D01*
Y1469984D01*
X3689990Y1479981D01*
X3660000D01*
X3759968Y1469984D02*
X3749971Y1479981D01*
X3729977D01*
X3719981Y1469984D01*
Y1429997D01*
X3729977Y1420000D01*
X3749971D01*
X3759968Y1429997D01*
X3779961Y1479981D02*
Y1420000D01*
X3809952D01*
X3819948Y1429997D01*
Y1469984D01*
X3809952Y1479981D01*
X3779961D01*
X3879929Y1469984D02*
X3869932Y1479981D01*
X3849939D01*
X3839942Y1469984D01*
Y1429997D01*
X3849939Y1420000D01*
X3869932D01*
X3879929Y1429997D01*
X3899922Y1420000D02*
X3919916D01*
X3909919D01*
Y1479981D01*
X3899922Y1469984D01*
X3490000Y2200000D02*
Y2259981D01*
X3519990D01*
X3529987Y2249984D01*
Y2229990D01*
X3519990Y2219994D01*
X3490000D01*
X3549981Y2200000D02*
X3569974D01*
X3559977D01*
Y2259981D01*
X3549981Y2249984D01*
X3781987Y2024984D02*
X3771990Y2034981D01*
X3751997D01*
X3742000Y2024984D01*
Y1984997D01*
X3751997Y1975000D01*
X3771990D01*
X3781987Y1984997D01*
X3841968Y1975000D02*
X3801981D01*
X3841968Y2014987D01*
Y2024984D01*
X3831971Y2034981D01*
X3811977D01*
X3801981Y2024984D01*
X3400000Y879981D02*
Y820000D01*
X3429990D01*
X3439987Y829997D01*
Y869984D01*
X3429990Y879981D01*
X3400000D01*
X3459981Y820000D02*
X3479974D01*
X3469977D01*
Y879981D01*
X3459981Y869984D01*
X1472000Y2222981D02*
Y2163000D01*
X1501990D01*
X1511987Y2172997D01*
Y2212984D01*
X1501990Y2222981D01*
X1472000D01*
X1571968Y2163000D02*
X1531981D01*
X1571968Y2202987D01*
Y2212984D01*
X1561971Y2222981D01*
X1541977D01*
X1531981Y2212984D01*
X2510000Y1250000D02*
Y1309981D01*
X2539990D01*
X2549987Y1299984D01*
Y1279990D01*
X2539990Y1269994D01*
X2510000D01*
X2529994D02*
X2549987Y1250000D01*
X2609968Y1309981D02*
X2589974Y1299984D01*
X2569981Y1279990D01*
Y1259997D01*
X2579977Y1250000D01*
X2599971D01*
X2609968Y1259997D01*
Y1269994D01*
X2599971Y1279990D01*
X2569981D01*
X2490000Y1050000D02*
X2430019D01*
Y1079990D01*
X2440016Y1089987D01*
X2460010D01*
X2470006Y1079990D01*
Y1050000D01*
Y1069994D02*
X2490000Y1089987D01*
X2430019Y1149968D02*
Y1109981D01*
X2460010D01*
X2450013Y1129974D01*
Y1139971D01*
X2460010Y1149968D01*
X2480003D01*
X2490000Y1139971D01*
Y1119977D01*
X2480003Y1109981D01*
X2080000Y950000D02*
X2020019D01*
Y979990D01*
X2030016Y989987D01*
X2050010D01*
X2060006Y979990D01*
Y950000D01*
Y969994D02*
X2080000Y989987D01*
Y1039971D02*
X2020019D01*
X2050010Y1009981D01*
Y1049968D01*
X4180000Y1440000D02*
X4120019D01*
Y1469990D01*
X4130016Y1479987D01*
X4150010D01*
X4160007Y1469990D01*
Y1440000D01*
Y1459994D02*
X4180000Y1479987D01*
X4130016Y1499981D02*
X4120019Y1509977D01*
Y1529971D01*
X4130016Y1539968D01*
X4140013D01*
X4150010Y1529971D01*
Y1519974D01*
Y1529971D01*
X4160007Y1539968D01*
X4170003D01*
X4180000Y1529971D01*
Y1509977D01*
X4170003Y1499981D01*
X3730000Y850000D02*
X3670019D01*
Y879990D01*
X3680016Y889987D01*
X3700010D01*
X3710006Y879990D01*
Y850000D01*
Y869994D02*
X3730000Y889987D01*
Y909981D02*
Y929974D01*
Y919977D01*
X3670019D01*
X3680016Y909981D01*
X265000Y1208000D02*
Y1267981D01*
X294990D01*
X304987Y1257984D01*
Y1237990D01*
X294990Y1227994D01*
X265000D01*
X364968Y1208000D02*
X324981D01*
X364968Y1247987D01*
Y1257984D01*
X354971Y1267981D01*
X334977D01*
X324981Y1257984D01*
X1529527Y969981D02*
Y910000D01*
X1569515D01*
X1629495D02*
X1589508D01*
X1629495Y949987D01*
Y959984D01*
X1619498Y969981D01*
X1599505D01*
X1589508Y959984D01*
X2870000Y1399981D02*
Y1340000D01*
X2909987D01*
X2929981D02*
X2949974D01*
X2939977D01*
Y1399981D01*
X2929981Y1389984D01*
X2889987Y669981D02*
X2850000D01*
Y639990D01*
X2869994D01*
X2850000D01*
Y610000D01*
X2949968D02*
X2909981D01*
X2949968Y649987D01*
Y659984D01*
X2939971Y669981D01*
X2919977D01*
X2909981Y659984D01*
X1219862Y551037D02*
Y591024D01*
X1189872D01*
Y571030D01*
Y591024D01*
X1159882D01*
Y531043D02*
Y511050D01*
Y521046D01*
X1219862D01*
X1209866Y531043D01*
X2010000Y1579981D02*
Y1520000D01*
X2039990D01*
X2049987Y1529997D01*
Y1569984D01*
X2039990Y1579981D01*
X2010000D01*
X2109968Y1569984D02*
X2099971Y1579981D01*
X2079977D01*
X2069981Y1569984D01*
Y1529997D01*
X2079977Y1520000D01*
X2099971D01*
X2109968Y1529997D01*
X2129961Y1579981D02*
Y1520000D01*
X2159952D01*
X2169948Y1529997D01*
Y1569984D01*
X2159952Y1579981D01*
X2129961D01*
X2229929Y1569984D02*
X2219932Y1579981D01*
X2199939D01*
X2189942Y1569984D01*
Y1529997D01*
X2199939Y1520000D01*
X2219932D01*
X2229929Y1529997D01*
X2289910Y1520000D02*
X2249922D01*
X2289910Y1559987D01*
Y1569984D01*
X2279913Y1579981D01*
X2259919D01*
X2249922Y1569984D01*
X2369987Y1469984D02*
X2359990Y1479981D01*
X2339997D01*
X2330000Y1469984D01*
Y1429997D01*
X2339997Y1420000D01*
X2359990D01*
X2369987Y1429997D01*
X2389981Y1420000D02*
X2409974D01*
X2399977D01*
Y1479981D01*
X2389981Y1469984D01*
X2439964D02*
X2449961Y1479981D01*
X2469955D01*
X2479952Y1469984D01*
Y1429997D01*
X2469955Y1420000D01*
X2449961D01*
X2439964Y1429997D01*
Y1469984D01*
X1980016Y689987D02*
X1970019Y679990D01*
Y659997D01*
X1980016Y650000D01*
X2020003D01*
X2030000Y659997D01*
Y679990D01*
X2020003Y689987D01*
Y709981D02*
X2030000Y719977D01*
Y739971D01*
X2020003Y749968D01*
X1980016D01*
X1970019Y739971D01*
Y719977D01*
X1980016Y709981D01*
X1990013D01*
X2000010Y719977D01*
Y749968D01*
X2160016Y989987D02*
X2150019Y979990D01*
Y959997D01*
X2160016Y950000D01*
X2200003D01*
X2210000Y959997D01*
Y979990D01*
X2200003Y989987D01*
X2160016Y1009981D02*
X2150019Y1019977D01*
Y1039971D01*
X2160016Y1049968D01*
X2170013D01*
X2180010Y1039971D01*
X2190006Y1049968D01*
X2200003D01*
X2210000Y1039971D01*
Y1019977D01*
X2200003Y1009981D01*
X2190006D01*
X2180010Y1019977D01*
X2170013Y1009981D01*
X2160016D01*
X2180010Y1019977D02*
Y1039971D01*
X1826987Y1592984D02*
X1816990Y1602981D01*
X1796997D01*
X1787000Y1592984D01*
Y1552997D01*
X1796997Y1543000D01*
X1816990D01*
X1826987Y1552997D01*
X1886968Y1602981D02*
X1866974Y1592984D01*
X1846981Y1572990D01*
Y1552997D01*
X1856977Y1543000D01*
X1876971D01*
X1886968Y1552997D01*
Y1562994D01*
X1876971Y1572990D01*
X1846981D01*
X4010016Y1479987D02*
X4000019Y1469990D01*
Y1449997D01*
X4010016Y1440000D01*
X4050003D01*
X4060000Y1449997D01*
Y1469990D01*
X4050003Y1479987D01*
X4000019Y1539968D02*
Y1499981D01*
X4030010D01*
X4020013Y1519974D01*
Y1529971D01*
X4030010Y1539968D01*
X4050003D01*
X4060000Y1529971D01*
Y1509977D01*
X4050003Y1499981D01*
X3970016Y549987D02*
X3960019Y539990D01*
Y519997D01*
X3970016Y510000D01*
X4010003D01*
X4020000Y519997D01*
Y539990D01*
X4010003Y549987D01*
X4020000Y599971D02*
X3960019D01*
X3990010Y569981D01*
Y609968D01*
X3511987Y1537984D02*
X3501990Y1547981D01*
X3481997D01*
X3472000Y1537984D01*
Y1497997D01*
X3481997Y1488000D01*
X3501990D01*
X3511987Y1497997D01*
X3531981Y1488000D02*
X3551974D01*
X3541977D01*
Y1547981D01*
X3531981Y1537984D01*
D35*
X2059559Y1279606D02*
X2203559D01*
Y1480394D01*
X2059559D02*
X2203559D01*
X2059559Y1279606D02*
Y1480394D01*
X3705583Y1179882D02*
X3849583D01*
Y1380669D01*
X3705583D02*
X3849583D01*
X3705583Y1179882D02*
Y1380669D01*
D36*
X3544016Y371339D02*
Y788661D01*
X3362913Y371339D02*
X3544016D01*
X3524331D02*
Y788661D01*
X3362913D02*
X3544016D01*
X3362913Y371339D02*
Y788661D01*
X1485669Y1711339D02*
Y2128661D01*
X1465984Y1711339D02*
Y2128661D01*
X1647087Y1711339D02*
Y2128661D01*
X1465984Y1711339D02*
X1647087D01*
X1465984Y2128661D02*
X1647087D01*
D37*
X3285157Y689842D02*
Y670164D01*
Y680003D01*
X3344193D01*
X3334354Y689842D01*
Y499685D02*
X3344193Y489846D01*
Y470167D01*
X3334354Y460328D01*
X3324514D01*
X3314675Y470167D01*
Y480006D01*
Y470167D01*
X3304836Y460328D01*
X3294996D01*
X3285157Y470167D01*
Y489846D01*
X3294996Y499685D01*
X1724843Y1810158D02*
Y1829836D01*
Y1819997D01*
X1665807D01*
X1675646Y1810158D01*
Y2000315D02*
X1665807Y2010154D01*
Y2029833D01*
X1675646Y2039672D01*
X1685486D01*
X1695325Y2029833D01*
Y2019994D01*
Y2029833D01*
X1705164Y2039672D01*
X1715004D01*
X1724843Y2029833D01*
Y2010154D01*
X1715004Y2000315D01*
%TF.MD5,a57a5d2d18be3ee8b57f0b5e8730b8c9*%
M02*
