G04*
G04 #@! TF.GenerationSoftware,Altium Limited,Altium Designer,19.1.8 (144)*
G04*
G04 Layer_Color=255*
%FSLAX25Y25*%
%MOIN*%
G70*
G01*
G75*
%ADD14R,0.08661X0.12205*%
%ADD15R,0.04331X0.01968*%
%ADD16R,0.06299X0.12598*%
%ADD17R,0.12598X0.06299*%
%ADD18R,0.09843X0.12795*%
%ADD19R,0.05118X0.04134*%
%ADD20R,0.04134X0.05118*%
%ADD21R,0.05512X0.04134*%
%ADD22R,0.04134X0.05512*%
%ADD40R,0.05906X0.03937*%
%ADD41C,0.06693*%
%ADD42R,0.06693X0.06693*%
%ADD43C,0.23622*%
%ADD44C,0.06000*%
D14*
X213256Y138039D02*
D03*
X377858Y128067D02*
D03*
D15*
X223760Y135500D02*
D03*
Y140500D02*
D03*
Y145500D02*
D03*
Y130500D02*
D03*
X202500D02*
D03*
Y145500D02*
D03*
Y140500D02*
D03*
Y135500D02*
D03*
X388362Y125528D02*
D03*
Y130528D02*
D03*
Y135528D02*
D03*
Y120528D02*
D03*
X367102D02*
D03*
Y135528D02*
D03*
Y130528D02*
D03*
Y125528D02*
D03*
D16*
X218000Y62921D02*
D03*
Y83000D02*
D03*
X380000Y48000D02*
D03*
Y68079D02*
D03*
D17*
X268000Y181000D02*
D03*
X288079D02*
D03*
X400000D02*
D03*
X379921D02*
D03*
D18*
X157953Y117000D02*
D03*
X180000D02*
D03*
X310953Y126000D02*
D03*
X333000D02*
D03*
D19*
X370000Y100433D02*
D03*
Y107717D02*
D03*
X415000Y129358D02*
D03*
Y136642D02*
D03*
X208000Y112216D02*
D03*
Y119500D02*
D03*
X237000Y112216D02*
D03*
Y119500D02*
D03*
X398000Y100716D02*
D03*
Y108000D02*
D03*
D20*
X259283Y136000D02*
D03*
X252000D02*
D03*
D21*
X350000Y142642D02*
D03*
Y135358D02*
D03*
X403000Y129717D02*
D03*
Y137000D02*
D03*
X181500Y148142D02*
D03*
Y140858D02*
D03*
X218000Y119500D02*
D03*
Y112216D02*
D03*
X379000Y108000D02*
D03*
Y100716D02*
D03*
D22*
X236000Y136000D02*
D03*
X243284D02*
D03*
D40*
X289000Y22016D02*
D03*
X288980Y40323D02*
D03*
X289000Y98197D02*
D03*
X288980Y80087D02*
D03*
X101988Y50787D02*
D03*
X101969Y69095D02*
D03*
X101988Y126969D02*
D03*
X101969Y108858D02*
D03*
D41*
X342000Y48000D02*
D03*
X159000Y202000D02*
D03*
D42*
X342000Y68000D02*
D03*
X159000Y182000D02*
D03*
D43*
X205654Y23000D02*
D03*
X234000D02*
D03*
X46000Y97347D02*
D03*
Y69000D02*
D03*
X325000Y209347D02*
D03*
Y181000D02*
D03*
D44*
X13000Y221000D02*
D03*
X11000Y10000D02*
D03*
X439000Y221000D02*
D03*
X440606Y10236D02*
D03*
M02*
