%TF.GenerationSoftware,Altium Limited,Altium Designer,19.1.8 (144)*%
G04 Layer_Color=128*
%FSLAX26Y26*%
%MOIN*%
%TF.FileFunction,Drillmap*%
%TF.Part,Single*%
G01*
G75*
%TA.AperFunction,NonConductor*%
%ADD59C,0.005000*%
D59*
X2868347Y220157D02*
X2911653D01*
X2890000Y198504D02*
Y241811D01*
X2868150Y403228D02*
X2911457D01*
X2889803Y381575D02*
Y424882D01*
X2868347Y981968D02*
X2911653D01*
X2890000Y960315D02*
Y1003622D01*
X2868150Y800866D02*
X2911457D01*
X2889803Y779213D02*
Y822520D01*
X998228Y507874D02*
X1041535D01*
X1019882Y486221D02*
Y529528D01*
X998032Y690945D02*
X1041339D01*
X1019685Y669291D02*
Y712598D01*
X998228Y1269685D02*
X1041535D01*
X1019882Y1248032D02*
Y1291339D01*
X998032Y1088583D02*
X1041339D01*
X1019685Y1066929D02*
Y1110236D01*
X3398347Y480000D02*
X3441653D01*
X3420000Y458346D02*
Y501654D01*
X3398347Y680000D02*
X3441653D01*
X3420000Y658346D02*
Y701654D01*
X1967953Y230000D02*
X2145118D01*
X2056535Y141417D02*
Y318583D01*
X2251417Y230000D02*
X2428583D01*
X2340000Y141417D02*
Y318583D01*
X371417Y973465D02*
X548583D01*
X460000Y884882D02*
Y1062047D01*
X371417Y690000D02*
X548583D01*
X460000Y601417D02*
Y778583D01*
X3161417Y2093465D02*
X3338583D01*
X3250000Y2004882D02*
Y2182047D01*
X3161417Y1810000D02*
X3338583D01*
X3250000Y1721417D02*
Y1898583D01*
X1568347Y1820000D02*
X1611653D01*
X1590000Y1798347D02*
Y1841653D01*
X1568347Y2020000D02*
X1611653D01*
X1590000Y1998347D02*
Y2041653D01*
X51260Y2210000D02*
X208740D01*
X130000Y2131260D02*
Y2288740D01*
X31260Y100000D02*
X188740D01*
X110000Y21260D02*
Y178740D01*
X4311260Y2210000D02*
X4468740D01*
X4390000Y2131260D02*
Y2288740D01*
X4327323Y102362D02*
X4484803D01*
X4406063Y23622D02*
Y181102D01*
X3836000Y1420000D02*
X3864000D01*
X3850000Y1406000D02*
Y1434000D01*
X3761354Y1420039D02*
X3789354D01*
X3775354Y1406039D02*
Y1434039D01*
X3686000Y1420000D02*
X3714000D01*
X3700000Y1406000D02*
Y1434000D01*
X3806000Y1350000D02*
X3834000D01*
X3820000Y1336000D02*
Y1364000D01*
X3726000Y1350000D02*
X3754000D01*
X3740000Y1336000D02*
Y1364000D01*
X3586000Y1320000D02*
X3614000D01*
X3600000Y1306000D02*
Y1334000D01*
X1906000Y1410000D02*
X1934000D01*
X1920000Y1396000D02*
Y1424000D01*
X2196000Y1520000D02*
X2224000D01*
X2210000Y1506000D02*
Y1534000D01*
X3426000Y1150000D02*
X3454000D01*
X3440000Y1136000D02*
Y1164000D01*
X3236000Y1010000D02*
X3264000D01*
X3250000Y996000D02*
Y1024000D01*
%TF.MD5,f233672d925b8702b3c1cae02102ebfa*%
M02*
