%TF.GenerationSoftware,Altium Limited,Altium Designer,19.1.8 (144)*%
G04 Layer_Color=0*
%FSLAX26Y26*%
%MOIN*%
%TF.FileFunction,Plated,1,2,PTH,Drill*%
%TF.Part,Single*%
G01*
G75*
%TA.AperFunction,ComponentDrill*%
%ADD53R,0.043307X0.029528*%
%ADD54C,0.043307*%
%ADD55C,0.177165*%
%ADD56C,0.177165*%
%TA.AperFunction,ViaDrill,NotFilled*%
%ADD57C,0.028000*%
D53*
X2890000Y220157D02*
D03*
X2889803Y403228D02*
D03*
X2890000Y981968D02*
D03*
X2889803Y800866D02*
D03*
X1019882Y507874D02*
D03*
X1019685Y690945D02*
D03*
X1019882Y1269685D02*
D03*
X1019685Y1088583D02*
D03*
D54*
X3420000Y480000D02*
D03*
Y680000D02*
D03*
X1590000Y1820000D02*
D03*
Y2020000D02*
D03*
D55*
X2056535Y230000D02*
D03*
X2340000D02*
D03*
D56*
X460000Y973465D02*
D03*
Y690000D02*
D03*
X3250000Y2093465D02*
D03*
Y1810000D02*
D03*
D57*
X3850000Y1420000D02*
D03*
X3775354Y1420039D02*
D03*
X3700000Y1420000D02*
D03*
X3820000Y1350000D02*
D03*
X3740000D02*
D03*
X3600000Y1320000D02*
D03*
X1920000Y1410000D02*
D03*
X2210000Y1520000D02*
D03*
X3440000Y1150000D02*
D03*
X3250000Y1010000D02*
D03*
%TF.MD5,6e89d6228f1ee679b7d9a9769467aa23*%
M02*
