M48
;Layer_Color=9474304
;FILE_FORMAT=2:5
INCH,LZ
;TYPE=PLATED
T1F00S00C0.02800
T3F00S00C0.04331
T4F00S00C0.17717
;TYPE=NON_PLATED
T5F00S00C0.15748
%
T01
X0325Y0101
X0344Y0115
X036Y0132
X0374Y0135
X0382
X0385Y0142
X0377535Y0142004
X037Y0142
X0221Y0152
X0192Y0141
T03
X0342Y0048
Y0068
X0159Y0182
Y0202
T04
X0205654Y0023
X0234
X0325Y0181
Y0209347
X0046Y0097347
Y0069
T05
X0011Y001
X0440606Y0010236
X0013Y0221
X0439
M30
