G04*
G04 #@! TF.GenerationSoftware,Altium Limited,Altium Designer,20.0.12 (288)*
G04*
G04 Layer_Physical_Order=1*
G04 Layer_Color=255*
%FSLAX25Y25*%
%MOIN*%
G70*
G01*
G75*
%ADD10C,0.01000*%
%ADD14R,0.04331X0.01968*%
%ADD15R,0.08661X0.12205*%
%ADD16R,0.04134X0.05118*%
%ADD17R,0.05118X0.04134*%
%ADD18R,0.21654X0.12205*%
%ADD19R,0.12205X0.21654*%
%ADD20R,0.04134X0.05512*%
%ADD21R,0.12598X0.06299*%
%ADD22R,0.05512X0.04134*%
%ADD23C,0.18200*%
%ADD40C,0.03000*%
%ADD41C,0.07000*%
%ADD42C,0.02000*%
%ADD43C,0.05000*%
%ADD44C,0.11811*%
%ADD45C,0.08000*%
%ADD46C,0.05906*%
%ADD47C,0.25197*%
%ADD48R,0.05512X0.09449*%
%ADD49R,0.06693X0.06693*%
%ADD50C,0.06693*%
%ADD51R,0.06693X0.06693*%
%ADD52C,0.06000*%
%ADD53C,0.02362*%
G36*
X437008Y196850D02*
X437008Y39298D01*
X401539Y3937D01*
X72100Y3937D01*
X39370Y36667D01*
Y192442D01*
X74435Y228346D01*
X405512Y228346D01*
X437008Y196850D01*
D02*
G37*
%LPC*%
G36*
X330906Y221619D02*
Y215252D01*
X337273D01*
X337154Y215539D01*
X336035Y217364D01*
X334645Y218992D01*
X333018Y220382D01*
X331193Y221500D01*
X330906Y221619D01*
D02*
G37*
G36*
X319094D02*
X318807Y221500D01*
X316982Y220382D01*
X315355Y218992D01*
X313965Y217364D01*
X312846Y215539D01*
X312727Y215252D01*
X319094D01*
Y221619D01*
D02*
G37*
G36*
X337273Y203441D02*
X330906D01*
Y197074D01*
X331193Y197193D01*
X333018Y198311D01*
X334645Y199701D01*
X336035Y201329D01*
X337154Y203154D01*
X337273Y203441D01*
D02*
G37*
G36*
X319094D02*
X312727D01*
X312846Y203154D01*
X313965Y201329D01*
X315355Y199701D01*
X316982Y198311D01*
X318807Y197193D01*
X319094Y197074D01*
Y203441D01*
D02*
G37*
G36*
X218969Y190889D02*
Y188969D01*
X220889D01*
X220797Y189192D01*
X220100Y190100D01*
X219192Y190797D01*
X218969Y190889D01*
D02*
G37*
G36*
X215032D02*
X214808Y190797D01*
X213900Y190100D01*
X213203Y189192D01*
X213111Y188969D01*
X215032D01*
Y190889D01*
D02*
G37*
G36*
X392732Y185646D02*
X387402D01*
Y183465D01*
X392732D01*
Y185646D01*
D02*
G37*
G36*
X383465D02*
X378134D01*
Y183465D01*
X383465D01*
Y185646D01*
D02*
G37*
G36*
X220889Y185031D02*
X218969D01*
Y183111D01*
X219192Y183203D01*
X220100Y183900D01*
X220797Y184808D01*
X220889Y185031D01*
D02*
G37*
G36*
X215032D02*
X213111D01*
X213203Y184808D01*
X213900Y183900D01*
X214808Y183203D01*
X215032Y183111D01*
Y185031D01*
D02*
G37*
G36*
X275299Y185150D02*
X269969D01*
Y182968D01*
X275299D01*
Y185150D01*
D02*
G37*
G36*
X266032D02*
X260701D01*
Y182968D01*
X266032D01*
Y185150D01*
D02*
G37*
G36*
X201346Y191347D02*
X192654D01*
Y189549D01*
X175000D01*
X174024Y189355D01*
X173198Y188802D01*
X157198Y172802D01*
X156645Y171976D01*
X156451Y171000D01*
Y144000D01*
X156645Y143025D01*
X157198Y142198D01*
X161103Y138293D01*
X160911Y137831D01*
X123130D01*
X122740Y137753D01*
X122409Y137532D01*
X114043Y129166D01*
X113822Y128835D01*
X113744Y128445D01*
X113822Y128055D01*
X113843Y128024D01*
Y115354D01*
X113920Y114964D01*
X114141Y114633D01*
X114472Y114412D01*
X114862Y114335D01*
X171072Y114335D01*
X171462Y114412D01*
X188753Y121575D01*
X189084Y121796D01*
X197849Y130561D01*
X198311Y130369D01*
Y128606D01*
X199508D01*
Y130591D01*
X201476D01*
Y132559D01*
X204642D01*
Y132575D01*
X200517D01*
X200325Y133037D01*
X200895Y133606D01*
X201508D01*
X202031Y133502D01*
X202555Y133606D01*
X204642D01*
Y135350D01*
X204948Y135488D01*
X205097Y135595D01*
X205248Y135696D01*
X205258Y135710D01*
X205271Y135720D01*
X205368Y135875D01*
X205469Y136027D01*
X205473Y136044D01*
X205482Y136058D01*
X205511Y136238D01*
X205547Y136417D01*
X205544Y136434D01*
X205547Y136450D01*
X205505Y136628D01*
X205469Y136808D01*
X205460Y136821D01*
X205456Y136838D01*
X205350Y136986D01*
X205248Y137138D01*
X205006Y137381D01*
X204973Y137950D01*
X205014Y138027D01*
X205557Y138735D01*
X205910Y139586D01*
X206030Y140500D01*
X205910Y141414D01*
X205557Y142265D01*
X204996Y142996D01*
X204779Y143163D01*
X204642Y143606D01*
X204642Y143606D01*
Y144205D01*
X204855Y144525D01*
X205049Y145500D01*
X204855Y146476D01*
X204642Y146795D01*
Y147575D01*
X203895D01*
X203475Y147855D01*
X202500Y148049D01*
X198056D01*
X196549Y149556D01*
Y157575D01*
X196355Y158550D01*
X195802Y159377D01*
X192147Y163033D01*
X191320Y163585D01*
X190344Y163779D01*
X182097D01*
X181121Y163585D01*
X180294Y163033D01*
X176724Y159463D01*
X176172Y158636D01*
X175978Y157660D01*
Y156067D01*
X174244D01*
Y149933D01*
X181756D01*
Y156067D01*
X181076D01*
Y156605D01*
X183152Y158682D01*
X189288D01*
X191451Y156519D01*
Y148500D01*
X191645Y147524D01*
X192198Y146698D01*
X194403Y144492D01*
X194212Y144030D01*
X192500D01*
X191586Y143910D01*
X190735Y143557D01*
X190004Y142996D01*
X189443Y142265D01*
X189090Y141414D01*
X188970Y140500D01*
X189090Y139586D01*
X189443Y138735D01*
X189753Y138331D01*
X189506Y137831D01*
X180549D01*
Y142650D01*
X181756D01*
Y148784D01*
X174244D01*
Y142650D01*
X175451D01*
Y137831D01*
X168774D01*
X161549Y145056D01*
Y169944D01*
X176056Y184451D01*
X192654D01*
Y182653D01*
X201346D01*
Y191347D01*
D02*
G37*
G36*
X392732Y179528D02*
X387402D01*
Y177347D01*
X392732D01*
Y179528D01*
D02*
G37*
G36*
X383465D02*
X378134D01*
Y177347D01*
X383465D01*
Y179528D01*
D02*
G37*
G36*
X275299Y179032D02*
X269969D01*
Y176850D01*
X275299D01*
Y179032D01*
D02*
G37*
G36*
X266032D02*
X260701D01*
Y176850D01*
X266032D01*
Y179032D01*
D02*
G37*
G36*
X325000Y194641D02*
X322866Y194473D01*
X320785Y193973D01*
X318807Y193154D01*
X316982Y192035D01*
X315944Y191149D01*
X288079D01*
X286099Y190954D01*
X284195Y190376D01*
X282440Y189438D01*
X280902Y188176D01*
X279640Y186638D01*
X278702Y184884D01*
X278125Y182980D01*
X277930Y181000D01*
X278125Y179020D01*
X278702Y177116D01*
X279640Y175362D01*
X280902Y173824D01*
X282440Y172562D01*
X284195Y171624D01*
X286099Y171046D01*
X288079Y170851D01*
X315944D01*
X316982Y169965D01*
X318807Y168846D01*
X320461Y168161D01*
Y159880D01*
X317120Y156539D01*
X242000D01*
X240825Y156384D01*
X239731Y155931D01*
X238791Y155209D01*
X238069Y154269D01*
X237616Y153175D01*
X237461Y152000D01*
X237616Y150825D01*
X238069Y149731D01*
X238791Y148791D01*
X239731Y148069D01*
X240825Y147616D01*
X242000Y147461D01*
X319000D01*
X320175Y147616D01*
X321269Y148069D01*
X322209Y148791D01*
X328209Y154791D01*
X328931Y155731D01*
X329384Y156825D01*
X329539Y158000D01*
Y168161D01*
X331193Y168846D01*
X333018Y169965D01*
X334175Y170954D01*
X364961D01*
X366941Y171149D01*
X368844Y171726D01*
X370599Y172664D01*
X372137Y173926D01*
X373399Y175464D01*
X374337Y177219D01*
X374915Y179122D01*
X375110Y181102D01*
X374915Y183082D01*
X374337Y184986D01*
X373399Y186741D01*
X372137Y188279D01*
X370599Y189541D01*
X368844Y190479D01*
X366941Y191056D01*
X364961Y191251D01*
X333936D01*
X333018Y192035D01*
X331193Y193154D01*
X329215Y193973D01*
X327134Y194473D01*
X325000Y194641D01*
D02*
G37*
G36*
X225902Y147575D02*
X219571D01*
Y143606D01*
X225902D01*
Y147575D01*
D02*
G37*
G36*
X76906Y149619D02*
Y143252D01*
X83273D01*
X83154Y143539D01*
X82035Y145364D01*
X80645Y146992D01*
X79018Y148382D01*
X77193Y149500D01*
X76906Y149619D01*
D02*
G37*
G36*
X65095D02*
X64807Y149500D01*
X62982Y148382D01*
X61355Y146992D01*
X59965Y145364D01*
X58846Y143539D01*
X58727Y143252D01*
X65095D01*
Y149619D01*
D02*
G37*
G36*
X217535Y145390D02*
X214173D01*
Y140256D01*
X217535D01*
Y145390D01*
D02*
G37*
G36*
X210236D02*
X206874D01*
Y140256D01*
X210236D01*
Y145390D01*
D02*
G37*
G36*
X413000Y151039D02*
X405000D01*
X404220Y150884D01*
X403558Y150442D01*
X401558Y148442D01*
X401116Y147780D01*
X400961Y147000D01*
Y146067D01*
X399244D01*
Y139933D01*
X406756D01*
Y146067D01*
X405658D01*
X405451Y146567D01*
X405845Y146961D01*
X412155D01*
X412549Y146567D01*
X412342Y146067D01*
X411441D01*
Y139933D01*
X418559D01*
Y146067D01*
X417039D01*
Y147000D01*
X416884Y147780D01*
X416442Y148442D01*
X414442Y150442D01*
X413780Y150884D01*
X413000Y151039D01*
D02*
G37*
G36*
X225902Y142575D02*
X219571D01*
Y138606D01*
X225902D01*
Y142575D01*
D02*
G37*
G36*
X262350Y139559D02*
X261252D01*
Y137969D01*
X262350D01*
Y139559D01*
D02*
G37*
G36*
X257315D02*
X256217D01*
Y137969D01*
X257315D01*
Y139559D01*
D02*
G37*
G36*
X418559Y138784D02*
X416968D01*
Y137685D01*
X418559D01*
Y138784D01*
D02*
G37*
G36*
X413031D02*
X411441D01*
Y137685D01*
X413031D01*
Y138784D01*
D02*
G37*
G36*
X239067Y139756D02*
X232933D01*
Y137539D01*
X225902D01*
Y137575D01*
X219571D01*
Y133606D01*
X223028D01*
X223760Y133461D01*
X232933D01*
Y132539D01*
X225902D01*
Y132575D01*
X219571D01*
Y132454D01*
X219220Y132384D01*
X218558Y131942D01*
X218035Y131419D01*
X217535Y131626D01*
Y136319D01*
X206874D01*
Y131185D01*
X212218D01*
X212431Y130752D01*
X212422Y130685D01*
X212058Y130442D01*
X212058Y130442D01*
X206558Y124942D01*
X206116Y124280D01*
X205961Y123500D01*
Y122567D01*
X204441D01*
Y116433D01*
X211559D01*
Y122567D01*
X210658D01*
X210451Y123067D01*
X214345Y126961D01*
X215961D01*
Y122567D01*
X214244D01*
Y116433D01*
X221756D01*
Y122567D01*
X220039D01*
Y127655D01*
X220845Y128461D01*
X232155D01*
X234961Y125655D01*
Y122567D01*
X233441D01*
Y116433D01*
X240559D01*
Y122567D01*
X239039D01*
Y126500D01*
X238884Y127280D01*
X238442Y127942D01*
X234640Y131744D01*
X234847Y132244D01*
X239067D01*
Y139756D01*
D02*
G37*
G36*
X391256Y137496D02*
X384925D01*
Y133528D01*
X391256D01*
Y137496D01*
D02*
G37*
G36*
X418559Y133748D02*
X416968D01*
Y132650D01*
X418559D01*
Y133748D01*
D02*
G37*
G36*
X413031D02*
X411441D01*
Y132650D01*
X413031D01*
Y133748D01*
D02*
G37*
G36*
X262350Y134031D02*
X261252D01*
Y132441D01*
X262350D01*
Y134031D01*
D02*
G37*
G36*
X257315D02*
X256217D01*
Y132441D01*
X257315D01*
Y134031D01*
D02*
G37*
G36*
X246350Y139756D02*
X240216D01*
Y132244D01*
X246350D01*
Y133961D01*
X248933D01*
Y132441D01*
X255067D01*
Y139559D01*
X248933D01*
Y138039D01*
X246350D01*
Y139756D01*
D02*
G37*
G36*
X382890Y135311D02*
X379528D01*
Y130177D01*
X382890D01*
Y135311D01*
D02*
G37*
G36*
X375590D02*
X372228D01*
Y130177D01*
X375590D01*
Y135311D01*
D02*
G37*
G36*
X406756Y138784D02*
X399244D01*
Y136039D01*
X398732D01*
X397952Y135884D01*
X397290Y135442D01*
X391718Y129869D01*
X391256Y130061D01*
Y132496D01*
X384925D01*
Y128528D01*
X389723D01*
X389914Y128066D01*
X389345Y127496D01*
X384925D01*
Y123528D01*
X390063D01*
X390260Y123488D01*
X390457Y123528D01*
X391256D01*
Y123788D01*
X391702Y124086D01*
X399577Y131961D01*
X401284D01*
X402064Y132116D01*
X402725Y132558D01*
X402786Y132650D01*
X406756D01*
Y138784D01*
D02*
G37*
G36*
X204642Y128622D02*
X203445D01*
Y128606D01*
X204642D01*
Y128622D01*
D02*
G37*
G36*
X353756Y145709D02*
X346244D01*
Y139575D01*
X353756D01*
Y140603D01*
X359143D01*
X363665Y136081D01*
Y134514D01*
X361472D01*
X360441Y134379D01*
X359479Y133980D01*
X358653Y133347D01*
X358020Y132521D01*
X357621Y131559D01*
X357486Y130528D01*
X357621Y129496D01*
X358020Y128534D01*
X358508Y127898D01*
X358268Y127398D01*
X352317D01*
Y132291D01*
X353756D01*
Y138425D01*
X346244D01*
Y132291D01*
X349258D01*
Y127398D01*
X330780D01*
Y133827D01*
X316575D01*
Y110173D01*
X330780D01*
Y111972D01*
X354153D01*
X354331Y111937D01*
X354721Y112015D01*
X355052Y112236D01*
X363203Y120388D01*
X363665Y120196D01*
Y118528D01*
X364862D01*
Y120512D01*
X366831D01*
Y122480D01*
X369996D01*
Y122496D01*
X365965D01*
X365774Y122958D01*
X366343Y123528D01*
X369996D01*
Y127496D01*
X369996Y127496D01*
X369996D01*
X369996Y127496D01*
X370107Y127950D01*
X370555Y128534D01*
X370953Y129496D01*
X371089Y130528D01*
X370953Y131559D01*
X370555Y132521D01*
X370125Y133081D01*
X369996Y133528D01*
X369996Y133528D01*
X369996D01*
X369996Y133528D01*
Y137496D01*
X368018D01*
X361430Y144084D01*
X360769Y144526D01*
X359988Y144681D01*
X353756D01*
Y145709D01*
D02*
G37*
G36*
X83273Y131441D02*
X76906D01*
Y125074D01*
X77193Y125193D01*
X79018Y126311D01*
X80645Y127701D01*
X82035Y129329D01*
X83154Y131154D01*
X83273Y131441D01*
D02*
G37*
G36*
X65095D02*
X58727D01*
X58846Y131154D01*
X59965Y129329D01*
X61355Y127701D01*
X62982Y126311D01*
X64807Y125193D01*
X65095Y125074D01*
Y131441D01*
D02*
G37*
G36*
X382890Y126240D02*
X379528D01*
Y121106D01*
X382890D01*
Y126240D01*
D02*
G37*
G36*
X375590D02*
X372228D01*
Y121106D01*
X375590D01*
Y126240D01*
D02*
G37*
G36*
X369996Y118543D02*
X368799D01*
Y118528D01*
X369996D01*
Y118543D01*
D02*
G37*
G36*
X221756Y115284D02*
X214244D01*
Y114766D01*
X211559D01*
Y115284D01*
X204441D01*
Y114766D01*
X182217D01*
X181241Y114571D01*
X180414Y114019D01*
X159915Y93520D01*
X150181D01*
Y91872D01*
X137827D01*
Y96425D01*
X114173D01*
Y82221D01*
X121461D01*
Y55208D01*
X121093Y54907D01*
X120230Y53855D01*
X119589Y52655D01*
X119194Y51354D01*
X119061Y50000D01*
X119194Y48646D01*
X119589Y47345D01*
X120230Y46145D01*
X121093Y45093D01*
X122145Y44230D01*
X123345Y43589D01*
X124646Y43194D01*
X126000Y43061D01*
X144091D01*
X145444Y43194D01*
X146746Y43589D01*
X147946Y44230D01*
X148997Y45093D01*
X149860Y46145D01*
X150501Y47345D01*
X150896Y48646D01*
X151030Y50000D01*
X150896Y51354D01*
X150501Y52655D01*
X149860Y53855D01*
X148997Y54907D01*
X147946Y55769D01*
X146746Y56411D01*
X145444Y56806D01*
X144091Y56939D01*
X130539D01*
Y82221D01*
X137827D01*
Y86774D01*
X150181D01*
Y85220D01*
X164779D01*
Y91175D01*
X183272Y109668D01*
X204441D01*
Y109150D01*
X211559D01*
Y109668D01*
X214244D01*
Y109150D01*
X221756D01*
Y115284D01*
D02*
G37*
G36*
X240559D02*
X238968D01*
Y114185D01*
X240559D01*
Y115284D01*
D02*
G37*
G36*
X235032D02*
X233441D01*
Y114185D01*
X235032D01*
Y115284D01*
D02*
G37*
G36*
X240559Y110248D02*
X238968D01*
Y109150D01*
X240559D01*
Y110248D01*
D02*
G37*
G36*
X235032D02*
X233441D01*
Y109150D01*
X235032D01*
Y110248D01*
D02*
G37*
G36*
X394472Y122567D02*
X388362D01*
X388007Y122496D01*
X384925D01*
Y118809D01*
X383155Y117039D01*
X373000D01*
X372220Y116884D01*
X371558Y116442D01*
X368558Y113442D01*
X368116Y112780D01*
X367961Y112000D01*
Y110784D01*
X366441D01*
Y104650D01*
X373559D01*
Y110784D01*
X372348D01*
X372167Y111284D01*
X373845Y112961D01*
X378424D01*
X378615Y112499D01*
X378558Y112442D01*
X378116Y111780D01*
X377974Y111067D01*
X375244D01*
Y104933D01*
X382756D01*
Y110872D01*
X385442Y113558D01*
X390372Y118488D01*
X393628D01*
X395961Y116155D01*
Y111067D01*
X394441D01*
Y104933D01*
X401559D01*
Y111067D01*
X400039D01*
Y117000D01*
X399884Y117780D01*
X399442Y118442D01*
X395914Y121969D01*
X395253Y122412D01*
X394472Y122567D01*
D02*
G37*
G36*
X401559Y103784D02*
X399969D01*
Y102685D01*
X401559D01*
Y103784D01*
D02*
G37*
G36*
X396031D02*
X394441D01*
Y102685D01*
X396031D01*
Y103784D01*
D02*
G37*
G36*
X401559Y98748D02*
X399969D01*
Y97650D01*
X401559D01*
Y98748D01*
D02*
G37*
G36*
X396031D02*
X394441D01*
Y97650D01*
X396031D01*
Y98748D01*
D02*
G37*
G36*
X184858Y93520D02*
X179527D01*
Y91339D01*
X184858D01*
Y93520D01*
D02*
G37*
G36*
X175591D02*
X170260D01*
Y91339D01*
X175591D01*
Y93520D01*
D02*
G37*
G36*
X184858Y87402D02*
X179527D01*
Y85220D01*
X184858D01*
Y87402D01*
D02*
G37*
G36*
X175591D02*
X170260D01*
Y85220D01*
X175591D01*
Y87402D01*
D02*
G37*
G36*
X273835Y73047D02*
X268504D01*
Y70866D01*
X273835D01*
Y73047D01*
D02*
G37*
G36*
X264567D02*
X259236D01*
Y70866D01*
X264567D01*
Y73047D01*
D02*
G37*
G36*
X273835Y66929D02*
X268504D01*
Y64748D01*
X273835D01*
Y66929D01*
D02*
G37*
G36*
X264567D02*
X259236D01*
Y64748D01*
X264567D01*
Y66929D01*
D02*
G37*
G36*
X324000Y86224D02*
X323149Y86054D01*
X322428Y85572D01*
X321945Y84851D01*
X321776Y84000D01*
X321945Y83149D01*
X322428Y82428D01*
X322471Y82399D01*
Y72000D01*
X322587Y71415D01*
X322919Y70919D01*
X326919Y66919D01*
X327415Y66587D01*
X328000Y66471D01*
X337653D01*
Y63653D01*
X346346D01*
Y72347D01*
X337653D01*
Y69529D01*
X328633D01*
X325529Y72633D01*
Y82399D01*
X325572Y82428D01*
X326055Y83149D01*
X326224Y84000D01*
X326055Y84851D01*
X325572Y85572D01*
X324851Y86054D01*
X324000Y86224D01*
D02*
G37*
G36*
X343969Y51889D02*
Y49968D01*
X345889D01*
X345797Y50192D01*
X345100Y51100D01*
X344192Y51797D01*
X343969Y51889D01*
D02*
G37*
G36*
X340032D02*
X339808Y51797D01*
X338900Y51100D01*
X338203Y50192D01*
X338111Y49968D01*
X340032D01*
Y51889D01*
D02*
G37*
G36*
X345889Y46031D02*
X343969D01*
Y44111D01*
X344192Y44203D01*
X345100Y44900D01*
X345797Y45808D01*
X345889Y46031D01*
D02*
G37*
G36*
X340032D02*
X338111D01*
X338203Y45808D01*
X338900Y44900D01*
X339808Y44203D01*
X340032Y44111D01*
Y46031D01*
D02*
G37*
G36*
X71000Y122641D02*
X68866Y122473D01*
X66785Y121973D01*
X64807Y121154D01*
X62982Y120035D01*
X61355Y118645D01*
X59965Y117018D01*
X58846Y115193D01*
X58027Y113215D01*
X57528Y111134D01*
X57359Y109000D01*
X57528Y106866D01*
X58027Y104785D01*
X58846Y102807D01*
X59965Y100982D01*
X61355Y99355D01*
X62982Y97965D01*
X64807Y96846D01*
X64859Y96825D01*
Y56178D01*
X64094Y55769D01*
X63042Y54907D01*
X62179Y53855D01*
X61538Y52655D01*
X61143Y51354D01*
X61010Y50000D01*
X61143Y48646D01*
X61538Y47345D01*
X62179Y46145D01*
X63042Y45093D01*
X64094Y44230D01*
X65293Y43589D01*
X66595Y43194D01*
X67949Y43061D01*
X86236D01*
X87590Y43194D01*
X88892Y43589D01*
X90091Y44230D01*
X91143Y45093D01*
X92006Y46145D01*
X92647Y47345D01*
X93042Y48646D01*
X93175Y50000D01*
X93042Y51354D01*
X92647Y52655D01*
X92006Y53855D01*
X91143Y54907D01*
X90091Y55769D01*
X88892Y56411D01*
X87590Y56806D01*
X86236Y56939D01*
X73936D01*
Y95720D01*
X75215Y96027D01*
X77193Y96846D01*
X79018Y97965D01*
X80645Y99355D01*
X82035Y100982D01*
X83154Y102807D01*
X83973Y104785D01*
X84473Y106866D01*
X84641Y109000D01*
X84473Y111134D01*
X83973Y113215D01*
X83154Y115193D01*
X82035Y117018D01*
X80645Y118645D01*
X79018Y120035D01*
X77193Y121154D01*
X75215Y121973D01*
X73134Y122473D01*
X71000Y122641D01*
D02*
G37*
G36*
X173559Y44273D02*
Y37905D01*
X179926D01*
X179807Y38193D01*
X178689Y40018D01*
X177299Y41645D01*
X175671Y43035D01*
X173846Y44154D01*
X173559Y44273D01*
D02*
G37*
G36*
X161748Y44273D02*
X161461Y44154D01*
X159636Y43035D01*
X158008Y41645D01*
X156618Y40018D01*
X155500Y38193D01*
X155381Y37905D01*
X161748D01*
Y44273D01*
D02*
G37*
G36*
X196000Y45641D02*
X193866Y45472D01*
X191785Y44973D01*
X189807Y44154D01*
X187982Y43035D01*
X186355Y41645D01*
X184965Y40018D01*
X183846Y38193D01*
X183027Y36215D01*
X182527Y34134D01*
X182360Y32000D01*
X182527Y29866D01*
X183027Y27785D01*
X183846Y25807D01*
X184965Y23982D01*
X186355Y22355D01*
X187982Y20965D01*
X189807Y19846D01*
X191785Y19027D01*
X193866Y18528D01*
X196000Y18360D01*
X198134Y18528D01*
X200215Y19027D01*
X202193Y19846D01*
X204018Y20965D01*
X205645Y22355D01*
X207035Y23982D01*
X208154Y25807D01*
X208630Y26957D01*
X229369D01*
X230057Y26589D01*
X231359Y26194D01*
X232713Y26061D01*
X251000D01*
X252354Y26194D01*
X253655Y26589D01*
X254855Y27231D01*
X255907Y28093D01*
X256769Y29145D01*
X257411Y30345D01*
X257806Y31646D01*
X257939Y33000D01*
X257806Y34354D01*
X257411Y35655D01*
X256769Y36855D01*
X255907Y37907D01*
X254855Y38770D01*
X253655Y39411D01*
X252354Y39806D01*
X251000Y39939D01*
X232713D01*
X231359Y39806D01*
X230057Y39411D01*
X228857Y38770D01*
X227806Y37907D01*
X227097Y37043D01*
X208630D01*
X208154Y38193D01*
X207035Y40018D01*
X205645Y41645D01*
X204018Y43035D01*
X202193Y44154D01*
X200215Y44973D01*
X198134Y45472D01*
X196000Y45641D01*
D02*
G37*
G36*
X298102Y133827D02*
X283898D01*
Y110173D01*
X285721D01*
Y73047D01*
X279315D01*
Y64748D01*
X285721D01*
Y37696D01*
X285014Y36835D01*
X284373Y35636D01*
X283978Y34334D01*
X283844Y32980D01*
X283978Y31627D01*
X284373Y30325D01*
X285014Y29125D01*
X285877Y28074D01*
X286928Y27211D01*
X288128Y26570D01*
X289430Y26175D01*
X290784Y26041D01*
X308874D01*
X310228Y26175D01*
X311529Y26570D01*
X312729Y27211D01*
X313781Y28074D01*
X314644Y29125D01*
X315285Y30325D01*
X315680Y31627D01*
X315813Y32980D01*
X315680Y34334D01*
X315285Y35636D01*
X314644Y36835D01*
X313781Y37887D01*
X312729Y38750D01*
X311529Y39391D01*
X310228Y39786D01*
X308874Y39919D01*
X295807D01*
Y65000D01*
Y66438D01*
X317820Y88451D01*
X371000D01*
X371975Y88645D01*
X372802Y89198D01*
X373355Y90025D01*
X373466Y90582D01*
X380533Y97650D01*
X382756D01*
Y103784D01*
X375244D01*
Y98128D01*
X370665Y93549D01*
X366161D01*
X365969Y94011D01*
X369325Y97366D01*
X373559D01*
Y103500D01*
X366441D01*
Y100250D01*
X359740Y93549D01*
X316764D01*
X315788Y93355D01*
X314961Y92802D01*
X296269Y74110D01*
X295807Y74301D01*
Y110173D01*
X298102D01*
Y133827D01*
D02*
G37*
G36*
X161748Y26094D02*
X155381D01*
X155500Y25807D01*
X156618Y23982D01*
X158008Y22355D01*
X159636Y20965D01*
X161461Y19846D01*
X161748Y19727D01*
Y26094D01*
D02*
G37*
G36*
X179926D02*
X173559D01*
Y19727D01*
X173846Y19846D01*
X175671Y20965D01*
X177299Y22355D01*
X178689Y23982D01*
X179807Y25807D01*
X179926Y26094D01*
D02*
G37*
%LPD*%
G36*
X204528Y136417D02*
X200394Y134547D01*
X188363Y122517D01*
X171072Y115354D01*
X114862Y115354D01*
Y128347D01*
X114764Y128445D01*
X123130Y136811D01*
X204134D01*
X204528Y136417D01*
D02*
G37*
G36*
X328740Y126378D02*
X365748D01*
Y124374D01*
X354331Y112957D01*
X354295Y112992D01*
X329134D01*
X328346Y126772D01*
X328740Y126378D01*
D02*
G37*
D10*
X350000Y135358D02*
X350787Y134571D01*
Y124409D02*
Y134571D01*
X361104Y130896D02*
X361472Y130528D01*
X202031Y135031D02*
X202500Y135500D01*
X192000Y141000D02*
X192500Y140500D01*
X67949Y50000D02*
X69398Y51449D01*
X67929Y49980D02*
X67949Y50000D01*
X69398Y107398D02*
X71000Y109000D01*
X231713Y32000D02*
X232693Y32980D01*
X232713Y33000D01*
X290764D02*
X290784Y32980D01*
X290764Y121764D02*
X291000Y122000D01*
X144091Y50000D02*
X144110Y49980D01*
X328000Y68000D02*
X342000D01*
X324000Y72000D02*
X328000Y68000D01*
X324000Y72000D02*
Y84000D01*
X401284Y134000D02*
X402823Y135539D01*
X388362Y125528D02*
X389543D01*
X379000Y108000D02*
X380000Y109000D01*
X387181Y120528D02*
X388362D01*
X370000Y107717D02*
X370492D01*
X369508Y100433D02*
X370000D01*
X218000Y129000D02*
X218500D01*
X402823Y135539D02*
X403000Y135716D01*
X366618Y136012D02*
X367102Y135528D01*
X235500Y135500D02*
X236000Y136000D01*
X368738Y106433D02*
X369230D01*
D14*
X366831Y125512D02*
D03*
Y130512D02*
D03*
Y135512D02*
D03*
Y120512D02*
D03*
X388090D02*
D03*
Y135512D02*
D03*
Y130512D02*
D03*
Y125512D02*
D03*
X201476Y135591D02*
D03*
Y140591D02*
D03*
Y145591D02*
D03*
Y130591D02*
D03*
X222736D02*
D03*
Y145591D02*
D03*
Y140591D02*
D03*
Y135591D02*
D03*
D15*
X377559Y128209D02*
D03*
X212205Y138287D02*
D03*
D16*
X252000Y136000D02*
D03*
X259283D02*
D03*
D17*
X237000Y119500D02*
D03*
Y112216D02*
D03*
X208000Y119500D02*
D03*
Y112216D02*
D03*
X415000Y143000D02*
D03*
Y135716D02*
D03*
X398000Y108000D02*
D03*
Y100716D02*
D03*
X370000Y107717D02*
D03*
Y100433D02*
D03*
D18*
X126000Y122000D02*
D03*
Y89323D02*
D03*
D19*
X323677Y122000D02*
D03*
X291000D02*
D03*
D20*
X236000Y136000D02*
D03*
X243284D02*
D03*
D21*
X177559Y89370D02*
D03*
X157480D02*
D03*
X268000Y181000D02*
D03*
X288079D02*
D03*
X266535Y68898D02*
D03*
X286614D02*
D03*
X385433Y181496D02*
D03*
X365354D02*
D03*
D22*
X218000Y119500D02*
D03*
Y112216D02*
D03*
X178000Y153000D02*
D03*
Y145717D02*
D03*
X403000Y135716D02*
D03*
Y143000D02*
D03*
X379000Y108000D02*
D03*
Y100716D02*
D03*
X350000Y142642D02*
D03*
Y135358D02*
D03*
D23*
X325102Y181102D02*
X364961D01*
X325000Y181000D02*
X325102Y181102D01*
X288079Y181000D02*
X325000D01*
D40*
X208000Y112216D02*
X218000D01*
X190344Y161231D02*
X194000Y157575D01*
X178526Y157660D02*
X182097Y161231D01*
X190344D01*
X194000Y148500D02*
Y157575D01*
X178000Y153000D02*
X178526Y153526D01*
Y157660D01*
X176243Y133038D02*
X178000Y134795D01*
X169962Y133038D02*
X176243D01*
X194000Y148500D02*
X197000Y145500D01*
X202500D01*
X178000Y134795D02*
Y145717D01*
X290764Y65000D02*
X316764Y91000D01*
X360075D01*
X159323Y89323D02*
X182217Y112216D01*
X208000D01*
X126000Y89323D02*
X159323D01*
X159000Y171000D02*
X175000Y187000D01*
X197000D01*
X159000Y144000D02*
Y171000D01*
X360075Y91000D02*
X371000D01*
X178000Y145717D02*
X178689D01*
X159000Y144000D02*
X169962Y133038D01*
D41*
X242000Y152000D02*
X243000D01*
X319000D01*
X69398Y51449D02*
Y107398D01*
X126000Y51236D02*
Y89323D01*
X325000Y158000D02*
Y181000D01*
X319000Y152000D02*
X325000Y158000D01*
D42*
X350000Y142642D02*
X359988D01*
X366618Y136012D01*
X371000Y91000D02*
X380000Y100000D01*
X415000Y143000D02*
Y147000D01*
X413000Y149000D02*
X415000Y147000D01*
X405000Y149000D02*
X413000D01*
X403000Y147000D02*
X405000Y149000D01*
X403000Y143000D02*
Y147000D01*
X398732Y134000D02*
X401284D01*
X390260Y125528D02*
X398732Y134000D01*
X384000Y115000D02*
X389528Y120528D01*
X380000Y109000D02*
Y111000D01*
X384000Y115000D01*
X389528Y120528D02*
X394472D01*
X388362D02*
X389528D01*
X373000Y115000D02*
X384000D01*
X370000Y112000D02*
X373000Y115000D01*
X370000Y107717D02*
Y112000D01*
X360075Y91000D02*
X369508Y100433D01*
X218500Y129000D02*
X220000Y130500D01*
X218000Y119500D02*
Y129000D01*
X213500D02*
X218000D01*
X208000Y123500D02*
X213500Y129000D01*
X398000Y108000D02*
Y117000D01*
X394472Y120528D02*
X398000Y117000D01*
X223760Y130500D02*
X233000D01*
X237000Y126500D01*
Y119500D02*
Y126500D01*
X208000Y119500D02*
Y123500D01*
X220000Y130500D02*
X223760D01*
X243284Y136000D02*
X252000D01*
X223760Y135500D02*
X235500D01*
D43*
X192500Y140500D02*
X202500D01*
D44*
X67949Y50000D02*
X86236D01*
X232713Y33000D02*
X251000D01*
X290784Y32980D02*
X308874D01*
X126000Y50000D02*
X144091D01*
D45*
X196000Y32000D02*
X231713D01*
X290764Y65000D02*
Y121764D01*
Y33000D02*
Y65000D01*
D46*
X361472Y130528D02*
X367102D01*
D47*
X196000Y32000D02*
D03*
X167654D02*
D03*
X71000Y109000D02*
D03*
Y137346D02*
D03*
X325000Y181000D02*
D03*
Y209347D02*
D03*
D48*
X290764Y33000D02*
D03*
X308874Y32980D02*
D03*
X251000Y33000D02*
D03*
X232693Y32980D02*
D03*
X126000Y50000D02*
D03*
X144110Y49980D02*
D03*
X86236Y50000D02*
D03*
X67929Y49980D02*
D03*
D49*
X197000Y187000D02*
D03*
D50*
X217000D02*
D03*
X342000Y48000D02*
D03*
D51*
Y68000D02*
D03*
D52*
X45000Y217000D02*
D03*
Y12000D02*
D03*
X429000Y220000D02*
D03*
Y13000D02*
D03*
D53*
X199705Y120374D02*
D03*
X193110D02*
D03*
X202362Y124508D02*
D03*
X197441D02*
D03*
X381496Y137008D02*
D03*
X374016D02*
D03*
X358268Y118898D02*
D03*
X354724Y115354D02*
D03*
X361104Y130896D02*
D03*
X192000Y141000D02*
D03*
X324000Y84000D02*
D03*
X243000Y152000D02*
D03*
X385000Y142000D02*
D03*
X377535Y142004D02*
D03*
X370000Y142000D02*
D03*
M02*
