G04*
G04 #@! TF.GenerationSoftware,Altium Limited,Altium Designer,19.1.8 (144)*
G04*
G04 Layer_Color=8388736*
%FSLAX25Y25*%
%MOIN*%
G70*
G01*
G75*
%ADD23R,0.09461X0.13005*%
%ADD24R,0.05131X0.02769*%
%ADD25R,0.07099X0.13398*%
%ADD26R,0.13398X0.07099*%
%ADD27R,0.10642X0.13595*%
%ADD28R,0.05918X0.04934*%
%ADD29R,0.04934X0.05918*%
%ADD30R,0.06312X0.04934*%
%ADD31R,0.04934X0.06312*%
%ADD32R,0.06706X0.04737*%
%ADD33C,0.07493*%
%ADD34R,0.07493X0.07493*%
%ADD35C,0.24422*%
%ADD36C,0.06800*%
%ADD37C,0.05800*%
D23*
X213256Y138039D02*
D03*
X377858Y128067D02*
D03*
D24*
X223760Y135500D02*
D03*
Y140500D02*
D03*
Y145500D02*
D03*
Y130500D02*
D03*
X202500D02*
D03*
Y145500D02*
D03*
Y140500D02*
D03*
Y135500D02*
D03*
X388362Y125528D02*
D03*
Y130528D02*
D03*
Y135528D02*
D03*
Y120528D02*
D03*
X367102D02*
D03*
Y135528D02*
D03*
Y130528D02*
D03*
Y125528D02*
D03*
D25*
X218000Y62921D02*
D03*
Y83000D02*
D03*
X380000Y48000D02*
D03*
Y68079D02*
D03*
D26*
X268000Y181000D02*
D03*
X288079D02*
D03*
X400000D02*
D03*
X379921D02*
D03*
D27*
X157953Y117000D02*
D03*
X180000D02*
D03*
X310953Y126000D02*
D03*
X333000D02*
D03*
D28*
X370000Y100433D02*
D03*
Y107717D02*
D03*
X415000Y129358D02*
D03*
Y136642D02*
D03*
X208000Y112216D02*
D03*
Y119500D02*
D03*
X237000Y112216D02*
D03*
Y119500D02*
D03*
X398000Y100716D02*
D03*
Y108000D02*
D03*
D29*
X259283Y136000D02*
D03*
X252000D02*
D03*
D30*
X350000Y142642D02*
D03*
Y135358D02*
D03*
X403000Y129717D02*
D03*
Y137000D02*
D03*
X181500Y148142D02*
D03*
Y140858D02*
D03*
X218000Y119500D02*
D03*
Y112216D02*
D03*
X379000Y108000D02*
D03*
Y100716D02*
D03*
D31*
X236000Y136000D02*
D03*
X243284D02*
D03*
D32*
X289000Y22016D02*
D03*
X288980Y40323D02*
D03*
X289000Y98197D02*
D03*
X288980Y80087D02*
D03*
X101988Y50787D02*
D03*
X101969Y69095D02*
D03*
X101988Y126969D02*
D03*
X101969Y108858D02*
D03*
D33*
X342000Y48000D02*
D03*
X159000Y202000D02*
D03*
D34*
X342000Y68000D02*
D03*
X159000Y182000D02*
D03*
D35*
X205654Y23000D02*
D03*
X234000D02*
D03*
X46000Y97347D02*
D03*
Y69000D02*
D03*
X325000Y209347D02*
D03*
Y181000D02*
D03*
D36*
X13000Y221000D02*
D03*
X11000Y10000D02*
D03*
X439000Y221000D02*
D03*
X440606Y10236D02*
D03*
D37*
X385000Y142000D02*
D03*
X377535Y142004D02*
D03*
X370000Y142000D02*
D03*
X382000Y135000D02*
D03*
X374000D02*
D03*
X360000Y132000D02*
D03*
X192000Y141000D02*
D03*
X221000Y152000D02*
D03*
X344000Y115000D02*
D03*
X325000Y101000D02*
D03*
M02*
