%TF.GenerationSoftware,Altium Limited,Altium Designer,19.1.8 (144)*%
G04 Layer_Color=32768*
%FSLAX26Y26*%
%MOIN*%
%TF.FileFunction,Other,Mechanical_3*%
%TF.Part,Single*%
G01*
G75*
%TA.AperFunction,NonConductor*%
%ADD22C,0.010000*%
D22*
X2057953Y601654D02*
Y798504D01*
Y601654D02*
X2309921D01*
X2254803Y857559D02*
X2309921Y802441D01*
Y601654D02*
Y802441D01*
X2057953Y798504D02*
X2117008Y857559D01*
X2254803D01*
X2652441Y1932047D02*
X2849291D01*
X2652441Y1680079D02*
Y1932047D01*
X2853228Y1680079D02*
X2908346Y1735197D01*
X2652441Y1680079D02*
X2853228D01*
X2849291Y1932047D02*
X2908346Y1872992D01*
Y1735197D02*
Y1872992D01*
X3677953Y452441D02*
Y649291D01*
Y452441D02*
X3929921D01*
X3874803Y708346D02*
X3929921Y653228D01*
Y452441D02*
Y653228D01*
X3677953Y649291D02*
X3737008Y708346D01*
X3874803D01*
X3830709Y1687953D02*
X4027559D01*
Y1939921D01*
X3771654Y1884803D02*
X3826772Y1939921D01*
X3826772D02*
X4027559D01*
X3771654Y1747008D02*
X3830709Y1687953D01*
X3771654Y1747008D02*
Y1884803D01*
X2778189Y194272D02*
X3004961D01*
Y419272D01*
X2776614Y196535D02*
Y417697D01*
X2778189Y419272D01*
X3004961D01*
X2777402Y1016221D02*
X3004173D01*
X2775827Y793484D02*
Y1014646D01*
X3004173Y791221D02*
Y1016221D01*
X2777402Y791221D02*
X3004173D01*
X908071Y481988D02*
X1134842D01*
Y706988D01*
X906496Y484252D02*
Y705413D01*
X908071Y706988D01*
X1134842D01*
X907283Y1303937D02*
X1134055D01*
X905709Y1081201D02*
Y1302362D01*
X1134055Y1078937D02*
Y1303937D01*
X907283Y1078937D02*
X1134055D01*
X2506535Y30000D02*
Y430000D01*
X260000Y523465D02*
X660000D01*
X3050000Y1643465D02*
X3450000D01*
X1524409Y992835D02*
Y1319606D01*
Y992835D02*
X1851181D01*
Y1319606D01*
X1524409D02*
X1851181D01*
X3054409Y1082835D02*
Y1409606D01*
Y1082835D02*
X3381181D01*
Y1409606D01*
X3054409D02*
X3381181D01*
%TF.MD5,0676a251d46348d4dc2971b12c171b8a*%
M02*
