%TF.GenerationSoftware,Altium Limited,Altium Designer,19.1.8 (144)*%
G04 Layer_Color=255*
%FSLAX26Y26*%
%MOIN*%
%TF.FileFunction,Pads,Top*%
%TF.Part,Single*%
G01*
G75*
%TA.AperFunction,SMDPad,CuDef*%
%ADD10R,0.086614X0.122047*%
%ADD11R,0.043307X0.019685*%
%ADD12R,0.062992X0.125984*%
%ADD13R,0.125984X0.062992*%
%ADD14R,0.098425X0.127953*%
%ADD15R,0.051181X0.041339*%
%ADD16R,0.041339X0.051181*%
%ADD17R,0.055118X0.041339*%
%ADD18R,0.041339X0.055118*%
%TA.AperFunction,ComponentPad*%
%ADD23R,0.059055X0.039370*%
%ADD24C,0.066929*%
%ADD25R,0.066929X0.066929*%
%ADD26C,0.236220*%
%TA.AperFunction,WasherPad*%
%ADD27C,0.060000*%
D10*
X2132559Y1380394D02*
D03*
X3778583Y1280669D02*
D03*
D11*
X2237598Y1355000D02*
D03*
Y1405000D02*
D03*
Y1455000D02*
D03*
Y1305000D02*
D03*
X2025000D02*
D03*
Y1455000D02*
D03*
Y1405000D02*
D03*
Y1355000D02*
D03*
X3883622Y1255276D02*
D03*
Y1305276D02*
D03*
Y1355276D02*
D03*
Y1205276D02*
D03*
X3671024D02*
D03*
Y1355276D02*
D03*
Y1305276D02*
D03*
Y1255276D02*
D03*
D12*
X2180000Y629213D02*
D03*
Y830000D02*
D03*
X3800000Y480000D02*
D03*
Y680787D02*
D03*
D13*
X2680000Y1810000D02*
D03*
X2880787D02*
D03*
X4000000D02*
D03*
X3799213D02*
D03*
D14*
X1579527Y1170000D02*
D03*
X1800000D02*
D03*
X3109528Y1260000D02*
D03*
X3330000D02*
D03*
D15*
X3700000Y1004331D02*
D03*
Y1077165D02*
D03*
X4150000Y1293583D02*
D03*
Y1366417D02*
D03*
X2080000Y1122165D02*
D03*
Y1195000D02*
D03*
X2370000Y1122165D02*
D03*
Y1195000D02*
D03*
X3980000Y1007165D02*
D03*
Y1080000D02*
D03*
D16*
X2592835Y1360000D02*
D03*
X2520000D02*
D03*
D17*
X3500000Y1426417D02*
D03*
Y1353583D02*
D03*
X4030000Y1297165D02*
D03*
Y1370000D02*
D03*
X1815000Y1481417D02*
D03*
Y1408583D02*
D03*
X2180000Y1195000D02*
D03*
Y1122165D02*
D03*
X3790000Y1080000D02*
D03*
Y1007165D02*
D03*
D18*
X2360000Y1360000D02*
D03*
X2432835D02*
D03*
D23*
X2890000Y220157D02*
D03*
X2889803Y403228D02*
D03*
X2890000Y981968D02*
D03*
X2889803Y800866D02*
D03*
X1019882Y507874D02*
D03*
X1019685Y690945D02*
D03*
X1019882Y1269685D02*
D03*
X1019685Y1088583D02*
D03*
D24*
X3420000Y480000D02*
D03*
X1590000Y2020000D02*
D03*
D25*
X3420000Y680000D02*
D03*
X1590000Y1820000D02*
D03*
D26*
X2056535Y230000D02*
D03*
X2340000D02*
D03*
X460000Y973465D02*
D03*
Y690000D02*
D03*
X3250000Y2093465D02*
D03*
Y1810000D02*
D03*
D27*
X130000Y2210000D02*
D03*
X110000Y100000D02*
D03*
X4390000Y2210000D02*
D03*
X4406063Y102362D02*
D03*
%TF.MD5,ffc5d1769b48e10d0df8d8ee63552d5e*%
M02*
