%TF.GenerationSoftware,Altium Limited,Altium Designer,19.1.8 (144)*%
G04 Layer_Color=8388736*
%FSLAX26Y26*%
%MOIN*%
%TF.FileFunction,Soldermask,Top*%
%TF.Part,Single*%
G01*
G75*
%TA.AperFunction,ComponentPad*%
%ADD29R,0.067055X0.047370*%
%ADD30C,0.074929*%
%ADD31R,0.074929X0.074929*%
%ADD32C,0.244220*%
%TA.AperFunction,WasherPad*%
%ADD33C,0.068000*%
%TA.AperFunction,ViaPad*%
%ADD34C,0.058000*%
%TA.AperFunction,SMDPad,CuDef*%
%ADD38R,0.094614X0.130047*%
%ADD39R,0.051307X0.027685*%
%ADD40R,0.070992X0.133984*%
%ADD41R,0.133984X0.070992*%
%ADD42R,0.106425X0.135953*%
%ADD43R,0.059181X0.049339*%
%ADD44R,0.049339X0.059181*%
%ADD45R,0.063118X0.049339*%
%ADD46R,0.049339X0.063118*%
D29*
X2890000Y220157D02*
D03*
X2889803Y403228D02*
D03*
X2890000Y981968D02*
D03*
X2889803Y800866D02*
D03*
X1019882Y507874D02*
D03*
X1019685Y690945D02*
D03*
X1019882Y1269685D02*
D03*
X1019685Y1088583D02*
D03*
D30*
X3420000Y480000D02*
D03*
X1590000Y2020000D02*
D03*
D31*
X3420000Y680000D02*
D03*
X1590000Y1820000D02*
D03*
D32*
X2056535Y230000D02*
D03*
X2340000D02*
D03*
X460000Y973465D02*
D03*
Y690000D02*
D03*
X3250000Y2093465D02*
D03*
Y1810000D02*
D03*
D33*
X130000Y2210000D02*
D03*
X110000Y100000D02*
D03*
X4390000Y2210000D02*
D03*
X4406063Y102362D02*
D03*
D34*
X3850000Y1420000D02*
D03*
X3775354Y1420039D02*
D03*
X3700000Y1420000D02*
D03*
X3820000Y1350000D02*
D03*
X3740000D02*
D03*
X3600000Y1320000D02*
D03*
X1920000Y1410000D02*
D03*
X2210000Y1520000D02*
D03*
X3440000Y1150000D02*
D03*
X3250000Y1010000D02*
D03*
D38*
X2132559Y1380394D02*
D03*
X3778583Y1280669D02*
D03*
D39*
X2237598Y1355000D02*
D03*
Y1405000D02*
D03*
Y1455000D02*
D03*
Y1305000D02*
D03*
X2025000D02*
D03*
Y1455000D02*
D03*
Y1405000D02*
D03*
Y1355000D02*
D03*
X3883622Y1255276D02*
D03*
Y1305276D02*
D03*
Y1355276D02*
D03*
Y1205276D02*
D03*
X3671024D02*
D03*
Y1355276D02*
D03*
Y1305276D02*
D03*
Y1255276D02*
D03*
D40*
X2180000Y629213D02*
D03*
Y830000D02*
D03*
X3800000Y480000D02*
D03*
Y680787D02*
D03*
D41*
X2680000Y1810000D02*
D03*
X2880787D02*
D03*
X4000000D02*
D03*
X3799213D02*
D03*
D42*
X1579527Y1170000D02*
D03*
X1800000D02*
D03*
X3109528Y1260000D02*
D03*
X3330000D02*
D03*
D43*
X3700000Y1004331D02*
D03*
Y1077165D02*
D03*
X4150000Y1293583D02*
D03*
Y1366417D02*
D03*
X2080000Y1122165D02*
D03*
Y1195000D02*
D03*
X2370000Y1122165D02*
D03*
Y1195000D02*
D03*
X3980000Y1007165D02*
D03*
Y1080000D02*
D03*
D44*
X2592835Y1360000D02*
D03*
X2520000D02*
D03*
D45*
X3500000Y1426417D02*
D03*
Y1353583D02*
D03*
X4030000Y1297165D02*
D03*
Y1370000D02*
D03*
X1815000Y1481417D02*
D03*
Y1408583D02*
D03*
X2180000Y1195000D02*
D03*
Y1122165D02*
D03*
X3790000Y1080000D02*
D03*
Y1007165D02*
D03*
D46*
X2360000Y1360000D02*
D03*
X2432835D02*
D03*
%TF.MD5,fde2308b8a280f4251cbf8029a1f53c0*%
M02*
