G04*
G04 #@! TF.GenerationSoftware,Altium Limited,Altium Designer,20.0.12 (288)*
G04*
G04 Layer_Color=16711935*
%FSLAX25Y25*%
%MOIN*%
G70*
G01*
G75*
%ADD11C,0.00394*%
D11*
X385335Y117972D02*
Y138051D01*
X369587D02*
X385335D01*
X369587Y117972D02*
Y138051D01*
Y117972D02*
X385335D01*
X219980Y128051D02*
Y148130D01*
X204232D02*
X219980D01*
X204232Y128051D02*
Y148130D01*
Y128051D02*
X219980D01*
X251409Y138480D02*
X259874D01*
X251409Y133520D02*
X259874D01*
X251409D02*
Y138480D01*
X259874Y133520D02*
Y138480D01*
X239480Y111626D02*
Y120091D01*
X234520Y111626D02*
Y120091D01*
X239480D01*
X234520Y111626D02*
X239480D01*
X210480D02*
Y120091D01*
X205520Y111626D02*
Y120091D01*
X210480D01*
X205520Y111626D02*
X210480D01*
X417480Y135126D02*
Y143591D01*
X412520Y135126D02*
Y143591D01*
X417480D01*
X412520Y135126D02*
X417480D01*
X400480Y100126D02*
Y108591D01*
X395520Y100126D02*
Y108591D01*
X400480D01*
X395520Y100126D02*
X400480D01*
X372480Y99843D02*
Y108307D01*
X367520Y99843D02*
Y108307D01*
X372480D01*
X367520Y99843D02*
X372480D01*
X235409Y133520D02*
Y138480D01*
X243874Y133520D02*
Y138480D01*
X235409D02*
X243874D01*
X235409Y133520D02*
X243874D01*
X215520Y120091D02*
X220480D01*
X215520Y111626D02*
X220480D01*
Y120091D01*
X215520Y111626D02*
Y120091D01*
X175520Y153591D02*
X180480D01*
X175520Y145126D02*
X180480D01*
Y153591D01*
X175520Y145126D02*
Y153591D01*
X400520Y135126D02*
X405480D01*
X400520Y143591D02*
X405480D01*
X400520Y135126D02*
Y143591D01*
X405480Y135126D02*
Y143591D01*
X376520Y108591D02*
X381480D01*
X376520Y100126D02*
X381480D01*
Y108591D01*
X376520Y100126D02*
Y108591D01*
X347520Y143232D02*
X352480D01*
X347520Y134768D02*
X352480D01*
Y143232D01*
X347520Y134768D02*
Y143232D01*
M02*
