%TF.GenerationSoftware,Altium Limited,Altium Designer,19.1.8 (144)*%
G04 Layer_Color=16711935*
%FSLAX26Y26*%
%MOIN*%
%TF.FileFunction,Soldermask,Bot*%
%TF.Part,Single*%
G01*
G75*
%TA.AperFunction,ComponentPad*%
%ADD29R,0.067055X0.047370*%
%ADD30C,0.074929*%
%ADD31R,0.074929X0.074929*%
%ADD32C,0.244220*%
%TA.AperFunction,WasherPad*%
%ADD33C,0.068000*%
%TA.AperFunction,ViaPad*%
%ADD34C,0.058000*%
D29*
X2890000Y220157D02*
D03*
X2889803Y403228D02*
D03*
X2890000Y981968D02*
D03*
X2889803Y800866D02*
D03*
X1019882Y507874D02*
D03*
X1019685Y690945D02*
D03*
X1019882Y1269685D02*
D03*
X1019685Y1088583D02*
D03*
D30*
X3420000Y480000D02*
D03*
X1590000Y2020000D02*
D03*
D31*
X3420000Y680000D02*
D03*
X1590000Y1820000D02*
D03*
D32*
X2056535Y230000D02*
D03*
X2340000D02*
D03*
X460000Y973465D02*
D03*
Y690000D02*
D03*
X3250000Y2093465D02*
D03*
Y1810000D02*
D03*
D33*
X130000Y2210000D02*
D03*
X110000Y100000D02*
D03*
X4390000Y2210000D02*
D03*
X4406063Y102362D02*
D03*
D34*
X3850000Y1420000D02*
D03*
X3775354Y1420039D02*
D03*
X3700000Y1420000D02*
D03*
X3820000Y1350000D02*
D03*
X3740000D02*
D03*
X3600000Y1320000D02*
D03*
X1920000Y1410000D02*
D03*
X2210000Y1520000D02*
D03*
X3440000Y1150000D02*
D03*
X3250000Y1010000D02*
D03*
%TF.MD5,865982461994702a61c31d6b80eb2e16*%
M02*
