%TF.GenerationSoftware,Altium Limited,Altium Designer,19.1.8 (144)*%
G04 Layer_Color=32768*
%FSLAX26Y26*%
%MOIN*%
%TF.FileFunction,Other,Mechanical_15*%
%TF.Part,Single*%
G01*
G75*
%TA.AperFunction,NonConductor*%
%ADD35C,0.003937*%
%ADD47C,0.001968*%
D35*
X1973819Y1244173D02*
Y1519764D01*
Y1244173D02*
X2284843D01*
Y1519764D01*
X1973819D02*
X2284843D01*
X3619843Y1144449D02*
Y1420039D01*
Y1144449D02*
X3930866D01*
Y1420039D01*
X3619843D02*
X3930866D01*
X3700000Y1021063D02*
Y1060433D01*
X3680315Y1040748D02*
X3719685D01*
X4150000Y1310315D02*
Y1349685D01*
X4130315Y1330000D02*
X4169685D01*
X2080000Y1138898D02*
Y1178268D01*
X2060315Y1158583D02*
X2099685D01*
X2370000Y1138898D02*
Y1178268D01*
X2350315Y1158583D02*
X2389685D01*
X2536732Y1360000D02*
X2576102D01*
X2556417Y1340315D02*
Y1379685D01*
X3980000Y1023898D02*
Y1063268D01*
X3960315Y1043583D02*
X3999685D01*
X3500000Y1370315D02*
Y1409685D01*
X3480315Y1390000D02*
X3519685D01*
X4030000Y1313898D02*
Y1353268D01*
X4010315Y1333583D02*
X4049685D01*
X1815000Y1425315D02*
Y1464685D01*
X1795315Y1445000D02*
X1834685D01*
X2180000Y1138898D02*
Y1178268D01*
X2160315Y1158583D02*
X2199685D01*
X2376732Y1360000D02*
X2416102D01*
X2396417Y1340315D02*
Y1379685D01*
X3790000Y1023898D02*
Y1063268D01*
X3770315Y1043583D02*
X3809685D01*
D47*
X3664567Y973819D02*
X3735433D01*
X3664567Y1107677D02*
X3735433D01*
X3664567Y973819D02*
Y1107677D01*
X3735433Y973819D02*
Y1107677D01*
X4114567Y1263071D02*
X4185433D01*
X4114567Y1396929D02*
X4185433D01*
X4114567Y1263071D02*
Y1396929D01*
X4185433Y1263071D02*
Y1396929D01*
X2044567Y1091654D02*
X2115433D01*
X2044567Y1225512D02*
X2115433D01*
X2044567Y1091654D02*
Y1225512D01*
X2115433Y1091654D02*
Y1225512D01*
X2334567Y1091654D02*
X2405433D01*
X2334567Y1225512D02*
X2405433D01*
X2334567Y1091654D02*
Y1225512D01*
X2405433Y1091654D02*
Y1225512D01*
X2623346Y1324567D02*
Y1395433D01*
X2489488Y1324567D02*
Y1395433D01*
Y1324567D02*
X2623346D01*
X2489488Y1395433D02*
X2623346D01*
X3944567Y976654D02*
X4015433D01*
X3944567Y1110512D02*
X4015433D01*
X3944567Y976654D02*
Y1110512D01*
X4015433Y976654D02*
Y1110512D01*
X3462599Y1456929D02*
X3537402D01*
X3462599Y1323071D02*
X3537402D01*
Y1456929D01*
X3462599Y1323071D02*
Y1456929D01*
X3992598Y1266654D02*
X4067401D01*
X3992598Y1400512D02*
X4067401D01*
X3992598Y1266654D02*
Y1400512D01*
X4067401Y1266654D02*
Y1400512D01*
X1777599Y1511929D02*
X1852402D01*
X1777599Y1378071D02*
X1852402D01*
Y1511929D01*
X1777599Y1378071D02*
Y1511929D01*
X2142599Y1225512D02*
X2217402D01*
X2142599Y1091653D02*
X2217402D01*
Y1225512D01*
X2142599Y1091653D02*
Y1225512D01*
X2329488Y1322599D02*
Y1397402D01*
X2463347Y1322599D02*
Y1397402D01*
X2329488D02*
X2463347D01*
X2329488Y1322599D02*
X2463347D01*
X3752599Y1110512D02*
X3827402D01*
X3752599Y976654D02*
X3827402D01*
Y1110512D01*
X3752599Y976654D02*
Y1110512D01*
%TF.MD5,0987d5356e5d28f3d7cfdfdf81f9f86a*%
M02*
