G04*
G04 #@! TF.GenerationSoftware,Altium Limited,Altium Designer,20.0.12 (288)*
G04*
G04 Layer_Color=255*
%FSLAX25Y25*%
%MOIN*%
G70*
G01*
G75*
%ADD14R,0.04331X0.01968*%
%ADD15R,0.08661X0.12205*%
%ADD16R,0.04134X0.05118*%
%ADD17R,0.05118X0.04134*%
%ADD18R,0.21654X0.12205*%
%ADD19R,0.12205X0.21654*%
%ADD20R,0.04134X0.05512*%
%ADD21R,0.12598X0.06299*%
%ADD22R,0.05512X0.04134*%
%ADD47C,0.25197*%
%ADD48R,0.05512X0.09449*%
%ADD49R,0.06693X0.06693*%
%ADD50C,0.06693*%
%ADD51R,0.06693X0.06693*%
%ADD52C,0.06000*%
D14*
X366831Y125512D02*
D03*
Y130512D02*
D03*
Y135512D02*
D03*
Y120512D02*
D03*
X388090D02*
D03*
Y135512D02*
D03*
Y130512D02*
D03*
Y125512D02*
D03*
X201476Y135591D02*
D03*
Y140591D02*
D03*
Y145591D02*
D03*
Y130591D02*
D03*
X222736D02*
D03*
Y145591D02*
D03*
Y140591D02*
D03*
Y135591D02*
D03*
D15*
X377559Y128209D02*
D03*
X212205Y138287D02*
D03*
D16*
X252000Y136000D02*
D03*
X259283D02*
D03*
D17*
X237000Y119500D02*
D03*
Y112216D02*
D03*
X208000Y119500D02*
D03*
Y112216D02*
D03*
X415000Y143000D02*
D03*
Y135716D02*
D03*
X398000Y108000D02*
D03*
Y100716D02*
D03*
X370000Y107717D02*
D03*
Y100433D02*
D03*
D18*
X126000Y122000D02*
D03*
Y89323D02*
D03*
D19*
X323677Y122000D02*
D03*
X291000D02*
D03*
D20*
X236000Y136000D02*
D03*
X243284D02*
D03*
D21*
X177559Y89370D02*
D03*
X157480D02*
D03*
X268000Y181000D02*
D03*
X288079D02*
D03*
X266535Y68898D02*
D03*
X286614D02*
D03*
X385433Y181496D02*
D03*
X365354D02*
D03*
D22*
X218000Y119500D02*
D03*
Y112216D02*
D03*
X178000Y153000D02*
D03*
Y145717D02*
D03*
X403000Y135716D02*
D03*
Y143000D02*
D03*
X379000Y108000D02*
D03*
Y100716D02*
D03*
X350000Y142642D02*
D03*
Y135358D02*
D03*
D47*
X196000Y32000D02*
D03*
X167654D02*
D03*
X71000Y109000D02*
D03*
Y137346D02*
D03*
X325000Y181000D02*
D03*
Y209347D02*
D03*
D48*
X290764Y33000D02*
D03*
X308874Y32980D02*
D03*
X251000Y33000D02*
D03*
X232693Y32980D02*
D03*
X126000Y50000D02*
D03*
X144110Y49980D02*
D03*
X86236Y50000D02*
D03*
X67929Y49980D02*
D03*
D49*
X197000Y187000D02*
D03*
D50*
X217000D02*
D03*
X342000Y48000D02*
D03*
D51*
Y68000D02*
D03*
D52*
X45000Y217000D02*
D03*
Y12000D02*
D03*
X429000Y220000D02*
D03*
Y13000D02*
D03*
M02*
