G04*
G04 #@! TF.GenerationSoftware,Altium Limited,Altium Designer,20.0.12 (288)*
G04*
G04 Layer_Color=8388736*
%FSLAX25Y25*%
%MOIN*%
G70*
G01*
G75*
%ADD24R,0.05131X0.02769*%
%ADD25R,0.09461X0.13005*%
%ADD26R,0.04934X0.05918*%
%ADD27R,0.05918X0.04934*%
%ADD28R,0.22453X0.13005*%
%ADD29R,0.13005X0.22453*%
%ADD30R,0.04934X0.06312*%
%ADD31R,0.13398X0.07099*%
%ADD32R,0.06312X0.04934*%
%ADD33C,0.25997*%
%ADD34R,0.06312X0.10249*%
%ADD35R,0.07493X0.07493*%
%ADD36C,0.07493*%
%ADD37R,0.07493X0.07493*%
%ADD38C,0.06800*%
%ADD39C,0.03162*%
D24*
X366831Y125512D02*
D03*
Y130512D02*
D03*
Y135512D02*
D03*
Y120512D02*
D03*
X388090D02*
D03*
Y135512D02*
D03*
Y130512D02*
D03*
Y125512D02*
D03*
X201476Y135591D02*
D03*
Y140591D02*
D03*
Y145591D02*
D03*
Y130591D02*
D03*
X222736D02*
D03*
Y145591D02*
D03*
Y140591D02*
D03*
Y135591D02*
D03*
D25*
X377559Y128209D02*
D03*
X212205Y138287D02*
D03*
D26*
X252000Y136000D02*
D03*
X259283D02*
D03*
D27*
X237000Y119500D02*
D03*
Y112216D02*
D03*
X208000Y119500D02*
D03*
Y112216D02*
D03*
X415000Y143000D02*
D03*
Y135716D02*
D03*
X398000Y108000D02*
D03*
Y100716D02*
D03*
X370000Y107717D02*
D03*
Y100433D02*
D03*
D28*
X126000Y122000D02*
D03*
Y89323D02*
D03*
D29*
X323677Y122000D02*
D03*
X291000D02*
D03*
D30*
X236000Y136000D02*
D03*
X243284D02*
D03*
D31*
X177559Y89370D02*
D03*
X157480D02*
D03*
X268000Y181000D02*
D03*
X288079D02*
D03*
X266535Y68898D02*
D03*
X286614D02*
D03*
X385433Y181496D02*
D03*
X365354D02*
D03*
D32*
X218000Y119500D02*
D03*
Y112216D02*
D03*
X178000Y153000D02*
D03*
Y145717D02*
D03*
X403000Y135716D02*
D03*
Y143000D02*
D03*
X379000Y108000D02*
D03*
Y100716D02*
D03*
X350000Y142642D02*
D03*
Y135358D02*
D03*
D33*
X196000Y32000D02*
D03*
X167654D02*
D03*
X71000Y109000D02*
D03*
Y137346D02*
D03*
X325000Y181000D02*
D03*
Y209347D02*
D03*
D34*
X290764Y33000D02*
D03*
X308874Y32980D02*
D03*
X251000Y33000D02*
D03*
X232693Y32980D02*
D03*
X126000Y50000D02*
D03*
X144110Y49980D02*
D03*
X86236Y50000D02*
D03*
X67929Y49980D02*
D03*
D35*
X197000Y187000D02*
D03*
D36*
X217000D02*
D03*
X342000Y48000D02*
D03*
D37*
Y68000D02*
D03*
D38*
X45000Y217000D02*
D03*
Y12000D02*
D03*
X429000Y220000D02*
D03*
Y13000D02*
D03*
D39*
X358268Y118898D02*
D03*
X354724Y115354D02*
D03*
M02*
