G04*
G04 #@! TF.GenerationSoftware,Altium Limited,Altium Designer,19.1.8 (144)*
G04*
G04 Layer_Physical_Order=1*
G04 Layer_Color=255*
%FSLAX25Y25*%
%MOIN*%
G70*
G01*
G75*
%ADD10C,0.01000*%
%ADD14R,0.08661X0.12205*%
%ADD15R,0.04331X0.01968*%
%ADD16R,0.06299X0.12598*%
%ADD17R,0.12598X0.06299*%
%ADD18R,0.09843X0.12795*%
%ADD19R,0.05118X0.04134*%
%ADD20R,0.04134X0.05118*%
%ADD21R,0.05512X0.04134*%
%ADD22R,0.04134X0.05512*%
%ADD38C,0.01968*%
%ADD39C,0.02000*%
%ADD40R,0.05906X0.03937*%
%ADD41C,0.06693*%
%ADD42R,0.06693X0.06693*%
%ADD43C,0.23622*%
%ADD44C,0.06000*%
%ADD45C,0.05000*%
G36*
X452000Y1500D02*
X444081D01*
X444007Y1995D01*
X444019Y1998D01*
X445560Y2822D01*
X446911Y3931D01*
X448021Y5282D01*
X448844Y6824D01*
X449352Y8497D01*
X449523Y10236D01*
X449352Y11976D01*
X448844Y13649D01*
X448021Y15190D01*
X446911Y16542D01*
X445560Y17650D01*
X444019Y18474D01*
X442346Y18982D01*
X440606Y19153D01*
X438867Y18982D01*
X437194Y18474D01*
X435652Y17650D01*
X434301Y16542D01*
X433192Y15190D01*
X432368Y13649D01*
X431861Y11976D01*
X431689Y10236D01*
X431861Y8497D01*
X432368Y6824D01*
X433192Y5282D01*
X434301Y3931D01*
X435652Y2822D01*
X437194Y1998D01*
X437205Y1995D01*
X437132Y1500D01*
X14983D01*
X14858Y2000D01*
X15954Y2586D01*
X17305Y3695D01*
X18414Y5046D01*
X19238Y6588D01*
X19746Y8260D01*
X19917Y10000D01*
X19746Y11740D01*
X19238Y13412D01*
X18414Y14954D01*
X17305Y16305D01*
X15954Y17414D01*
X14412Y18238D01*
X12740Y18746D01*
X11000Y18917D01*
X9260Y18746D01*
X7588Y18238D01*
X6046Y17414D01*
X4695Y16305D01*
X3586Y14954D01*
X2762Y13412D01*
X2500Y12549D01*
X2000Y12623D01*
Y232000D01*
X452000D01*
Y1500D01*
D02*
G37*
%LPC*%
G36*
X439000Y229917D02*
X437260Y229746D01*
X435588Y229238D01*
X434046Y228414D01*
X432695Y227305D01*
X431586Y225954D01*
X430762Y224412D01*
X430254Y222740D01*
X430083Y221000D01*
X430254Y219260D01*
X430762Y217588D01*
X431586Y216046D01*
X432695Y214695D01*
X434046Y213586D01*
X435588Y212762D01*
X437260Y212254D01*
X439000Y212083D01*
X440740Y212254D01*
X442412Y212762D01*
X443954Y213586D01*
X445305Y214695D01*
X446414Y216046D01*
X447238Y217588D01*
X447746Y219260D01*
X447917Y221000D01*
X447746Y222740D01*
X447238Y224412D01*
X446414Y225954D01*
X445305Y227305D01*
X443954Y228414D01*
X442412Y229238D01*
X440740Y229746D01*
X439000Y229917D01*
D02*
G37*
G36*
X13000D02*
X11260Y229746D01*
X9588Y229238D01*
X8046Y228414D01*
X6695Y227305D01*
X5586Y225954D01*
X4762Y224412D01*
X4254Y222740D01*
X4083Y221000D01*
X4254Y219260D01*
X4762Y217588D01*
X5586Y216046D01*
X6695Y214695D01*
X8046Y213586D01*
X9588Y212762D01*
X11260Y212254D01*
X13000Y212083D01*
X14740Y212254D01*
X16412Y212762D01*
X17954Y213586D01*
X19305Y214695D01*
X20414Y216046D01*
X21238Y217588D01*
X21746Y219260D01*
X21917Y221000D01*
X21746Y222740D01*
X21238Y224412D01*
X20414Y225954D01*
X19305Y227305D01*
X17954Y228414D01*
X16412Y229238D01*
X14740Y229746D01*
X13000Y229917D01*
D02*
G37*
G36*
X326969Y222042D02*
Y211315D01*
X337696D01*
X337692Y211357D01*
X337222Y213317D01*
X336450Y215180D01*
X335396Y216900D01*
X334087Y218433D01*
X332553Y219743D01*
X330834Y220796D01*
X328971Y221568D01*
X327010Y222039D01*
X326969Y222042D01*
D02*
G37*
G36*
X323031D02*
X322990Y222039D01*
X321029Y221568D01*
X319166Y220796D01*
X317447Y219743D01*
X315913Y218433D01*
X314604Y216900D01*
X313550Y215180D01*
X312778Y213317D01*
X312308Y211357D01*
X312304Y211315D01*
X323031D01*
Y222042D01*
D02*
G37*
G36*
X160968Y205889D02*
Y203969D01*
X162889D01*
X162797Y204192D01*
X162100Y205100D01*
X161192Y205797D01*
X160968Y205889D01*
D02*
G37*
G36*
X157032D02*
X156808Y205797D01*
X155900Y205100D01*
X155203Y204192D01*
X155111Y203969D01*
X157032D01*
Y205889D01*
D02*
G37*
G36*
X162889Y200031D02*
X160968D01*
Y198111D01*
X161192Y198203D01*
X162100Y198900D01*
X162797Y199808D01*
X162889Y200031D01*
D02*
G37*
G36*
X157032D02*
X155111D01*
X155203Y199808D01*
X155900Y198900D01*
X156808Y198203D01*
X157032Y198111D01*
Y200031D01*
D02*
G37*
G36*
X337696Y207378D02*
X326969D01*
Y196651D01*
X327010Y196654D01*
X328971Y197125D01*
X330834Y197897D01*
X332553Y198950D01*
X334087Y200260D01*
X335396Y201793D01*
X336450Y203512D01*
X337222Y205375D01*
X337692Y207336D01*
X337696Y207378D01*
D02*
G37*
G36*
X323031D02*
X312304D01*
X312308Y207336D01*
X312778Y205375D01*
X313550Y203512D01*
X314604Y201793D01*
X315913Y200260D01*
X317447Y198950D01*
X319166Y197897D01*
X321029Y197125D01*
X322990Y196654D01*
X323031Y196651D01*
Y207378D01*
D02*
G37*
G36*
X325000Y193851D02*
X322990Y193692D01*
X321029Y193222D01*
X319166Y192450D01*
X317447Y191396D01*
X315913Y190087D01*
X314604Y188553D01*
X313550Y186834D01*
X312778Y184971D01*
X312311Y183023D01*
X295378D01*
Y185150D01*
X280780D01*
Y176850D01*
X295378D01*
Y178977D01*
X312311D01*
X312778Y177029D01*
X313550Y175166D01*
X314604Y173447D01*
X315913Y171913D01*
X317447Y170604D01*
X319166Y169550D01*
X321029Y168778D01*
X322977Y168311D01*
Y158838D01*
X318162Y154023D01*
X270081D01*
X270000Y154039D01*
X223847D01*
X223496Y154496D01*
X222765Y155057D01*
X221914Y155410D01*
X221000Y155530D01*
X220086Y155410D01*
X219235Y155057D01*
X218504Y154496D01*
X217943Y153765D01*
X217590Y152914D01*
X217470Y152000D01*
X217590Y151086D01*
X217943Y150235D01*
X218504Y149504D01*
X219235Y148943D01*
X220086Y148590D01*
X221000Y148470D01*
X221914Y148590D01*
X222765Y148943D01*
X223496Y149504D01*
X223847Y149961D01*
X270000D01*
X270081Y149977D01*
X319000D01*
X319774Y150131D01*
X320431Y150569D01*
X326431Y156569D01*
X326869Y157226D01*
X327023Y158000D01*
Y168311D01*
X328971Y168778D01*
X330834Y169550D01*
X332553Y170604D01*
X334087Y171913D01*
X335396Y173447D01*
X336450Y175166D01*
X337222Y177029D01*
X337689Y178977D01*
X345919D01*
X346000Y178961D01*
X372622D01*
Y176850D01*
X387221D01*
Y185150D01*
X372622D01*
Y183039D01*
X346000D01*
X345919Y183023D01*
X337689D01*
X337222Y184971D01*
X336450Y186834D01*
X335396Y188553D01*
X334087Y190087D01*
X332553Y191396D01*
X330834Y192450D01*
X328971Y193222D01*
X327010Y193692D01*
X325000Y193851D01*
D02*
G37*
G36*
X407299Y185150D02*
X401968D01*
Y182968D01*
X407299D01*
Y185150D01*
D02*
G37*
G36*
X275299D02*
X269969D01*
Y182968D01*
X275299D01*
Y185150D01*
D02*
G37*
G36*
X266032D02*
X260701D01*
Y182968D01*
X266032D01*
Y185150D01*
D02*
G37*
G36*
X398031D02*
X392701D01*
Y182968D01*
X398031D01*
Y185150D01*
D02*
G37*
G36*
X407299Y179032D02*
X401968D01*
Y176850D01*
X407299D01*
Y179032D01*
D02*
G37*
G36*
X398031D02*
X392701D01*
Y176850D01*
X398031D01*
Y179032D01*
D02*
G37*
G36*
X275299D02*
X269969D01*
Y176850D01*
X275299D01*
Y179032D01*
D02*
G37*
G36*
X266032D02*
X260701D01*
Y176850D01*
X266032D01*
Y179032D01*
D02*
G37*
G36*
X386968Y144901D02*
Y143968D01*
X387901D01*
X387496Y144496D01*
X386968Y144901D01*
D02*
G37*
G36*
X368032D02*
X367504Y144496D01*
X367099Y143968D01*
X368032D01*
Y144901D01*
D02*
G37*
G36*
X226925Y147484D02*
X220595D01*
Y143516D01*
X226925D01*
Y147484D01*
D02*
G37*
G36*
X188000Y154529D02*
X183500D01*
X182915Y154413D01*
X182419Y154081D01*
X180419Y152081D01*
X180087Y151585D01*
X180012Y151209D01*
X177744D01*
Y145075D01*
X185256D01*
Y151209D01*
X185647Y151471D01*
X187366D01*
X194419Y144419D01*
X194915Y144087D01*
X195500Y143971D01*
X199335D01*
Y143516D01*
X205665D01*
Y147484D01*
X199335D01*
Y147029D01*
X196133D01*
X189081Y154081D01*
X188585Y154413D01*
X188000Y154529D01*
D02*
G37*
G36*
X375567Y144905D02*
X375039Y144500D01*
X374478Y143769D01*
X374126Y142918D01*
X374054Y142377D01*
X374020Y142113D01*
X373515D01*
X373481Y142376D01*
X373410Y142914D01*
X373057Y143765D01*
X372496Y144496D01*
X371969Y144901D01*
Y142000D01*
Y139099D01*
X372496Y139504D01*
X373057Y140235D01*
X373410Y141086D01*
X373481Y141627D01*
X373516Y141891D01*
X374020D01*
X374055Y141628D01*
X374126Y141090D01*
X374478Y140239D01*
X375039Y139508D01*
X375567Y139103D01*
Y142004D01*
Y144905D01*
D02*
G37*
G36*
X218587Y145142D02*
X215224D01*
Y140008D01*
X218587D01*
Y145142D01*
D02*
G37*
G36*
X211287D02*
X207925D01*
Y140008D01*
X211287D01*
Y145142D01*
D02*
G37*
G36*
X387901Y140032D02*
X386968D01*
Y139099D01*
X387496Y139504D01*
X387901Y140032D01*
D02*
G37*
G36*
X379504Y144905D02*
Y142004D01*
Y139103D01*
X380032Y139508D01*
X380593Y140239D01*
X380945Y141090D01*
X381015Y141622D01*
X381520D01*
X381590Y141086D01*
X381943Y140235D01*
X382504Y139504D01*
X383032Y139099D01*
Y142000D01*
Y144901D01*
X382504Y144496D01*
X381943Y143765D01*
X381590Y142914D01*
X381520Y142382D01*
X381016D01*
X380945Y142918D01*
X380593Y143769D01*
X380032Y144500D01*
X379504Y144905D01*
D02*
G37*
G36*
X368032Y140032D02*
X367099D01*
X367504Y139504D01*
X368032Y139099D01*
Y140032D01*
D02*
G37*
G36*
X226925Y142484D02*
X220595D01*
Y138516D01*
X226925D01*
Y142484D01*
D02*
G37*
G36*
X262350Y139559D02*
X261252D01*
Y137969D01*
X262350D01*
Y139559D01*
D02*
G37*
G36*
X257315D02*
X256217D01*
Y137969D01*
X257315D01*
Y139559D01*
D02*
G37*
G36*
X239067Y139756D02*
X232933D01*
Y137029D01*
X226925D01*
Y137484D01*
X220595D01*
Y133516D01*
X226925D01*
Y133971D01*
X232933D01*
Y132529D01*
X232933Y132244D01*
X232522Y132029D01*
X226925D01*
Y132484D01*
X220595D01*
Y132029D01*
X220000D01*
X219415Y131913D01*
X219087Y131694D01*
X218587Y131916D01*
Y136071D01*
X207925D01*
Y130937D01*
X212986D01*
X213036Y130437D01*
X212915Y130413D01*
X212419Y130081D01*
X206919Y124581D01*
X206587Y124085D01*
X206471Y123500D01*
Y122567D01*
X204441D01*
Y116433D01*
X211559D01*
Y122567D01*
X209937D01*
X209730Y123067D01*
X214134Y127471D01*
X216471D01*
Y122567D01*
X214244D01*
Y116433D01*
X221756D01*
Y122567D01*
X219529D01*
Y127884D01*
X219581Y127919D01*
X220300Y128638D01*
X220595Y128516D01*
Y128516D01*
X226925D01*
Y128971D01*
X232366D01*
X235471Y125866D01*
Y122567D01*
X233441D01*
Y116433D01*
X240559D01*
Y122567D01*
X238529D01*
Y126500D01*
X238413Y127085D01*
X238081Y127581D01*
X234081Y131581D01*
X233838Y131744D01*
X233990Y132244D01*
X239067D01*
Y139756D01*
D02*
G37*
G36*
X413693Y143529D02*
X404000D01*
X403415Y143413D01*
X402919Y143081D01*
X401919Y142081D01*
X401587Y141585D01*
X401471Y141000D01*
Y140067D01*
X399244D01*
Y133933D01*
X406756D01*
Y140067D01*
X406988Y140471D01*
X412930D01*
X413144Y140196D01*
X412926Y139709D01*
X411441D01*
Y133575D01*
X418559D01*
Y139709D01*
X416529D01*
Y140693D01*
X416413Y141278D01*
X416081Y141774D01*
X414774Y143081D01*
X414278Y143413D01*
X413693Y143529D01*
D02*
G37*
G36*
X205665Y132484D02*
X204468D01*
Y132468D01*
X205665D01*
Y132484D01*
D02*
G37*
G36*
X200532D02*
X199335D01*
Y132468D01*
X200532D01*
Y132484D01*
D02*
G37*
G36*
X262350Y134031D02*
X261252D01*
Y132441D01*
X262350D01*
Y134031D01*
D02*
G37*
G36*
X257315D02*
X256217D01*
Y132441D01*
X257315D01*
Y134031D01*
D02*
G37*
G36*
X246350Y139756D02*
X240216D01*
Y132244D01*
X246350D01*
Y134471D01*
X248933D01*
Y132441D01*
X255067D01*
Y139559D01*
X248933D01*
Y137529D01*
X246350D01*
Y139756D01*
D02*
G37*
G36*
X418559Y132425D02*
X416968D01*
Y131327D01*
X418559D01*
Y132425D01*
D02*
G37*
G36*
X413031D02*
X411441D01*
Y131327D01*
X413031D01*
Y132425D01*
D02*
G37*
G36*
X357000Y148529D02*
X351307D01*
X350722Y148413D01*
X350226Y148081D01*
X348919Y146774D01*
X348587Y146278D01*
X348474Y145709D01*
X346244D01*
Y139575D01*
X353756D01*
Y145471D01*
X356366D01*
X358471Y143367D01*
Y138000D01*
X358587Y137415D01*
X358919Y136919D01*
X359826Y136012D01*
X359646Y135484D01*
X359086Y135410D01*
X358235Y135057D01*
X357504Y134496D01*
X356943Y133765D01*
X356590Y132914D01*
X356470Y132000D01*
X356590Y131086D01*
X356943Y130235D01*
X357504Y129504D01*
X358235Y128943D01*
X359086Y128590D01*
X360000Y128470D01*
X360914Y128590D01*
X360929Y128596D01*
X361472Y128488D01*
X367102D01*
X367378Y128543D01*
X370268D01*
Y132512D01*
X367378D01*
X367102Y132567D01*
X363456D01*
X363410Y132914D01*
X363057Y133765D01*
X362851Y134034D01*
X363072Y134482D01*
X363937D01*
Y133543D01*
X370268D01*
Y133558D01*
X370768Y133658D01*
X370943Y133235D01*
X371504Y132504D01*
X372235Y131943D01*
X372528Y131822D01*
Y130035D01*
X383189D01*
Y131704D01*
X383765Y131943D01*
X384496Y132504D01*
X384966Y133115D01*
X384979Y133133D01*
X384979Y133133D01*
X385057Y133235D01*
X385113Y133358D01*
X385197Y133543D01*
Y133543D01*
X385197Y133543D01*
X391528D01*
Y137512D01*
X385197D01*
Y137405D01*
X384697Y137235D01*
X384496Y137496D01*
X383968Y137901D01*
Y135000D01*
X380031D01*
Y137901D01*
X379504Y137496D01*
X378943Y136765D01*
X378590Y135914D01*
X378492Y135169D01*
X377508D01*
X377410Y135914D01*
X377057Y136765D01*
X376496Y137496D01*
X375969Y137901D01*
Y135000D01*
X372031D01*
Y137901D01*
X371504Y137496D01*
X370943Y136765D01*
X370768Y136343D01*
X370268Y136442D01*
Y137512D01*
X366766D01*
X366618Y137541D01*
X362622D01*
X361529Y138634D01*
Y144000D01*
X361413Y144585D01*
X361081Y145081D01*
X358081Y148081D01*
X357585Y148413D01*
X357000Y148529D01*
D02*
G37*
G36*
X391528Y132512D02*
X385197D01*
Y128543D01*
X391528D01*
Y132512D01*
D02*
G37*
G36*
X205665Y128532D02*
X204468D01*
Y128516D01*
X205665D01*
Y128532D01*
D02*
G37*
G36*
X200532D02*
X199335D01*
Y128516D01*
X200532D01*
Y128532D01*
D02*
G37*
G36*
X353756Y138425D02*
X346244D01*
Y132291D01*
X348471D01*
Y131000D01*
X348587Y130415D01*
X348919Y129919D01*
X350808Y128029D01*
X350617Y127567D01*
X338921D01*
Y133398D01*
X327079D01*
Y120737D01*
X326617Y120546D01*
X320081Y127081D01*
X319585Y127413D01*
X319000Y127529D01*
X316874D01*
Y133398D01*
X305031D01*
Y128023D01*
X299000D01*
X298226Y127869D01*
X297569Y127431D01*
X287569Y117431D01*
X287131Y116774D01*
X286977Y116000D01*
Y101165D01*
X285047D01*
Y95228D01*
X286941D01*
Y83055D01*
X285028D01*
Y77118D01*
X292933D01*
Y83055D01*
X291020D01*
Y95228D01*
X292953D01*
Y101165D01*
X291023D01*
Y115162D01*
X299838Y123977D01*
X305031D01*
Y118602D01*
X316874D01*
Y124471D01*
X318367D01*
X348919Y93919D01*
X349415Y93587D01*
X350000Y93471D01*
X368000D01*
X368585Y93587D01*
X369081Y93919D01*
X369143Y93980D01*
X370857D01*
X370919Y93919D01*
X371415Y93587D01*
X372000Y93471D01*
X377000D01*
X377084Y93487D01*
X377471Y93170D01*
Y75378D01*
X375850D01*
Y60780D01*
X384150D01*
Y75378D01*
X380529D01*
Y97000D01*
Y97650D01*
X382756D01*
Y103784D01*
X375244D01*
Y97650D01*
X376780D01*
X376987Y97150D01*
X376366Y96529D01*
X372634D01*
X372259Y96904D01*
X372450Y97366D01*
X373559D01*
Y103500D01*
X366441D01*
Y97366D01*
X367550D01*
X367741Y96904D01*
X367367Y96529D01*
X350634D01*
X329023Y118140D01*
X329214Y118602D01*
X338921D01*
Y123488D01*
X355472D01*
X355553Y123504D01*
X361391D01*
X361582Y123043D01*
X355069Y116529D01*
X347155D01*
X347057Y116765D01*
X346496Y117496D01*
X345765Y118057D01*
X344914Y118410D01*
X344000Y118530D01*
X343086Y118410D01*
X342235Y118057D01*
X341504Y117496D01*
X340943Y116765D01*
X340590Y115914D01*
X340470Y115000D01*
X340590Y114086D01*
X340943Y113235D01*
X341504Y112504D01*
X342235Y111943D01*
X343086Y111590D01*
X344000Y111470D01*
X344914Y111590D01*
X345765Y111943D01*
X346496Y112504D01*
X347057Y113235D01*
X347155Y113471D01*
X355702D01*
X356288Y113587D01*
X356784Y113919D01*
X363475Y120610D01*
X363937Y120418D01*
Y118543D01*
X365134D01*
Y120528D01*
X367102D01*
Y122496D01*
X370268D01*
Y122512D01*
X366014D01*
X365942Y122685D01*
X365861Y123012D01*
X366159Y123458D01*
X366176Y123543D01*
X370268D01*
Y127512D01*
X366117D01*
X365921Y127551D01*
X355612D01*
X351529Y131633D01*
Y132291D01*
X353756D01*
Y138425D01*
D02*
G37*
G36*
X418559Y127390D02*
X416968D01*
Y126291D01*
X418559D01*
Y127390D01*
D02*
G37*
G36*
X413031D02*
X411441D01*
Y126291D01*
X413031D01*
Y127390D01*
D02*
G37*
G36*
X406756Y132783D02*
X399244D01*
Y126650D01*
X400513D01*
X400704Y126188D01*
X400046Y125529D01*
X395634D01*
X394554Y126609D01*
X394058Y126941D01*
X393472Y127057D01*
X391528D01*
Y127512D01*
X385197D01*
Y123543D01*
X391528D01*
Y123998D01*
X392839D01*
X393919Y122919D01*
X394415Y122587D01*
X395000Y122471D01*
X400679D01*
X401264Y122587D01*
X401761Y122919D01*
X403904Y125062D01*
X404236Y125558D01*
X404352Y126144D01*
Y126650D01*
X406756D01*
Y132783D01*
D02*
G37*
G36*
X163347Y186346D02*
X154654D01*
Y177654D01*
X156977D01*
Y144000D01*
X157131Y143226D01*
X157569Y142569D01*
X166012Y134126D01*
X166058Y134058D01*
X166720Y133616D01*
X167500Y133461D01*
X189924D01*
X190115Y132999D01*
X188558Y131442D01*
X188116Y130780D01*
X187961Y130000D01*
Y120845D01*
X186421Y119305D01*
X185921Y119512D01*
Y124398D01*
X174079D01*
Y110737D01*
X173617Y110546D01*
X166081Y118081D01*
X165585Y118413D01*
X165000Y118529D01*
X163874D01*
Y124398D01*
X152032D01*
Y119039D01*
X146845D01*
X137442Y128442D01*
X136780Y128884D01*
X136000Y129039D01*
X105941D01*
Y129937D01*
X98035D01*
Y124000D01*
X99961D01*
Y111827D01*
X98016D01*
Y105890D01*
X105921D01*
Y111827D01*
X104039D01*
Y124000D01*
X105941D01*
Y124961D01*
X135155D01*
X144558Y115558D01*
X144558Y115558D01*
X145220Y115116D01*
X146000Y114961D01*
X146000Y114961D01*
X152032D01*
Y109602D01*
X163874D01*
Y115453D01*
X164374Y115463D01*
X172919Y106919D01*
X173415Y106587D01*
X174000Y106471D01*
X207000D01*
X207049Y106480D01*
X208951D01*
X209000Y106471D01*
X216471D01*
Y90299D01*
X213850D01*
Y75701D01*
X217245D01*
X217415Y75587D01*
X218000Y75471D01*
X218585Y75587D01*
X218756Y75701D01*
X222150D01*
Y90299D01*
X219529D01*
Y109150D01*
X221756D01*
Y115284D01*
X218940D01*
X218614Y115348D01*
X217925D01*
X217599Y115284D01*
X214244D01*
Y109529D01*
X211559D01*
Y115284D01*
X204441D01*
Y109529D01*
X186391D01*
X185921Y109602D01*
Y114961D01*
X187000D01*
X187780Y115116D01*
X188442Y115558D01*
X191442Y118558D01*
X191884Y119220D01*
X192039Y120000D01*
Y129155D01*
X196345Y133461D01*
X202500D01*
X202776Y133516D01*
X205665D01*
Y137484D01*
X202776D01*
X202500Y137539D01*
X194044D01*
X193891Y138039D01*
X194440Y138461D01*
X202500D01*
X202776Y138516D01*
X205665D01*
Y142484D01*
X202776D01*
X202500Y142539D01*
X195151D01*
X195057Y142765D01*
X194496Y143496D01*
X193765Y144057D01*
X192914Y144410D01*
X192000Y144530D01*
X191086Y144410D01*
X190235Y144057D01*
X189504Y143496D01*
X188943Y142765D01*
X188590Y141914D01*
X188470Y141000D01*
X188590Y140086D01*
X188943Y139235D01*
X189504Y138504D01*
X190109Y138039D01*
X189956Y137539D01*
X185652D01*
X185256Y137791D01*
Y143925D01*
X177744D01*
Y137791D01*
X177348Y137539D01*
X168322D01*
X161023Y144838D01*
Y177654D01*
X163347D01*
Y186346D01*
D02*
G37*
G36*
X370268Y118559D02*
X369071D01*
Y118543D01*
X370268D01*
Y118559D01*
D02*
G37*
G36*
X240559Y115284D02*
X238968D01*
Y114185D01*
X240559D01*
Y115284D01*
D02*
G37*
G36*
X235032D02*
X233441D01*
Y114185D01*
X235032D01*
Y115284D01*
D02*
G37*
G36*
X240559Y110248D02*
X238968D01*
Y109150D01*
X240559D01*
Y110248D01*
D02*
G37*
G36*
X235032D02*
X233441D01*
Y109150D01*
X235032D01*
Y110248D01*
D02*
G37*
G36*
X383189Y126098D02*
X372528D01*
Y120965D01*
X375148D01*
X375340Y120503D01*
X368919Y114081D01*
X368587Y113585D01*
X368471Y113000D01*
Y110784D01*
X366441D01*
Y104650D01*
X373559D01*
Y110784D01*
X371529D01*
Y112366D01*
X378161Y118998D01*
X379182D01*
X379373Y118536D01*
X377919Y117081D01*
X377587Y116585D01*
X377471Y116000D01*
Y111067D01*
X375244D01*
Y104933D01*
X382756D01*
Y111067D01*
X380529D01*
Y115366D01*
X384161Y118998D01*
X385197D01*
Y118543D01*
X391528D01*
Y118998D01*
X393839D01*
X396471Y116367D01*
Y111067D01*
X394441D01*
Y104933D01*
X401559D01*
Y111067D01*
X399529D01*
Y117000D01*
X399413Y117585D01*
X399081Y118081D01*
X395554Y121609D01*
X395058Y121941D01*
X394472Y122057D01*
X391528D01*
Y122512D01*
X385197D01*
Y122057D01*
X383189D01*
Y126098D01*
D02*
G37*
G36*
X401559Y103784D02*
X399969D01*
Y102685D01*
X401559D01*
Y103784D01*
D02*
G37*
G36*
X396031D02*
X394441D01*
Y102685D01*
X396031D01*
Y103784D01*
D02*
G37*
G36*
X47969Y110042D02*
Y99315D01*
X58696D01*
X58692Y99357D01*
X58222Y101318D01*
X57450Y103181D01*
X56396Y104900D01*
X55087Y106433D01*
X53553Y107743D01*
X51834Y108797D01*
X49971Y109568D01*
X48010Y110039D01*
X47969Y110042D01*
D02*
G37*
G36*
X44032D02*
X43990Y110039D01*
X42029Y109568D01*
X40166Y108797D01*
X38447Y107743D01*
X36913Y106433D01*
X35604Y104900D01*
X34550Y103181D01*
X33778Y101318D01*
X33308Y99357D01*
X33304Y99315D01*
X44032D01*
Y110042D01*
D02*
G37*
G36*
X401559Y98748D02*
X399969D01*
Y97650D01*
X401559D01*
Y98748D01*
D02*
G37*
G36*
X396031D02*
X394441D01*
Y97650D01*
X396031D01*
Y98748D01*
D02*
G37*
G36*
X58696Y95378D02*
X47969D01*
Y84651D01*
X48010Y84654D01*
X49971Y85125D01*
X51834Y85896D01*
X53553Y86950D01*
X55087Y88260D01*
X56396Y89793D01*
X57450Y91512D01*
X58222Y93375D01*
X58692Y95336D01*
X58696Y95378D01*
D02*
G37*
G36*
X44032D02*
X33304D01*
X33308Y95336D01*
X33778Y93375D01*
X34550Y91512D01*
X35604Y89793D01*
X36913Y88260D01*
X38447Y86950D01*
X40166Y85896D01*
X42029Y85125D01*
X43990Y84654D01*
X44032Y84651D01*
Y95378D01*
D02*
G37*
G36*
X222150Y70221D02*
X219969D01*
Y64890D01*
X222150D01*
Y70221D01*
D02*
G37*
G36*
X216032D02*
X213850D01*
Y64890D01*
X216032D01*
Y70221D01*
D02*
G37*
G36*
X325000Y104530D02*
X324086Y104410D01*
X323235Y104057D01*
X322504Y103496D01*
X321943Y102765D01*
X321590Y101914D01*
X321470Y101000D01*
X321590Y100086D01*
X321943Y99235D01*
X322504Y98504D01*
X323235Y97943D01*
X324086Y97590D01*
X325000Y97470D01*
X325914Y97590D01*
X326765Y97943D01*
X326838Y97999D01*
X340471Y84367D01*
Y72347D01*
X337653D01*
Y63653D01*
X346346D01*
Y72347D01*
X343529D01*
Y85000D01*
X343413Y85585D01*
X343081Y86081D01*
X328487Y100675D01*
X328530Y101000D01*
X328410Y101914D01*
X328057Y102765D01*
X327496Y103496D01*
X326765Y104057D01*
X325914Y104410D01*
X325000Y104530D01*
D02*
G37*
G36*
X222150Y60953D02*
X219969D01*
Y55622D01*
X222150D01*
Y60953D01*
D02*
G37*
G36*
X216032D02*
X213850D01*
Y55622D01*
X216032D01*
Y60953D01*
D02*
G37*
G36*
X384150Y55299D02*
X381968D01*
Y49968D01*
X384150D01*
Y55299D01*
D02*
G37*
G36*
X343969Y51889D02*
Y49968D01*
X345889D01*
X345797Y50192D01*
X345100Y51100D01*
X344192Y51797D01*
X343969Y51889D01*
D02*
G37*
G36*
X340032D02*
X339808Y51797D01*
X338900Y51100D01*
X338203Y50192D01*
X338111Y49968D01*
X340032D01*
Y51889D01*
D02*
G37*
G36*
X378031Y55299D02*
X375850D01*
Y49968D01*
X378031D01*
Y55299D01*
D02*
G37*
G36*
X46000Y81851D02*
X43990Y81692D01*
X42029Y81222D01*
X40166Y80450D01*
X38447Y79396D01*
X36913Y78087D01*
X35604Y76553D01*
X34550Y74834D01*
X33778Y72971D01*
X33308Y71010D01*
X33149Y69000D01*
X33308Y66990D01*
X33778Y65029D01*
X34550Y63166D01*
X35604Y61447D01*
X36913Y59913D01*
X38447Y58604D01*
X40166Y57550D01*
X42029Y56778D01*
X43990Y56308D01*
X46000Y56149D01*
X48010Y56308D01*
X49971Y56778D01*
X51834Y57550D01*
X53553Y58604D01*
X55087Y59913D01*
X56396Y61447D01*
X57450Y63166D01*
X58222Y65029D01*
X58685Y66961D01*
X98016D01*
Y66126D01*
X99961D01*
Y53756D01*
X98035D01*
Y47819D01*
X105941D01*
Y53756D01*
X104039D01*
Y66126D01*
X105921D01*
Y72063D01*
X98016D01*
Y71039D01*
X58685D01*
X58222Y72971D01*
X57450Y74834D01*
X56396Y76553D01*
X55087Y78087D01*
X53553Y79396D01*
X51834Y80450D01*
X49971Y81222D01*
X48010Y81692D01*
X46000Y81851D01*
D02*
G37*
G36*
X345889Y46031D02*
X343969D01*
Y44111D01*
X344192Y44203D01*
X345100Y44900D01*
X345797Y45808D01*
X345889Y46031D01*
D02*
G37*
G36*
X340032D02*
X338111D01*
X338203Y45808D01*
X338900Y44900D01*
X339808Y44203D01*
X340032Y44111D01*
Y46031D01*
D02*
G37*
G36*
X384150D02*
X381968D01*
Y40701D01*
X384150D01*
Y46031D01*
D02*
G37*
G36*
X378031D02*
X375850D01*
Y40701D01*
X378031D01*
Y46031D01*
D02*
G37*
G36*
X207622Y35696D02*
Y24969D01*
X218349D01*
X218346Y25010D01*
X217875Y26971D01*
X217104Y28834D01*
X216050Y30553D01*
X214740Y32087D01*
X213207Y33396D01*
X211488Y34450D01*
X209625Y35222D01*
X207664Y35692D01*
X207622Y35696D01*
D02*
G37*
G36*
X203685D02*
X203643Y35692D01*
X201682Y35222D01*
X199820Y34450D01*
X198100Y33396D01*
X196567Y32087D01*
X195257Y30553D01*
X194203Y28834D01*
X193432Y26971D01*
X192961Y25010D01*
X192958Y24969D01*
X203685D01*
Y35696D01*
D02*
G37*
G36*
X292933Y43291D02*
X285028D01*
Y37354D01*
X286961D01*
Y24984D01*
X285047D01*
Y24039D01*
X256984D01*
X256905Y24023D01*
X246770D01*
X246692Y25010D01*
X246222Y26971D01*
X245450Y28834D01*
X244396Y30553D01*
X243087Y32087D01*
X241553Y33396D01*
X239834Y34450D01*
X237971Y35222D01*
X236010Y35692D01*
X234000Y35851D01*
X231990Y35692D01*
X230029Y35222D01*
X228166Y34450D01*
X226447Y33396D01*
X224913Y32087D01*
X223604Y30553D01*
X222550Y28834D01*
X221778Y26971D01*
X221308Y25010D01*
X221149Y23000D01*
X221308Y20990D01*
X221778Y19029D01*
X222550Y17166D01*
X223604Y15447D01*
X224913Y13913D01*
X226447Y12604D01*
X228166Y11550D01*
X230029Y10778D01*
X231990Y10308D01*
X234000Y10149D01*
X236010Y10308D01*
X237971Y10778D01*
X239834Y11550D01*
X241553Y12604D01*
X243087Y13913D01*
X244396Y15447D01*
X245450Y17166D01*
X246222Y19029D01*
X246449Y19977D01*
X257000D01*
X257079Y19993D01*
X285047D01*
Y19047D01*
X292953D01*
Y24984D01*
X291039D01*
Y37354D01*
X292933D01*
Y43291D01*
D02*
G37*
G36*
X203685Y21032D02*
X192958D01*
X192961Y20990D01*
X193432Y19029D01*
X194203Y17166D01*
X195257Y15447D01*
X196567Y13913D01*
X198100Y12604D01*
X199820Y11550D01*
X201682Y10778D01*
X203643Y10308D01*
X203685Y10304D01*
Y21032D01*
D02*
G37*
G36*
X218349D02*
X207622D01*
Y10304D01*
X207664Y10308D01*
X209625Y10778D01*
X211488Y11550D01*
X213207Y12604D01*
X214740Y13913D01*
X216050Y15447D01*
X217104Y17166D01*
X217875Y19029D01*
X218346Y20990D01*
X218349Y21032D01*
D02*
G37*
%LPD*%
G36*
X372000Y95000D02*
X368000D01*
X370000Y97000D01*
X372000Y95000D01*
D02*
G37*
G36*
X209500Y107500D02*
X206500D01*
X208000Y109000D01*
X209500Y107500D01*
D02*
G37*
D10*
X218500Y129000D02*
X220000Y130500D01*
X218000Y129000D02*
X218500D01*
X218000Y119500D02*
Y129000D01*
X213500D02*
X218000D01*
X208000Y123500D02*
X213500Y129000D01*
X350000Y142642D02*
Y145693D01*
X351307Y147000D01*
X357000D01*
X360000Y144000D01*
X350000Y131000D02*
X355472Y125528D01*
X350000Y131000D02*
Y135358D01*
X360000Y132000D02*
X361472Y130528D01*
X192000Y141000D02*
X192500Y140500D01*
X288980Y98177D02*
X289000Y98197D01*
X288980Y40323D02*
X289000Y40303D01*
X218614Y113819D02*
X219453Y112980D01*
X217925Y113819D02*
X218614D01*
X218000Y83000D02*
Y109000D01*
X415000Y137642D02*
Y140693D01*
X413693Y142000D02*
X415000Y140693D01*
X404000Y142000D02*
X413693D01*
X403000Y141000D02*
X404000Y142000D01*
X403000Y137000D02*
Y141000D01*
X402823Y129539D02*
X403000Y129717D01*
X402823Y126144D02*
Y129539D01*
X400679Y124000D02*
X402823Y126144D01*
X218000Y109000D02*
Y112216D01*
Y77000D02*
Y83000D01*
X361988Y136012D02*
X366618D01*
X360000Y138000D02*
X361988Y136012D01*
X360000Y138000D02*
Y144000D01*
X379000Y65000D02*
Y97000D01*
Y100716D01*
X208000Y109000D02*
Y112216D01*
X158000Y181000D02*
X159000Y182000D01*
X344000Y115000D02*
X355702D01*
X364746Y124043D01*
Y124352D01*
X365921Y125528D01*
X367102D01*
X333000Y126000D02*
X333472Y125528D01*
X325000Y101000D02*
X326000D01*
X319000Y126000D02*
X350000Y95000D01*
X368000D01*
X312953Y126000D02*
X319000D01*
X326000Y101000D02*
X342000Y85000D01*
Y68000D02*
Y85000D01*
X366618Y136012D02*
X367102Y135528D01*
X368000Y95000D02*
X370000Y97000D01*
X217000Y108000D02*
X218000Y109000D01*
X209000Y108000D02*
X217000D01*
X208000Y109000D02*
X209000Y108000D01*
X207000D02*
X208000Y109000D01*
X174000Y108000D02*
X207000D01*
X165000Y117000D02*
X174000Y108000D01*
X372000Y95000D02*
X377000D01*
X379000Y97000D01*
X370000D02*
X372000Y95000D01*
X370000Y97000D02*
Y100433D01*
X398000Y108000D02*
Y117000D01*
X394472Y120528D02*
X398000Y117000D01*
X388362Y120528D02*
X394472D01*
X370000Y107717D02*
Y113000D01*
X377528Y120528D01*
X383528D01*
X379000Y108000D02*
Y116000D01*
X383528Y120528D01*
X388362D01*
X395000Y124000D02*
X400679D01*
X393472Y125528D02*
X395000Y124000D01*
X388362Y125528D02*
X393472D01*
X157953Y117000D02*
X165000D01*
X223760Y130500D02*
X233000D01*
X237000Y126500D01*
Y119500D02*
Y126500D01*
X208000Y112216D02*
X208500Y111716D01*
X208000Y119500D02*
Y123500D01*
X220000Y130500D02*
X223760D01*
X243284Y136000D02*
X252000D01*
X181500Y151000D02*
X183500Y153000D01*
X181500Y148142D02*
Y151000D01*
X183500Y153000D02*
X188000D01*
X195500Y145500D01*
X202500D01*
X223760Y135500D02*
X235500D01*
X236000Y136000D01*
X368738Y106433D02*
X369230D01*
D14*
X213256Y138039D02*
D03*
X377858Y128067D02*
D03*
D15*
X223760Y135500D02*
D03*
Y140500D02*
D03*
Y145500D02*
D03*
Y130500D02*
D03*
X202500D02*
D03*
Y145500D02*
D03*
Y140500D02*
D03*
Y135500D02*
D03*
X388362Y125528D02*
D03*
Y130528D02*
D03*
Y135528D02*
D03*
Y120528D02*
D03*
X367102D02*
D03*
Y135528D02*
D03*
Y130528D02*
D03*
Y125528D02*
D03*
D16*
X218000Y62921D02*
D03*
Y83000D02*
D03*
X380000Y48000D02*
D03*
Y68079D02*
D03*
D17*
X268000Y181000D02*
D03*
X288079D02*
D03*
X400000D02*
D03*
X379921D02*
D03*
D18*
X157953Y117000D02*
D03*
X180000D02*
D03*
X310953Y126000D02*
D03*
X333000D02*
D03*
D19*
X370000Y100433D02*
D03*
Y107717D02*
D03*
X415000Y129358D02*
D03*
Y136642D02*
D03*
X208000Y112216D02*
D03*
Y119500D02*
D03*
X237000Y112216D02*
D03*
Y119500D02*
D03*
X398000Y100716D02*
D03*
Y108000D02*
D03*
D20*
X259283Y136000D02*
D03*
X252000D02*
D03*
D21*
X350000Y142642D02*
D03*
Y135358D02*
D03*
X403000Y129717D02*
D03*
Y137000D02*
D03*
X181500Y148142D02*
D03*
Y140858D02*
D03*
X218000Y119500D02*
D03*
Y112216D02*
D03*
X379000Y108000D02*
D03*
Y100716D02*
D03*
D22*
X236000Y136000D02*
D03*
X243284D02*
D03*
D38*
X360520Y125528D02*
X365921D01*
X355472D02*
X360520D01*
X288079Y181000D02*
X325000D01*
X234000Y22000D02*
X257000D01*
X325000Y181000D02*
X346000D01*
X299000Y126000D02*
X310953D01*
X289000Y116000D02*
X299000Y126000D01*
X289000Y98197D02*
Y116000D01*
X270000Y152000D02*
X319000D01*
X325000Y158000D01*
X256984Y22016D02*
X257000Y22000D01*
X256984Y22016D02*
X289000D01*
X159000Y144000D02*
X167500Y135500D01*
X159000Y144000D02*
Y182000D01*
X325000Y158000D02*
Y181000D01*
D39*
X333472Y125528D02*
X355472D01*
X361472Y130528D02*
X367102D01*
X192500Y140500D02*
X202500D01*
X288980Y80087D02*
Y98177D01*
X289000Y22016D02*
Y40303D01*
X102000Y108858D02*
Y126969D01*
X136000Y127000D02*
X146000Y117000D01*
X102000Y127000D02*
X136000D01*
X102000Y53685D02*
Y69000D01*
X346000Y181000D02*
X379921D01*
X221000Y152000D02*
X270000D01*
X46000Y69000D02*
X102000D01*
X310953Y126000D02*
X312953D01*
X146000Y117000D02*
X157953D01*
X183500Y135500D02*
X195500D01*
X202500D01*
X190000Y130000D02*
X195500Y135500D01*
X190000Y120000D02*
Y130000D01*
X187000Y117000D02*
X190000Y120000D01*
X180000Y117000D02*
X187000D01*
X167500Y135500D02*
X183500D01*
X181500Y137500D02*
X183500Y135500D01*
X181500Y137500D02*
Y140858D01*
D40*
X289000Y22016D02*
D03*
X288980Y40323D02*
D03*
X289000Y98197D02*
D03*
X288980Y80087D02*
D03*
X101988Y50787D02*
D03*
X101969Y69095D02*
D03*
X101988Y126969D02*
D03*
X101969Y108858D02*
D03*
D41*
X342000Y48000D02*
D03*
X159000Y202000D02*
D03*
D42*
X342000Y68000D02*
D03*
X159000Y182000D02*
D03*
D43*
X205654Y23000D02*
D03*
X234000D02*
D03*
X46000Y97347D02*
D03*
Y69000D02*
D03*
X325000Y209347D02*
D03*
Y181000D02*
D03*
D44*
X13000Y221000D02*
D03*
X11000Y10000D02*
D03*
X439000Y221000D02*
D03*
X440606Y10236D02*
D03*
D45*
X385000Y142000D02*
D03*
X377535Y142004D02*
D03*
X370000Y142000D02*
D03*
X382000Y135000D02*
D03*
X374000D02*
D03*
X360000Y132000D02*
D03*
X192000Y141000D02*
D03*
X221000Y152000D02*
D03*
X344000Y115000D02*
D03*
X325000Y101000D02*
D03*
M02*
