G04*
G04 #@! TF.GenerationSoftware,Altium Limited,Altium Designer,20.0.12 (288)*
G04*
G04 Layer_Color=32896*
%FSLAX25Y25*%
%MOIN*%
G70*
G01*
G75*
%ADD10C,0.01000*%
D10*
X154000Y194192D02*
Y188194D01*
X151001D01*
X150001Y189194D01*
Y193192D01*
X151001Y194192D01*
X154000D01*
X145003Y188194D02*
X147002D01*
X148002Y189194D01*
Y191193D01*
X147002Y192193D01*
X145003D01*
X144003Y191193D01*
Y190193D01*
X148002D01*
X142004Y188194D02*
X139005D01*
X138005Y189194D01*
X139005Y190193D01*
X141004D01*
X142004Y191193D01*
X141004Y192193D01*
X138005D01*
X136006Y188194D02*
X134007D01*
X135006D01*
Y192193D01*
X136006D01*
X129008Y186195D02*
X128008D01*
X127009Y187194D01*
Y192193D01*
X130008D01*
X131007Y191193D01*
Y189194D01*
X130008Y188194D01*
X127009D01*
X125009D02*
Y192193D01*
X122010D01*
X121011Y191193D01*
Y188194D01*
X116012D02*
X118012D01*
X119011Y189194D01*
Y191193D01*
X118012Y192193D01*
X116012D01*
X115013Y191193D01*
Y190193D01*
X119011D01*
X109015Y194192D02*
Y188194D01*
X112014D01*
X113013Y189194D01*
Y191193D01*
X112014Y192193D01*
X109015D01*
X101017Y194192D02*
Y188194D01*
X98018D01*
X97018Y189194D01*
Y190193D01*
Y191193D01*
X98018Y192193D01*
X101017D01*
X95019D02*
Y189194D01*
X94019Y188194D01*
X91020D01*
Y187194D01*
X92020Y186195D01*
X93020D01*
X91020Y188194D02*
Y192193D01*
X89021D02*
X88021D01*
Y191193D01*
X89021D01*
Y192193D01*
Y189194D02*
X88021D01*
Y188194D01*
X89021D01*
Y189194D01*
X154000Y176597D02*
Y182595D01*
X152001Y180596D01*
X150001Y182595D01*
Y176597D01*
X147002D02*
X145003D01*
X144003Y177597D01*
Y179596D01*
X145003Y180596D01*
X147002D01*
X148002Y179596D01*
Y177597D01*
X147002Y176597D01*
X141004Y181595D02*
Y180596D01*
X142004D01*
X140005D01*
X141004D01*
Y177597D01*
X140005Y176597D01*
X136006Y180596D02*
X134007D01*
X133007Y179596D01*
Y176597D01*
X136006D01*
X137005Y177597D01*
X136006Y178596D01*
X133007D01*
X131007Y180596D02*
X127009D01*
X131007Y176597D01*
X127009D01*
X119011Y182595D02*
X115013D01*
X117012D01*
Y176597D01*
X113013Y182595D02*
Y176597D01*
Y179596D01*
X112014Y180596D01*
X110014D01*
X109015Y179596D01*
Y176597D01*
X107015D02*
X105016D01*
X106016D01*
Y180596D01*
X107015D01*
X101017D02*
X99018D01*
X98018Y179596D01*
Y176597D01*
X101017D01*
X102017Y177597D01*
X101017Y178596D01*
X98018D01*
X96019Y182595D02*
Y176597D01*
X93020D01*
X92020Y177597D01*
Y178596D01*
Y179596D01*
X93020Y180596D01*
X96019D01*
X80024Y176597D02*
X81024Y177597D01*
X82023Y176597D01*
X83023D01*
X84023Y177597D01*
Y178596D01*
X83023Y179596D01*
X84023Y180596D01*
Y181595D01*
X83023Y182595D01*
X82023D01*
X81024Y181595D01*
Y180596D01*
X82023Y179596D01*
X81024Y178596D01*
Y177597D01*
X80024Y179596D02*
X81024Y178596D01*
X83023Y179596D02*
X82023D01*
X150001Y171998D02*
X151001Y172997D01*
X153000D01*
X154000Y171998D01*
Y167999D01*
X153000Y166999D01*
X151001D01*
X150001Y167999D01*
X147002Y170998D02*
X145003D01*
X144003Y169998D01*
Y166999D01*
X147002D01*
X148002Y167999D01*
X147002Y168999D01*
X144003D01*
X142004Y170998D02*
Y166999D01*
Y168999D01*
X141004Y169998D01*
X140005Y170998D01*
X139005D01*
X136006Y166999D02*
X134007D01*
X135006D01*
Y172997D01*
X136006D01*
X125009D02*
X121011D01*
X123010D01*
Y166999D01*
X119011Y172997D02*
Y166999D01*
Y169998D01*
X118012Y170998D01*
X116012D01*
X115013Y169998D01*
Y166999D01*
X113013Y170998D02*
Y167999D01*
X112014Y166999D01*
X109015D01*
Y166000D01*
X110014Y165000D01*
X111014D01*
X109015Y166999D02*
Y170998D01*
X107015Y166999D02*
Y170998D01*
X104016D01*
X103016Y169998D01*
Y166999D01*
X98018D02*
X100017D01*
X101017Y167999D01*
Y169998D01*
X100017Y170998D01*
X98018D01*
X97018Y169998D01*
Y168999D01*
X101017D01*
X95019Y166999D02*
X92020D01*
X91020Y167999D01*
X92020Y168999D01*
X94019D01*
X95019Y169998D01*
X94019Y170998D01*
X91020D01*
X89021Y166999D02*
X86022D01*
X85022Y167999D01*
X86022Y168999D01*
X88021D01*
X89021Y169998D01*
X88021Y170998D01*
X85022D01*
M02*
