M48
;Layer_Color=9474304
;FILE_FORMAT=2:5
INCH,TZ
;TYPE=PLATED
T1F00S00C0.02800
T3F00S00C0.04331
T4F00S00C0.17717
;TYPE=NON_PLATED
T5F00S00C0.15748
%
T01
X325000Y101000
X344000Y115000
X360000Y132000
X374000Y135000
X382000
X385000Y142000
X377535Y142004
X370000Y142000
X221000Y152000
X192000Y141000
T03
X342000Y48000
Y68000
X159000Y182000
Y202000
T04
X205654Y23000
X234000
X325000Y181000
Y209347
X46000Y97347
Y69000
T05
X11000Y10000
X440606Y10236
X13000Y221000
X439000
M30
