G04*
G04 #@! TF.GenerationSoftware,Altium Limited,Altium Designer,20.0.12 (288)*
G04*
G04 Layer_Color=65535*
%FSLAX25Y25*%
%MOIN*%
G70*
G01*
G75*
%ADD10C,0.00984*%
%ADD11C,0.02362*%
%ADD12C,0.01000*%
%ADD13C,0.00787*%
%ADD14C,0.00394*%
%ADD15C,0.00591*%
G36*
X280678Y52565D02*
X282432D01*
Y52273D01*
X284185D01*
Y51981D01*
X285939D01*
Y51688D01*
X287692D01*
Y51396D01*
X289446D01*
Y51104D01*
X287692D01*
Y50812D01*
X285939D01*
Y50519D01*
X284185D01*
Y50227D01*
X282432D01*
Y49935D01*
X280678D01*
Y49643D01*
X280093D01*
Y49935D01*
X278340D01*
Y50227D01*
X276586D01*
Y50519D01*
X274833D01*
Y50812D01*
X273079D01*
Y51104D01*
X271325D01*
Y51396D01*
X273079D01*
Y51688D01*
X274833D01*
Y51981D01*
X276586D01*
Y52273D01*
X278340D01*
Y52565D01*
X280093D01*
Y52858D01*
X280678D01*
Y52565D01*
D02*
G37*
G36*
X296753Y45843D02*
X296461D01*
Y45551D01*
X296168D01*
Y45259D01*
X295876D01*
Y44966D01*
X295584D01*
Y44674D01*
X295291D01*
Y44382D01*
Y44089D01*
X294999D01*
Y43797D01*
X294707D01*
Y43505D01*
X294415D01*
Y43213D01*
X294122D01*
Y42920D01*
X293830D01*
Y42628D01*
Y42336D01*
X293538D01*
Y42044D01*
X293246D01*
Y41751D01*
X292953D01*
Y41459D01*
X292661D01*
Y41167D01*
X292369D01*
Y40874D01*
Y40582D01*
X292076D01*
Y40290D01*
X291784D01*
Y39998D01*
X291492D01*
Y39705D01*
X291200D01*
Y39413D01*
X290907D01*
Y39121D01*
Y38829D01*
X290615D01*
Y38536D01*
X290323D01*
Y38244D01*
X290031D01*
Y37952D01*
Y37659D01*
Y37367D01*
X289738D01*
Y37075D01*
Y36783D01*
X289446D01*
Y36490D01*
Y36198D01*
Y35906D01*
X289154D01*
Y35614D01*
Y35321D01*
X288861D01*
Y35029D01*
Y34737D01*
Y34444D01*
X288569D01*
Y34152D01*
Y33860D01*
X288277D01*
Y33568D01*
Y33275D01*
Y32983D01*
X287985D01*
Y32691D01*
Y32399D01*
X287692D01*
Y32106D01*
Y31814D01*
Y31522D01*
X287400D01*
Y31229D01*
Y30937D01*
X287108D01*
Y30645D01*
Y30353D01*
Y30060D01*
X286816D01*
Y29768D01*
Y29476D01*
X286523D01*
Y29184D01*
Y28891D01*
Y28599D01*
X286231D01*
Y28307D01*
Y28014D01*
X285939D01*
Y27722D01*
Y27430D01*
Y27138D01*
X285647D01*
Y26845D01*
Y26553D01*
X285354D01*
Y26261D01*
Y25969D01*
Y25676D01*
X285062D01*
Y25969D01*
Y26261D01*
Y26553D01*
Y26845D01*
Y27138D01*
Y27430D01*
X285354D01*
Y27722D01*
Y28014D01*
Y28307D01*
Y28599D01*
Y28891D01*
Y29184D01*
X285647D01*
Y29476D01*
Y29768D01*
Y30060D01*
Y30353D01*
Y30645D01*
Y30937D01*
X285939D01*
Y31229D01*
Y31522D01*
Y31814D01*
Y32106D01*
Y32399D01*
X286231D01*
Y32691D01*
Y32983D01*
Y33275D01*
Y33568D01*
Y33860D01*
Y34152D01*
X286523D01*
Y34444D01*
Y34737D01*
Y35029D01*
Y35321D01*
Y35614D01*
Y35906D01*
X286816D01*
Y36198D01*
Y36490D01*
Y36783D01*
Y37075D01*
Y37367D01*
Y37659D01*
X287108D01*
Y37952D01*
Y38244D01*
Y38536D01*
Y38829D01*
Y39121D01*
Y39413D01*
X287400D01*
Y39705D01*
Y39998D01*
Y40290D01*
Y40582D01*
X287985D01*
Y40874D01*
X288277D01*
Y41167D01*
X288861D01*
Y41459D01*
X289154D01*
Y41751D01*
X289738D01*
Y42044D01*
X290031D01*
Y42336D01*
X290615D01*
Y42628D01*
X291200D01*
Y42920D01*
X291492D01*
Y43213D01*
X292076D01*
Y43505D01*
X292369D01*
Y43797D01*
X292953D01*
Y44089D01*
X293246D01*
Y44382D01*
X293830D01*
Y44674D01*
X294415D01*
Y44966D01*
X294707D01*
Y45259D01*
X295291D01*
Y45551D01*
X295584D01*
Y45843D01*
X296168D01*
Y46135D01*
X296753D01*
Y45843D01*
D02*
G37*
G36*
X264603D02*
X265188D01*
Y45551D01*
X265480D01*
Y45259D01*
X266064D01*
Y44966D01*
X266357D01*
Y44674D01*
X266941D01*
Y44382D01*
X267233D01*
Y44089D01*
X267818D01*
Y43797D01*
X268403D01*
Y43505D01*
X268695D01*
Y43213D01*
X269279D01*
Y42920D01*
X269572D01*
Y42628D01*
X270156D01*
Y42336D01*
X270448D01*
Y42044D01*
X271033D01*
Y41751D01*
X271618D01*
Y41459D01*
X271910D01*
Y41167D01*
X272494D01*
Y40874D01*
X272787D01*
Y40582D01*
X273371D01*
Y40290D01*
Y39998D01*
Y39705D01*
Y39413D01*
X273663D01*
Y39121D01*
Y38829D01*
Y38536D01*
Y38244D01*
Y37952D01*
Y37659D01*
X273956D01*
Y37367D01*
Y37075D01*
Y36783D01*
Y36490D01*
Y36198D01*
Y35906D01*
X274248D01*
Y35614D01*
Y35321D01*
Y35029D01*
Y34737D01*
Y34444D01*
Y34152D01*
X274540D01*
Y33860D01*
Y33568D01*
Y33275D01*
Y32983D01*
Y32691D01*
Y32399D01*
X274833D01*
Y32106D01*
Y31814D01*
Y31522D01*
Y31229D01*
Y30937D01*
Y30645D01*
X275125D01*
Y30353D01*
Y30060D01*
Y29768D01*
Y29476D01*
Y29184D01*
Y28891D01*
X275417D01*
Y28599D01*
Y28307D01*
Y28014D01*
Y27722D01*
Y27430D01*
Y27138D01*
X275709D01*
Y26845D01*
Y26553D01*
Y26261D01*
Y25969D01*
Y25676D01*
X275417D01*
Y25969D01*
Y26261D01*
X275125D01*
Y26553D01*
Y26845D01*
Y27138D01*
X274833D01*
Y27430D01*
Y27722D01*
X274540D01*
Y28014D01*
Y28307D01*
Y28599D01*
X274248D01*
Y28891D01*
Y29184D01*
X273956D01*
Y29476D01*
Y29768D01*
Y30060D01*
X273663D01*
Y30353D01*
Y30645D01*
X273371D01*
Y30937D01*
Y31229D01*
Y31522D01*
X273079D01*
Y31814D01*
Y32106D01*
X272787D01*
Y32399D01*
Y32691D01*
Y32983D01*
X272494D01*
Y33275D01*
Y33568D01*
X272202D01*
Y33860D01*
Y34152D01*
Y34444D01*
X271910D01*
Y34737D01*
Y35029D01*
X271618D01*
Y35321D01*
Y35614D01*
Y35906D01*
X271325D01*
Y36198D01*
Y36490D01*
X271033D01*
Y36783D01*
Y37075D01*
Y37367D01*
X270741D01*
Y37659D01*
Y37952D01*
X270448D01*
Y38244D01*
Y38536D01*
X270156D01*
Y38829D01*
X269864D01*
Y39121D01*
Y39413D01*
X269572D01*
Y39705D01*
X269279D01*
Y39998D01*
X268987D01*
Y40290D01*
X268695D01*
Y40582D01*
X268403D01*
Y40874D01*
Y41167D01*
X268110D01*
Y41459D01*
X267818D01*
Y41751D01*
X267526D01*
Y42044D01*
X267233D01*
Y42336D01*
X266941D01*
Y42628D01*
Y42920D01*
X266649D01*
Y43213D01*
X266357D01*
Y43505D01*
X266064D01*
Y43797D01*
X265772D01*
Y44089D01*
X265480D01*
Y44382D01*
Y44674D01*
X265188D01*
Y44966D01*
X264895D01*
Y45259D01*
X264603D01*
Y45551D01*
X264311D01*
Y45843D01*
X264018D01*
Y46135D01*
X264603D01*
Y45843D01*
D02*
G37*
G36*
X285062Y25384D02*
Y25092D01*
X284770D01*
Y25384D01*
Y25676D01*
X285062D01*
Y25384D01*
D02*
G37*
G36*
X276002Y25092D02*
Y24800D01*
X275709D01*
Y25092D01*
Y25384D01*
X276002D01*
Y25092D01*
D02*
G37*
G36*
X295876Y49350D02*
X295291D01*
Y49058D01*
X294999D01*
Y48766D01*
X294415D01*
Y48474D01*
X294122D01*
Y48181D01*
X293538D01*
Y47889D01*
X293246D01*
Y47597D01*
X292661D01*
Y47304D01*
X292369D01*
Y47012D01*
X291784D01*
Y46720D01*
X291492D01*
Y46428D01*
X290907D01*
Y46135D01*
X290323D01*
Y45843D01*
X290031D01*
Y45551D01*
X289446D01*
Y45259D01*
X289154D01*
Y44966D01*
X288569D01*
Y44674D01*
X288277D01*
Y44382D01*
X287692D01*
Y44089D01*
X287400D01*
Y43797D01*
X286816D01*
Y43505D01*
X286523D01*
Y43213D01*
X285939D01*
Y42920D01*
X285647D01*
Y42628D01*
X285062D01*
Y42336D01*
Y42044D01*
Y41751D01*
X284770D01*
Y41459D01*
Y41167D01*
Y40874D01*
Y40582D01*
Y40290D01*
Y39998D01*
X284477D01*
Y39705D01*
Y39413D01*
Y39121D01*
Y38829D01*
Y38536D01*
Y38244D01*
Y37952D01*
X284185D01*
Y37659D01*
Y37367D01*
Y37075D01*
Y36783D01*
Y36490D01*
Y36198D01*
X283893D01*
Y35906D01*
Y35614D01*
Y35321D01*
Y35029D01*
Y34737D01*
Y34444D01*
X283601D01*
Y34152D01*
Y33860D01*
Y33568D01*
Y33275D01*
Y32983D01*
Y32691D01*
Y32399D01*
X283308D01*
Y32106D01*
Y31814D01*
Y31522D01*
Y31229D01*
Y30937D01*
Y30645D01*
X283016D01*
Y30353D01*
Y30060D01*
Y29768D01*
Y29476D01*
Y29184D01*
Y28891D01*
Y28599D01*
X282724D01*
Y28307D01*
Y28014D01*
Y27722D01*
Y27430D01*
Y27138D01*
Y26845D01*
X282432D01*
Y26553D01*
Y26261D01*
Y25969D01*
Y25676D01*
Y25384D01*
Y25092D01*
X282139D01*
Y24800D01*
Y24507D01*
Y24215D01*
Y23923D01*
Y23630D01*
Y23338D01*
Y23046D01*
X281847D01*
Y22754D01*
Y22461D01*
Y22169D01*
Y21877D01*
Y21585D01*
Y21292D01*
X281555D01*
Y21585D01*
Y21877D01*
Y22169D01*
Y22461D01*
Y22754D01*
Y23046D01*
Y23338D01*
Y23630D01*
Y23923D01*
Y24215D01*
Y24507D01*
Y24800D01*
Y25092D01*
Y25384D01*
Y25676D01*
Y25969D01*
Y26261D01*
Y26553D01*
Y26845D01*
Y27138D01*
Y27430D01*
Y27722D01*
Y28014D01*
Y28307D01*
Y28599D01*
Y28891D01*
Y29184D01*
Y29476D01*
Y29768D01*
Y30060D01*
Y30353D01*
Y30645D01*
Y30937D01*
Y31229D01*
Y31522D01*
Y31814D01*
Y32106D01*
Y32399D01*
Y32691D01*
Y32983D01*
Y33275D01*
Y33568D01*
Y33860D01*
Y34152D01*
Y34444D01*
Y34737D01*
Y35029D01*
Y35321D01*
Y35614D01*
Y35906D01*
Y36198D01*
Y36490D01*
Y36783D01*
Y37075D01*
Y37367D01*
Y37659D01*
Y37952D01*
Y38244D01*
Y38536D01*
Y38829D01*
Y39121D01*
Y39413D01*
Y39705D01*
Y39998D01*
Y40290D01*
Y40582D01*
Y40874D01*
Y41167D01*
Y41459D01*
Y41751D01*
Y42044D01*
Y42336D01*
Y42628D01*
Y42920D01*
Y43213D01*
Y43505D01*
Y43797D01*
Y44089D01*
Y44382D01*
Y44674D01*
Y44966D01*
Y45259D01*
Y45551D01*
Y45843D01*
Y46135D01*
Y46428D01*
Y46720D01*
Y47012D01*
Y47304D01*
X281847D01*
Y47597D01*
X283601D01*
Y47889D01*
X285354D01*
Y48181D01*
X287108D01*
Y48474D01*
X288861D01*
Y48766D01*
X290615D01*
Y49058D01*
X292661D01*
Y49350D01*
X294415D01*
Y49643D01*
X295876D01*
Y49350D01*
D02*
G37*
G36*
X266357D02*
X268110D01*
Y49058D01*
X269864D01*
Y48766D01*
X271910D01*
Y48474D01*
X273663D01*
Y48181D01*
X275417D01*
Y47889D01*
X277171D01*
Y47597D01*
X278924D01*
Y47304D01*
X279217D01*
Y47012D01*
Y46720D01*
Y46428D01*
Y46135D01*
Y45843D01*
Y45551D01*
Y45259D01*
Y44966D01*
Y44674D01*
Y44382D01*
Y44089D01*
Y43797D01*
Y43505D01*
Y43213D01*
Y42920D01*
Y42628D01*
Y42336D01*
Y42044D01*
Y41751D01*
Y41459D01*
Y41167D01*
Y40874D01*
Y40582D01*
Y40290D01*
Y39998D01*
Y39705D01*
Y39413D01*
Y39121D01*
Y38829D01*
Y38536D01*
Y38244D01*
Y37952D01*
Y37659D01*
Y37367D01*
Y37075D01*
Y36783D01*
Y36490D01*
Y36198D01*
Y35906D01*
Y35614D01*
Y35321D01*
Y35029D01*
Y34737D01*
Y34444D01*
Y34152D01*
Y33860D01*
Y33568D01*
Y33275D01*
Y32983D01*
Y32691D01*
Y32399D01*
Y32106D01*
Y31814D01*
Y31522D01*
Y31229D01*
Y30937D01*
Y30645D01*
Y30353D01*
Y30060D01*
Y29768D01*
Y29476D01*
Y29184D01*
Y28891D01*
Y28599D01*
Y28307D01*
Y28014D01*
Y27722D01*
Y27430D01*
Y27138D01*
Y26845D01*
Y26553D01*
Y26261D01*
Y25969D01*
Y25676D01*
Y25384D01*
Y25092D01*
Y24800D01*
Y24507D01*
Y24215D01*
Y23923D01*
Y23630D01*
Y23338D01*
Y23046D01*
Y22754D01*
Y22461D01*
Y22169D01*
Y21877D01*
Y21585D01*
Y21292D01*
Y21000D01*
X278924D01*
Y21292D01*
Y21585D01*
Y21877D01*
Y22169D01*
Y22461D01*
Y22754D01*
Y23046D01*
X278632D01*
Y23338D01*
Y23630D01*
Y23923D01*
Y24215D01*
Y24507D01*
Y24800D01*
X278340D01*
Y25092D01*
Y25384D01*
Y25676D01*
Y25969D01*
Y26261D01*
Y26553D01*
Y26845D01*
X278047D01*
Y27138D01*
Y27430D01*
Y27722D01*
Y28014D01*
Y28307D01*
Y28599D01*
X277755D01*
Y28891D01*
Y29184D01*
Y29476D01*
Y29768D01*
Y30060D01*
Y30353D01*
X277463D01*
Y30645D01*
Y30937D01*
Y31229D01*
Y31522D01*
Y31814D01*
Y32106D01*
Y32399D01*
X277171D01*
Y32691D01*
Y32983D01*
Y33275D01*
Y33568D01*
Y33860D01*
Y34152D01*
X276878D01*
Y34444D01*
Y34737D01*
Y35029D01*
Y35321D01*
Y35614D01*
Y35906D01*
Y36198D01*
X276586D01*
Y36490D01*
Y36783D01*
Y37075D01*
Y37367D01*
Y37659D01*
Y37952D01*
X276294D01*
Y38244D01*
Y38536D01*
Y38829D01*
Y39121D01*
Y39413D01*
Y39705D01*
X276002D01*
Y39998D01*
Y40290D01*
Y40582D01*
Y40874D01*
Y41167D01*
Y41459D01*
Y41751D01*
X275709D01*
Y42044D01*
Y42336D01*
Y42628D01*
X275125D01*
Y42920D01*
X274833D01*
Y43213D01*
X274248D01*
Y43505D01*
X273956D01*
Y43797D01*
X273371D01*
Y44089D01*
X273079D01*
Y44382D01*
X272494D01*
Y44674D01*
X272202D01*
Y44966D01*
X271618D01*
Y45259D01*
X271033D01*
Y45551D01*
X270741D01*
Y45843D01*
X270156D01*
Y46135D01*
X269864D01*
Y46428D01*
X269279D01*
Y46720D01*
X268987D01*
Y47012D01*
X268403D01*
Y47304D01*
X268110D01*
Y47597D01*
X267526D01*
Y47889D01*
X267233D01*
Y48181D01*
X266649D01*
Y48474D01*
X266357D01*
Y48766D01*
X265772D01*
Y49058D01*
X265480D01*
Y49350D01*
X264895D01*
Y49643D01*
X266357D01*
Y49350D01*
D02*
G37*
G36*
X286878Y19446D02*
X286936D01*
X287074Y19432D01*
X287228Y19410D01*
X287388Y19374D01*
X287563Y19330D01*
X287731Y19272D01*
X287738D01*
X287752Y19264D01*
X287774Y19257D01*
X287803Y19242D01*
X287884Y19199D01*
X287986Y19148D01*
X288095Y19075D01*
X288212Y18987D01*
X288321Y18892D01*
X288423Y18776D01*
X288438Y18761D01*
X288467Y18717D01*
X288511Y18652D01*
X288569Y18557D01*
X288627Y18440D01*
X288693Y18295D01*
X288758Y18134D01*
X288809Y17952D01*
X288204Y17792D01*
Y17799D01*
X288197Y17806D01*
X288190Y17828D01*
X288182Y17857D01*
X288161Y17923D01*
X288131Y18010D01*
X288088Y18112D01*
X288037Y18207D01*
X287986Y18309D01*
X287920Y18397D01*
X287913Y18404D01*
X287891Y18433D01*
X287847Y18470D01*
X287796Y18521D01*
X287731Y18579D01*
X287643Y18637D01*
X287548Y18696D01*
X287439Y18747D01*
X287424Y18754D01*
X287388Y18768D01*
X287322Y18790D01*
X287235Y18820D01*
X287133Y18841D01*
X287016Y18863D01*
X286885Y18878D01*
X286746Y18885D01*
X286666D01*
X286630Y18878D01*
X286586D01*
X286477Y18870D01*
X286353Y18849D01*
X286214Y18827D01*
X286083Y18790D01*
X285952Y18739D01*
X285937Y18732D01*
X285893Y18717D01*
X285835Y18681D01*
X285762Y18645D01*
X285675Y18586D01*
X285580Y18528D01*
X285492Y18455D01*
X285412Y18375D01*
X285405Y18368D01*
X285376Y18338D01*
X285339Y18287D01*
X285296Y18229D01*
X285245Y18156D01*
X285194Y18069D01*
X285143Y17974D01*
X285092Y17872D01*
Y17864D01*
X285084Y17850D01*
X285077Y17828D01*
X285062Y17792D01*
X285048Y17748D01*
X285033Y17697D01*
X285011Y17639D01*
X284997Y17573D01*
X284960Y17420D01*
X284931Y17245D01*
X284909Y17063D01*
X284902Y16859D01*
Y16851D01*
Y16829D01*
Y16793D01*
X284909Y16749D01*
Y16691D01*
X284917Y16618D01*
X284924Y16545D01*
X284931Y16465D01*
X284960Y16283D01*
X284997Y16093D01*
X285055Y15903D01*
X285128Y15721D01*
Y15714D01*
X285143Y15699D01*
X285150Y15677D01*
X285172Y15648D01*
X285223Y15568D01*
X285303Y15466D01*
X285398Y15357D01*
X285514Y15247D01*
X285653Y15145D01*
X285806Y15051D01*
X285813D01*
X285828Y15043D01*
X285850Y15029D01*
X285886Y15014D01*
X285923Y14999D01*
X285974Y14985D01*
X286090Y14941D01*
X286236Y14905D01*
X286397Y14868D01*
X286571Y14839D01*
X286754Y14832D01*
X286827D01*
X286870Y14839D01*
X286914D01*
X287023Y14854D01*
X287155Y14868D01*
X287293Y14897D01*
X287446Y14941D01*
X287599Y14992D01*
X287607D01*
X287621Y14999D01*
X287636Y15007D01*
X287665Y15021D01*
X287745Y15058D01*
X287833Y15102D01*
X287935Y15153D01*
X288044Y15211D01*
X288146Y15277D01*
X288233Y15349D01*
Y16297D01*
X286746D01*
Y16895D01*
X288890D01*
Y15021D01*
X288882Y15014D01*
X288868Y15007D01*
X288839Y14985D01*
X288802Y14956D01*
X288758Y14927D01*
X288707Y14890D01*
X288642Y14846D01*
X288576Y14803D01*
X288423Y14708D01*
X288248Y14606D01*
X288066Y14511D01*
X287869Y14431D01*
X287862D01*
X287847Y14424D01*
X287818Y14416D01*
X287782Y14402D01*
X287731Y14387D01*
X287672Y14365D01*
X287607Y14351D01*
X287541Y14336D01*
X287381Y14300D01*
X287198Y14263D01*
X287001Y14241D01*
X286797Y14234D01*
X286724D01*
X286673Y14241D01*
X286608D01*
X286528Y14249D01*
X286440Y14263D01*
X286345Y14271D01*
X286134Y14314D01*
X285908Y14365D01*
X285675Y14446D01*
X285558Y14489D01*
X285441Y14548D01*
X285434Y14555D01*
X285412Y14562D01*
X285383Y14584D01*
X285339Y14606D01*
X285288Y14642D01*
X285237Y14679D01*
X285099Y14781D01*
X284953Y14912D01*
X284800Y15073D01*
X284654Y15255D01*
X284523Y15466D01*
Y15473D01*
X284508Y15495D01*
X284494Y15524D01*
X284472Y15575D01*
X284450Y15627D01*
X284428Y15699D01*
X284399Y15772D01*
X284370Y15860D01*
X284341Y15955D01*
X284312Y16064D01*
X284290Y16173D01*
X284268Y16290D01*
X284231Y16545D01*
X284217Y16815D01*
Y16822D01*
Y16851D01*
Y16888D01*
X284224Y16939D01*
Y17004D01*
X284231Y17085D01*
X284246Y17165D01*
X284253Y17259D01*
X284275Y17361D01*
X284290Y17471D01*
X284348Y17704D01*
X284421Y17945D01*
X284523Y18185D01*
X284530Y18193D01*
X284538Y18214D01*
X284552Y18244D01*
X284581Y18287D01*
X284610Y18346D01*
X284647Y18404D01*
X284749Y18542D01*
X284873Y18703D01*
X285026Y18856D01*
X285201Y19009D01*
X285303Y19075D01*
X285405Y19140D01*
X285412Y19148D01*
X285434Y19155D01*
X285463Y19169D01*
X285507Y19191D01*
X285565Y19213D01*
X285631Y19242D01*
X285704Y19272D01*
X285791Y19301D01*
X285886Y19330D01*
X285988Y19352D01*
X286098Y19381D01*
X286214Y19403D01*
X286469Y19439D01*
X286601Y19454D01*
X286834D01*
X286878Y19446D01*
D02*
G37*
G36*
X276606Y14322D02*
X275913D01*
X273274Y18280D01*
Y14322D01*
X272633D01*
Y19366D01*
X273318D01*
X275964Y15401D01*
Y19366D01*
X276606D01*
Y14322D01*
D02*
G37*
G36*
X279857D02*
X279157D01*
X277204Y19366D01*
X277933D01*
X279245Y15699D01*
Y15692D01*
X279252Y15677D01*
X279259Y15656D01*
X279274Y15627D01*
X279281Y15583D01*
X279296Y15539D01*
X279332Y15430D01*
X279376Y15306D01*
X279420Y15167D01*
X279507Y14876D01*
Y14883D01*
X279515Y14897D01*
X279522Y14919D01*
X279529Y14949D01*
X279551Y15029D01*
X279588Y15138D01*
X279624Y15262D01*
X279668Y15401D01*
X279719Y15546D01*
X279777Y15699D01*
X281148Y19366D01*
X281826D01*
X279857Y14322D01*
D02*
G37*
G36*
X290515Y14919D02*
X293001D01*
Y14322D01*
X289845D01*
Y19366D01*
X290515D01*
Y14919D01*
D02*
G37*
G36*
X269622Y19359D02*
X269768Y19352D01*
X269914Y19337D01*
X270060Y19315D01*
X270183Y19293D01*
X270191D01*
X270205Y19286D01*
X270227D01*
X270256Y19272D01*
X270337Y19250D01*
X270439Y19213D01*
X270555Y19162D01*
X270679Y19096D01*
X270803Y19024D01*
X270920Y18929D01*
X270927Y18922D01*
X270934Y18914D01*
X270956Y18892D01*
X270985Y18870D01*
X271058Y18798D01*
X271146Y18696D01*
X271240Y18572D01*
X271343Y18426D01*
X271437Y18258D01*
X271518Y18069D01*
Y18061D01*
X271525Y18047D01*
X271539Y18018D01*
X271547Y17974D01*
X271569Y17923D01*
X271583Y17864D01*
X271598Y17799D01*
X271620Y17719D01*
X271641Y17639D01*
X271656Y17544D01*
X271692Y17340D01*
X271714Y17114D01*
X271722Y16866D01*
Y16859D01*
Y16844D01*
Y16807D01*
Y16771D01*
X271714Y16720D01*
Y16662D01*
X271707Y16523D01*
X271685Y16363D01*
X271663Y16195D01*
X271627Y16020D01*
X271583Y15845D01*
Y15838D01*
X271576Y15823D01*
X271569Y15801D01*
X271561Y15772D01*
X271532Y15692D01*
X271488Y15590D01*
X271445Y15473D01*
X271386Y15357D01*
X271314Y15233D01*
X271240Y15116D01*
X271233Y15102D01*
X271204Y15065D01*
X271160Y15014D01*
X271102Y14949D01*
X271036Y14876D01*
X270956Y14803D01*
X270876Y14723D01*
X270781Y14657D01*
X270767Y14650D01*
X270738Y14628D01*
X270687Y14599D01*
X270614Y14562D01*
X270526Y14518D01*
X270424Y14482D01*
X270307Y14438D01*
X270176Y14402D01*
X270162D01*
X270140Y14394D01*
X270118Y14387D01*
X270045Y14380D01*
X269943Y14365D01*
X269826Y14351D01*
X269688Y14336D01*
X269535Y14329D01*
X269367Y14322D01*
X267552D01*
Y19366D01*
X269491D01*
X269622Y19359D01*
D02*
G37*
G36*
X281221Y12518D02*
X280601D01*
Y13225D01*
X281221D01*
Y12518D01*
D02*
G37*
G36*
X297353Y11913D02*
X297433Y11898D01*
X297528Y11869D01*
X297630Y11833D01*
X297747Y11782D01*
X297871Y11716D01*
X297645Y11147D01*
X297638Y11155D01*
X297608Y11169D01*
X297565Y11191D01*
X297506Y11213D01*
X297441Y11235D01*
X297361Y11257D01*
X297280Y11271D01*
X297200Y11279D01*
X297164D01*
X297127Y11271D01*
X297076Y11264D01*
X297025Y11250D01*
X296960Y11228D01*
X296894Y11198D01*
X296836Y11155D01*
X296829Y11147D01*
X296807Y11133D01*
X296785Y11104D01*
X296748Y11067D01*
X296712Y11016D01*
X296675Y10958D01*
X296639Y10892D01*
X296610Y10812D01*
X296603Y10798D01*
X296595Y10754D01*
X296581Y10688D01*
X296559Y10601D01*
X296537Y10491D01*
X296522Y10368D01*
X296515Y10236D01*
X296508Y10091D01*
Y8180D01*
X295888D01*
Y11840D01*
X296449D01*
Y11286D01*
X296457Y11293D01*
X296486Y11344D01*
X296522Y11410D01*
X296581Y11490D01*
X296639Y11570D01*
X296705Y11658D01*
X296770Y11731D01*
X296836Y11789D01*
X296843Y11796D01*
X296865Y11811D01*
X296909Y11833D01*
X296952Y11855D01*
X297011Y11876D01*
X297084Y11898D01*
X297157Y11913D01*
X297237Y11920D01*
X297288D01*
X297353Y11913D01*
D02*
G37*
G36*
X269834Y8180D02*
X269280D01*
Y8713D01*
X269272Y8705D01*
X269258Y8683D01*
X269236Y8654D01*
X269199Y8618D01*
X269156Y8574D01*
X269105Y8516D01*
X269046Y8465D01*
X268973Y8406D01*
X268893Y8348D01*
X268806Y8297D01*
X268711Y8246D01*
X268609Y8195D01*
X268492Y8159D01*
X268376Y8129D01*
X268244Y8108D01*
X268113Y8100D01*
X268062D01*
X267997Y8108D01*
X267916Y8115D01*
X267822Y8129D01*
X267720Y8151D01*
X267617Y8180D01*
X267508Y8224D01*
X267494Y8231D01*
X267464Y8246D01*
X267413Y8275D01*
X267355Y8312D01*
X267282Y8355D01*
X267216Y8406D01*
X267151Y8465D01*
X267092Y8530D01*
X267085Y8538D01*
X267071Y8567D01*
X267049Y8603D01*
X267020Y8662D01*
X266983Y8727D01*
X266954Y8807D01*
X266925Y8895D01*
X266903Y8990D01*
Y8997D01*
X266896Y9026D01*
X266888Y9070D01*
Y9128D01*
X266881Y9216D01*
X266874Y9310D01*
X266867Y9434D01*
Y9573D01*
Y11840D01*
X267486D01*
Y9806D01*
Y9799D01*
Y9784D01*
Y9762D01*
Y9726D01*
Y9646D01*
X267494Y9544D01*
Y9434D01*
X267501Y9325D01*
X267508Y9230D01*
X267523Y9150D01*
Y9143D01*
X267537Y9114D01*
X267552Y9070D01*
X267574Y9012D01*
X267610Y8953D01*
X267654Y8888D01*
X267705Y8829D01*
X267771Y8771D01*
X267778Y8764D01*
X267807Y8749D01*
X267843Y8727D01*
X267902Y8705D01*
X267967Y8676D01*
X268047Y8654D01*
X268135Y8640D01*
X268237Y8632D01*
X268288D01*
X268339Y8640D01*
X268405Y8647D01*
X268485Y8669D01*
X268572Y8691D01*
X268667Y8727D01*
X268762Y8771D01*
X268776Y8778D01*
X268806Y8800D01*
X268849Y8829D01*
X268900Y8873D01*
X268959Y8931D01*
X269017Y8997D01*
X269068Y9070D01*
X269112Y9157D01*
X269119Y9172D01*
X269127Y9201D01*
X269141Y9259D01*
X269163Y9340D01*
X269185Y9442D01*
X269199Y9566D01*
X269207Y9711D01*
X269214Y9879D01*
Y11840D01*
X269834D01*
Y8180D01*
D02*
G37*
G36*
X286710Y11417D02*
X286717Y11424D01*
X286732Y11439D01*
X286754Y11461D01*
X286790Y11497D01*
X286827Y11534D01*
X286878Y11578D01*
X286943Y11621D01*
X287009Y11672D01*
X287082Y11716D01*
X287162Y11760D01*
X287351Y11840D01*
X287454Y11876D01*
X287563Y11898D01*
X287680Y11913D01*
X287796Y11920D01*
X287862D01*
X287942Y11913D01*
X288037Y11898D01*
X288146Y11884D01*
X288263Y11855D01*
X288379Y11811D01*
X288496Y11760D01*
X288511Y11753D01*
X288547Y11731D01*
X288598Y11694D01*
X288664Y11643D01*
X288729Y11578D01*
X288802Y11505D01*
X288868Y11417D01*
X288926Y11315D01*
X288933Y11301D01*
X288948Y11264D01*
X288970Y11198D01*
X288992Y11104D01*
X289014Y10987D01*
X289035Y10849D01*
X289050Y10681D01*
X289057Y10491D01*
Y8180D01*
X288438D01*
Y10499D01*
Y10506D01*
Y10521D01*
Y10542D01*
Y10572D01*
X288430Y10652D01*
X288416Y10754D01*
X288387Y10863D01*
X288350Y10972D01*
X288299Y11082D01*
X288233Y11169D01*
X288226Y11177D01*
X288197Y11206D01*
X288153Y11242D01*
X288088Y11279D01*
X288007Y11322D01*
X287913Y11352D01*
X287796Y11381D01*
X287665Y11388D01*
X287621D01*
X287570Y11381D01*
X287497Y11373D01*
X287424Y11352D01*
X287337Y11330D01*
X287249Y11293D01*
X287155Y11242D01*
X287147Y11235D01*
X287118Y11213D01*
X287074Y11184D01*
X287023Y11140D01*
X286965Y11082D01*
X286907Y11016D01*
X286856Y10936D01*
X286812Y10849D01*
X286805Y10834D01*
X286797Y10805D01*
X286783Y10747D01*
X286761Y10674D01*
X286739Y10579D01*
X286724Y10462D01*
X286717Y10331D01*
X286710Y10178D01*
Y8180D01*
X286090D01*
Y13225D01*
X286710D01*
Y11417D01*
D02*
G37*
G36*
X281221Y8180D02*
X280601D01*
Y11840D01*
X281221D01*
Y8180D01*
D02*
G37*
G36*
X279814Y12627D02*
X277073D01*
Y11067D01*
X279442D01*
Y10469D01*
X277073D01*
Y8180D01*
X276402D01*
Y13225D01*
X279814D01*
Y12627D01*
D02*
G37*
G36*
X275330Y8180D02*
X274711D01*
Y13225D01*
X275330D01*
Y8180D01*
D02*
G37*
G36*
X266094Y12627D02*
X263353D01*
Y11067D01*
X265722D01*
Y10469D01*
X263353D01*
Y8180D01*
X262682D01*
Y13225D01*
X266094D01*
Y12627D01*
D02*
G37*
G36*
X290734Y11840D02*
X291361D01*
Y11359D01*
X290734D01*
Y9208D01*
Y9194D01*
Y9165D01*
Y9121D01*
X290741Y9070D01*
X290749Y8953D01*
X290756Y8902D01*
X290763Y8866D01*
X290771Y8851D01*
X290792Y8822D01*
X290822Y8786D01*
X290873Y8749D01*
X290887Y8742D01*
X290924Y8727D01*
X290989Y8713D01*
X291084Y8705D01*
X291157D01*
X291193Y8713D01*
X291244D01*
X291303Y8720D01*
X291361Y8727D01*
X291441Y8180D01*
X291427D01*
X291397Y8173D01*
X291346Y8166D01*
X291281Y8159D01*
X291208Y8144D01*
X291128Y8137D01*
X290967Y8129D01*
X290909D01*
X290851Y8137D01*
X290778Y8144D01*
X290690Y8151D01*
X290603Y8173D01*
X290523Y8195D01*
X290442Y8231D01*
X290435Y8239D01*
X290413Y8253D01*
X290384Y8275D01*
X290340Y8312D01*
X290304Y8348D01*
X290260Y8399D01*
X290216Y8450D01*
X290187Y8516D01*
Y8523D01*
X290173Y8552D01*
X290165Y8603D01*
X290151Y8676D01*
X290136Y8771D01*
X290129Y8829D01*
Y8895D01*
X290122Y8975D01*
X290114Y9055D01*
Y9143D01*
Y9245D01*
Y11359D01*
X289655D01*
Y11840D01*
X290114D01*
Y12744D01*
X290734Y13116D01*
Y11840D01*
D02*
G37*
G36*
X293592Y11913D02*
X293650Y11906D01*
X293723Y11891D01*
X293803Y11876D01*
X293898Y11855D01*
X293985Y11833D01*
X294087Y11796D01*
X294182Y11760D01*
X294284Y11709D01*
X294386Y11650D01*
X294488Y11585D01*
X294583Y11505D01*
X294671Y11417D01*
X294678Y11410D01*
X294692Y11395D01*
X294714Y11366D01*
X294743Y11322D01*
X294780Y11271D01*
X294816Y11213D01*
X294860Y11140D01*
X294904Y11053D01*
X294948Y10958D01*
X294991Y10856D01*
X295028Y10739D01*
X295064Y10615D01*
X295093Y10477D01*
X295115Y10331D01*
X295130Y10178D01*
X295137Y10010D01*
Y10003D01*
Y9974D01*
Y9923D01*
X295130Y9850D01*
X292396D01*
Y9843D01*
Y9821D01*
X292403Y9792D01*
Y9748D01*
X292411Y9697D01*
X292425Y9639D01*
X292447Y9507D01*
X292491Y9362D01*
X292549Y9201D01*
X292629Y9055D01*
X292731Y8924D01*
X292739D01*
X292746Y8909D01*
X292790Y8873D01*
X292855Y8822D01*
X292943Y8771D01*
X293059Y8713D01*
X293191Y8662D01*
X293337Y8625D01*
X293417Y8618D01*
X293504Y8611D01*
X293563D01*
X293628Y8618D01*
X293708Y8632D01*
X293796Y8654D01*
X293898Y8683D01*
X293993Y8727D01*
X294087Y8786D01*
X294095Y8793D01*
X294131Y8822D01*
X294175Y8866D01*
X294226Y8924D01*
X294284Y9004D01*
X294350Y9106D01*
X294415Y9223D01*
X294474Y9362D01*
X295115Y9281D01*
Y9274D01*
X295108Y9259D01*
X295101Y9230D01*
X295086Y9187D01*
X295064Y9143D01*
X295042Y9084D01*
X294984Y8961D01*
X294911Y8822D01*
X294809Y8676D01*
X294692Y8538D01*
X294547Y8406D01*
X294539D01*
X294525Y8392D01*
X294503Y8377D01*
X294474Y8355D01*
X294430Y8334D01*
X294386Y8312D01*
X294328Y8282D01*
X294262Y8253D01*
X294190Y8224D01*
X294117Y8195D01*
X293934Y8151D01*
X293730Y8115D01*
X293504Y8100D01*
X293424D01*
X293373Y8108D01*
X293307Y8115D01*
X293227Y8129D01*
X293140Y8144D01*
X293045Y8159D01*
X292841Y8217D01*
X292731Y8261D01*
X292629Y8304D01*
X292520Y8363D01*
X292418Y8428D01*
X292323Y8501D01*
X292229Y8589D01*
X292221Y8596D01*
X292207Y8611D01*
X292185Y8640D01*
X292156Y8683D01*
X292119Y8734D01*
X292083Y8793D01*
X292039Y8866D01*
X291995Y8946D01*
X291951Y9041D01*
X291908Y9143D01*
X291871Y9259D01*
X291835Y9383D01*
X291806Y9515D01*
X291784Y9660D01*
X291769Y9813D01*
X291762Y9974D01*
Y9981D01*
Y10018D01*
Y10061D01*
X291769Y10127D01*
X291776Y10207D01*
X291784Y10295D01*
X291798Y10397D01*
X291820Y10499D01*
X291879Y10732D01*
X291915Y10849D01*
X291959Y10972D01*
X292017Y11089D01*
X292083Y11198D01*
X292156Y11308D01*
X292236Y11410D01*
X292243Y11417D01*
X292258Y11432D01*
X292287Y11454D01*
X292323Y11490D01*
X292367Y11527D01*
X292425Y11570D01*
X292491Y11621D01*
X292571Y11665D01*
X292651Y11716D01*
X292746Y11760D01*
X292848Y11804D01*
X292957Y11840D01*
X293074Y11876D01*
X293198Y11898D01*
X293329Y11913D01*
X293468Y11920D01*
X293541D01*
X293592Y11913D01*
D02*
G37*
G36*
X272422D02*
X272480Y11906D01*
X272553Y11891D01*
X272633Y11876D01*
X272728Y11855D01*
X272815Y11833D01*
X272917Y11796D01*
X273012Y11760D01*
X273114Y11709D01*
X273216Y11650D01*
X273318Y11585D01*
X273413Y11505D01*
X273500Y11417D01*
X273508Y11410D01*
X273522Y11395D01*
X273544Y11366D01*
X273573Y11322D01*
X273610Y11271D01*
X273646Y11213D01*
X273690Y11140D01*
X273734Y11053D01*
X273778Y10958D01*
X273821Y10856D01*
X273858Y10739D01*
X273894Y10615D01*
X273923Y10477D01*
X273945Y10331D01*
X273960Y10178D01*
X273967Y10010D01*
Y10003D01*
Y9974D01*
Y9923D01*
X273960Y9850D01*
X271226D01*
Y9843D01*
Y9821D01*
X271233Y9792D01*
Y9748D01*
X271240Y9697D01*
X271255Y9639D01*
X271277Y9507D01*
X271321Y9362D01*
X271379Y9201D01*
X271459Y9055D01*
X271561Y8924D01*
X271569D01*
X271576Y8909D01*
X271620Y8873D01*
X271685Y8822D01*
X271773Y8771D01*
X271889Y8713D01*
X272021Y8662D01*
X272166Y8625D01*
X272247Y8618D01*
X272334Y8611D01*
X272392D01*
X272458Y8618D01*
X272538Y8632D01*
X272626Y8654D01*
X272728Y8683D01*
X272822Y8727D01*
X272917Y8786D01*
X272924Y8793D01*
X272961Y8822D01*
X273005Y8866D01*
X273056Y8924D01*
X273114Y9004D01*
X273180Y9106D01*
X273245Y9223D01*
X273304Y9362D01*
X273945Y9281D01*
Y9274D01*
X273938Y9259D01*
X273931Y9230D01*
X273916Y9187D01*
X273894Y9143D01*
X273872Y9084D01*
X273814Y8961D01*
X273741Y8822D01*
X273639Y8676D01*
X273522Y8538D01*
X273376Y8406D01*
X273369D01*
X273355Y8392D01*
X273333Y8377D01*
X273304Y8355D01*
X273260Y8334D01*
X273216Y8312D01*
X273158Y8282D01*
X273092Y8253D01*
X273019Y8224D01*
X272946Y8195D01*
X272764Y8151D01*
X272560Y8115D01*
X272334Y8100D01*
X272254D01*
X272203Y8108D01*
X272137Y8115D01*
X272057Y8129D01*
X271970Y8144D01*
X271875Y8159D01*
X271671Y8217D01*
X271561Y8261D01*
X271459Y8304D01*
X271350Y8363D01*
X271248Y8428D01*
X271153Y8501D01*
X271058Y8589D01*
X271051Y8596D01*
X271036Y8611D01*
X271015Y8640D01*
X270985Y8683D01*
X270949Y8734D01*
X270913Y8793D01*
X270869Y8866D01*
X270825Y8946D01*
X270781Y9041D01*
X270738Y9143D01*
X270701Y9259D01*
X270665Y9383D01*
X270636Y9515D01*
X270614Y9660D01*
X270599Y9813D01*
X270592Y9974D01*
Y9981D01*
Y10018D01*
Y10061D01*
X270599Y10127D01*
X270606Y10207D01*
X270614Y10295D01*
X270628Y10397D01*
X270650Y10499D01*
X270708Y10732D01*
X270745Y10849D01*
X270789Y10972D01*
X270847Y11089D01*
X270913Y11198D01*
X270985Y11308D01*
X271066Y11410D01*
X271073Y11417D01*
X271088Y11432D01*
X271117Y11454D01*
X271153Y11490D01*
X271197Y11527D01*
X271255Y11570D01*
X271321Y11621D01*
X271401Y11665D01*
X271481Y11716D01*
X271576Y11760D01*
X271678Y11804D01*
X271787Y11840D01*
X271904Y11876D01*
X272028Y11898D01*
X272159Y11913D01*
X272298Y11920D01*
X272371D01*
X272422Y11913D01*
D02*
G37*
G36*
X283619D02*
X283670Y11906D01*
X283736Y11891D01*
X283808Y11876D01*
X283889Y11855D01*
X283969Y11825D01*
X284056Y11789D01*
X284144Y11745D01*
X284239Y11694D01*
X284326Y11636D01*
X284414Y11563D01*
X284501Y11483D01*
X284581Y11388D01*
Y11840D01*
X285150D01*
Y8676D01*
Y8669D01*
Y8640D01*
Y8596D01*
Y8538D01*
X285143Y8472D01*
Y8392D01*
X285135Y8304D01*
X285128Y8210D01*
X285106Y8013D01*
X285077Y7809D01*
X285055Y7714D01*
X285033Y7626D01*
X285004Y7546D01*
X284975Y7473D01*
Y7466D01*
X284968Y7459D01*
X284939Y7415D01*
X284902Y7349D01*
X284844Y7269D01*
X284764Y7182D01*
X284669Y7087D01*
X284552Y6992D01*
X284421Y6912D01*
X284414D01*
X284406Y6905D01*
X284384Y6890D01*
X284355Y6883D01*
X284319Y6861D01*
X284275Y6846D01*
X284166Y6810D01*
X284034Y6766D01*
X283874Y6737D01*
X283692Y6708D01*
X283495Y6701D01*
X283429D01*
X283386Y6708D01*
X283327D01*
X283269Y6715D01*
X283196Y6723D01*
X283116Y6737D01*
X282948Y6774D01*
X282773Y6825D01*
X282598Y6897D01*
X282438Y7000D01*
X282431Y7007D01*
X282423Y7014D01*
X282372Y7058D01*
X282314Y7123D01*
X282241Y7218D01*
X282168Y7342D01*
X282103Y7495D01*
X282081Y7583D01*
X282066Y7677D01*
X282052Y7772D01*
Y7882D01*
X282657Y7801D01*
Y7787D01*
X282664Y7758D01*
X282679Y7707D01*
X282693Y7641D01*
X282722Y7575D01*
X282759Y7510D01*
X282803Y7444D01*
X282861Y7393D01*
X282875Y7386D01*
X282905Y7364D01*
X282956Y7335D01*
X283029Y7306D01*
X283116Y7269D01*
X283225Y7240D01*
X283356Y7218D01*
X283495Y7211D01*
X283568D01*
X283641Y7218D01*
X283743Y7233D01*
X283845Y7255D01*
X283954Y7284D01*
X284064Y7327D01*
X284158Y7386D01*
X284166Y7393D01*
X284195Y7415D01*
X284239Y7459D01*
X284290Y7510D01*
X284341Y7583D01*
X284392Y7663D01*
X284443Y7758D01*
X284479Y7867D01*
Y7874D01*
X284487Y7903D01*
X284494Y7962D01*
X284501Y8035D01*
X284508Y8086D01*
Y8144D01*
X284516Y8210D01*
Y8282D01*
Y8363D01*
X284523Y8457D01*
Y8552D01*
Y8662D01*
X284516Y8654D01*
X284501Y8640D01*
X284479Y8618D01*
X284450Y8589D01*
X284414Y8552D01*
X284363Y8508D01*
X284304Y8465D01*
X284246Y8421D01*
X284093Y8334D01*
X283925Y8253D01*
X283830Y8224D01*
X283728Y8202D01*
X283619Y8188D01*
X283510Y8180D01*
X283473D01*
X283437Y8188D01*
X283386D01*
X283320Y8195D01*
X283247Y8210D01*
X283167Y8224D01*
X283080Y8246D01*
X282985Y8275D01*
X282890Y8312D01*
X282795Y8355D01*
X282693Y8406D01*
X282598Y8472D01*
X282504Y8545D01*
X282416Y8625D01*
X282336Y8720D01*
X282329Y8727D01*
X282321Y8742D01*
X282299Y8778D01*
X282270Y8815D01*
X282241Y8873D01*
X282205Y8931D01*
X282168Y9004D01*
X282132Y9092D01*
X282095Y9179D01*
X282059Y9281D01*
X282023Y9383D01*
X281993Y9500D01*
X281942Y9748D01*
X281935Y9886D01*
X281928Y10025D01*
Y10032D01*
Y10047D01*
Y10076D01*
Y10112D01*
X281935Y10163D01*
Y10214D01*
X281950Y10346D01*
X281971Y10491D01*
X282008Y10652D01*
X282052Y10819D01*
X282117Y10987D01*
Y10994D01*
X282124Y11009D01*
X282139Y11031D01*
X282154Y11060D01*
X282197Y11140D01*
X282256Y11242D01*
X282336Y11352D01*
X282431Y11461D01*
X282540Y11578D01*
X282664Y11672D01*
X282671D01*
X282679Y11680D01*
X282700Y11694D01*
X282730Y11709D01*
X282803Y11753D01*
X282905Y11796D01*
X283029Y11840D01*
X283174Y11884D01*
X283335Y11913D01*
X283510Y11920D01*
X283575D01*
X283619Y11913D01*
D02*
G37*
%LPC*%
G36*
X269389Y18768D02*
X268222D01*
Y14919D01*
X269418D01*
X269469Y14927D01*
X269578Y14934D01*
X269702Y14941D01*
X269834Y14956D01*
X269965Y14978D01*
X270074Y15007D01*
X270089Y15014D01*
X270125Y15021D01*
X270176Y15043D01*
X270242Y15073D01*
X270315Y15116D01*
X270388Y15160D01*
X270461Y15211D01*
X270533Y15269D01*
X270541Y15284D01*
X270570Y15313D01*
X270614Y15364D01*
X270665Y15437D01*
X270723Y15532D01*
X270789Y15641D01*
X270847Y15765D01*
X270898Y15903D01*
Y15911D01*
X270905Y15925D01*
X270913Y15947D01*
X270920Y15976D01*
X270927Y16013D01*
X270942Y16064D01*
X270956Y16115D01*
X270971Y16173D01*
X270993Y16319D01*
X271015Y16487D01*
X271029Y16676D01*
X271036Y16880D01*
Y16888D01*
Y16917D01*
Y16953D01*
X271029Y17012D01*
Y17077D01*
X271022Y17150D01*
X271015Y17238D01*
X271007Y17325D01*
X270971Y17522D01*
X270927Y17726D01*
X270862Y17916D01*
X270818Y18010D01*
X270774Y18090D01*
Y18098D01*
X270759Y18112D01*
X270745Y18134D01*
X270730Y18163D01*
X270672Y18236D01*
X270599Y18324D01*
X270504Y18419D01*
X270395Y18513D01*
X270271Y18594D01*
X270140Y18659D01*
X270125Y18666D01*
X270089Y18674D01*
X270023Y18696D01*
X269928Y18717D01*
X269812Y18732D01*
X269666Y18754D01*
X269578Y18761D01*
X269484D01*
X269389Y18768D01*
D02*
G37*
G36*
X293475Y11410D02*
X293431D01*
X293402Y11403D01*
X293322Y11395D01*
X293227Y11373D01*
X293111Y11337D01*
X292987Y11286D01*
X292870Y11213D01*
X292753Y11118D01*
X292739Y11104D01*
X292710Y11067D01*
X292659Y11002D01*
X292607Y10914D01*
X292549Y10812D01*
X292498Y10681D01*
X292454Y10528D01*
X292433Y10360D01*
X294481D01*
Y10368D01*
Y10382D01*
X294474Y10404D01*
Y10433D01*
X294459Y10521D01*
X294437Y10615D01*
X294401Y10732D01*
X294364Y10841D01*
X294306Y10951D01*
X294240Y11045D01*
Y11053D01*
X294226Y11060D01*
X294190Y11104D01*
X294124Y11162D01*
X294036Y11228D01*
X293927Y11293D01*
X293796Y11352D01*
X293643Y11395D01*
X293563Y11403D01*
X293475Y11410D01*
D02*
G37*
G36*
X272305D02*
X272261D01*
X272232Y11403D01*
X272152Y11395D01*
X272057Y11373D01*
X271940Y11337D01*
X271816Y11286D01*
X271700Y11213D01*
X271583Y11118D01*
X271569Y11104D01*
X271539Y11067D01*
X271488Y11002D01*
X271437Y10914D01*
X271379Y10812D01*
X271328Y10681D01*
X271284Y10528D01*
X271262Y10360D01*
X273311D01*
Y10368D01*
Y10382D01*
X273304Y10404D01*
Y10433D01*
X273289Y10521D01*
X273267Y10615D01*
X273231Y10732D01*
X273194Y10841D01*
X273136Y10951D01*
X273070Y11045D01*
Y11053D01*
X273056Y11060D01*
X273019Y11104D01*
X272954Y11162D01*
X272866Y11228D01*
X272757Y11293D01*
X272626Y11352D01*
X272473Y11395D01*
X272392Y11403D01*
X272305Y11410D01*
D02*
G37*
G36*
X283634D02*
X283517D01*
X283488Y11403D01*
X283408Y11395D01*
X283313Y11366D01*
X283196Y11330D01*
X283080Y11264D01*
X282963Y11184D01*
X282905Y11126D01*
X282846Y11067D01*
Y11060D01*
X282832Y11053D01*
X282817Y11031D01*
X282803Y11002D01*
X282781Y10972D01*
X282759Y10929D01*
X282730Y10878D01*
X282708Y10819D01*
X282679Y10754D01*
X282649Y10674D01*
X282628Y10593D01*
X282606Y10506D01*
X282591Y10404D01*
X282576Y10302D01*
X282562Y10193D01*
Y10069D01*
Y10061D01*
Y10039D01*
Y10003D01*
X282569Y9952D01*
Y9894D01*
X282576Y9821D01*
X282598Y9668D01*
X282635Y9493D01*
X282679Y9325D01*
X282751Y9157D01*
X282795Y9084D01*
X282846Y9019D01*
X282861Y9004D01*
X282897Y8968D01*
X282956Y8917D01*
X283043Y8858D01*
X283145Y8793D01*
X283269Y8742D01*
X283408Y8705D01*
X283481Y8698D01*
X283561Y8691D01*
X283604D01*
X283634Y8698D01*
X283714Y8705D01*
X283816Y8734D01*
X283925Y8771D01*
X284049Y8829D01*
X284166Y8909D01*
X284224Y8961D01*
X284282Y9019D01*
Y9026D01*
X284297Y9033D01*
X284312Y9055D01*
X284326Y9084D01*
X284348Y9114D01*
X284377Y9157D01*
X284399Y9208D01*
X284428Y9274D01*
X284457Y9340D01*
X284479Y9413D01*
X284508Y9500D01*
X284530Y9595D01*
X284545Y9690D01*
X284559Y9799D01*
X284574Y9923D01*
Y10047D01*
Y10054D01*
Y10076D01*
Y10112D01*
X284567Y10156D01*
Y10214D01*
X284559Y10280D01*
X284538Y10426D01*
X284501Y10593D01*
X284450Y10761D01*
X284377Y10929D01*
X284326Y11002D01*
X284275Y11067D01*
Y11075D01*
X284261Y11082D01*
X284224Y11118D01*
X284158Y11177D01*
X284071Y11242D01*
X283969Y11301D01*
X283845Y11359D01*
X283706Y11395D01*
X283634Y11410D01*
D02*
G37*
%LPD*%
D10*
X216665Y57153D02*
G03*
X216665Y57153I-492J0D01*
G01*
D11*
X208988Y62094D02*
G03*
X208988Y62094I-1181J0D01*
G01*
D12*
X178110Y234327D02*
G03*
X178110Y234327I-394J0D01*
G01*
X250362Y104500D02*
X258362D01*
X254362Y100500D02*
Y108500D01*
X260347Y84500D02*
X310347D01*
X325346Y99500D01*
Y109500D01*
X310347Y124500D02*
X325346Y109500D01*
X260347Y124500D02*
X310347D01*
X260347Y84500D02*
Y124500D01*
X277500Y177862D02*
Y185862D01*
X273500Y181862D02*
X281500D01*
X297500Y187847D02*
Y237846D01*
X282500Y252847D02*
X297500Y237846D01*
X272500Y252847D02*
X282500D01*
X257500Y237846D02*
X272500Y252847D01*
X257500Y187847D02*
Y237846D01*
Y187847D02*
X297500D01*
X22500Y51862D02*
Y59862D01*
X18500Y55862D02*
X26500D01*
X42500Y61847D02*
Y111846D01*
X27500Y126847D02*
X42500Y111846D01*
X17500Y126847D02*
X27500D01*
X2500Y111846D02*
X17500Y126847D01*
X2500Y61847D02*
Y111846D01*
Y61847D02*
X42500D01*
X21500Y138362D02*
Y146362D01*
X17500Y142362D02*
X25500D01*
X41500Y148346D02*
Y198346D01*
X26500Y213347D02*
X41500Y198346D01*
X16500Y213347D02*
X26500D01*
X1500Y198346D02*
X16500Y213347D01*
X1500Y148346D02*
Y198346D01*
Y148346D02*
X41500D01*
X250579Y155000D02*
X258579D01*
X254579Y151000D02*
Y159000D01*
X260563Y135000D02*
X310563D01*
X325563Y150000D01*
Y160000D01*
X310563Y175000D02*
X325563Y160000D01*
X260563Y175000D02*
X310563D01*
X260563Y135000D02*
Y175000D01*
X58724Y90059D02*
Y120621D01*
X83921D01*
X64925Y83858D02*
X77622D01*
X58724Y90059D02*
X64925Y83858D01*
X83921Y90158D02*
Y120621D01*
X77622Y83858D02*
X83921Y90158D01*
X95508Y89638D02*
Y120200D01*
X120705D01*
X101709Y83437D02*
X114406D01*
X95508Y89638D02*
X101709Y83437D01*
X120705Y89736D02*
Y120200D01*
X114406Y83437D02*
X120705Y89736D01*
X173992Y145300D02*
Y175862D01*
X148795Y145300D02*
X173992D01*
X155095Y182063D02*
X167791D01*
X173992Y175862D01*
X148795Y145300D02*
Y175764D01*
X155095Y182063D01*
X186009Y143098D02*
Y147096D01*
X188009Y149096D01*
X190008Y147096D01*
Y143098D01*
Y146097D01*
X186009D01*
X192007Y147096D02*
Y144097D01*
X193007Y143098D01*
X196006D01*
Y147096D01*
X199005Y148096D02*
Y147096D01*
X198005D01*
X200005D01*
X199005D01*
Y144097D01*
X200005Y143098D01*
X204003D02*
X206003D01*
X207002Y144097D01*
Y146097D01*
X206003Y147096D01*
X204003D01*
X203004Y146097D01*
Y144097D01*
X204003Y143098D01*
X209002D02*
Y147096D01*
X212001D01*
X213000Y146097D01*
Y143098D01*
X216000D02*
X217999D01*
X218999Y144097D01*
Y146097D01*
X217999Y147096D01*
X216000D01*
X215000Y146097D01*
Y144097D01*
X216000Y143098D01*
X220998D02*
Y147096D01*
X221998D01*
X222997Y146097D01*
Y143098D01*
Y146097D01*
X223997Y147096D01*
X224997Y146097D01*
Y143098D01*
X227996D02*
X229995D01*
X230995Y144097D01*
Y146097D01*
X229995Y147096D01*
X227996D01*
X226996Y146097D01*
Y144097D01*
X227996Y143098D01*
X232994Y147096D02*
Y144097D01*
X233994Y143098D01*
X236993D01*
Y147096D01*
X238992Y143098D02*
X241991D01*
X242991Y144097D01*
X241991Y145097D01*
X239992D01*
X238992Y146097D01*
X239992Y147096D01*
X242991D01*
X192007Y133500D02*
Y139498D01*
X195006D01*
X196006Y138498D01*
Y136499D01*
X195006Y135499D01*
X192007D01*
X198005Y139498D02*
Y133500D01*
X201004D01*
X202004Y134500D01*
Y138498D01*
X201004Y139498D01*
X198005D01*
X204003D02*
Y133500D01*
X207002D01*
X208002Y134500D01*
Y135499D01*
X207002Y136499D01*
X204003D01*
X207002D01*
X208002Y137499D01*
Y138498D01*
X207002Y139498D01*
X204003D01*
X216000Y137499D02*
X217999Y133500D01*
X219998Y137499D01*
X225996Y133500D02*
X221998D01*
X225996Y137499D01*
Y138498D01*
X224997Y139498D01*
X222997D01*
X221998Y138498D01*
X227996Y133500D02*
Y134500D01*
X228995D01*
Y133500D01*
X227996D01*
X232994Y138498D02*
X233994Y139498D01*
X235993D01*
X236993Y138498D01*
Y134500D01*
X235993Y133500D01*
X233994D01*
X232994Y134500D01*
Y138498D01*
X262215Y66998D02*
X261216Y67998D01*
X259216D01*
X258217Y66998D01*
Y65999D01*
X259216Y64999D01*
X261216D01*
X262215Y63999D01*
Y63000D01*
X261216Y62000D01*
X259216D01*
X258217Y63000D01*
X268213Y67998D02*
X264215D01*
Y62000D01*
X268213D01*
X264215Y64999D02*
X266214D01*
X270213Y62000D02*
Y67998D01*
X272212Y65999D01*
X274211Y67998D01*
Y62000D01*
X286208D02*
X282209D01*
X286208Y65999D01*
Y66998D01*
X285208Y67998D01*
X283208D01*
X282209Y66998D01*
X288207D02*
X289207Y67998D01*
X291206D01*
X292206Y66998D01*
Y63000D01*
X291206Y62000D01*
X289207D01*
X288207Y63000D01*
Y66998D01*
X298204Y62000D02*
X294205D01*
X298204Y65999D01*
Y66998D01*
X297204Y67998D01*
X295205D01*
X294205Y66998D01*
X300203D02*
X301203Y67998D01*
X303202D01*
X304202Y66998D01*
Y63000D01*
X303202Y62000D01*
X301203D01*
X300203Y63000D01*
Y66998D01*
X261000Y75000D02*
Y80998D01*
X263999D01*
X264999Y79998D01*
Y77999D01*
X263999Y76999D01*
X261000D01*
X266998Y78999D02*
Y76000D01*
X267998Y75000D01*
X270997D01*
Y78999D01*
X273996Y79998D02*
Y78999D01*
X272996D01*
X274995D01*
X273996D01*
Y76000D01*
X274995Y75000D01*
X277994Y74000D02*
X281993D01*
X283993Y75000D02*
Y80998D01*
X287991Y75000D01*
Y80998D01*
X289991D02*
Y76000D01*
X290990Y75000D01*
X292990D01*
X293989Y76000D01*
Y80998D01*
X299987Y79998D02*
X298988Y80998D01*
X296988D01*
X295989Y79998D01*
Y76000D01*
X296988Y75000D01*
X298988D01*
X299987Y76000D01*
X302500Y242846D02*
X308498D01*
Y239847D01*
X307498Y238848D01*
X305499D01*
X304499Y239847D01*
Y242846D01*
X306499Y236848D02*
X303500D01*
X302500Y235849D01*
Y232850D01*
X306499D01*
X307498Y229851D02*
X306499D01*
Y230850D01*
Y228851D01*
Y229851D01*
X303500D01*
X302500Y228851D01*
X301500Y225852D02*
Y221853D01*
X308498Y219854D02*
X302500D01*
Y215855D01*
X308498Y213856D02*
Y211857D01*
Y212856D01*
X302500D01*
Y213856D01*
Y211857D01*
X308498Y208857D02*
X302500D01*
Y205858D01*
X303500Y204859D01*
X307498D01*
X308498Y205858D01*
Y208857D01*
X302500Y202859D02*
X306499D01*
X308498Y200860D01*
X306499Y198861D01*
X302500D01*
X305499D01*
Y202859D01*
X302500Y196861D02*
X308498D01*
Y193862D01*
X307498Y192863D01*
X305499D01*
X304499Y193862D01*
Y196861D01*
Y194862D02*
X302500Y192863D01*
X233500Y77500D02*
Y83498D01*
X236499D01*
X237499Y82498D01*
Y80499D01*
X236499Y79499D01*
X233500D01*
X235499D02*
X237499Y77500D01*
X243497Y83498D02*
X239498D01*
Y80499D01*
X241497Y81499D01*
X242497D01*
X243497Y80499D01*
Y78500D01*
X242497Y77500D01*
X240498D01*
X239498Y78500D01*
X201000Y30000D02*
Y35998D01*
X203999D01*
X204999Y34998D01*
Y32999D01*
X203999Y31999D01*
X201000D01*
X202999D02*
X204999Y30000D01*
X209997D02*
Y35998D01*
X206998Y32999D01*
X210997D01*
X238500Y206000D02*
Y211998D01*
X241499D01*
X242499Y210998D01*
Y208999D01*
X241499Y207999D01*
X238500D01*
X240499D02*
X242499Y206000D01*
X244498Y210998D02*
X245498Y211998D01*
X247497D01*
X248497Y210998D01*
Y209999D01*
X247497Y208999D01*
X246497D01*
X247497D01*
X248497Y207999D01*
Y207000D01*
X247497Y206000D01*
X245498D01*
X244498Y207000D01*
X215500Y192000D02*
X209502D01*
Y194999D01*
X210502Y195999D01*
X212501D01*
X213501Y194999D01*
Y192000D01*
Y193999D02*
X215500Y195999D01*
Y201997D02*
Y197998D01*
X211501Y201997D01*
X210502D01*
X209502Y200997D01*
Y198998D01*
X210502Y197998D01*
X180000Y193000D02*
X174002D01*
Y195999D01*
X175002Y196999D01*
X177001D01*
X178001Y195999D01*
Y193000D01*
Y194999D02*
X180000Y196999D01*
Y198998D02*
Y200997D01*
Y199998D01*
X174002D01*
X175002Y198998D01*
X48000Y192000D02*
X53998D01*
Y189001D01*
X52998Y188001D01*
X50999D01*
X49999Y189001D01*
Y192000D01*
X51999Y186002D02*
X49000D01*
X48000Y185002D01*
Y182003D01*
X51999D01*
X52998Y179004D02*
X51999D01*
Y180004D01*
Y178005D01*
Y179004D01*
X49000D01*
X48000Y178005D01*
X47000Y175005D02*
Y171007D01*
X48000Y169007D02*
Y167008D01*
Y168008D01*
X53998D01*
X52998Y169007D01*
X48000Y164009D02*
X51999D01*
X53998Y162010D01*
X51999Y160010D01*
X48000D01*
X50999D01*
Y164009D01*
X47500Y103500D02*
X53498D01*
Y100501D01*
X52498Y99501D01*
X50499D01*
X49499Y100501D01*
Y103500D01*
X51499Y97502D02*
X48500D01*
X47500Y96502D01*
Y93503D01*
X51499D01*
X52498Y90504D02*
X51499D01*
Y91504D01*
Y89504D01*
Y90504D01*
X48500D01*
X47500Y89504D01*
X46500Y86506D02*
Y82507D01*
X53498Y76509D02*
Y80507D01*
X50499D01*
X51499Y78508D01*
Y77508D01*
X50499Y76509D01*
X48500D01*
X47500Y77508D01*
Y79508D01*
X48500Y80507D01*
X47500Y74509D02*
X51499D01*
X53498Y72510D01*
X51499Y70511D01*
X47500D01*
X50499D01*
Y74509D01*
X236500Y161000D02*
Y166998D01*
X239499D01*
X240499Y165998D01*
Y163999D01*
X239499Y162999D01*
X236500D01*
X242498Y161000D02*
X244497D01*
X243498D01*
Y164999D01*
X242498D01*
X247496Y161000D02*
Y164999D01*
X250496D01*
X251495Y163999D01*
Y161000D01*
X253495D02*
Y164999D01*
X256493D01*
X257493Y163999D01*
Y161000D01*
X138500Y14498D02*
Y8500D01*
X142499D01*
X148497D02*
X144498D01*
X148497Y12499D01*
Y13498D01*
X147497Y14498D01*
X145498D01*
X144498Y13498D01*
X116000Y178998D02*
Y173000D01*
X119999D01*
X121998D02*
X123997D01*
X122998D01*
Y178998D01*
X121998Y177998D01*
X83502Y146999D02*
Y143000D01*
X86501D01*
Y144999D01*
Y143000D01*
X89500D01*
Y152997D02*
Y148998D01*
X85501Y152997D01*
X84502D01*
X83502Y151997D01*
Y149998D01*
X84502Y148998D01*
X45873Y14978D02*
X41874D01*
Y11979D01*
X43873D01*
X41874D01*
Y8980D01*
X47872D02*
X49871D01*
X48872D01*
Y14978D01*
X47872Y13979D01*
X191445Y87782D02*
Y81783D01*
X194444D01*
X195444Y82783D01*
Y86782D01*
X194444Y87782D01*
X191445D01*
X201442Y86782D02*
X200442Y87782D01*
X198443D01*
X197443Y86782D01*
Y82783D01*
X198443Y81783D01*
X200442D01*
X201442Y82783D01*
X203441Y87782D02*
Y81783D01*
X206440D01*
X207440Y82783D01*
Y86782D01*
X206440Y87782D01*
X203441D01*
X213438Y86782D02*
X212438Y87782D01*
X210439D01*
X209439Y86782D01*
Y82783D01*
X210439Y81783D01*
X212438D01*
X213438Y82783D01*
X219436Y81783D02*
X215437D01*
X219436Y85782D01*
Y86782D01*
X218436Y87782D01*
X216437D01*
X215437Y86782D01*
X176000Y245498D02*
Y239500D01*
X178999D01*
X179999Y240500D01*
Y244498D01*
X178999Y245498D01*
X176000D01*
X185997Y244498D02*
X184997Y245498D01*
X182998D01*
X181998Y244498D01*
Y240500D01*
X182998Y239500D01*
X184997D01*
X185997Y240500D01*
X187996Y245498D02*
Y239500D01*
X190995D01*
X191995Y240500D01*
Y244498D01*
X190995Y245498D01*
X187996D01*
X197993Y244498D02*
X196993Y245498D01*
X194994D01*
X193994Y244498D01*
Y240500D01*
X194994Y239500D01*
X196993D01*
X197993Y240500D01*
X199992Y239500D02*
X201992D01*
X200992D01*
Y245498D01*
X199992Y244498D01*
X232002Y13500D02*
X238000D01*
Y16499D01*
X237000Y17499D01*
X233002D01*
X232002Y16499D01*
Y13500D01*
X238000Y23497D02*
Y19498D01*
X234001Y23497D01*
X233002D01*
X232002Y22497D01*
Y20498D01*
X233002Y19498D01*
X91500Y248498D02*
Y242500D01*
X94499D01*
X95499Y243500D01*
Y247498D01*
X94499Y248498D01*
X91500D01*
X97498Y242500D02*
X99497D01*
X98498D01*
Y248498D01*
X97498Y247498D01*
X67999Y127998D02*
X66999Y128998D01*
X65000D01*
X64000Y127998D01*
Y124000D01*
X65000Y123000D01*
X66999D01*
X67999Y124000D01*
X69998Y123000D02*
X71997D01*
X70998D01*
Y128998D01*
X69998Y127998D01*
X74996D02*
X75996Y128998D01*
X77996D01*
X78995Y127998D01*
Y124000D01*
X77996Y123000D01*
X75996D01*
X74996Y124000D01*
Y127998D01*
X107499Y127498D02*
X106499Y128498D01*
X104500D01*
X103500Y127498D01*
Y123500D01*
X104500Y122500D01*
X106499D01*
X107499Y123500D01*
X109498D02*
X110498Y122500D01*
X112497D01*
X113497Y123500D01*
Y127498D01*
X112497Y128498D01*
X110498D01*
X109498Y127498D01*
Y126499D01*
X110498Y125499D01*
X113497D01*
X177999Y112498D02*
X176999Y113498D01*
X175000D01*
X174000Y112498D01*
Y108500D01*
X175000Y107500D01*
X176999D01*
X177999Y108500D01*
X179998Y112498D02*
X180998Y113498D01*
X182997D01*
X183997Y112498D01*
Y111499D01*
X182997Y110499D01*
X183997Y109499D01*
Y108500D01*
X182997Y107500D01*
X180998D01*
X179998Y108500D01*
Y109499D01*
X180998Y110499D01*
X179998Y111499D01*
Y112498D01*
X180998Y110499D02*
X182997D01*
X177999Y102998D02*
X176999Y103998D01*
X175000D01*
X174000Y102998D01*
Y99000D01*
X175000Y98000D01*
X176999D01*
X177999Y99000D01*
X179998Y103998D02*
X183997D01*
Y102998D01*
X179998Y99000D01*
Y98000D01*
X217999Y52498D02*
X216999Y53498D01*
X215000D01*
X214000Y52498D01*
Y48500D01*
X215000Y47500D01*
X216999D01*
X217999Y48500D01*
X223997Y53498D02*
X221997Y52498D01*
X219998Y50499D01*
Y48500D01*
X220998Y47500D01*
X222997D01*
X223997Y48500D01*
Y49499D01*
X222997Y50499D01*
X219998D01*
X226499Y211498D02*
X225499Y212498D01*
X223500D01*
X222500Y211498D01*
Y207500D01*
X223500Y206500D01*
X225499D01*
X226499Y207500D01*
X232497Y212498D02*
X228498D01*
Y209499D01*
X230497Y210499D01*
X231497D01*
X232497Y209499D01*
Y207500D01*
X231497Y206500D01*
X229498D01*
X228498Y207500D01*
X159782Y141920D02*
X158782Y142919D01*
X156783D01*
X155783Y141920D01*
Y137921D01*
X156783Y136921D01*
X158782D01*
X159782Y137921D01*
X164780Y136921D02*
Y142919D01*
X161782Y139920D01*
X165780D01*
X193999Y186498D02*
X192999Y187498D01*
X191000D01*
X190000Y186498D01*
Y182500D01*
X191000Y181500D01*
X192999D01*
X193999Y182500D01*
X195998Y186498D02*
X196998Y187498D01*
X198997D01*
X199997Y186498D01*
Y185499D01*
X198997Y184499D01*
X197997D01*
X198997D01*
X199997Y183499D01*
Y182500D01*
X198997Y181500D01*
X196998D01*
X195998Y182500D01*
X247499Y249998D02*
X246499Y250998D01*
X244500D01*
X243500Y249998D01*
Y246000D01*
X244500Y245000D01*
X246499D01*
X247499Y246000D01*
X253497Y245000D02*
X249498D01*
X253497Y248999D01*
Y249998D01*
X252497Y250998D01*
X250498D01*
X249498Y249998D01*
X154502Y236999D02*
X153502Y235999D01*
Y234000D01*
X154502Y233000D01*
X158500D01*
X159500Y234000D01*
Y235999D01*
X158500Y236999D01*
X159500Y238998D02*
Y240997D01*
Y239998D01*
X153502D01*
X154502Y238998D01*
D13*
X110689Y226921D02*
X134311D01*
X110689Y187079D02*
X134311D01*
X211744Y58157D02*
Y77842D01*
X199146Y58157D02*
Y77842D01*
Y58157D02*
X211744D01*
X199146Y77842D02*
X211744D01*
X185634Y25433D02*
X227366D01*
X185634Y27402D02*
X227366D01*
X185634Y9291D02*
X227366D01*
X185634D02*
Y27402D01*
X227366Y9291D02*
Y27402D01*
X45134Y231067D02*
X86866D01*
X45134Y229098D02*
X86866D01*
X45134Y247209D02*
X86866D01*
Y229098D02*
Y247209D01*
X45134Y229098D02*
Y247209D01*
D14*
X181172Y213461D02*
Y233539D01*
X195572D01*
Y213461D02*
Y233539D01*
X181172Y213461D02*
X195572D01*
D15*
X195516Y1516D02*
X197484D01*
X196500D01*
Y7419D01*
X195516Y6435D01*
X214531D02*
X215515Y7419D01*
X217483D01*
X218467Y6435D01*
Y5451D01*
X217483Y4468D01*
X216499D01*
X217483D01*
X218467Y3484D01*
Y2500D01*
X217483Y1516D01*
X215515D01*
X214531Y2500D01*
X76984Y254984D02*
X75016D01*
X76000D01*
Y249081D01*
X76984Y250065D01*
X57968D02*
X56985Y249081D01*
X55017D01*
X54033Y250065D01*
Y251049D01*
X55017Y252032D01*
X56001D01*
X55017D01*
X54033Y253016D01*
Y254000D01*
X55017Y254984D01*
X56985D01*
X57968Y254000D01*
M02*
