G04*
G04 #@! TF.GenerationSoftware,Altium Limited,Altium Designer,20.0.12 (288)*
G04*
G04 Layer_Color=8388736*
%FSLAX25Y25*%
%MOIN*%
G70*
G01*
G75*
%ADD27R,0.05918X0.04934*%
%ADD28R,0.04934X0.05918*%
%ADD29R,0.13202X0.50013*%
%ADD30R,0.11666X0.41430*%
%ADD31R,0.10642X0.12611*%
%ADD32O,0.06509X0.03162*%
%ADD33R,0.05131X0.02769*%
%ADD34R,0.09461X0.13005*%
%ADD35R,0.07099X0.13398*%
%ADD36R,0.04934X0.06312*%
%ADD37R,0.06312X0.04934*%
%ADD38C,0.25997*%
%ADD39R,0.10249X0.06312*%
%ADD40R,0.06312X0.10249*%
%ADD41R,0.07493X0.07493*%
%ADD42C,0.07493*%
%ADD43C,0.06800*%
D27*
X228217Y76858D02*
D03*
Y84142D02*
D03*
X204716Y200142D02*
D03*
Y192858D02*
D03*
X185216Y200500D02*
D03*
Y193217D02*
D03*
D28*
X201716Y41000D02*
D03*
X209000D02*
D03*
X240216Y217500D02*
D03*
X247500D02*
D03*
D29*
X174500Y50500D02*
D03*
X120268D02*
D03*
D30*
X103799Y207000D02*
D03*
X141201D02*
D03*
D31*
X205445Y68000D02*
D03*
D32*
X216173Y60500D02*
D03*
Y65500D02*
D03*
Y70500D02*
D03*
Y75500D02*
D03*
X194717Y60500D02*
D03*
Y65500D02*
D03*
Y70500D02*
D03*
Y75500D02*
D03*
D33*
X177717Y221000D02*
D03*
Y226000D02*
D03*
Y231000D02*
D03*
Y216000D02*
D03*
X198976D02*
D03*
Y231000D02*
D03*
Y226000D02*
D03*
Y221000D02*
D03*
D34*
X188445Y223697D02*
D03*
D35*
X71716Y112500D02*
D03*
Y92421D02*
D03*
X108500Y112079D02*
D03*
Y92000D02*
D03*
X161000Y153421D02*
D03*
Y173500D02*
D03*
D36*
X196500Y110500D02*
D03*
X189216D02*
D03*
X196000Y100500D02*
D03*
X188716D02*
D03*
X208858Y50000D02*
D03*
X201575D02*
D03*
X224433Y217500D02*
D03*
X231716D02*
D03*
D37*
X195217Y200284D02*
D03*
Y193000D02*
D03*
X248500Y233217D02*
D03*
Y240500D02*
D03*
X165000Y240283D02*
D03*
Y233000D02*
D03*
D38*
X277000Y104500D02*
D03*
X305346D02*
D03*
X277500Y204500D02*
D03*
Y232846D02*
D03*
X22500Y78500D02*
D03*
Y106846D02*
D03*
X21500Y165000D02*
D03*
Y193347D02*
D03*
X277217Y155000D02*
D03*
X305563D02*
D03*
D39*
X69500Y199764D02*
D03*
X69520Y217874D02*
D03*
X69500Y160000D02*
D03*
X69520Y141693D02*
D03*
D40*
X82764Y36500D02*
D03*
X100874Y36480D02*
D03*
X43000Y36500D02*
D03*
X24693Y36480D02*
D03*
D41*
X196500Y15000D02*
D03*
X76000Y241500D02*
D03*
D42*
X216500Y15000D02*
D03*
X56000Y241500D02*
D03*
D43*
X323000Y242500D02*
D03*
X322000Y12500D02*
D03*
X14000D02*
D03*
X16000Y245500D02*
D03*
M02*
