M48
;Layer_Color=9474304
;FILE_FORMAT=2:5
INCH,TZ
;TYPE=PLATED
T1F00S00C0.02800
T3F00S00C0.04331
T4F00S00C0.15748
T5F00S00C0.17717
%
T01
X214000Y82000
X206000
X198000
X202000Y78000
X210000
Y58000
X202000
X188000Y212000
X182000
X184500Y217500
X192500Y217000
X192000Y229500
X185000
X169500Y226500
X249500
T03
X196500Y15000
X216500
X76000Y241500
X56000
T04
X14000Y12500
X327500Y16000
X16000Y245500
X330500Y242000
T05
X277217Y155000
X305563
X21500Y165000
Y193347
X22500Y106846
Y78500
M30
