G04*
G04 #@! TF.GenerationSoftware,Altium Limited,Altium Designer,19.1.8 (144)*
G04*
G04 Layer_Color=255*
%FSLAX25Y25*%
%MOIN*%
G70*
G01*
G75*
%ADD12C,0.01000*%
%ADD16O,0.05709X0.02362*%
%ADD17R,0.09843X0.11811*%
%ADD18R,0.04331X0.01968*%
%ADD19R,0.08661X0.12205*%
%ADD20R,0.06299X0.12598*%
%ADD21R,0.12402X0.49213*%
%ADD22R,0.12205X0.21654*%
%ADD23R,0.05512X0.04134*%
%ADD24R,0.05118X0.04134*%
%ADD25R,0.04134X0.05118*%
%ADD26R,0.04134X0.05512*%
%ADD50R,0.05906X0.03937*%
%ADD51R,0.03937X0.05906*%
%ADD52C,0.23622*%
%ADD53C,0.06000*%
%ADD54R,0.06693X0.06693*%
%ADD55C,0.06693*%
D12*
X1000Y1000D02*
X342500D01*
X342500Y255000D02*
X342500Y1000D01*
X1000Y255000D02*
X342500D01*
X1000D02*
X1000Y1000D01*
D16*
X194717Y75500D02*
D03*
Y70500D02*
D03*
Y65500D02*
D03*
Y60500D02*
D03*
X216173Y75500D02*
D03*
Y70500D02*
D03*
Y65500D02*
D03*
Y60500D02*
D03*
D17*
X205445Y68000D02*
D03*
D18*
X177717Y221000D02*
D03*
Y226000D02*
D03*
Y231000D02*
D03*
Y216000D02*
D03*
X198976D02*
D03*
Y231000D02*
D03*
Y226000D02*
D03*
Y221000D02*
D03*
D19*
X188472Y223539D02*
D03*
D20*
X71716Y112500D02*
D03*
Y92421D02*
D03*
X108500Y112079D02*
D03*
Y92000D02*
D03*
X161216Y159000D02*
D03*
Y179079D02*
D03*
D21*
X120268Y50500D02*
D03*
X174500D02*
D03*
D22*
X139677Y206000D02*
D03*
X107000D02*
D03*
D23*
X195217Y200284D02*
D03*
Y193000D02*
D03*
X248500Y233217D02*
D03*
Y240500D02*
D03*
X165000Y240283D02*
D03*
Y233000D02*
D03*
D24*
X185216Y193217D02*
D03*
Y200500D02*
D03*
X204716Y192858D02*
D03*
Y200142D02*
D03*
X228217Y84142D02*
D03*
Y76858D02*
D03*
D25*
X247500Y217500D02*
D03*
X240216D02*
D03*
X209000Y41000D02*
D03*
X201716D02*
D03*
D26*
X224433Y217500D02*
D03*
X231716D02*
D03*
X196500Y110500D02*
D03*
X189216D02*
D03*
X196000Y100500D02*
D03*
X188716D02*
D03*
X208858Y50000D02*
D03*
X201575D02*
D03*
D50*
X69500Y199764D02*
D03*
X69520Y217874D02*
D03*
X69500Y160000D02*
D03*
X69520Y141693D02*
D03*
D51*
X82764Y36500D02*
D03*
X100874Y36480D02*
D03*
X43000Y36500D02*
D03*
X24693Y36480D02*
D03*
D52*
X22500Y106846D02*
D03*
Y78500D02*
D03*
X21500Y193347D02*
D03*
Y165000D02*
D03*
X305563Y155000D02*
D03*
X277217D02*
D03*
D53*
X330500Y242000D02*
D03*
X327500Y16000D02*
D03*
X14000Y12500D02*
D03*
X16000Y245500D02*
D03*
D54*
X196500Y15000D02*
D03*
X76000Y241500D02*
D03*
D55*
X216500Y15000D02*
D03*
X56000Y241500D02*
D03*
M02*
