%TF.GenerationSoftware,Altium Limited,Altium Designer,19.1.8 (144)*%
G04 Layer_Color=16711935*
%FSLAX26Y26*%
%MOIN*%
%TF.FileFunction,Other,Mechanical_13*%
%TF.Part,Single*%
G01*
G75*
%TA.AperFunction,NonConductor*%
%ADD46C,0.003937*%
D46*
X2117441Y617008D02*
G03*
X2117441Y617008I-19685J0D01*
G01*
X1975709Y778425D02*
X2133189D01*
X1975709Y581575D02*
X2133189D01*
X1975709D02*
Y778425D01*
X2133189Y581575D02*
Y778425D01*
X1962205Y2134606D02*
Y2335394D01*
X1804724D02*
X1962205D01*
X1804724Y2134606D02*
Y2335394D01*
Y2134606D02*
X1962205D01*
X1927362Y2008740D02*
X1976969D01*
X1927362Y1924094D02*
X1976969D01*
Y2008740D01*
X1927362Y1924094D02*
Y2008740D01*
X1827362Y1926260D02*
X1876968D01*
X1827362Y2010906D02*
X1876968D01*
X1827362Y1926260D02*
Y2010906D01*
X1876968Y1926260D02*
Y2010906D01*
X2022362Y1922677D02*
X2071968D01*
X2022362Y2007323D02*
X2071968D01*
X2022362Y1922677D02*
Y2007323D01*
X2071968Y1922677D02*
Y2007323D01*
X2480905Y2150197D02*
Y2199803D01*
X2396260Y2150197D02*
Y2199803D01*
Y2150197D02*
X2480905D01*
X2396260Y2199803D02*
X2480905D01*
X2238425Y2150197D02*
Y2199803D01*
X2323071Y2150197D02*
Y2199803D01*
X2238425D02*
X2323071D01*
X2238425Y2150197D02*
X2323071D01*
X2460197Y2326260D02*
X2509803D01*
X2460197Y2410906D02*
X2509803D01*
X2460197Y2326260D02*
Y2410906D01*
X2509803Y2326260D02*
Y2410906D01*
X1625197Y2408740D02*
X1674803D01*
X1625197Y2324094D02*
X1674803D01*
Y2408740D01*
X1625197Y2324094D02*
Y2408740D01*
X1970906Y1080197D02*
Y1129803D01*
X1886260Y1080197D02*
Y1129803D01*
Y1080197D02*
X1970906D01*
X1886260Y1129803D02*
X1970906D01*
X1965906Y980197D02*
Y1029803D01*
X1881260Y980197D02*
Y1029803D01*
Y980197D02*
X1965906D01*
X1881260Y1029803D02*
X1965906D01*
X2257362Y847323D02*
X2306969D01*
X2257362Y762677D02*
X2306969D01*
Y847323D01*
X2257362Y762677D02*
Y847323D01*
X2094488Y475197D02*
Y524803D01*
X2009842Y475197D02*
Y524803D01*
Y475197D02*
X2094488D01*
X2009842Y524803D02*
X2094488D01*
X2095905Y385197D02*
Y434803D01*
X2011260Y385197D02*
Y434803D01*
Y385197D02*
X2095905D01*
X2011260Y434803D02*
X2095905D01*
%TF.MD5,6e38b42ab2ba2ddd10eed3235981520d*%
M02*
