M48
;Layer_Color=9474304
;FILE_FORMAT=2:5
INCH,LZ
;TYPE=PLATED
T1F00S00C0.02800
T3F00S00C0.04331
T4F00S00C0.15748
T5F00S00C0.17717
%
T01
X0214Y0082
X0206
X0198
X0202Y0078
X021
Y0058
X0202
X0188Y0212
X0182
X01845Y02175
X01925Y0217
X0192Y02295
X0185
X01695Y02265
X02495
T03
X01965Y0015
X02165
X0076Y02415
X0056
T04
X0014Y00125
X03275Y0016
X0016Y02455
X03305Y0242
T05
X0277217Y0155
X0305563
X00215Y0165
Y0193347
X00225Y0106846
Y00785
M30
