G04*
G04 #@! TF.GenerationSoftware,Altium Limited,Altium Designer,19.1.8 (144)*
G04*
G04 Layer_Color=32768*
%FSLAX25Y25*%
%MOIN*%
G70*
G01*
G75*
%ADD12C,0.01000*%
%ADD14C,0.00394*%
%ADD57C,0.00197*%
D12*
X1000Y1000D02*
X342500D01*
X342500Y255000D02*
X342500Y1000D01*
X1000Y255000D02*
X342500D01*
X1000D02*
X1000Y1000D01*
D14*
X205445Y66031D02*
Y69968D01*
X203476Y68000D02*
X207413D01*
X172598Y237476D02*
X203701D01*
Y209917D02*
Y237476D01*
X172598Y209917D02*
X203701D01*
X172598D02*
Y237476D01*
X195217Y194673D02*
Y198610D01*
X193248Y196642D02*
X197185D01*
X185216Y194890D02*
Y198827D01*
X183248Y196858D02*
X187185D01*
X204716Y194532D02*
Y198468D01*
X202748Y196500D02*
X206685D01*
X241890Y217500D02*
X245827D01*
X243858Y215531D02*
Y219468D01*
X226106Y217500D02*
X230043D01*
X228075Y215531D02*
Y219468D01*
X248500Y234890D02*
Y238827D01*
X246532Y236858D02*
X250468D01*
X165000Y234673D02*
Y238610D01*
X163031Y236642D02*
X166969D01*
X190890Y110500D02*
X194827D01*
X192858Y108531D02*
Y112469D01*
X190390Y100500D02*
X194327D01*
X192358Y98532D02*
Y102469D01*
X228217Y78531D02*
Y82468D01*
X226248Y80500D02*
X230185D01*
X203248Y50000D02*
X207185D01*
X205217Y48031D02*
Y51968D01*
X203390Y41000D02*
X207327D01*
X205358Y39031D02*
Y42968D01*
D57*
X190878Y79024D02*
X220012D01*
X190878Y56976D02*
X220012D01*
X190878D02*
Y79024D01*
X220012Y56976D02*
Y79024D01*
X191476Y203335D02*
X198957D01*
X191476Y189949D02*
X198957D01*
Y203335D01*
X191476Y189949D02*
Y203335D01*
X181673Y190165D02*
X188760D01*
X181673Y203551D02*
X188760D01*
X181673Y190165D02*
Y203551D01*
X188760Y190165D02*
Y203551D01*
X201173Y189807D02*
X208260D01*
X201173Y203193D02*
X208260D01*
X201173Y189807D02*
Y203193D01*
X208260Y189807D02*
Y203193D01*
X250551Y213957D02*
Y221043D01*
X237165Y213957D02*
Y221043D01*
Y213957D02*
X250551D01*
X237165Y221043D02*
X250551D01*
X221382Y213760D02*
Y221240D01*
X234768Y213760D02*
Y221240D01*
X221382D02*
X234768D01*
X221382Y213760D02*
X234768D01*
X244760Y230165D02*
X252240D01*
X244760Y243551D02*
X252240D01*
X244760Y230165D02*
Y243551D01*
X252240Y230165D02*
Y243551D01*
X161260Y243335D02*
X168740D01*
X161260Y229949D02*
X168740D01*
Y243335D01*
X161260Y229949D02*
Y243335D01*
X199551Y106760D02*
Y114240D01*
X186165Y106760D02*
Y114240D01*
Y106760D02*
X199551D01*
X186165Y114240D02*
X199551D01*
X199051Y96760D02*
Y104240D01*
X185665Y96760D02*
Y104240D01*
Y96760D02*
X199051D01*
X185665Y104240D02*
X199051D01*
X224673Y87193D02*
X231760D01*
X224673Y73807D02*
X231760D01*
Y87193D01*
X224673Y73807D02*
Y87193D01*
X211910Y46260D02*
Y53740D01*
X198524Y46260D02*
Y53740D01*
Y46260D02*
X211910D01*
X198524Y53740D02*
X211910D01*
X212051Y37457D02*
Y44543D01*
X198665Y37457D02*
Y44543D01*
Y37457D02*
X212051D01*
X198665Y44543D02*
X212051D01*
M02*
