G04*
G04 #@! TF.GenerationSoftware,Altium Limited,Altium Designer,19.1.8 (144)*
G04*
G04 Layer_Color=16711935*
%FSLAX25Y25*%
%MOIN*%
G70*
G01*
G75*
%ADD12C,0.01000*%
%ADD38R,0.06706X0.04737*%
%ADD39R,0.04737X0.06706*%
%ADD40C,0.24422*%
%ADD41C,0.06800*%
%ADD42R,0.07493X0.07493*%
%ADD43C,0.07493*%
%ADD44C,0.05800*%
D12*
X1000Y1000D02*
X342500D01*
X342500Y255000D02*
X342500Y1000D01*
X1000Y255000D02*
X342500D01*
X1000D02*
X1000Y1000D01*
D38*
X69500Y199764D02*
D03*
X69520Y217874D02*
D03*
X69500Y160000D02*
D03*
X69520Y141693D02*
D03*
D39*
X82764Y36500D02*
D03*
X100874Y36480D02*
D03*
X43000Y36500D02*
D03*
X24693Y36480D02*
D03*
D40*
X22500Y106846D02*
D03*
Y78500D02*
D03*
X21500Y193347D02*
D03*
Y165000D02*
D03*
X305563Y155000D02*
D03*
X277217D02*
D03*
D41*
X330500Y242000D02*
D03*
X327500Y16000D02*
D03*
X14000Y12500D02*
D03*
X16000Y245500D02*
D03*
D42*
X196500Y15000D02*
D03*
X76000Y241500D02*
D03*
D43*
X216500Y15000D02*
D03*
X56000Y241500D02*
D03*
D44*
X182000Y212000D02*
D03*
X188000D02*
D03*
X214000Y82000D02*
D03*
X206000D02*
D03*
X198000D02*
D03*
X210000Y78000D02*
D03*
X202000D02*
D03*
X210000Y58000D02*
D03*
X202000D02*
D03*
X192500Y217000D02*
D03*
X184500Y217500D02*
D03*
X192000Y229500D02*
D03*
X185000D02*
D03*
X169500Y226500D02*
D03*
X249500D02*
D03*
M02*
