G04*
G04 #@! TF.GenerationSoftware,Altium Limited,Altium Designer,19.1.8 (144)*
G04*
G04 Layer_Color=32768*
%FSLAX25Y25*%
%MOIN*%
G70*
G01*
G75*
%ADD12C,0.01000*%
D12*
X58260Y198799D02*
X80937D01*
Y221299D01*
X58102Y199026D02*
Y221142D01*
X58260Y221299D02*
X80937D01*
X58339Y161604D02*
X81016D01*
X58181Y161447D02*
X58339Y161604D01*
X58181Y139331D02*
Y161447D01*
X81016Y139104D02*
Y161604D01*
X58339Y139104D02*
X81016D01*
X81799Y25063D02*
Y47740D01*
Y25063D02*
X104299D01*
X82026Y47898D02*
X104142D01*
X104299Y25063D02*
Y47740D01*
X44604Y24984D02*
Y47661D01*
X44447Y47819D02*
X44604Y47661D01*
X22331Y47819D02*
X44447D01*
X22104Y24984D02*
X44604D01*
X22104D02*
Y47661D01*
X83921Y95571D02*
Y115256D01*
X58724D02*
X83921D01*
X58724Y95177D02*
X64236Y89665D01*
X58724Y95177D02*
Y115256D01*
X78016Y89665D02*
X83921Y95571D01*
X64236Y89665D02*
X78016D01*
X120705Y95150D02*
Y114835D01*
X95508D02*
X120705D01*
X95508Y94756D02*
X101020Y89244D01*
X95508Y94756D02*
Y114835D01*
X114799Y89244D02*
X120705Y95150D01*
X101020Y89244D02*
X114799D01*
X149012Y156244D02*
Y175929D01*
Y156244D02*
X174209D01*
X168697Y181835D02*
X174209Y176323D01*
Y156244D02*
Y176323D01*
X149012Y175929D02*
X154917Y181835D01*
X168697D01*
X2500Y61847D02*
X42500D01*
X1500Y148346D02*
X41500D01*
X260563Y135000D02*
Y175000D01*
X113969Y17035D02*
Y83965D01*
X180898Y17035D02*
Y83965D01*
X113969D02*
X180898D01*
X113969Y17035D02*
X180898D01*
X100701Y181197D02*
Y230803D01*
X145976Y181197D02*
Y230803D01*
X100701Y181197D02*
X145976D01*
X100701Y230803D02*
X145976D01*
X1000Y1000D02*
X342500D01*
X342500Y255000D02*
X342500Y1000D01*
X1000Y255000D02*
X342500D01*
X1000D02*
X1000Y1000D01*
M02*
