%TF.GenerationSoftware,Altium Limited,Altium Designer,19.1.8 (144)*%
G04 Layer_Color=32768*
%FSLAX26Y26*%
%MOIN*%
%TF.FileFunction,Other,Mechanical_3*%
%TF.Part,Single*%
G01*
G75*
%TA.AperFunction,NonConductor*%
%ADD27C,0.010000*%
D27*
X582598Y1987992D02*
X809370D01*
Y2212992D01*
X581024Y1990256D02*
Y2211417D01*
X582598Y2212992D02*
X809370D01*
X583386Y1616043D02*
X810158D01*
X581811Y1614468D02*
X583386Y1616043D01*
X581811Y1393307D02*
Y1614468D01*
X810158Y1391043D02*
Y1616043D01*
X583386Y1391043D02*
X810158D01*
X817992Y250630D02*
Y477402D01*
Y250630D02*
X1042992D01*
X820256Y478976D02*
X1041417D01*
X1042992Y250630D02*
Y477402D01*
X446043Y249843D02*
Y476614D01*
X444469Y478189D02*
X446043Y476614D01*
X223307Y478189D02*
X444469D01*
X221043Y249843D02*
X446043D01*
X221043D02*
Y476614D01*
X839213Y955709D02*
Y1152559D01*
X587244D02*
X839213D01*
X587244Y951772D02*
X642362Y896654D01*
X587244Y951772D02*
Y1152559D01*
X780157Y896654D02*
X839213Y955709D01*
X642362Y896654D02*
X780157D01*
X1207047Y951496D02*
Y1148346D01*
X955079D02*
X1207047D01*
X955079Y947559D02*
X1010197Y892441D01*
X955079Y947559D02*
Y1148346D01*
X1147992Y892441D02*
X1207047Y951496D01*
X1010197Y892441D02*
X1147992D01*
X1490118Y1562441D02*
Y1759291D01*
Y1562441D02*
X1742087D01*
X1686969Y1818346D02*
X1742087Y1763228D01*
Y1562441D02*
Y1763228D01*
X1490118Y1759291D02*
X1549173Y1818346D01*
X1686969D01*
X25000Y618465D02*
X425000D01*
X15000Y1483465D02*
X415000D01*
X2605630Y1350000D02*
Y1750000D01*
X1139685Y170354D02*
Y839646D01*
X1808976Y170354D02*
Y839646D01*
X1139685D02*
X1808976D01*
X1139685Y170354D02*
X1808976D01*
X1007008Y1811968D02*
Y2308032D01*
X1459764Y1811968D02*
Y2308032D01*
X1007008Y1811968D02*
X1459764D01*
X1007008Y2308032D02*
X1459764D01*
%TF.MD5,2fde26e17734210422e0575cab9ec34c*%
M02*
