G04*
G04 #@! TF.GenerationSoftware,Altium Limited,Altium Designer,20.0.12 (288)*
G04*
G04 Layer_Physical_Order=1*
G04 Layer_Color=255*
%FSLAX25Y25*%
%MOIN*%
G70*
G01*
G75*
%ADD12C,0.01000*%
%ADD16R,0.05118X0.04134*%
%ADD17R,0.04134X0.05118*%
%ADD18R,0.12402X0.49213*%
%ADD19R,0.10866X0.40630*%
%ADD20R,0.09843X0.11811*%
%ADD21O,0.05709X0.02362*%
%ADD22R,0.04331X0.01968*%
%ADD23R,0.08661X0.12205*%
%ADD24R,0.06299X0.12598*%
%ADD25R,0.04134X0.05512*%
%ADD26R,0.05512X0.04134*%
%ADD44C,0.02000*%
%ADD45C,0.06000*%
%ADD46C,0.20000*%
%ADD47C,0.02500*%
%ADD48C,0.03000*%
%ADD49C,0.05000*%
%ADD50C,0.04000*%
%ADD51C,0.25197*%
%ADD52R,0.09449X0.05512*%
%ADD53R,0.05512X0.09449*%
%ADD54R,0.06693X0.06693*%
%ADD55C,0.06693*%
%ADD56C,0.06000*%
%ADD57C,0.02362*%
G36*
X328000Y218500D02*
Y29000D01*
X321500D01*
X304000Y11500D01*
Y9500D01*
X30500D01*
X14500Y25500D01*
X13500Y26500D01*
X13000Y27000D01*
Y68133D01*
X13454Y68343D01*
X14482Y67465D01*
X16307Y66346D01*
X18285Y65527D01*
X20366Y65027D01*
X20658Y65004D01*
Y36480D01*
X20796Y35436D01*
X20937Y35095D01*
Y30756D01*
X28449D01*
Y32446D01*
X39244D01*
Y30776D01*
X46756D01*
Y35143D01*
X46877Y35436D01*
X47015Y36480D01*
X46877Y37525D01*
X46756Y37818D01*
Y42224D01*
X39244D01*
Y40515D01*
X28727D01*
Y66368D01*
X30518Y67465D01*
X32145Y68855D01*
X33535Y70482D01*
X34654Y72307D01*
X35473Y74285D01*
X35972Y76366D01*
X36140Y78500D01*
X35972Y80634D01*
X35473Y82715D01*
X34654Y84693D01*
X33535Y86518D01*
X32145Y88145D01*
X30518Y89535D01*
X28693Y90654D01*
X26715Y91473D01*
X24634Y91973D01*
X22500Y92141D01*
X20366Y91973D01*
X18285Y91473D01*
X16307Y90654D01*
X14482Y89535D01*
X13454Y88657D01*
X13000Y88867D01*
Y96480D01*
X13454Y96689D01*
X14482Y95811D01*
X16307Y94693D01*
X16594Y94574D01*
Y106846D01*
X22500D01*
D01*
X16594D01*
Y119119D01*
X16307Y119000D01*
X14482Y117882D01*
X13454Y117004D01*
X13000Y117213D01*
Y153779D01*
X13265Y153902D01*
X13500Y153954D01*
X15307Y152846D01*
X17285Y152027D01*
X19366Y151528D01*
X21500Y151359D01*
X23634Y151528D01*
X25715Y152027D01*
X27693Y152846D01*
X29518Y153965D01*
X31145Y155355D01*
X32528Y156974D01*
X63776D01*
Y156244D01*
X66494D01*
Y145449D01*
X63795D01*
Y137937D01*
X75244D01*
Y145449D01*
X72546D01*
Y156244D01*
X75224D01*
Y163756D01*
X63776D01*
Y163026D01*
X35353D01*
X35014Y163393D01*
X35140Y165000D01*
X34973Y167134D01*
X34473Y169215D01*
X33654Y171193D01*
X32535Y173018D01*
X31145Y174645D01*
X29518Y176035D01*
X27693Y177154D01*
X25715Y177973D01*
X23634Y178472D01*
X21500Y178640D01*
X19366Y178472D01*
X17285Y177973D01*
X15307Y177154D01*
X13500Y176046D01*
X13265Y176099D01*
X13000Y176221D01*
Y182126D01*
X13265Y182248D01*
X13500Y182300D01*
X15307Y181193D01*
X15595Y181074D01*
Y193347D01*
X21500D01*
D01*
X15595D01*
Y205619D01*
X15307Y205500D01*
X13500Y204393D01*
X13265Y204445D01*
X13000Y204567D01*
Y233000D01*
X40500Y247500D01*
X299000D01*
X328000Y218500D01*
D02*
G37*
%LPC*%
G36*
X57500Y245583D02*
Y243000D01*
X60083D01*
X59797Y243692D01*
X59100Y244600D01*
X58192Y245297D01*
X57500Y245583D01*
D02*
G37*
G36*
X54500D02*
X53808Y245297D01*
X52900Y244600D01*
X52203Y243692D01*
X51917Y243000D01*
X54500D01*
Y245583D01*
D02*
G37*
G36*
X252256Y243567D02*
X250000D01*
Y242000D01*
X252256D01*
Y243567D01*
D02*
G37*
G36*
X247000D02*
X244744D01*
Y242000D01*
X247000D01*
Y243567D01*
D02*
G37*
G36*
X283405Y245119D02*
Y238752D01*
X289773D01*
X289654Y239039D01*
X288535Y240864D01*
X287145Y242492D01*
X285518Y243882D01*
X283693Y245000D01*
X283405Y245119D01*
D02*
G37*
G36*
X271595D02*
X271307Y245000D01*
X269482Y243882D01*
X267855Y242492D01*
X266465Y240864D01*
X265346Y239039D01*
X265227Y238752D01*
X271595D01*
Y245119D01*
D02*
G37*
G36*
X252256Y239000D02*
X250000D01*
Y237433D01*
X252256D01*
Y239000D01*
D02*
G37*
G36*
X247000D02*
X244744D01*
Y237433D01*
X247000D01*
Y239000D01*
D02*
G37*
G36*
X60083Y240000D02*
X57500D01*
Y237417D01*
X58192Y237703D01*
X59100Y238400D01*
X59797Y239308D01*
X60083Y240000D01*
D02*
G37*
G36*
X54500D02*
X51917D01*
X52203Y239308D01*
X52900Y238400D01*
X53808Y237703D01*
X54500Y237417D01*
Y240000D01*
D02*
G37*
G36*
X202142Y232984D02*
X195811D01*
Y229016D01*
X202142D01*
Y232984D01*
D02*
G37*
G36*
X168756Y243350D02*
X161244D01*
Y237216D01*
X168400D01*
X169461Y236155D01*
Y234000D01*
X169510Y233750D01*
X169461Y233500D01*
X169616Y232720D01*
X170058Y232058D01*
X172558Y229558D01*
X173220Y229116D01*
X174000Y228961D01*
X177717D01*
X177993Y229016D01*
X180882D01*
Y232984D01*
X177993D01*
X177717Y233039D01*
X174845D01*
X173539Y234345D01*
Y237000D01*
X173384Y237780D01*
X172942Y238442D01*
X170583Y240801D01*
X169921Y241243D01*
X169141Y241398D01*
X168756D01*
Y243350D01*
D02*
G37*
G36*
X193776Y230799D02*
X189945D01*
Y225197D01*
X193776D01*
Y230799D01*
D02*
G37*
G36*
X186945D02*
X183114D01*
Y225197D01*
X186945D01*
Y230799D01*
D02*
G37*
G36*
X202142Y227984D02*
X195811D01*
Y224016D01*
X202142D01*
Y227984D01*
D02*
G37*
G36*
X289773Y226941D02*
X283405D01*
Y220574D01*
X283693Y220693D01*
X285518Y221811D01*
X287145Y223201D01*
X288535Y224829D01*
X289654Y226654D01*
X289773Y226941D01*
D02*
G37*
G36*
X271595D02*
X265227D01*
X265346Y226654D01*
X266465Y224829D01*
X267855Y223201D01*
X269482Y221811D01*
X271307Y220693D01*
X271595Y220574D01*
Y226941D01*
D02*
G37*
G36*
X250567Y221059D02*
X249000D01*
Y219000D01*
X250567D01*
Y221059D01*
D02*
G37*
G36*
X246000D02*
X244433D01*
Y219000D01*
X246000D01*
Y221059D01*
D02*
G37*
G36*
X180882Y217984D02*
X179217D01*
Y217500D01*
X180882D01*
Y217984D01*
D02*
G37*
G36*
X176216D02*
X174551D01*
Y217500D01*
X176216D01*
Y217984D01*
D02*
G37*
G36*
X193776Y222197D02*
X189945D01*
Y216595D01*
X193776D01*
Y222197D01*
D02*
G37*
G36*
X186945D02*
X183114D01*
Y216595D01*
X186945D01*
Y222197D01*
D02*
G37*
G36*
X180882Y214500D02*
X179217D01*
Y214016D01*
X180882D01*
Y214500D01*
D02*
G37*
G36*
X176216D02*
X174551D01*
Y214016D01*
X176216D01*
Y214500D01*
D02*
G37*
G36*
X250567Y216000D02*
X249000D01*
Y213941D01*
X250567D01*
Y216000D01*
D02*
G37*
G36*
X246000D02*
X244433D01*
Y213941D01*
X246000D01*
Y216000D01*
D02*
G37*
G36*
X234784Y221256D02*
X228650D01*
Y213744D01*
X234784D01*
Y215461D01*
X237150D01*
Y213941D01*
X243284D01*
Y221059D01*
X237150D01*
Y219539D01*
X234784D01*
Y221256D01*
D02*
G37*
G36*
X214000Y223039D02*
X198976D01*
X198700Y222984D01*
X195811D01*
Y219016D01*
X198700D01*
X198976Y218961D01*
X213155D01*
X216558Y215558D01*
X217220Y215116D01*
X218000Y214961D01*
X221366D01*
Y213744D01*
X227500D01*
Y221256D01*
X221366D01*
Y219039D01*
X218845D01*
X215442Y222442D01*
X214780Y222884D01*
X214000Y223039D01*
D02*
G37*
G36*
X80347Y245847D02*
X71653D01*
Y237154D01*
X80347D01*
Y239461D01*
X138372D01*
X156652Y221180D01*
X148096Y212624D01*
X147634Y212815D01*
Y228315D01*
X134768D01*
Y185823D01*
X129561D01*
X110232Y205152D01*
Y228315D01*
X97366D01*
Y208549D01*
X76720D01*
X75745Y208355D01*
X74918Y207802D01*
X72511Y205395D01*
X72049Y205587D01*
Y214118D01*
X75244D01*
Y221630D01*
X63795D01*
Y214118D01*
X66951D01*
Y203520D01*
X63776D01*
Y196008D01*
X75224D01*
Y200899D01*
X77776Y203451D01*
X97366D01*
Y185685D01*
X110232D01*
Y198731D01*
X110694Y198922D01*
X127275Y182342D01*
X127936Y181899D01*
X128717Y181744D01*
X155859D01*
X156850Y180753D01*
Y166201D01*
X165150D01*
Y180799D01*
X164599D01*
X164311Y181208D01*
X166010Y185961D01*
X189528D01*
X190308Y186116D01*
X190970Y186558D01*
X194344Y189933D01*
X198972D01*
Y196067D01*
X191461D01*
Y192817D01*
X189276Y190632D01*
X188776Y190839D01*
Y196283D01*
X181658D01*
Y193034D01*
X178663Y190039D01*
X164875D01*
X164095Y189884D01*
X163433Y189442D01*
X159814Y185823D01*
X147634D01*
Y206289D01*
X148094Y206381D01*
X148839Y206878D01*
X160922Y218961D01*
X177717D01*
X177993Y219016D01*
X180882D01*
Y222984D01*
X177993D01*
X177717Y223039D01*
X166903D01*
X165555Y224387D01*
X166442Y225275D01*
X166442Y225275D01*
X166880Y225930D01*
X166910Y225936D01*
X167391Y225922D01*
X167446Y225649D01*
X167928Y224927D01*
X168649Y224445D01*
X168936Y224388D01*
X168970Y224366D01*
X169750Y224211D01*
X174551D01*
Y224016D01*
X180882D01*
Y227984D01*
X178471D01*
X178247Y228134D01*
X177466Y228289D01*
X170748D01*
X170351Y228555D01*
X169500Y228724D01*
X168649Y228555D01*
X167928Y228073D01*
X167539Y227491D01*
X167039Y227643D01*
Y229933D01*
X168756D01*
Y236067D01*
X161244D01*
Y229933D01*
X162961D01*
Y227561D01*
X159500Y224100D01*
X140658Y242942D01*
X139997Y243384D01*
X139216Y243539D01*
X80347D01*
Y245847D01*
D02*
G37*
G36*
X27406Y205619D02*
Y199252D01*
X33773D01*
X33654Y199539D01*
X32535Y201364D01*
X31145Y202992D01*
X29518Y204382D01*
X27693Y205500D01*
X27406Y205619D01*
D02*
G37*
G36*
X202142Y217984D02*
X195811D01*
Y216871D01*
X195427Y216296D01*
X195272Y215516D01*
Y212947D01*
X185892Y203567D01*
X181658D01*
Y197433D01*
X188776D01*
Y200683D01*
X190961Y202868D01*
X191461Y202661D01*
Y197216D01*
X198972D01*
Y203350D01*
X197256D01*
Y204155D01*
X199159Y206058D01*
X199401Y206421D01*
X200028Y206501D01*
X202677Y203852D01*
Y203209D01*
X201157D01*
Y197075D01*
X208276D01*
Y203209D01*
X206756D01*
Y204697D01*
X206600Y205477D01*
X206158Y206139D01*
X206158Y206139D01*
X199350Y212947D01*
Y214016D01*
X202142D01*
Y217984D01*
D02*
G37*
G36*
X208276Y195925D02*
X206217D01*
Y194358D01*
X208276D01*
Y195925D01*
D02*
G37*
G36*
X203217D02*
X201157D01*
Y194358D01*
X203217D01*
Y195925D01*
D02*
G37*
G36*
X208276Y191358D02*
X206217D01*
Y189791D01*
X208276D01*
Y191358D01*
D02*
G37*
G36*
X203217D02*
X201157D01*
Y189791D01*
X203217D01*
Y191358D01*
D02*
G37*
G36*
X33773Y187441D02*
X27406D01*
Y181074D01*
X27693Y181193D01*
X29518Y182311D01*
X31145Y183701D01*
X32535Y185329D01*
X33654Y187154D01*
X33773Y187441D01*
D02*
G37*
G36*
X311469Y167273D02*
Y160906D01*
X317836D01*
X317717Y161193D01*
X316598Y163018D01*
X315208Y164645D01*
X313581Y166035D01*
X311756Y167154D01*
X311469Y167273D01*
D02*
G37*
G36*
X299658D02*
X299370Y167154D01*
X297545Y166035D01*
X295918Y164645D01*
X294528Y163018D01*
X293409Y161193D01*
X293290Y160906D01*
X299658D01*
Y167273D01*
D02*
G37*
G36*
X165150Y160721D02*
X162500D01*
Y154921D01*
X165150D01*
Y160721D01*
D02*
G37*
G36*
X159500D02*
X156850D01*
Y154921D01*
X159500D01*
Y160721D01*
D02*
G37*
G36*
X165150Y151921D02*
X162500D01*
Y146122D01*
X165150D01*
Y151921D01*
D02*
G37*
G36*
X159500D02*
X156850D01*
Y146122D01*
X159500D01*
Y151921D01*
D02*
G37*
G36*
X317836Y149094D02*
X311469D01*
Y142727D01*
X311756Y142846D01*
X313581Y143965D01*
X315208Y145355D01*
X316598Y146982D01*
X317717Y148807D01*
X317836Y149094D01*
D02*
G37*
G36*
X299658D02*
X293290D01*
X293409Y148807D01*
X294528Y146982D01*
X295918Y145355D01*
X297545Y143965D01*
X299370Y142846D01*
X299658Y142727D01*
Y149094D01*
D02*
G37*
G36*
X75866Y119799D02*
X73216D01*
Y114000D01*
X75866D01*
Y119799D01*
D02*
G37*
G36*
X70217D02*
X67567D01*
Y114000D01*
X70217D01*
Y119799D01*
D02*
G37*
G36*
X112650Y119378D02*
X110000D01*
Y113579D01*
X112650D01*
Y119378D01*
D02*
G37*
G36*
X107000D02*
X104350D01*
Y113579D01*
X107000D01*
Y119378D01*
D02*
G37*
G36*
X28405Y119119D02*
Y112752D01*
X34773D01*
X34654Y113039D01*
X33535Y114864D01*
X32145Y116492D01*
X30518Y117882D01*
X28693Y119000D01*
X28405Y119119D01*
D02*
G37*
G36*
X192283Y114256D02*
X190717D01*
Y112000D01*
X192283D01*
Y114256D01*
D02*
G37*
G36*
X187716D02*
X186150D01*
Y112000D01*
X187716D01*
Y114256D01*
D02*
G37*
G36*
X311252Y116773D02*
Y110406D01*
X317619D01*
X317500Y110693D01*
X316382Y112518D01*
X314992Y114145D01*
X313364Y115535D01*
X311539Y116654D01*
X311252Y116773D01*
D02*
G37*
G36*
X299441Y116773D02*
X299154Y116654D01*
X297329Y115535D01*
X295701Y114145D01*
X294311Y112518D01*
X293193Y110693D01*
X293074Y110406D01*
X299441D01*
Y116773D01*
D02*
G37*
G36*
X192283Y109000D02*
X190717D01*
Y106744D01*
X192283D01*
Y109000D01*
D02*
G37*
G36*
X187716D02*
X186150D01*
Y106744D01*
X187716D01*
Y109000D01*
D02*
G37*
G36*
X75866Y111000D02*
X73216D01*
Y105201D01*
X75866D01*
Y111000D01*
D02*
G37*
G36*
X70217D02*
X67567D01*
Y105201D01*
X70217D01*
Y111000D01*
D02*
G37*
G36*
X112650Y110579D02*
X110000D01*
Y104780D01*
X112650D01*
Y110579D01*
D02*
G37*
G36*
X107000D02*
X104350D01*
Y104780D01*
X107000D01*
Y110579D01*
D02*
G37*
G36*
X191783Y104256D02*
X190217D01*
Y102000D01*
X191783D01*
Y104256D01*
D02*
G37*
G36*
X187216D02*
X185650D01*
Y102000D01*
X187216D01*
Y104256D01*
D02*
G37*
G36*
X191783Y99000D02*
X190217D01*
Y96744D01*
X191783D01*
Y99000D01*
D02*
G37*
G36*
X187216D02*
X185650D01*
Y96744D01*
X187216D01*
Y99000D01*
D02*
G37*
G36*
X34773Y100941D02*
X28405D01*
Y94574D01*
X28693Y94693D01*
X30518Y95811D01*
X32145Y97201D01*
X33535Y98829D01*
X34654Y100654D01*
X34773Y100941D01*
D02*
G37*
G36*
X317619Y98594D02*
X311252D01*
Y92227D01*
X311539Y92346D01*
X313364Y93465D01*
X314992Y94855D01*
X316382Y96482D01*
X317500Y98307D01*
X317619Y98594D01*
D02*
G37*
G36*
X299441D02*
X293074D01*
X293193Y98307D01*
X294311Y96482D01*
X295701Y94855D01*
X297329Y93465D01*
X299154Y92346D01*
X299441Y92227D01*
Y98594D01*
D02*
G37*
G36*
X252256Y236283D02*
X244744D01*
Y230150D01*
X246461D01*
Y228500D01*
X246616Y227720D01*
X247058Y227058D01*
X247333Y226784D01*
X247276Y226500D01*
X247445Y225649D01*
X247927Y224927D01*
X248649Y224445D01*
X249500Y224276D01*
X249852Y224346D01*
X264807Y209391D01*
X264527Y208715D01*
X264028Y206634D01*
X263860Y204500D01*
X264028Y202366D01*
X264527Y200285D01*
X265346Y198307D01*
X266324Y196711D01*
Y163185D01*
X266181Y163018D01*
X265063Y161193D01*
X264244Y159215D01*
X263744Y157134D01*
X263576Y155000D01*
X263744Y152866D01*
X264244Y150785D01*
X264845Y149334D01*
X229037Y113526D01*
X199567D01*
Y114256D01*
X193433D01*
Y106744D01*
X199567D01*
Y107474D01*
X222332D01*
X222523Y107012D01*
X220045Y104534D01*
X206500D01*
X206500Y104534D01*
X205456Y104397D01*
X204570Y104030D01*
X199067D01*
Y104256D01*
X192933D01*
Y102242D01*
X192590Y101414D01*
X192470Y100500D01*
X192590Y99586D01*
X192933Y98758D01*
Y96744D01*
X196385D01*
X196576Y96282D01*
X183147Y82853D01*
X182506Y82017D01*
X182103Y81044D01*
X181965Y80000D01*
X181965Y80000D01*
Y76497D01*
X181701Y76106D01*
X167299D01*
Y24894D01*
X181701D01*
Y51907D01*
X190062Y54077D01*
X190458Y53771D01*
Y48734D01*
X188356Y46632D01*
X185220Y43496D01*
X184659Y42765D01*
X184307Y41914D01*
X184186Y41000D01*
Y23784D01*
X184307Y22870D01*
X184659Y22018D01*
X185220Y21287D01*
X192154Y14354D01*
Y10654D01*
X200847D01*
Y19346D01*
X197146D01*
X191247Y25246D01*
Y39538D01*
X191907Y40198D01*
X192546Y39558D01*
X193208Y39116D01*
X193988Y38961D01*
X198650D01*
Y37441D01*
X204784D01*
Y44559D01*
X198650D01*
Y43039D01*
X195455D01*
X195248Y43539D01*
X196484Y44775D01*
X197045Y45507D01*
X197398Y46358D01*
X197518Y47272D01*
Y47695D01*
X198018Y48057D01*
X198500Y47961D01*
X198508D01*
Y46244D01*
X204642D01*
Y53756D01*
X198508D01*
Y53529D01*
X198046Y53338D01*
X197518Y53865D01*
Y57234D01*
X198438Y58153D01*
X198659Y58484D01*
X198736Y58874D01*
Y62171D01*
X198659Y62561D01*
X198438Y62892D01*
Y63279D01*
X198659Y63610D01*
X198736Y64000D01*
Y67283D01*
X198659Y67674D01*
X198438Y68004D01*
X198221Y68221D01*
X198115Y68292D01*
X198020Y68377D01*
X197942Y68613D01*
X197936Y68749D01*
X197962Y68928D01*
X198011Y69000D01*
X194717D01*
Y70500D01*
X193217D01*
Y72724D01*
X193043D01*
X192192Y72554D01*
X191471Y72072D01*
X190989Y71351D01*
X190820Y70500D01*
X190924Y69974D01*
X190514Y69528D01*
X189982Y69604D01*
X190034Y70000D01*
Y78329D01*
X208171Y96465D01*
X221716D01*
X221717Y96465D01*
X222761Y96603D01*
X223734Y97006D01*
X224569Y97647D01*
X234319Y107397D01*
X265721Y138798D01*
X266182Y138607D01*
Y112773D01*
X265965Y112518D01*
X264846Y110693D01*
X264027Y108715D01*
X263527Y106634D01*
X263359Y104500D01*
X263527Y102366D01*
X264027Y100285D01*
X264846Y98307D01*
X265965Y96482D01*
X267355Y94855D01*
X268982Y93465D01*
X270807Y92346D01*
X272785Y91527D01*
X274866Y91027D01*
X277000Y90860D01*
X279134Y91027D01*
X281215Y91527D01*
X283193Y92346D01*
X285018Y93465D01*
X286645Y94855D01*
X288035Y96482D01*
X289154Y98307D01*
X289973Y100285D01*
X290473Y102366D01*
X290640Y104500D01*
X290473Y106634D01*
X289973Y108715D01*
X289154Y110693D01*
X288251Y112167D01*
Y146981D01*
X288252Y146982D01*
X289370Y148807D01*
X290189Y150785D01*
X290689Y152866D01*
X290857Y155000D01*
X290689Y157134D01*
X290189Y159215D01*
X289370Y161193D01*
X288392Y162789D01*
Y196315D01*
X288535Y196482D01*
X289654Y198307D01*
X290473Y200285D01*
X290972Y202366D01*
X291141Y204500D01*
X290972Y206634D01*
X290473Y208715D01*
X289654Y210693D01*
X288535Y212518D01*
X287145Y214145D01*
X285518Y215535D01*
X283693Y216654D01*
X281715Y217473D01*
X279634Y217972D01*
X277500Y218141D01*
X275366Y217972D01*
X273285Y217473D01*
X271307Y216654D01*
X269482Y215535D01*
X267855Y214145D01*
X267157Y213328D01*
X266657Y213309D01*
X252024Y227942D01*
X251576Y228242D01*
X251442Y228442D01*
X250539Y229345D01*
Y230150D01*
X252256D01*
Y236283D01*
D02*
G37*
G36*
X231776Y87209D02*
X229716D01*
Y85642D01*
X231776D01*
Y87209D01*
D02*
G37*
G36*
X226716D02*
X224658D01*
Y85642D01*
X226716D01*
Y87209D01*
D02*
G37*
G36*
X231776Y82642D02*
X229716D01*
Y81075D01*
X231776D01*
Y82642D01*
D02*
G37*
G36*
X226716D02*
X224658D01*
Y81075D01*
X226716D01*
Y82642D01*
D02*
G37*
G36*
X196390Y77724D02*
X193043D01*
X192192Y77555D01*
X191471Y77073D01*
X190989Y76351D01*
X190820Y75500D01*
X190989Y74649D01*
X191471Y73927D01*
X192192Y73445D01*
X193043Y73276D01*
X196390D01*
X197241Y73445D01*
X197962Y73927D01*
X198444Y74649D01*
X198614Y75500D01*
X198444Y76351D01*
X197962Y77073D01*
X197241Y77555D01*
X196390Y77724D01*
D02*
G37*
G36*
Y72724D02*
X196216D01*
Y72000D01*
X198011D01*
X197962Y72072D01*
X197241Y72554D01*
X196390Y72724D01*
D02*
G37*
G36*
X211366Y74906D02*
X206945D01*
Y69500D01*
X211366D01*
Y74906D01*
D02*
G37*
G36*
X203945D02*
X199524D01*
Y69500D01*
X203945D01*
Y74906D01*
D02*
G37*
G36*
X231776Y79925D02*
X224658D01*
Y73791D01*
X226177D01*
Y71061D01*
X223761Y68645D01*
X223299Y68836D01*
Y72240D01*
X223144Y73020D01*
X222702Y73682D01*
X219636Y76748D01*
X219419Y77073D01*
X218698Y77555D01*
X218605Y77573D01*
X218564Y77601D01*
X217783Y77756D01*
X217623Y77724D01*
X214500D01*
X213649Y77555D01*
X212928Y77073D01*
X212445Y76351D01*
X212276Y75500D01*
X212445Y74649D01*
X212928Y73927D01*
X213649Y73445D01*
X214500Y73276D01*
X216873D01*
X216908Y73224D01*
X216640Y72724D01*
X214500D01*
X213649Y72554D01*
X212928Y72072D01*
X212445Y71351D01*
X212276Y70500D01*
X212445Y69649D01*
X212928Y68928D01*
X213649Y68445D01*
X214500Y68276D01*
X217846D01*
X218698Y68445D01*
X218780Y68500D01*
X219221Y68265D01*
Y67735D01*
X218780Y67500D01*
X218698Y67554D01*
X217846Y67724D01*
X214500D01*
X213649Y67554D01*
X212928Y67072D01*
X212445Y66351D01*
X212276Y65500D01*
X212445Y64649D01*
X212928Y63928D01*
X213649Y63446D01*
X214500Y63276D01*
X217846D01*
X218698Y63446D01*
X218780Y63500D01*
X218931Y63420D01*
X219232Y63201D01*
X219247Y63128D01*
X219221Y62996D01*
Y62735D01*
X218780Y62500D01*
X218698Y62555D01*
X217846Y62724D01*
X215605D01*
X215445Y62756D01*
X215285Y62724D01*
X214500D01*
X213649Y62555D01*
X212928Y62072D01*
X212445Y61351D01*
X212276Y60500D01*
X212445Y59649D01*
X212928Y58928D01*
X213406Y58608D01*
Y53290D01*
X212425Y52309D01*
X211925Y52516D01*
Y53756D01*
X205791D01*
Y46244D01*
X211925D01*
Y47961D01*
X213000D01*
X213780Y48116D01*
X214442Y48558D01*
X216887Y51003D01*
X217329Y51665D01*
X217484Y52445D01*
X217484Y52445D01*
Y58276D01*
X217846D01*
X218698Y58446D01*
X218780Y58500D01*
X219221Y58265D01*
Y49104D01*
X213155Y43039D01*
X212067D01*
Y44559D01*
X205933D01*
Y37441D01*
X212067D01*
Y38961D01*
X214000D01*
X214780Y39116D01*
X215442Y39558D01*
X222702Y46818D01*
X223144Y47480D01*
X223299Y48260D01*
Y62415D01*
X229658Y68775D01*
X229659Y68775D01*
X230100Y69436D01*
X230256Y70217D01*
X230256Y70217D01*
Y73791D01*
X231776D01*
Y79925D01*
D02*
G37*
G36*
X211366Y66500D02*
X206945D01*
Y61094D01*
X211366D01*
Y66500D01*
D02*
G37*
G36*
X203945D02*
X199524D01*
Y61094D01*
X203945D01*
Y66500D01*
D02*
G37*
G36*
X75866Y99721D02*
X67567D01*
Y85122D01*
X67682D01*
Y80783D01*
X67682Y80783D01*
X67819Y79739D01*
X68222Y78766D01*
X68864Y77931D01*
X75041Y71754D01*
X75041Y71754D01*
X75876Y71112D01*
X76850Y70709D01*
X77894Y70572D01*
X108722D01*
X113067Y66227D01*
Y40534D01*
X104630D01*
Y42205D01*
X97118D01*
Y40534D01*
X86520D01*
Y42224D01*
X79008D01*
Y37885D01*
X78867Y37544D01*
X78729Y36500D01*
X78867Y35456D01*
X79008Y35115D01*
Y30776D01*
X86520D01*
Y32465D01*
X97118D01*
Y30756D01*
X104630D01*
Y32465D01*
X113067D01*
Y24894D01*
X127469D01*
Y76106D01*
X114715D01*
X114571Y76135D01*
X113247Y77459D01*
X112534Y78005D01*
Y84701D01*
X112650D01*
Y99299D01*
X104350D01*
Y84701D01*
X104465D01*
Y78641D01*
X79565D01*
X75751Y82455D01*
Y85122D01*
X75866D01*
Y99721D01*
D02*
G37*
G36*
X218000Y19083D02*
Y16500D01*
X220583D01*
X220297Y17192D01*
X219600Y18100D01*
X218692Y18797D01*
X218000Y19083D01*
D02*
G37*
G36*
X215000D02*
X214308Y18797D01*
X213400Y18100D01*
X212703Y17192D01*
X212417Y16500D01*
X215000D01*
Y19083D01*
D02*
G37*
G36*
X220583Y13500D02*
X218000D01*
Y10917D01*
X218692Y11203D01*
X219600Y11900D01*
X220297Y12808D01*
X220583Y13500D01*
D02*
G37*
G36*
X215000D02*
X212417D01*
X212703Y12808D01*
X213400Y11900D01*
X214308Y11203D01*
X215000Y10917D01*
Y13500D01*
D02*
G37*
%LPD*%
G36*
X166000Y222500D02*
X167000Y221500D01*
X161000Y221500D01*
X163500Y225000D01*
X166000Y222500D01*
D02*
G37*
G36*
X162467Y179079D02*
X159967D01*
X156023Y183023D01*
X162467Y184500D01*
X165483Y187517D01*
X162467Y179079D01*
D02*
G37*
G36*
X197500Y67500D02*
X197716Y67283D01*
Y64000D01*
X187500D01*
X183500Y68000D01*
Y69500D01*
X197500Y67500D01*
D02*
G37*
G36*
X180000Y63500D02*
X189671Y62171D01*
X197716D01*
Y58874D01*
X195343Y56500D01*
X178000Y52000D01*
X173716Y61500D01*
X173716Y66000D01*
X180000Y63500D01*
D02*
G37*
D12*
X249500Y226500D02*
X250582D01*
X272724Y204358D02*
X277358D01*
X277217Y155000D02*
X277358Y155142D01*
X139677Y206000D02*
X142154Y208476D01*
X107000Y205000D02*
Y206000D01*
Y201276D02*
Y205000D01*
X194579Y65638D02*
X194717Y65500D01*
X22500Y78500D02*
X24693Y76307D01*
X68500Y160000D02*
X69520Y158980D01*
X21500Y165000D02*
X26500Y160000D01*
X69500Y217854D02*
X69520Y217874D01*
X69500Y199764D02*
X70484D01*
X100874Y37465D02*
X101839Y36500D01*
X114567Y74606D02*
X120268Y68906D01*
Y50500D02*
Y68906D01*
Y44634D02*
Y50500D01*
X100874Y36480D02*
Y37465D01*
X100854Y36500D02*
X100874Y36480D01*
X42980D02*
X43000Y36500D01*
X169500Y226500D02*
X169750Y226250D01*
X177466D02*
X177717Y226000D01*
X223244Y217000D02*
X224433Y218189D01*
X108500Y92000D02*
X108716Y91783D01*
X193988Y54500D02*
X194000D01*
X193988Y58035D02*
Y60716D01*
X215445Y75717D02*
X217783D01*
X221260Y62996D02*
Y63260D01*
X171500Y233500D02*
Y234000D01*
X247811Y233217D02*
X248500D01*
X197311Y212102D02*
X197716Y211697D01*
X197311Y215516D02*
X197795Y216000D01*
X194528Y193000D02*
X195217D01*
X231217Y110500D02*
X231467Y110250D01*
X179717Y188000D02*
Y188209D01*
X184724Y193217D02*
X185216D01*
X227075Y75717D02*
X228217Y76858D01*
X185216Y200500D02*
X185709D01*
X197795Y216000D02*
X198976D01*
X224433Y217500D02*
Y218189D01*
D16*
X228217Y76858D02*
D03*
Y84142D02*
D03*
X204716Y200142D02*
D03*
Y192858D02*
D03*
X185216Y200500D02*
D03*
Y193217D02*
D03*
D17*
X201716Y41000D02*
D03*
X209000D02*
D03*
X240216Y217500D02*
D03*
X247500D02*
D03*
D18*
X174500Y50500D02*
D03*
X120268D02*
D03*
D19*
X103799Y207000D02*
D03*
X141201D02*
D03*
D20*
X205445Y68000D02*
D03*
D21*
X216173Y60500D02*
D03*
Y65500D02*
D03*
Y70500D02*
D03*
Y75500D02*
D03*
X194717Y60500D02*
D03*
Y65500D02*
D03*
Y70500D02*
D03*
Y75500D02*
D03*
D22*
X177717Y221000D02*
D03*
Y226000D02*
D03*
Y231000D02*
D03*
Y216000D02*
D03*
X198976D02*
D03*
Y231000D02*
D03*
Y226000D02*
D03*
Y221000D02*
D03*
D23*
X188445Y223697D02*
D03*
D24*
X71716Y112500D02*
D03*
Y92421D02*
D03*
X108500Y112079D02*
D03*
Y92000D02*
D03*
X161000Y153421D02*
D03*
Y173500D02*
D03*
D25*
X196500Y110500D02*
D03*
X189216D02*
D03*
X196000Y100500D02*
D03*
X188716D02*
D03*
X208858Y50000D02*
D03*
X201575D02*
D03*
X224433Y217500D02*
D03*
X231716D02*
D03*
D26*
X195217Y200284D02*
D03*
Y193000D02*
D03*
X248500Y233217D02*
D03*
Y240500D02*
D03*
X165000Y240283D02*
D03*
Y233000D02*
D03*
D44*
X171500Y234000D02*
Y237000D01*
X165000Y240283D02*
X165925Y239359D01*
X169141D02*
X171500Y237000D01*
X165925Y239359D02*
X169141D01*
X248500Y228500D02*
X250000Y227000D01*
X250582Y226500D02*
X272724Y204358D01*
X107000Y205000D02*
X107500D01*
X106000D02*
X107000D01*
X107500D02*
X128717Y183783D01*
X161216D01*
Y179079D02*
Y183783D01*
X161125Y184250D02*
X164875Y188000D01*
X159500Y221217D02*
X165000Y226716D01*
X159500Y221000D02*
Y221217D01*
X159716Y221000D01*
X139216Y241500D02*
X159500Y221217D01*
X169750Y226250D02*
X177466D01*
X76000Y241500D02*
X139216D01*
X248500Y228500D02*
Y233217D01*
X165000Y226716D02*
Y233000D01*
X220110Y217000D02*
X223244D01*
X218000D02*
X220110D01*
X214000Y221000D02*
X218000Y217000D01*
X198976Y221000D02*
X214000D01*
X194000Y54500D02*
X198500Y50000D01*
X201575D01*
X215445Y52445D02*
Y60716D01*
X213000Y50000D02*
X215445Y52445D01*
X208858Y50000D02*
X213000D01*
X221260Y48260D02*
Y62996D01*
X214000Y41000D02*
X221260Y48260D01*
X209000Y41000D02*
X214000D01*
X221260Y63260D02*
Y72240D01*
Y63260D02*
X228217Y70217D01*
Y76858D01*
X217783Y75717D02*
X221260Y72240D01*
X174000Y231000D02*
X177717D01*
X171500Y233500D02*
X174000Y231000D01*
X164875Y188000D02*
X179717D01*
X197311Y212102D02*
Y215516D01*
X179717Y188000D02*
X189528D01*
X194528Y193000D01*
X190852Y44136D02*
X193988Y41000D01*
X201716D01*
X179717Y188209D02*
X184724Y193217D01*
X197716Y211697D02*
X204716Y204697D01*
Y200142D02*
Y204697D01*
X197716Y207500D02*
Y211697D01*
X195217Y205000D02*
X197716Y207500D01*
X195217Y200284D02*
Y205000D01*
X185709Y200500D02*
X197311Y212102D01*
X231716Y217500D02*
X240216D01*
X159716Y221000D02*
X177717D01*
D45*
X231467Y110250D02*
X276717Y155500D01*
X186000Y70000D02*
Y80000D01*
X206500Y100500D01*
X221717D01*
X231467Y110250D01*
X24693Y36480D02*
Y76307D01*
X108500Y75500D02*
Y90500D01*
X77894Y74606D02*
X110394D01*
X118000Y67000D01*
X71716Y80783D02*
Y85583D01*
Y80783D02*
X77894Y74606D01*
X101839Y36500D02*
X119000D01*
X82764D02*
X100854D01*
X24693Y36480D02*
X42980D01*
D46*
X277000Y104500D02*
X277217Y104717D01*
X277358Y155142D02*
Y204358D01*
X277217Y104717D02*
Y155000D01*
D47*
X145500Y208500D02*
X147216D01*
X159716Y221000D01*
D48*
X76720Y206000D02*
X107000D01*
X69500Y199764D02*
Y217854D01*
X70484Y199764D02*
X76720Y206000D01*
D49*
X196000Y100500D02*
X206500D01*
X187716Y23784D02*
Y41000D01*
Y23784D02*
X196500Y15000D01*
X193988Y54500D02*
Y58035D01*
Y47272D02*
Y54500D01*
X190852Y44136D02*
X193988Y47272D01*
X187716Y41000D02*
X190852Y44136D01*
D50*
X26500Y160000D02*
X68500D01*
X69520Y141693D02*
Y158980D01*
X108500Y75500D02*
X109394Y74606D01*
X196500Y110500D02*
X231217D01*
D51*
X277000Y104500D02*
D03*
X305346D02*
D03*
X277500Y204500D02*
D03*
Y232846D02*
D03*
X22500Y78500D02*
D03*
Y106846D02*
D03*
X21500Y165000D02*
D03*
Y193347D02*
D03*
X277217Y155000D02*
D03*
X305563D02*
D03*
D52*
X69500Y199764D02*
D03*
X69520Y217874D02*
D03*
X69500Y160000D02*
D03*
X69520Y141693D02*
D03*
D53*
X82764Y36500D02*
D03*
X100874Y36480D02*
D03*
X43000Y36500D02*
D03*
X24693Y36480D02*
D03*
D54*
X196500Y15000D02*
D03*
X76000Y241500D02*
D03*
D55*
X216500Y15000D02*
D03*
X56000Y241500D02*
D03*
D56*
X323000Y242500D02*
D03*
X322000Y12500D02*
D03*
X14000D02*
D03*
X16000Y245500D02*
D03*
D57*
X182000Y212000D02*
D03*
X188000D02*
D03*
X214000Y82000D02*
D03*
X206000D02*
D03*
X198000D02*
D03*
X210000Y78000D02*
D03*
X202000D02*
D03*
X210000Y58000D02*
D03*
X202000D02*
D03*
X192500Y217000D02*
D03*
X184500Y217500D02*
D03*
X192000Y229500D02*
D03*
X185000D02*
D03*
X169500Y226500D02*
D03*
X249500D02*
D03*
M02*
