G04*
G04 #@! TF.GenerationSoftware,Altium Limited,Altium Designer,19.1.8 (144)*
G04*
G04 Layer_Color=16711935*
%FSLAX25Y25*%
%MOIN*%
G70*
G01*
G75*
%ADD12C,0.01000*%
%ADD14C,0.00394*%
D12*
X1000Y1000D02*
X342500D01*
X342500Y255000D02*
X342500Y1000D01*
X1000Y255000D02*
X342500D01*
X1000D02*
X1000Y1000D01*
D14*
X211744Y61701D02*
G03*
X211744Y61701I-1969J0D01*
G01*
X197571Y77842D02*
X213319D01*
X197571Y58157D02*
X213319D01*
X197571D02*
Y77842D01*
X213319Y58157D02*
Y77842D01*
X196221Y213461D02*
Y233539D01*
X180472D02*
X196221D01*
X180472Y213461D02*
Y233539D01*
Y213461D02*
X196221D01*
X192736Y200874D02*
X197697D01*
X192736Y192409D02*
X197697D01*
Y200874D01*
X192736Y192409D02*
Y200874D01*
X182736Y192626D02*
X187697D01*
X182736Y201091D02*
X187697D01*
X182736Y192626D02*
Y201091D01*
X187697Y192626D02*
Y201091D01*
X202236Y192268D02*
X207197D01*
X202236Y200732D02*
X207197D01*
X202236Y192268D02*
Y200732D01*
X207197Y192268D02*
Y200732D01*
X248091Y215020D02*
Y219980D01*
X239626Y215020D02*
Y219980D01*
Y215020D02*
X248091D01*
X239626Y219980D02*
X248091D01*
X223843Y215020D02*
Y219980D01*
X232307Y215020D02*
Y219980D01*
X223843D02*
X232307D01*
X223843Y215020D02*
X232307D01*
X246020Y232626D02*
X250980D01*
X246020Y241091D02*
X250980D01*
X246020Y232626D02*
Y241091D01*
X250980Y232626D02*
Y241091D01*
X162520Y240874D02*
X167480D01*
X162520Y232409D02*
X167480D01*
Y240874D01*
X162520Y232409D02*
Y240874D01*
X197091Y108020D02*
Y112980D01*
X188626Y108020D02*
Y112980D01*
Y108020D02*
X197091D01*
X188626Y112980D02*
X197091D01*
X196591Y98020D02*
Y102980D01*
X188126Y98020D02*
Y102980D01*
Y98020D02*
X196591D01*
X188126Y102980D02*
X196591D01*
X225736Y84732D02*
X230697D01*
X225736Y76268D02*
X230697D01*
Y84732D01*
X225736Y76268D02*
Y84732D01*
X209449Y47520D02*
Y52480D01*
X200984Y47520D02*
Y52480D01*
Y47520D02*
X209449D01*
X200984Y52480D02*
X209449D01*
X209591Y38520D02*
Y43480D01*
X201126Y38520D02*
Y43480D01*
Y38520D02*
X209591D01*
X201126Y43480D02*
X209591D01*
M02*
