%TF.GenerationSoftware,Altium Limited,Altium Designer,19.1.8 (144)*%
G04 Layer_Physical_Order=2*
G04 Layer_Color=16711680*
%FSLAX26Y26*%
%MOIN*%
%TF.FileFunction,Copper,L2,Bot,Signal*%
%TF.Part,Single*%
G01*
G75*
%TA.AperFunction,Conductor*%
%ADD21C,0.020000*%
%ADD24C,0.010000*%
%TA.AperFunction,ComponentPad*%
%ADD29R,0.059055X0.039370*%
%ADD30R,0.039370X0.059055*%
%ADD31C,0.236220*%
%TA.AperFunction,ViaPad*%
%ADD32C,0.060000*%
%TA.AperFunction,ComponentPad*%
%ADD33R,0.066929X0.066929*%
%ADD34C,0.066929*%
%TA.AperFunction,ViaPad*%
%ADD35C,0.050000*%
G36*
X3200000Y2320000D02*
X3400000D01*
Y260000D01*
X3180000D01*
Y20000D01*
X240000D01*
Y220000D01*
X20000D01*
Y2360000D01*
X260000D01*
Y2540000D01*
X3200000D01*
Y2320000D01*
D02*
G37*
%LPC*%
G36*
X575000Y2455832D02*
Y2430000D01*
X600832D01*
X597966Y2436920D01*
X590999Y2445999D01*
X581920Y2452966D01*
X575000Y2455832D01*
D02*
G37*
G36*
X545000D02*
X538080Y2452966D01*
X529001Y2445999D01*
X522034Y2436920D01*
X519168Y2430000D01*
X545000D01*
Y2455832D01*
D02*
G37*
G36*
X600832Y2400000D02*
X575000D01*
Y2374168D01*
X581920Y2377034D01*
X590999Y2384001D01*
X597966Y2393080D01*
X600832Y2400000D01*
D02*
G37*
G36*
X545000D02*
X519168D01*
X522034Y2393080D01*
X529001Y2384001D01*
X538080Y2377034D01*
X545000Y2374168D01*
Y2400000D01*
D02*
G37*
G36*
X803465Y2458465D02*
X716535D01*
Y2371535D01*
X803465D01*
Y2458465D01*
D02*
G37*
G36*
X1935000Y2326671D02*
Y2310000D01*
X1951670D01*
X1950572Y2312651D01*
X1944962Y2319962D01*
X1937651Y2325572D01*
X1935000Y2326671D01*
D02*
G37*
G36*
X1835000D02*
X1832349Y2325572D01*
X1825038Y2319962D01*
X1819428Y2312651D01*
X1818330Y2310000D01*
X1835000D01*
Y2326671D01*
D02*
G37*
G36*
X1905000D02*
X1902349Y2325572D01*
X1895038Y2319962D01*
X1889428Y2312651D01*
X1887706Y2308495D01*
X1882294D01*
X1880572Y2312651D01*
X1874962Y2319962D01*
X1867651Y2325572D01*
X1865000Y2326671D01*
Y2295000D01*
Y2263329D01*
X1867651Y2264428D01*
X1874962Y2270038D01*
X1880572Y2277349D01*
X1882294Y2281505D01*
X1887706D01*
X1889428Y2277349D01*
X1895038Y2270038D01*
X1902349Y2264428D01*
X1905000Y2263329D01*
Y2295000D01*
Y2326671D01*
D02*
G37*
G36*
X1951670Y2280000D02*
X1935000D01*
Y2263329D01*
X1937651Y2264428D01*
X1944962Y2270038D01*
X1950572Y2277349D01*
X1951670Y2280000D01*
D02*
G37*
G36*
X1835000D02*
X1818330D01*
X1819428Y2277349D01*
X1825038Y2270038D01*
X1832349Y2264428D01*
X1835000Y2263329D01*
Y2280000D01*
D02*
G37*
G36*
X1810000Y2410392D02*
X1802196Y2408840D01*
X1795581Y2404419D01*
X1690927Y2299766D01*
X1685863Y2299099D01*
X1677349Y2295572D01*
X1670038Y2289962D01*
X1664428Y2282651D01*
X1660901Y2274137D01*
X1659698Y2265000D01*
X1660901Y2255863D01*
X1664428Y2247349D01*
X1670038Y2240038D01*
X1677349Y2234428D01*
X1685863Y2230901D01*
X1695000Y2229698D01*
X1704137Y2230901D01*
X1712651Y2234428D01*
X1719962Y2240038D01*
X1725572Y2247349D01*
X1729099Y2255863D01*
X1730302Y2265000D01*
X1729099Y2274137D01*
X1727305Y2278467D01*
X1818447Y2369608D01*
X2361553D01*
X2460450Y2270712D01*
X2459698Y2265000D01*
X2460901Y2255863D01*
X2464428Y2247349D01*
X2470038Y2240038D01*
X2477349Y2234428D01*
X2485863Y2230901D01*
X2495000Y2229698D01*
X2504137Y2230901D01*
X2512651Y2234428D01*
X2519962Y2240038D01*
X2525572Y2247349D01*
X2529099Y2255863D01*
X2530302Y2265000D01*
X2529099Y2274137D01*
X2525572Y2282651D01*
X2519962Y2289962D01*
X2512651Y2295572D01*
X2504137Y2299099D01*
X2495000Y2300302D01*
X2489288Y2299550D01*
X2384419Y2404419D01*
X2377804Y2408840D01*
X2370000Y2410392D01*
X1810001D01*
X1810000Y2410392D01*
D02*
G37*
G36*
X1860000Y2206671D02*
Y2190000D01*
X1876670D01*
X1875572Y2192651D01*
X1869962Y2199962D01*
X1862651Y2205572D01*
X1860000Y2206671D01*
D02*
G37*
G36*
X1830000D02*
X1827349Y2205572D01*
X1820038Y2199962D01*
X1814428Y2192651D01*
X1813330Y2190000D01*
X1830000D01*
Y2206671D01*
D02*
G37*
G36*
X1940000Y2201671D02*
Y2185000D01*
X1956670D01*
X1955572Y2187651D01*
X1949962Y2194962D01*
X1942651Y2200572D01*
X1940000Y2201671D01*
D02*
G37*
G36*
X1910000D02*
X1907349Y2200572D01*
X1900038Y2194962D01*
X1894428Y2187651D01*
X1893330Y2185000D01*
X1910000D01*
Y2201671D01*
D02*
G37*
G36*
X734724Y2208425D02*
X655669D01*
Y2149055D01*
X734724D01*
Y2208425D01*
D02*
G37*
G36*
X1876670Y2160000D02*
X1860000D01*
Y2143329D01*
X1862651Y2144428D01*
X1869962Y2150038D01*
X1875572Y2157349D01*
X1876670Y2160000D01*
D02*
G37*
G36*
X1830000D02*
X1813330D01*
X1814428Y2157349D01*
X1820038Y2150038D01*
X1827349Y2144428D01*
X1830000Y2143329D01*
Y2160000D01*
D02*
G37*
G36*
X1956670Y2155000D02*
X1940000D01*
Y2138329D01*
X1942651Y2139428D01*
X1949962Y2145038D01*
X1955572Y2152349D01*
X1956670Y2155000D01*
D02*
G37*
G36*
X1910000D02*
X1893330D01*
X1894428Y2152349D01*
X1900038Y2145038D01*
X1907349Y2139428D01*
X1910000Y2138329D01*
Y2155000D01*
D02*
G37*
G36*
X734528Y2027323D02*
X655472D01*
Y1967953D01*
X734528D01*
Y2027323D01*
D02*
G37*
G36*
X230000Y2060790D02*
Y1948465D01*
X342326D01*
X341924Y1953567D01*
X337217Y1973175D01*
X329500Y1991805D01*
X318964Y2008999D01*
X305868Y2024332D01*
X290534Y2037428D01*
X273341Y2047965D01*
X254711Y2055681D01*
X235103Y2060389D01*
X230000Y2060790D01*
D02*
G37*
G36*
X200000D02*
X194897Y2060389D01*
X175289Y2055681D01*
X156659Y2047965D01*
X139466Y2037428D01*
X124132Y2024332D01*
X111036Y2008999D01*
X100500Y1991805D01*
X92783Y1973175D01*
X88076Y1953567D01*
X87674Y1948465D01*
X200000D01*
Y2060790D01*
D02*
G37*
G36*
X342326Y1918465D02*
X230000D01*
Y1806139D01*
X235103Y1806540D01*
X254711Y1811248D01*
X273341Y1818965D01*
X290534Y1829501D01*
X305868Y1842597D01*
X318964Y1857930D01*
X329500Y1875124D01*
X337217Y1893754D01*
X341924Y1913362D01*
X342326Y1918465D01*
D02*
G37*
G36*
X200000D02*
X87674D01*
X88076Y1913362D01*
X92783Y1893754D01*
X100500Y1875124D01*
X111036Y1857930D01*
X124132Y1842597D01*
X139466Y1829501D01*
X156659Y1818965D01*
X175289Y1811248D01*
X194897Y1806540D01*
X200000Y1806139D01*
Y1918465D01*
D02*
G37*
G36*
X734528Y1629685D02*
X655472D01*
Y1570315D01*
X734528D01*
Y1629685D01*
D02*
G37*
G36*
X3070630Y1677326D02*
Y1565000D01*
X3182956D01*
X3182554Y1570103D01*
X3177847Y1589711D01*
X3170130Y1608341D01*
X3159594Y1625534D01*
X3146498Y1640868D01*
X3131164Y1653964D01*
X3113971Y1664500D01*
X3095341Y1672217D01*
X3075733Y1676924D01*
X3070630Y1677326D01*
D02*
G37*
G36*
X3040630D02*
X3035527Y1676924D01*
X3015919Y1672217D01*
X2997289Y1664500D01*
X2980096Y1653964D01*
X2964762Y1640868D01*
X2951666Y1625534D01*
X2941130Y1608341D01*
X2933413Y1589711D01*
X2928706Y1570103D01*
X2928304Y1565000D01*
X3040630D01*
Y1677326D01*
D02*
G37*
G36*
X215000Y1778506D02*
X194897Y1776924D01*
X175289Y1772217D01*
X156659Y1764500D01*
X139466Y1753964D01*
X124132Y1740868D01*
X111036Y1725534D01*
X100500Y1708341D01*
X92783Y1689711D01*
X88076Y1670103D01*
X86494Y1650000D01*
X88076Y1629897D01*
X92783Y1610289D01*
X100500Y1591659D01*
X111036Y1574466D01*
X124132Y1559132D01*
X139466Y1546036D01*
X156659Y1535500D01*
X175289Y1527783D01*
X194897Y1523076D01*
X215000Y1521494D01*
X235103Y1523076D01*
X254711Y1527783D01*
X273341Y1535500D01*
X290534Y1546036D01*
X305868Y1559132D01*
X318964Y1574466D01*
X329500Y1591659D01*
X337217Y1610289D01*
X341924Y1629897D01*
X343506Y1650000D01*
X341924Y1670103D01*
X337217Y1689711D01*
X329500Y1708341D01*
X318964Y1725534D01*
X305868Y1740868D01*
X290534Y1753964D01*
X273341Y1764500D01*
X254711Y1772217D01*
X235103Y1776924D01*
X215000Y1778506D01*
D02*
G37*
G36*
X3182956Y1535000D02*
X3070630D01*
Y1422674D01*
X3075733Y1423076D01*
X3095341Y1427783D01*
X3113971Y1435500D01*
X3131164Y1446036D01*
X3146498Y1459132D01*
X3159594Y1474466D01*
X3170130Y1491659D01*
X3177847Y1510289D01*
X3182554Y1529897D01*
X3182956Y1535000D01*
D02*
G37*
G36*
X3040630D02*
X2928304D01*
X2928706Y1529897D01*
X2933413Y1510289D01*
X2941130Y1491659D01*
X2951666Y1474466D01*
X2964762Y1459132D01*
X2980096Y1446036D01*
X2997289Y1435500D01*
X3015919Y1427783D01*
X3035527Y1423076D01*
X3040630Y1422674D01*
Y1535000D01*
D02*
G37*
G36*
X2772165Y1678506D02*
X2752063Y1676924D01*
X2732455Y1672217D01*
X2713825Y1664500D01*
X2696631Y1653964D01*
X2681298Y1640868D01*
X2668202Y1625534D01*
X2657665Y1608341D01*
X2649949Y1589711D01*
X2645241Y1570103D01*
X2643659Y1550000D01*
X2645241Y1529897D01*
X2649949Y1510289D01*
X2657665Y1491659D01*
X2668202Y1474466D01*
X2681298Y1459132D01*
X2696631Y1446036D01*
X2713825Y1435500D01*
X2732455Y1427783D01*
X2752063Y1423076D01*
X2772165Y1421494D01*
X2792268Y1423076D01*
X2811876Y1427783D01*
X2830506Y1435500D01*
X2847700Y1446036D01*
X2863033Y1459132D01*
X2876129Y1474466D01*
X2886665Y1491659D01*
X2894382Y1510289D01*
X2899090Y1529897D01*
X2900672Y1550000D01*
X2899090Y1570103D01*
X2894382Y1589711D01*
X2886665Y1608341D01*
X2876129Y1625534D01*
X2863033Y1640868D01*
X2847700Y1653964D01*
X2830506Y1664500D01*
X2811876Y1672217D01*
X2792268Y1676924D01*
X2772165Y1678506D01*
D02*
G37*
G36*
X734724Y1446614D02*
X655669D01*
Y1387244D01*
X734724D01*
Y1446614D01*
D02*
G37*
G36*
X240000Y1195790D02*
Y1083465D01*
X352326D01*
X351924Y1088567D01*
X347217Y1108175D01*
X339500Y1126805D01*
X328964Y1143999D01*
X315868Y1159332D01*
X300534Y1172428D01*
X283341Y1182965D01*
X264711Y1190681D01*
X245103Y1195389D01*
X240000Y1195790D01*
D02*
G37*
G36*
X210000D02*
X204897Y1195389D01*
X185289Y1190681D01*
X166659Y1182965D01*
X149466Y1172428D01*
X134132Y1159332D01*
X121036Y1143999D01*
X110500Y1126805D01*
X102783Y1108175D01*
X98076Y1088567D01*
X97674Y1083465D01*
X210000D01*
Y1195790D01*
D02*
G37*
G36*
X352326Y1053465D02*
X240000D01*
Y941139D01*
X245103Y941540D01*
X264711Y946248D01*
X283341Y953965D01*
X300534Y964501D01*
X315868Y977597D01*
X328964Y992931D01*
X339500Y1010124D01*
X347217Y1028754D01*
X351924Y1048362D01*
X352326Y1053465D01*
D02*
G37*
G36*
X210000D02*
X97674D01*
X98076Y1048362D01*
X102783Y1028754D01*
X110500Y1010124D01*
X121036Y992931D01*
X134132Y977597D01*
X149466Y964501D01*
X166659Y953965D01*
X185289Y946248D01*
X204897Y941540D01*
X210000Y941139D01*
Y1053465D01*
D02*
G37*
G36*
X225000Y913506D02*
X204897Y911924D01*
X185289Y907217D01*
X166659Y899500D01*
X149466Y888964D01*
X134132Y875868D01*
X121036Y860534D01*
X110500Y843341D01*
X102783Y824711D01*
X98076Y805103D01*
X96494Y785000D01*
X98076Y764897D01*
X102783Y745289D01*
X110500Y726659D01*
X121036Y709466D01*
X134132Y694132D01*
X149466Y681036D01*
X166659Y670500D01*
X185289Y662783D01*
X204897Y658076D01*
X225000Y656494D01*
X245103Y658076D01*
X264711Y662783D01*
X283341Y670500D01*
X300534Y681036D01*
X315868Y694132D01*
X328964Y709466D01*
X339500Y726659D01*
X347217Y745289D01*
X351924Y764897D01*
X353506Y785000D01*
X351924Y805103D01*
X347217Y824711D01*
X339500Y843341D01*
X328964Y860534D01*
X315868Y875868D01*
X300534Y888964D01*
X283341Y899500D01*
X264711Y907217D01*
X245103Y911924D01*
X225000Y913506D01*
D02*
G37*
G36*
X857323Y404527D02*
X797953D01*
Y325473D01*
X857323D01*
Y404527D01*
D02*
G37*
G36*
X459685D02*
X400315D01*
Y325473D01*
X459685D01*
Y404527D01*
D02*
G37*
G36*
X1038425Y404331D02*
X979055D01*
Y325276D01*
X1038425D01*
Y404331D01*
D02*
G37*
G36*
X276614D02*
X217244D01*
Y325276D01*
X276614D01*
Y404331D01*
D02*
G37*
G36*
X2180000Y190833D02*
Y165000D01*
X2205832D01*
X2202966Y171920D01*
X2195999Y180999D01*
X2186920Y187966D01*
X2180000Y190833D01*
D02*
G37*
G36*
X2150000D02*
X2143080Y187966D01*
X2134001Y180999D01*
X2127034Y171920D01*
X2124168Y165000D01*
X2150000D01*
Y190833D01*
D02*
G37*
G36*
X2205832Y135000D02*
X2180000D01*
Y109168D01*
X2186920Y112034D01*
X2195999Y119001D01*
X2202966Y128080D01*
X2205832Y135000D01*
D02*
G37*
G36*
X2150000D02*
X2124168D01*
X2127034Y128080D01*
X2134001Y119001D01*
X2143080Y112034D01*
X2150000Y109168D01*
Y135000D01*
D02*
G37*
G36*
X2008465Y193464D02*
X1921535D01*
Y106535D01*
X2008465D01*
Y193464D01*
D02*
G37*
%LPD*%
D21*
X2370000Y2390000D02*
X2495000Y2265000D01*
X1810000Y2390000D02*
X2370000D01*
X1695000Y2275000D02*
X1810000Y2390000D01*
D24*
X1695000Y2265000D02*
Y2275000D01*
D29*
X695000Y1997638D02*
D03*
X695197Y2178740D02*
D03*
X695000Y1600000D02*
D03*
X695197Y1416929D02*
D03*
D30*
X827638Y365000D02*
D03*
X1008740Y364803D02*
D03*
X430000Y365000D02*
D03*
X246929Y364803D02*
D03*
D31*
X225000Y1068465D02*
D03*
Y785000D02*
D03*
X215000Y1933465D02*
D03*
Y1650000D02*
D03*
X3055630Y1550000D02*
D03*
X2772165D02*
D03*
D32*
X3305000Y2420000D02*
D03*
X3275000Y160000D02*
D03*
X140000Y125000D02*
D03*
X160000Y2455000D02*
D03*
D33*
X1965000Y150000D02*
D03*
X760000Y2415000D02*
D03*
D34*
X2165000Y150000D02*
D03*
X560000Y2415000D02*
D03*
D35*
X1820000Y2120000D02*
D03*
X1880000D02*
D03*
X2140000Y820000D02*
D03*
X2060000D02*
D03*
X1980000D02*
D03*
X2100000Y780000D02*
D03*
X2020000D02*
D03*
X2100000Y580000D02*
D03*
X2020000D02*
D03*
X1925000Y2170000D02*
D03*
X1845000Y2175000D02*
D03*
X1920000Y2295000D02*
D03*
X1850000D02*
D03*
X1695000Y2265000D02*
D03*
X2495000D02*
D03*
%TF.MD5,b9150c5337fab1782ccc7691c8ed2a09*%
M02*
