%TF.GenerationSoftware,Altium Limited,Altium Designer,19.1.8 (144)*%
G04 Layer_Color=8421504*
%FSLAX26Y26*%
%MOIN*%
%TF.FileFunction,Paste,Top*%
%TF.Part,Single*%
G01*
G75*
%TA.AperFunction,SMDPad,CuDef*%
%ADD10O,0.057087X0.023622*%
%ADD11R,0.098425X0.118110*%
%ADD12R,0.043307X0.019685*%
%ADD13R,0.086614X0.122047*%
%ADD14R,0.062992X0.125984*%
%ADD15R,0.124016X0.492126*%
%ADD16R,0.122047X0.216535*%
%ADD17R,0.055118X0.041339*%
%ADD18R,0.051181X0.041339*%
%ADD19R,0.041339X0.051181*%
%ADD20R,0.041339X0.055118*%
D10*
X1947165Y755000D02*
D03*
Y705000D02*
D03*
Y655000D02*
D03*
Y605000D02*
D03*
X2161732Y755000D02*
D03*
Y705000D02*
D03*
Y655000D02*
D03*
Y605000D02*
D03*
D11*
X2054449Y680000D02*
D03*
D12*
X1777165Y2210000D02*
D03*
Y2260000D02*
D03*
Y2310000D02*
D03*
Y2160000D02*
D03*
X1989764D02*
D03*
Y2310000D02*
D03*
Y2260000D02*
D03*
Y2210000D02*
D03*
D13*
X1884724Y2235394D02*
D03*
D14*
X717165Y1125000D02*
D03*
Y924213D02*
D03*
X1085000Y1120787D02*
D03*
Y920000D02*
D03*
X1612165Y1590000D02*
D03*
Y1790787D02*
D03*
D15*
X1202677Y505000D02*
D03*
X1745000D02*
D03*
D16*
X1396772Y2060000D02*
D03*
X1070000D02*
D03*
D17*
X1952165Y2002835D02*
D03*
Y1930000D02*
D03*
X2485000Y2332165D02*
D03*
Y2405000D02*
D03*
X1650000Y2402835D02*
D03*
Y2330000D02*
D03*
D18*
X1852165Y1932165D02*
D03*
Y2005000D02*
D03*
X2047165Y1928583D02*
D03*
Y2001417D02*
D03*
X2282165Y841417D02*
D03*
Y768583D02*
D03*
D19*
X2475000Y2175000D02*
D03*
X2402165D02*
D03*
X2090000Y410000D02*
D03*
X2017165D02*
D03*
D20*
X2244331Y2175000D02*
D03*
X2317165D02*
D03*
X1965000Y1105000D02*
D03*
X1892165D02*
D03*
X1960000Y1005000D02*
D03*
X1887165D02*
D03*
X2088583Y500000D02*
D03*
X2015748D02*
D03*
%TF.MD5,1b38a6ceae111d7cc9222c999d22b0a4*%
M02*
