G04*
G04 #@! TF.GenerationSoftware,Altium Limited,Altium Designer,20.0.12 (288)*
G04*
G04 Layer_Physical_Order=2*
G04 Layer_Color=16711680*
%FSLAX25Y25*%
%MOIN*%
G70*
G01*
G75*
%ADD12C,0.01000*%
%ADD44C,0.02000*%
%ADD51C,0.25197*%
%ADD52R,0.09449X0.05512*%
%ADD53R,0.05512X0.09449*%
%ADD54R,0.06693X0.06693*%
%ADD55C,0.06693*%
%ADD56C,0.06000*%
%ADD57C,0.02362*%
G36*
X327000Y219000D02*
Y27500D01*
X319500D01*
X304500Y12500D01*
Y9000D01*
X31000D01*
X15000Y25000D01*
X12500Y27500D01*
Y68533D01*
X13000Y68731D01*
X14482Y67465D01*
X16307Y66346D01*
X18285Y65527D01*
X20366Y65027D01*
X22500Y64859D01*
X24634Y65027D01*
X26715Y65527D01*
X28693Y66346D01*
X30518Y67465D01*
X32145Y68855D01*
X33535Y70482D01*
X34654Y72307D01*
X35473Y74285D01*
X35972Y76366D01*
X36140Y78500D01*
X35972Y80634D01*
X35473Y82715D01*
X34654Y84693D01*
X33535Y86518D01*
X32145Y88145D01*
X30518Y89535D01*
X28693Y90654D01*
X26715Y91473D01*
X24634Y91973D01*
X22500Y92141D01*
X20366Y91973D01*
X18285Y91473D01*
X16307Y90654D01*
X14482Y89535D01*
X13000Y88269D01*
X12500Y88467D01*
Y96880D01*
X13000Y97077D01*
X14482Y95811D01*
X16307Y94693D01*
X16594Y94574D01*
Y106846D01*
X22500D01*
D01*
X16594D01*
Y119119D01*
X16307Y119000D01*
X14482Y117882D01*
X13000Y116616D01*
X12500Y116813D01*
Y154207D01*
X12954Y154416D01*
X13482Y153965D01*
X15307Y152846D01*
X17285Y152027D01*
X19366Y151528D01*
X21500Y151359D01*
X23634Y151528D01*
X25715Y152027D01*
X27693Y152846D01*
X29518Y153965D01*
X31145Y155355D01*
X32535Y156982D01*
X33654Y158807D01*
X34473Y160785D01*
X34973Y162866D01*
X35140Y165000D01*
X34973Y167134D01*
X34473Y169215D01*
X33654Y171193D01*
X32535Y173018D01*
X31145Y174645D01*
X29518Y176035D01*
X27693Y177154D01*
X25715Y177973D01*
X23634Y178472D01*
X21500Y178640D01*
X19366Y178472D01*
X17285Y177973D01*
X15307Y177154D01*
X13482Y176035D01*
X12954Y175584D01*
X12500Y175794D01*
Y182553D01*
X12954Y182762D01*
X13482Y182311D01*
X15307Y181193D01*
X15595Y181074D01*
Y193347D01*
X21500D01*
D01*
X15595D01*
Y205619D01*
X15307Y205500D01*
X13482Y204382D01*
X12954Y203931D01*
X12500Y204140D01*
Y229500D01*
X10305Y231695D01*
X10389Y232188D01*
X39000Y246000D01*
X54200D01*
X54299Y245500D01*
X53808Y245297D01*
X52900Y244600D01*
X52203Y243692D01*
X51917Y243000D01*
X56000D01*
X60083D01*
X59797Y243692D01*
X59100Y244600D01*
X58192Y245297D01*
X57701Y245500D01*
X57800Y246000D01*
X71217D01*
X71653Y245846D01*
X71653Y245500D01*
Y237154D01*
X80347D01*
Y245500D01*
X80347Y245846D01*
X80783Y246000D01*
X272414D01*
X272514Y245500D01*
X271307Y245000D01*
X269482Y243882D01*
X267855Y242492D01*
X266465Y240864D01*
X265346Y239039D01*
X265227Y238752D01*
X277500D01*
X289773D01*
X289654Y239039D01*
X288535Y240864D01*
X287145Y242492D01*
X285518Y243882D01*
X283693Y245000D01*
X282486Y245500D01*
X282586Y246000D01*
X297000D01*
X298500Y247500D01*
X327000Y219000D01*
D02*
G37*
%LPC*%
G36*
X60083Y240000D02*
X57500D01*
Y237417D01*
X58192Y237703D01*
X59100Y238400D01*
X59797Y239308D01*
X60083Y240000D01*
D02*
G37*
G36*
X54500D02*
X51917D01*
X52203Y239308D01*
X52900Y238400D01*
X53808Y237703D01*
X54500Y237417D01*
Y240000D01*
D02*
G37*
G36*
X181000Y241039D02*
X180220Y240884D01*
X179558Y240442D01*
X168058Y228942D01*
X167616Y228280D01*
X167461Y227500D01*
X167480Y227403D01*
X167446Y227351D01*
X167276Y226500D01*
X167446Y225649D01*
X167928Y224927D01*
X168649Y224445D01*
X169500Y224276D01*
X170351Y224445D01*
X171072Y224927D01*
X171555Y225649D01*
X171724Y226500D01*
X171667Y226784D01*
X181845Y236961D01*
X236155D01*
X247440Y225676D01*
X247445Y225649D01*
X247927Y224927D01*
X248649Y224445D01*
X249500Y224276D01*
X250351Y224445D01*
X251073Y224927D01*
X251555Y225649D01*
X251724Y226500D01*
X251555Y227351D01*
X251073Y228073D01*
X250351Y228555D01*
X250324Y228560D01*
X238442Y240442D01*
X237780Y240884D01*
X237000Y241039D01*
X181000D01*
X181000Y241039D01*
D02*
G37*
G36*
X289773Y226941D02*
X283405D01*
Y220574D01*
X283693Y220693D01*
X285518Y221811D01*
X287145Y223201D01*
X288535Y224829D01*
X289654Y226654D01*
X289773Y226941D01*
D02*
G37*
G36*
X271595D02*
X265227D01*
X265346Y226654D01*
X266465Y224829D01*
X267855Y223201D01*
X269482Y221811D01*
X271307Y220693D01*
X271595Y220574D01*
Y226941D01*
D02*
G37*
G36*
X75244Y221630D02*
X63795D01*
Y214118D01*
X75244D01*
Y221630D01*
D02*
G37*
G36*
X27406Y205619D02*
Y199252D01*
X33773D01*
X33654Y199539D01*
X32535Y201364D01*
X31145Y202992D01*
X29518Y204382D01*
X27693Y205500D01*
X27406Y205619D01*
D02*
G37*
G36*
X75224Y203520D02*
X63776D01*
Y196008D01*
X75224D01*
Y203520D01*
D02*
G37*
G36*
X277500Y218141D02*
X275366Y217972D01*
X273285Y217473D01*
X271307Y216654D01*
X269482Y215535D01*
X267855Y214145D01*
X266465Y212518D01*
X265346Y210693D01*
X264527Y208715D01*
X264028Y206634D01*
X263860Y204500D01*
X264028Y202366D01*
X264527Y200285D01*
X265346Y198307D01*
X266465Y196482D01*
X267855Y194855D01*
X269482Y193465D01*
X271307Y192346D01*
X273285Y191527D01*
X275366Y191027D01*
X277500Y190859D01*
X279634Y191027D01*
X281715Y191527D01*
X283693Y192346D01*
X285518Y193465D01*
X287145Y194855D01*
X288535Y196482D01*
X289654Y198307D01*
X290473Y200285D01*
X290972Y202366D01*
X291141Y204500D01*
X290972Y206634D01*
X290473Y208715D01*
X289654Y210693D01*
X288535Y212518D01*
X287145Y214145D01*
X285518Y215535D01*
X283693Y216654D01*
X281715Y217473D01*
X279634Y217972D01*
X277500Y218141D01*
D02*
G37*
G36*
X33773Y187441D02*
X27406D01*
Y181074D01*
X27693Y181193D01*
X29518Y182311D01*
X31145Y183701D01*
X32535Y185329D01*
X33654Y187154D01*
X33773Y187441D01*
D02*
G37*
G36*
X311469Y167273D02*
Y160906D01*
X317836D01*
X317717Y161193D01*
X316598Y163018D01*
X315208Y164645D01*
X313581Y166035D01*
X311756Y167154D01*
X311469Y167273D01*
D02*
G37*
G36*
X299658D02*
X299370Y167154D01*
X297545Y166035D01*
X295918Y164645D01*
X294528Y163018D01*
X293409Y161193D01*
X293290Y160906D01*
X299658D01*
Y167273D01*
D02*
G37*
G36*
X75224Y163756D02*
X63776D01*
Y156244D01*
X75224D01*
Y163756D01*
D02*
G37*
G36*
X317836Y149094D02*
X311469D01*
Y142727D01*
X311756Y142846D01*
X313581Y143965D01*
X315208Y145355D01*
X316598Y146982D01*
X317717Y148807D01*
X317836Y149094D01*
D02*
G37*
G36*
X299658D02*
X293290D01*
X293409Y148807D01*
X294528Y146982D01*
X295918Y145355D01*
X297545Y143965D01*
X299370Y142846D01*
X299658Y142727D01*
Y149094D01*
D02*
G37*
G36*
X277217Y168640D02*
X275083Y168473D01*
X273001Y167973D01*
X271024Y167154D01*
X269199Y166035D01*
X267571Y164645D01*
X266181Y163018D01*
X265063Y161193D01*
X264244Y159215D01*
X263744Y157134D01*
X263576Y155000D01*
X263744Y152866D01*
X264244Y150785D01*
X265063Y148807D01*
X266181Y146982D01*
X267571Y145355D01*
X269199Y143965D01*
X271024Y142846D01*
X273001Y142027D01*
X275083Y141527D01*
X277217Y141359D01*
X279350Y141527D01*
X281432Y142027D01*
X283409Y142846D01*
X285234Y143965D01*
X286862Y145355D01*
X288252Y146982D01*
X289370Y148807D01*
X290189Y150785D01*
X290689Y152866D01*
X290857Y155000D01*
X290689Y157134D01*
X290189Y159215D01*
X289370Y161193D01*
X288252Y163018D01*
X286862Y164645D01*
X285234Y166035D01*
X283409Y167154D01*
X281432Y167973D01*
X279350Y168473D01*
X277217Y168640D01*
D02*
G37*
G36*
X75244Y145449D02*
X63795D01*
Y137937D01*
X75244D01*
Y145449D01*
D02*
G37*
G36*
X28405Y119119D02*
Y112752D01*
X34773D01*
X34654Y113039D01*
X33535Y114864D01*
X32145Y116492D01*
X30518Y117882D01*
X28693Y119000D01*
X28405Y119119D01*
D02*
G37*
G36*
X311252Y116773D02*
Y110406D01*
X317619D01*
X317500Y110693D01*
X316382Y112518D01*
X314992Y114145D01*
X313364Y115535D01*
X311539Y116654D01*
X311252Y116773D01*
D02*
G37*
G36*
X299441Y116773D02*
X299154Y116654D01*
X297329Y115535D01*
X295701Y114145D01*
X294311Y112518D01*
X293193Y110693D01*
X293074Y110406D01*
X299441D01*
Y116773D01*
D02*
G37*
G36*
X34773Y100941D02*
X28405D01*
Y94574D01*
X28693Y94693D01*
X30518Y95811D01*
X32145Y97201D01*
X33535Y98829D01*
X34654Y100654D01*
X34773Y100941D01*
D02*
G37*
G36*
X317619Y98594D02*
X311252D01*
Y92227D01*
X311539Y92346D01*
X313364Y93465D01*
X314992Y94855D01*
X316382Y96482D01*
X317500Y98307D01*
X317619Y98594D01*
D02*
G37*
G36*
X299441D02*
X293074D01*
X293193Y98307D01*
X294311Y96482D01*
X295701Y94855D01*
X297329Y93465D01*
X299154Y92346D01*
X299441Y92227D01*
Y98594D01*
D02*
G37*
G36*
X277000Y118140D02*
X274866Y117973D01*
X272785Y117473D01*
X270807Y116654D01*
X268982Y115535D01*
X267355Y114145D01*
X265965Y112518D01*
X264846Y110693D01*
X264027Y108715D01*
X263527Y106634D01*
X263359Y104500D01*
X263527Y102366D01*
X264027Y100285D01*
X264846Y98307D01*
X265965Y96482D01*
X267355Y94855D01*
X268982Y93465D01*
X270807Y92346D01*
X272785Y91527D01*
X274866Y91027D01*
X277000Y90860D01*
X279134Y91027D01*
X281215Y91527D01*
X283193Y92346D01*
X285018Y93465D01*
X286645Y94855D01*
X288035Y96482D01*
X289154Y98307D01*
X289973Y100285D01*
X290473Y102366D01*
X290640Y104500D01*
X290473Y106634D01*
X289973Y108715D01*
X289154Y110693D01*
X288035Y112518D01*
X286645Y114145D01*
X285018Y115535D01*
X283193Y116654D01*
X281215Y117473D01*
X279134Y117973D01*
X277000Y118140D01*
D02*
G37*
G36*
X86520Y42224D02*
X79008D01*
Y30776D01*
X86520D01*
Y42224D01*
D02*
G37*
G36*
X46756D02*
X39244D01*
Y30776D01*
X46756D01*
Y42224D01*
D02*
G37*
G36*
X104630Y42205D02*
X97118D01*
Y30756D01*
X104630D01*
Y42205D01*
D02*
G37*
G36*
X28449D02*
X20937D01*
Y30756D01*
X28449D01*
Y42205D01*
D02*
G37*
G36*
X218000Y19083D02*
Y16500D01*
X220583D01*
X220297Y17192D01*
X219600Y18100D01*
X218692Y18797D01*
X218000Y19083D01*
D02*
G37*
G36*
X215000D02*
X214308Y18797D01*
X213400Y18100D01*
X212703Y17192D01*
X212417Y16500D01*
X215000D01*
Y19083D01*
D02*
G37*
G36*
X220583Y13500D02*
X218000D01*
Y10917D01*
X218692Y11203D01*
X219600Y11900D01*
X220297Y12808D01*
X220583Y13500D01*
D02*
G37*
G36*
X215000D02*
X212417D01*
X212703Y12808D01*
X213400Y11900D01*
X214308Y11203D01*
X215000Y10917D01*
Y13500D01*
D02*
G37*
G36*
X200847Y19346D02*
X192154D01*
Y10654D01*
X200847D01*
Y19346D01*
D02*
G37*
%LPD*%
D12*
X169500Y226500D02*
Y227500D01*
D44*
X237000Y239000D02*
X249500Y226500D01*
X181000Y239000D02*
X237000D01*
X169500Y227500D02*
X181000Y239000D01*
D51*
X277000Y104500D02*
D03*
X305346D02*
D03*
X277500Y204500D02*
D03*
Y232846D02*
D03*
X22500Y78500D02*
D03*
Y106846D02*
D03*
X21500Y165000D02*
D03*
Y193347D02*
D03*
X277217Y155000D02*
D03*
X305563D02*
D03*
D52*
X69500Y199764D02*
D03*
X69520Y217874D02*
D03*
X69500Y160000D02*
D03*
X69520Y141693D02*
D03*
D53*
X82764Y36500D02*
D03*
X100874Y36480D02*
D03*
X43000Y36500D02*
D03*
X24693Y36480D02*
D03*
D54*
X196500Y15000D02*
D03*
X76000Y241500D02*
D03*
D55*
X216500Y15000D02*
D03*
X56000Y241500D02*
D03*
D56*
X323000Y242500D02*
D03*
X322000Y12500D02*
D03*
X14000D02*
D03*
X16000Y245500D02*
D03*
D57*
X182000Y212000D02*
D03*
X188000D02*
D03*
X214000Y82000D02*
D03*
X206000D02*
D03*
X198000D02*
D03*
X210000Y78000D02*
D03*
X202000D02*
D03*
X210000Y58000D02*
D03*
X202000D02*
D03*
X192500Y217000D02*
D03*
X184500Y217500D02*
D03*
X192000Y229500D02*
D03*
X185000D02*
D03*
X169500Y226500D02*
D03*
X249500D02*
D03*
M02*
