G04*
G04 #@! TF.GenerationSoftware,Altium Limited,Altium Designer,19.1.8 (144)*
G04*
G04 Layer_Physical_Order=2*
G04 Layer_Color=16711680*
%FSLAX25Y25*%
%MOIN*%
G70*
G01*
G75*
%ADD12C,0.01000*%
%ADD45C,0.02000*%
%ADD50R,0.05906X0.03937*%
%ADD51R,0.03937X0.05906*%
%ADD52C,0.23622*%
%ADD53C,0.06000*%
%ADD54R,0.06693X0.06693*%
%ADD55C,0.06693*%
%ADD56C,0.05000*%
G36*
X320000Y232000D02*
X340000D01*
Y26000D01*
X318000D01*
Y2000D01*
X24000D01*
Y22000D01*
X2000D01*
Y236000D01*
X26000D01*
Y254000D01*
X320000D01*
Y232000D01*
D02*
G37*
%LPC*%
G36*
X57500Y245583D02*
Y243000D01*
X60083D01*
X59797Y243692D01*
X59100Y244600D01*
X58192Y245297D01*
X57500Y245583D01*
D02*
G37*
G36*
X54500D02*
X53808Y245297D01*
X52900Y244600D01*
X52203Y243692D01*
X51917Y243000D01*
X54500D01*
Y245583D01*
D02*
G37*
G36*
X60083Y240000D02*
X57500D01*
Y237417D01*
X58192Y237703D01*
X59100Y238400D01*
X59797Y239308D01*
X60083Y240000D01*
D02*
G37*
G36*
X54500D02*
X51917D01*
X52203Y239308D01*
X52900Y238400D01*
X53808Y237703D01*
X54500Y237417D01*
Y240000D01*
D02*
G37*
G36*
X80347Y245847D02*
X71653D01*
Y237154D01*
X80347D01*
Y245847D01*
D02*
G37*
G36*
X193500Y232667D02*
Y231000D01*
X195167D01*
X195057Y231265D01*
X194496Y231996D01*
X193765Y232557D01*
X193500Y232667D01*
D02*
G37*
G36*
X183500D02*
X183235Y232557D01*
X182504Y231996D01*
X181943Y231265D01*
X181833Y231000D01*
X183500D01*
Y232667D01*
D02*
G37*
G36*
X190500D02*
X190235Y232557D01*
X189504Y231996D01*
X188943Y231265D01*
X188771Y230850D01*
X188229D01*
X188057Y231265D01*
X187496Y231996D01*
X186765Y232557D01*
X186500Y232667D01*
Y229500D01*
Y226333D01*
X186765Y226443D01*
X187496Y227004D01*
X188057Y227735D01*
X188229Y228151D01*
X188771D01*
X188943Y227735D01*
X189504Y227004D01*
X190235Y226443D01*
X190500Y226333D01*
Y229500D01*
Y232667D01*
D02*
G37*
G36*
X195167Y228000D02*
X193500D01*
Y226333D01*
X193765Y226443D01*
X194496Y227004D01*
X195057Y227735D01*
X195167Y228000D01*
D02*
G37*
G36*
X183500D02*
X181833D01*
X181943Y227735D01*
X182504Y227004D01*
X183235Y226443D01*
X183500Y226333D01*
Y228000D01*
D02*
G37*
G36*
X181000Y241039D02*
X180220Y240884D01*
X179558Y240442D01*
X169093Y229977D01*
X168586Y229910D01*
X167735Y229557D01*
X167004Y228996D01*
X166443Y228265D01*
X166090Y227414D01*
X165970Y226500D01*
X166090Y225586D01*
X166443Y224735D01*
X167004Y224004D01*
X167735Y223443D01*
X168586Y223090D01*
X169500Y222970D01*
X170414Y223090D01*
X171265Y223443D01*
X171996Y224004D01*
X172557Y224735D01*
X172910Y225586D01*
X173030Y226500D01*
X172910Y227414D01*
X172731Y227847D01*
X181845Y236961D01*
X236155D01*
X246045Y227071D01*
X245970Y226500D01*
X246090Y225586D01*
X246443Y224735D01*
X247004Y224004D01*
X247735Y223443D01*
X248586Y223090D01*
X249500Y222970D01*
X250414Y223090D01*
X251265Y223443D01*
X251996Y224004D01*
X252557Y224735D01*
X252910Y225586D01*
X253030Y226500D01*
X252910Y227414D01*
X252557Y228265D01*
X251996Y228996D01*
X251265Y229557D01*
X250414Y229910D01*
X249500Y230030D01*
X248929Y229955D01*
X238442Y240442D01*
X237780Y240884D01*
X237000Y241039D01*
X181000D01*
X181000Y241039D01*
D02*
G37*
G36*
X186000Y220667D02*
Y219000D01*
X187667D01*
X187557Y219265D01*
X186996Y219996D01*
X186265Y220557D01*
X186000Y220667D01*
D02*
G37*
G36*
X183000D02*
X182735Y220557D01*
X182004Y219996D01*
X181443Y219265D01*
X181333Y219000D01*
X183000D01*
Y220667D01*
D02*
G37*
G36*
X194000Y220167D02*
Y218500D01*
X195667D01*
X195557Y218765D01*
X194996Y219496D01*
X194265Y220057D01*
X194000Y220167D01*
D02*
G37*
G36*
X191000D02*
X190735Y220057D01*
X190004Y219496D01*
X189443Y218765D01*
X189333Y218500D01*
X191000D01*
Y220167D01*
D02*
G37*
G36*
X73472Y220843D02*
X65567D01*
Y214906D01*
X73472D01*
Y220843D01*
D02*
G37*
G36*
X187667Y216000D02*
X186000D01*
Y214333D01*
X186265Y214443D01*
X186996Y215004D01*
X187557Y215735D01*
X187667Y216000D01*
D02*
G37*
G36*
X183000D02*
X181333D01*
X181443Y215735D01*
X182004Y215004D01*
X182735Y214443D01*
X183000Y214333D01*
Y216000D01*
D02*
G37*
G36*
X195667Y215500D02*
X194000D01*
Y213833D01*
X194265Y213943D01*
X194996Y214504D01*
X195557Y215235D01*
X195667Y215500D01*
D02*
G37*
G36*
X191000D02*
X189333D01*
X189443Y215235D01*
X190004Y214504D01*
X190735Y213943D01*
X191000Y213833D01*
Y215500D01*
D02*
G37*
G36*
X73453Y202732D02*
X65547D01*
Y196795D01*
X73453D01*
Y202732D01*
D02*
G37*
G36*
X23000Y206079D02*
Y194846D01*
X34233D01*
X34192Y195357D01*
X33722Y197318D01*
X32950Y199180D01*
X31896Y200900D01*
X30587Y202433D01*
X29053Y203743D01*
X27334Y204797D01*
X25471Y205568D01*
X23510Y206039D01*
X23000Y206079D01*
D02*
G37*
G36*
X20000D02*
X19490Y206039D01*
X17529Y205568D01*
X15666Y204797D01*
X13947Y203743D01*
X12413Y202433D01*
X11104Y200900D01*
X10050Y199180D01*
X9278Y197318D01*
X8808Y195357D01*
X8767Y194846D01*
X20000D01*
Y206079D01*
D02*
G37*
G36*
X34233Y191847D02*
X23000D01*
Y180614D01*
X23510Y180654D01*
X25471Y181125D01*
X27334Y181896D01*
X29053Y182950D01*
X30587Y184260D01*
X31896Y185793D01*
X32950Y187512D01*
X33722Y189375D01*
X34192Y191336D01*
X34233Y191847D01*
D02*
G37*
G36*
X20000D02*
X8767D01*
X8808Y191336D01*
X9278Y189375D01*
X10050Y187512D01*
X11104Y185793D01*
X12413Y184260D01*
X13947Y182950D01*
X15666Y181896D01*
X17529Y181125D01*
X19490Y180654D01*
X20000Y180614D01*
Y191847D01*
D02*
G37*
G36*
X73453Y162969D02*
X65547D01*
Y157032D01*
X73453D01*
Y162969D01*
D02*
G37*
G36*
X307063Y167733D02*
Y156500D01*
X318296D01*
X318255Y157010D01*
X317785Y158971D01*
X317013Y160834D01*
X315959Y162553D01*
X314650Y164087D01*
X313116Y165396D01*
X311397Y166450D01*
X309534Y167222D01*
X307573Y167692D01*
X307063Y167733D01*
D02*
G37*
G36*
X304063D02*
X303553Y167692D01*
X301592Y167222D01*
X299729Y166450D01*
X298010Y165396D01*
X296476Y164087D01*
X295167Y162553D01*
X294113Y160834D01*
X293341Y158971D01*
X292871Y157010D01*
X292830Y156500D01*
X304063D01*
Y167733D01*
D02*
G37*
G36*
X21500Y177851D02*
X19490Y177692D01*
X17529Y177222D01*
X15666Y176450D01*
X13947Y175396D01*
X12413Y174087D01*
X11104Y172553D01*
X10050Y170834D01*
X9278Y168971D01*
X8808Y167010D01*
X8649Y165000D01*
X8808Y162990D01*
X9278Y161029D01*
X10050Y159166D01*
X11104Y157447D01*
X12413Y155913D01*
X13947Y154604D01*
X15666Y153550D01*
X17529Y152778D01*
X19490Y152308D01*
X21500Y152149D01*
X23510Y152308D01*
X25471Y152778D01*
X27334Y153550D01*
X29053Y154604D01*
X30587Y155913D01*
X31896Y157447D01*
X32950Y159166D01*
X33722Y161029D01*
X34192Y162990D01*
X34351Y165000D01*
X34192Y167010D01*
X33722Y168971D01*
X32950Y170834D01*
X31896Y172553D01*
X30587Y174087D01*
X29053Y175396D01*
X27334Y176450D01*
X25471Y177222D01*
X23510Y177692D01*
X21500Y177851D01*
D02*
G37*
G36*
X318296Y153500D02*
X307063D01*
Y142267D01*
X307573Y142308D01*
X309534Y142778D01*
X311397Y143550D01*
X313116Y144604D01*
X314650Y145913D01*
X315959Y147447D01*
X317013Y149166D01*
X317785Y151029D01*
X318255Y152990D01*
X318296Y153500D01*
D02*
G37*
G36*
X304063D02*
X292830D01*
X292871Y152990D01*
X293341Y151029D01*
X294113Y149166D01*
X295167Y147447D01*
X296476Y145913D01*
X298010Y144604D01*
X299729Y143550D01*
X301592Y142778D01*
X303553Y142308D01*
X304063Y142267D01*
Y153500D01*
D02*
G37*
G36*
X277217Y167851D02*
X275206Y167692D01*
X273246Y167222D01*
X271382Y166450D01*
X269663Y165396D01*
X268130Y164087D01*
X266820Y162553D01*
X265767Y160834D01*
X264995Y158971D01*
X264524Y157010D01*
X264366Y155000D01*
X264524Y152990D01*
X264995Y151029D01*
X265767Y149166D01*
X266820Y147447D01*
X268130Y145913D01*
X269663Y144604D01*
X271382Y143550D01*
X273246Y142778D01*
X275206Y142308D01*
X277217Y142149D01*
X279227Y142308D01*
X281188Y142778D01*
X283051Y143550D01*
X284770Y144604D01*
X286303Y145913D01*
X287613Y147447D01*
X288667Y149166D01*
X289438Y151029D01*
X289909Y152990D01*
X290067Y155000D01*
X289909Y157010D01*
X289438Y158971D01*
X288667Y160834D01*
X287613Y162553D01*
X286303Y164087D01*
X284770Y165396D01*
X283051Y166450D01*
X281188Y167222D01*
X279227Y167692D01*
X277217Y167851D01*
D02*
G37*
G36*
X73472Y144661D02*
X65567D01*
Y138724D01*
X73472D01*
Y144661D01*
D02*
G37*
G36*
X24000Y119579D02*
Y108346D01*
X35233D01*
X35192Y108857D01*
X34722Y110818D01*
X33950Y112680D01*
X32896Y114400D01*
X31587Y115933D01*
X30053Y117243D01*
X28334Y118297D01*
X26471Y119068D01*
X24510Y119539D01*
X24000Y119579D01*
D02*
G37*
G36*
X21000D02*
X20490Y119539D01*
X18529Y119068D01*
X16666Y118297D01*
X14947Y117243D01*
X13413Y115933D01*
X12104Y114400D01*
X11050Y112680D01*
X10278Y110818D01*
X9808Y108857D01*
X9767Y108346D01*
X21000D01*
Y119579D01*
D02*
G37*
G36*
X35233Y105347D02*
X24000D01*
Y94114D01*
X24510Y94154D01*
X26471Y94625D01*
X28334Y95397D01*
X30053Y96450D01*
X31587Y97760D01*
X32896Y99293D01*
X33950Y101012D01*
X34722Y102875D01*
X35192Y104836D01*
X35233Y105347D01*
D02*
G37*
G36*
X21000D02*
X9767D01*
X9808Y104836D01*
X10278Y102875D01*
X11050Y101012D01*
X12104Y99293D01*
X13413Y97760D01*
X14947Y96450D01*
X16666Y95397D01*
X18529Y94625D01*
X20490Y94154D01*
X21000Y94114D01*
Y105347D01*
D02*
G37*
G36*
X22500Y91351D02*
X20490Y91192D01*
X18529Y90722D01*
X16666Y89950D01*
X14947Y88896D01*
X13413Y87587D01*
X12104Y86053D01*
X11050Y84334D01*
X10278Y82471D01*
X9808Y80510D01*
X9649Y78500D01*
X9808Y76490D01*
X10278Y74529D01*
X11050Y72666D01*
X12104Y70947D01*
X13413Y69413D01*
X14947Y68104D01*
X16666Y67050D01*
X18529Y66278D01*
X20490Y65808D01*
X22500Y65649D01*
X24510Y65808D01*
X26471Y66278D01*
X28334Y67050D01*
X30053Y68104D01*
X31587Y69413D01*
X32896Y70947D01*
X33950Y72666D01*
X34722Y74529D01*
X35192Y76490D01*
X35351Y78500D01*
X35192Y80510D01*
X34722Y82471D01*
X33950Y84334D01*
X32896Y86053D01*
X31587Y87587D01*
X30053Y88896D01*
X28334Y89950D01*
X26471Y90722D01*
X24510Y91192D01*
X22500Y91351D01*
D02*
G37*
G36*
X85732Y40453D02*
X79795D01*
Y32547D01*
X85732D01*
Y40453D01*
D02*
G37*
G36*
X45968D02*
X40031D01*
Y32547D01*
X45968D01*
Y40453D01*
D02*
G37*
G36*
X103842Y40433D02*
X97905D01*
Y32528D01*
X103842D01*
Y40433D01*
D02*
G37*
G36*
X27661D02*
X21724D01*
Y32528D01*
X27661D01*
Y40433D01*
D02*
G37*
G36*
X218000Y19083D02*
Y16500D01*
X220583D01*
X220297Y17192D01*
X219600Y18100D01*
X218692Y18797D01*
X218000Y19083D01*
D02*
G37*
G36*
X215000D02*
X214308Y18797D01*
X213400Y18100D01*
X212703Y17192D01*
X212417Y16500D01*
X215000D01*
Y19083D01*
D02*
G37*
G36*
X220583Y13500D02*
X218000D01*
Y10917D01*
X218692Y11203D01*
X219600Y11900D01*
X220297Y12808D01*
X220583Y13500D01*
D02*
G37*
G36*
X215000D02*
X212417D01*
X212703Y12808D01*
X213400Y11900D01*
X214308Y11203D01*
X215000Y10917D01*
Y13500D01*
D02*
G37*
G36*
X200847Y19346D02*
X192154D01*
Y10654D01*
X200847D01*
Y19346D01*
D02*
G37*
%LPD*%
D12*
X169500Y226500D02*
Y227500D01*
X1000Y1000D02*
X342500D01*
X342500Y255000D02*
X342500Y1000D01*
X1000Y255000D02*
X342500D01*
X1000D02*
X1000Y1000D01*
D45*
X237000Y239000D02*
X249500Y226500D01*
X181000Y239000D02*
X237000D01*
X169500Y227500D02*
X181000Y239000D01*
D50*
X69500Y199764D02*
D03*
X69520Y217874D02*
D03*
X69500Y160000D02*
D03*
X69520Y141693D02*
D03*
D51*
X82764Y36500D02*
D03*
X100874Y36480D02*
D03*
X43000Y36500D02*
D03*
X24693Y36480D02*
D03*
D52*
X22500Y106846D02*
D03*
Y78500D02*
D03*
X21500Y193347D02*
D03*
Y165000D02*
D03*
X305563Y155000D02*
D03*
X277217D02*
D03*
D53*
X330500Y242000D02*
D03*
X327500Y16000D02*
D03*
X14000Y12500D02*
D03*
X16000Y245500D02*
D03*
D54*
X196500Y15000D02*
D03*
X76000Y241500D02*
D03*
D55*
X216500Y15000D02*
D03*
X56000Y241500D02*
D03*
D56*
X182000Y212000D02*
D03*
X188000D02*
D03*
X214000Y82000D02*
D03*
X206000D02*
D03*
X198000D02*
D03*
X210000Y78000D02*
D03*
X202000D02*
D03*
X210000Y58000D02*
D03*
X202000D02*
D03*
X192500Y217000D02*
D03*
X184500Y217500D02*
D03*
X192000Y229500D02*
D03*
X185000D02*
D03*
X169500Y226500D02*
D03*
X249500D02*
D03*
M02*
