G04*
G04 #@! TF.GenerationSoftware,Altium Limited,Altium Designer,19.1.8 (144)*
G04*
G04 Layer_Color=65535*
%FSLAX25Y25*%
%MOIN*%
G70*
G01*
G75*
%ADD10C,0.02362*%
%ADD11C,0.00984*%
%ADD12C,0.01000*%
%ADD13C,0.00787*%
%ADD14C,0.00394*%
%ADD15C,0.00591*%
G36*
X283678Y100065D02*
X285432D01*
Y99773D01*
X287185D01*
Y99481D01*
X288939D01*
Y99189D01*
X290692D01*
Y98896D01*
X292446D01*
Y98604D01*
X290692D01*
Y98312D01*
X288939D01*
Y98019D01*
X287185D01*
Y97727D01*
X285432D01*
Y97435D01*
X283678D01*
Y97143D01*
X283093D01*
Y97435D01*
X281340D01*
Y97727D01*
X279586D01*
Y98019D01*
X277833D01*
Y98312D01*
X276079D01*
Y98604D01*
X274325D01*
Y98896D01*
X276079D01*
Y99189D01*
X277833D01*
Y99481D01*
X279586D01*
Y99773D01*
X281340D01*
Y100065D01*
X283093D01*
Y100358D01*
X283678D01*
Y100065D01*
D02*
G37*
G36*
X299753Y93343D02*
X299461D01*
Y93051D01*
X299168D01*
Y92759D01*
X298876D01*
Y92466D01*
X298584D01*
Y92174D01*
X298291D01*
Y91882D01*
Y91589D01*
X297999D01*
Y91297D01*
X297707D01*
Y91005D01*
X297415D01*
Y90713D01*
X297122D01*
Y90420D01*
X296830D01*
Y90128D01*
Y89836D01*
X296538D01*
Y89544D01*
X296246D01*
Y89251D01*
X295953D01*
Y88959D01*
X295661D01*
Y88667D01*
X295369D01*
Y88375D01*
Y88082D01*
X295076D01*
Y87790D01*
X294784D01*
Y87498D01*
X294492D01*
Y87205D01*
X294200D01*
Y86913D01*
X293907D01*
Y86621D01*
Y86329D01*
X293615D01*
Y86036D01*
X293323D01*
Y85744D01*
X293031D01*
Y85452D01*
Y85159D01*
Y84867D01*
X292738D01*
Y84575D01*
Y84283D01*
X292446D01*
Y83990D01*
Y83698D01*
Y83406D01*
X292154D01*
Y83114D01*
Y82821D01*
X291862D01*
Y82529D01*
Y82237D01*
Y81945D01*
X291569D01*
Y81652D01*
Y81360D01*
X291277D01*
Y81068D01*
Y80775D01*
Y80483D01*
X290985D01*
Y80191D01*
Y79899D01*
X290692D01*
Y79606D01*
Y79314D01*
Y79022D01*
X290400D01*
Y78729D01*
Y78437D01*
X290108D01*
Y78145D01*
Y77853D01*
Y77560D01*
X289816D01*
Y77268D01*
Y76976D01*
X289523D01*
Y76684D01*
Y76391D01*
Y76099D01*
X289231D01*
Y75807D01*
Y75515D01*
X288939D01*
Y75222D01*
Y74930D01*
Y74638D01*
X288647D01*
Y74345D01*
Y74053D01*
X288354D01*
Y73761D01*
Y73469D01*
Y73176D01*
X288062D01*
Y73469D01*
Y73761D01*
Y74053D01*
Y74345D01*
Y74638D01*
Y74930D01*
X288354D01*
Y75222D01*
Y75515D01*
Y75807D01*
Y76099D01*
Y76391D01*
Y76684D01*
X288647D01*
Y76976D01*
Y77268D01*
Y77560D01*
Y77853D01*
Y78145D01*
Y78437D01*
X288939D01*
Y78729D01*
Y79022D01*
Y79314D01*
Y79606D01*
Y79899D01*
X289231D01*
Y80191D01*
Y80483D01*
Y80775D01*
Y81068D01*
Y81360D01*
Y81652D01*
X289523D01*
Y81945D01*
Y82237D01*
Y82529D01*
Y82821D01*
Y83114D01*
Y83406D01*
X289816D01*
Y83698D01*
Y83990D01*
Y84283D01*
Y84575D01*
Y84867D01*
Y85159D01*
X290108D01*
Y85452D01*
Y85744D01*
Y86036D01*
Y86329D01*
Y86621D01*
Y86913D01*
X290400D01*
Y87205D01*
Y87498D01*
Y87790D01*
Y88082D01*
X290985D01*
Y88375D01*
X291277D01*
Y88667D01*
X291862D01*
Y88959D01*
X292154D01*
Y89251D01*
X292738D01*
Y89544D01*
X293031D01*
Y89836D01*
X293615D01*
Y90128D01*
X294200D01*
Y90420D01*
X294492D01*
Y90713D01*
X295076D01*
Y91005D01*
X295369D01*
Y91297D01*
X295953D01*
Y91589D01*
X296246D01*
Y91882D01*
X296830D01*
Y92174D01*
X297415D01*
Y92466D01*
X297707D01*
Y92759D01*
X298291D01*
Y93051D01*
X298584D01*
Y93343D01*
X299168D01*
Y93635D01*
X299753D01*
Y93343D01*
D02*
G37*
G36*
X267603D02*
X268187D01*
Y93051D01*
X268480D01*
Y92759D01*
X269064D01*
Y92466D01*
X269357D01*
Y92174D01*
X269941D01*
Y91882D01*
X270233D01*
Y91589D01*
X270818D01*
Y91297D01*
X271403D01*
Y91005D01*
X271695D01*
Y90713D01*
X272279D01*
Y90420D01*
X272572D01*
Y90128D01*
X273156D01*
Y89836D01*
X273448D01*
Y89544D01*
X274033D01*
Y89251D01*
X274618D01*
Y88959D01*
X274910D01*
Y88667D01*
X275494D01*
Y88375D01*
X275787D01*
Y88082D01*
X276371D01*
Y87790D01*
Y87498D01*
Y87205D01*
Y86913D01*
X276663D01*
Y86621D01*
Y86329D01*
Y86036D01*
Y85744D01*
Y85452D01*
Y85159D01*
X276956D01*
Y84867D01*
Y84575D01*
Y84283D01*
Y83990D01*
Y83698D01*
Y83406D01*
X277248D01*
Y83114D01*
Y82821D01*
Y82529D01*
Y82237D01*
Y81945D01*
Y81652D01*
X277540D01*
Y81360D01*
Y81068D01*
Y80775D01*
Y80483D01*
Y80191D01*
Y79899D01*
X277833D01*
Y79606D01*
Y79314D01*
Y79022D01*
Y78729D01*
Y78437D01*
Y78145D01*
X278125D01*
Y77853D01*
Y77560D01*
Y77268D01*
Y76976D01*
Y76684D01*
Y76391D01*
X278417D01*
Y76099D01*
Y75807D01*
Y75515D01*
Y75222D01*
Y74930D01*
Y74638D01*
X278709D01*
Y74345D01*
Y74053D01*
Y73761D01*
Y73469D01*
Y73176D01*
X278417D01*
Y73469D01*
Y73761D01*
X278125D01*
Y74053D01*
Y74345D01*
Y74638D01*
X277833D01*
Y74930D01*
Y75222D01*
X277540D01*
Y75515D01*
Y75807D01*
Y76099D01*
X277248D01*
Y76391D01*
Y76684D01*
X276956D01*
Y76976D01*
Y77268D01*
Y77560D01*
X276663D01*
Y77853D01*
Y78145D01*
X276371D01*
Y78437D01*
Y78729D01*
Y79022D01*
X276079D01*
Y79314D01*
Y79606D01*
X275787D01*
Y79899D01*
Y80191D01*
Y80483D01*
X275494D01*
Y80775D01*
Y81068D01*
X275202D01*
Y81360D01*
Y81652D01*
Y81945D01*
X274910D01*
Y82237D01*
Y82529D01*
X274618D01*
Y82821D01*
Y83114D01*
Y83406D01*
X274325D01*
Y83698D01*
Y83990D01*
X274033D01*
Y84283D01*
Y84575D01*
Y84867D01*
X273741D01*
Y85159D01*
Y85452D01*
X273448D01*
Y85744D01*
Y86036D01*
X273156D01*
Y86329D01*
X272864D01*
Y86621D01*
Y86913D01*
X272572D01*
Y87205D01*
X272279D01*
Y87498D01*
X271987D01*
Y87790D01*
X271695D01*
Y88082D01*
X271403D01*
Y88375D01*
Y88667D01*
X271110D01*
Y88959D01*
X270818D01*
Y89251D01*
X270526D01*
Y89544D01*
X270233D01*
Y89836D01*
X269941D01*
Y90128D01*
Y90420D01*
X269649D01*
Y90713D01*
X269357D01*
Y91005D01*
X269064D01*
Y91297D01*
X268772D01*
Y91589D01*
X268480D01*
Y91882D01*
Y92174D01*
X268187D01*
Y92466D01*
X267895D01*
Y92759D01*
X267603D01*
Y93051D01*
X267311D01*
Y93343D01*
X267018D01*
Y93635D01*
X267603D01*
Y93343D01*
D02*
G37*
G36*
X288062Y72884D02*
Y72592D01*
X287770D01*
Y72884D01*
Y73176D01*
X288062D01*
Y72884D01*
D02*
G37*
G36*
X279001Y72592D02*
Y72299D01*
X278709D01*
Y72592D01*
Y72884D01*
X279001D01*
Y72592D01*
D02*
G37*
G36*
X298876Y96850D02*
X298291D01*
Y96558D01*
X297999D01*
Y96266D01*
X297415D01*
Y95973D01*
X297122D01*
Y95681D01*
X296538D01*
Y95389D01*
X296246D01*
Y95097D01*
X295661D01*
Y94804D01*
X295369D01*
Y94512D01*
X294784D01*
Y94220D01*
X294492D01*
Y93928D01*
X293907D01*
Y93635D01*
X293323D01*
Y93343D01*
X293031D01*
Y93051D01*
X292446D01*
Y92759D01*
X292154D01*
Y92466D01*
X291569D01*
Y92174D01*
X291277D01*
Y91882D01*
X290692D01*
Y91589D01*
X290400D01*
Y91297D01*
X289816D01*
Y91005D01*
X289523D01*
Y90713D01*
X288939D01*
Y90420D01*
X288647D01*
Y90128D01*
X288062D01*
Y89836D01*
Y89544D01*
Y89251D01*
X287770D01*
Y88959D01*
Y88667D01*
Y88375D01*
Y88082D01*
Y87790D01*
Y87498D01*
X287477D01*
Y87205D01*
Y86913D01*
Y86621D01*
Y86329D01*
Y86036D01*
Y85744D01*
Y85452D01*
X287185D01*
Y85159D01*
Y84867D01*
Y84575D01*
Y84283D01*
Y83990D01*
Y83698D01*
X286893D01*
Y83406D01*
Y83114D01*
Y82821D01*
Y82529D01*
Y82237D01*
Y81945D01*
X286601D01*
Y81652D01*
Y81360D01*
Y81068D01*
Y80775D01*
Y80483D01*
Y80191D01*
Y79899D01*
X286308D01*
Y79606D01*
Y79314D01*
Y79022D01*
Y78729D01*
Y78437D01*
Y78145D01*
X286016D01*
Y77853D01*
Y77560D01*
Y77268D01*
Y76976D01*
Y76684D01*
Y76391D01*
Y76099D01*
X285724D01*
Y75807D01*
Y75515D01*
Y75222D01*
Y74930D01*
Y74638D01*
Y74345D01*
X285432D01*
Y74053D01*
Y73761D01*
Y73469D01*
Y73176D01*
Y72884D01*
Y72592D01*
X285139D01*
Y72299D01*
Y72007D01*
Y71715D01*
Y71423D01*
Y71130D01*
Y70838D01*
Y70546D01*
X284847D01*
Y70254D01*
Y69961D01*
Y69669D01*
Y69377D01*
Y69085D01*
Y68792D01*
X284555D01*
Y69085D01*
Y69377D01*
Y69669D01*
Y69961D01*
Y70254D01*
Y70546D01*
Y70838D01*
Y71130D01*
Y71423D01*
Y71715D01*
Y72007D01*
Y72299D01*
Y72592D01*
Y72884D01*
Y73176D01*
Y73469D01*
Y73761D01*
Y74053D01*
Y74345D01*
Y74638D01*
Y74930D01*
Y75222D01*
Y75515D01*
Y75807D01*
Y76099D01*
Y76391D01*
Y76684D01*
Y76976D01*
Y77268D01*
Y77560D01*
Y77853D01*
Y78145D01*
Y78437D01*
Y78729D01*
Y79022D01*
Y79314D01*
Y79606D01*
Y79899D01*
Y80191D01*
Y80483D01*
Y80775D01*
Y81068D01*
Y81360D01*
Y81652D01*
Y81945D01*
Y82237D01*
Y82529D01*
Y82821D01*
Y83114D01*
Y83406D01*
Y83698D01*
Y83990D01*
Y84283D01*
Y84575D01*
Y84867D01*
Y85159D01*
Y85452D01*
Y85744D01*
Y86036D01*
Y86329D01*
Y86621D01*
Y86913D01*
Y87205D01*
Y87498D01*
Y87790D01*
Y88082D01*
Y88375D01*
Y88667D01*
Y88959D01*
Y89251D01*
Y89544D01*
Y89836D01*
Y90128D01*
Y90420D01*
Y90713D01*
Y91005D01*
Y91297D01*
Y91589D01*
Y91882D01*
Y92174D01*
Y92466D01*
Y92759D01*
Y93051D01*
Y93343D01*
Y93635D01*
Y93928D01*
Y94220D01*
Y94512D01*
Y94804D01*
X284847D01*
Y95097D01*
X286601D01*
Y95389D01*
X288354D01*
Y95681D01*
X290108D01*
Y95973D01*
X291862D01*
Y96266D01*
X293615D01*
Y96558D01*
X295661D01*
Y96850D01*
X297415D01*
Y97143D01*
X298876D01*
Y96850D01*
D02*
G37*
G36*
X269357D02*
X271110D01*
Y96558D01*
X272864D01*
Y96266D01*
X274910D01*
Y95973D01*
X276663D01*
Y95681D01*
X278417D01*
Y95389D01*
X280171D01*
Y95097D01*
X281924D01*
Y94804D01*
X282217D01*
Y94512D01*
Y94220D01*
Y93928D01*
Y93635D01*
Y93343D01*
Y93051D01*
Y92759D01*
Y92466D01*
Y92174D01*
Y91882D01*
Y91589D01*
Y91297D01*
Y91005D01*
Y90713D01*
Y90420D01*
Y90128D01*
Y89836D01*
Y89544D01*
Y89251D01*
Y88959D01*
Y88667D01*
Y88375D01*
Y88082D01*
Y87790D01*
Y87498D01*
Y87205D01*
Y86913D01*
Y86621D01*
Y86329D01*
Y86036D01*
Y85744D01*
Y85452D01*
Y85159D01*
Y84867D01*
Y84575D01*
Y84283D01*
Y83990D01*
Y83698D01*
Y83406D01*
Y83114D01*
Y82821D01*
Y82529D01*
Y82237D01*
Y81945D01*
Y81652D01*
Y81360D01*
Y81068D01*
Y80775D01*
Y80483D01*
Y80191D01*
Y79899D01*
Y79606D01*
Y79314D01*
Y79022D01*
Y78729D01*
Y78437D01*
Y78145D01*
Y77853D01*
Y77560D01*
Y77268D01*
Y76976D01*
Y76684D01*
Y76391D01*
Y76099D01*
Y75807D01*
Y75515D01*
Y75222D01*
Y74930D01*
Y74638D01*
Y74345D01*
Y74053D01*
Y73761D01*
Y73469D01*
Y73176D01*
Y72884D01*
Y72592D01*
Y72299D01*
Y72007D01*
Y71715D01*
Y71423D01*
Y71130D01*
Y70838D01*
Y70546D01*
Y70254D01*
Y69961D01*
Y69669D01*
Y69377D01*
Y69085D01*
Y68792D01*
Y68500D01*
X281924D01*
Y68792D01*
Y69085D01*
Y69377D01*
Y69669D01*
Y69961D01*
Y70254D01*
Y70546D01*
X281632D01*
Y70838D01*
Y71130D01*
Y71423D01*
Y71715D01*
Y72007D01*
Y72299D01*
X281340D01*
Y72592D01*
Y72884D01*
Y73176D01*
Y73469D01*
Y73761D01*
Y74053D01*
Y74345D01*
X281047D01*
Y74638D01*
Y74930D01*
Y75222D01*
Y75515D01*
Y75807D01*
Y76099D01*
X280755D01*
Y76391D01*
Y76684D01*
Y76976D01*
Y77268D01*
Y77560D01*
Y77853D01*
X280463D01*
Y78145D01*
Y78437D01*
Y78729D01*
Y79022D01*
Y79314D01*
Y79606D01*
Y79899D01*
X280171D01*
Y80191D01*
Y80483D01*
Y80775D01*
Y81068D01*
Y81360D01*
Y81652D01*
X279878D01*
Y81945D01*
Y82237D01*
Y82529D01*
Y82821D01*
Y83114D01*
Y83406D01*
Y83698D01*
X279586D01*
Y83990D01*
Y84283D01*
Y84575D01*
Y84867D01*
Y85159D01*
Y85452D01*
X279294D01*
Y85744D01*
Y86036D01*
Y86329D01*
Y86621D01*
Y86913D01*
Y87205D01*
X279001D01*
Y87498D01*
Y87790D01*
Y88082D01*
Y88375D01*
Y88667D01*
Y88959D01*
Y89251D01*
X278709D01*
Y89544D01*
Y89836D01*
Y90128D01*
X278125D01*
Y90420D01*
X277833D01*
Y90713D01*
X277248D01*
Y91005D01*
X276956D01*
Y91297D01*
X276371D01*
Y91589D01*
X276079D01*
Y91882D01*
X275494D01*
Y92174D01*
X275202D01*
Y92466D01*
X274618D01*
Y92759D01*
X274033D01*
Y93051D01*
X273741D01*
Y93343D01*
X273156D01*
Y93635D01*
X272864D01*
Y93928D01*
X272279D01*
Y94220D01*
X271987D01*
Y94512D01*
X271403D01*
Y94804D01*
X271110D01*
Y95097D01*
X270526D01*
Y95389D01*
X270233D01*
Y95681D01*
X269649D01*
Y95973D01*
X269357D01*
Y96266D01*
X268772D01*
Y96558D01*
X268480D01*
Y96850D01*
X267895D01*
Y97143D01*
X269357D01*
Y96850D01*
D02*
G37*
G36*
X289878Y66947D02*
X289936D01*
X290074Y66932D01*
X290228Y66910D01*
X290388Y66874D01*
X290563Y66830D01*
X290731Y66772D01*
X290738D01*
X290752Y66764D01*
X290774Y66757D01*
X290803Y66742D01*
X290884Y66699D01*
X290986Y66648D01*
X291095Y66575D01*
X291212Y66487D01*
X291321Y66392D01*
X291423Y66276D01*
X291438Y66261D01*
X291467Y66217D01*
X291511Y66152D01*
X291569Y66057D01*
X291627Y65940D01*
X291693Y65795D01*
X291758Y65634D01*
X291810Y65452D01*
X291204Y65292D01*
Y65299D01*
X291197Y65306D01*
X291190Y65328D01*
X291182Y65357D01*
X291161Y65423D01*
X291131Y65510D01*
X291088Y65612D01*
X291037Y65707D01*
X290986Y65809D01*
X290920Y65897D01*
X290913Y65904D01*
X290891Y65933D01*
X290847Y65970D01*
X290796Y66021D01*
X290731Y66079D01*
X290643Y66137D01*
X290548Y66196D01*
X290439Y66247D01*
X290424Y66254D01*
X290388Y66268D01*
X290322Y66290D01*
X290235Y66320D01*
X290133Y66341D01*
X290016Y66363D01*
X289885Y66378D01*
X289746Y66385D01*
X289666D01*
X289630Y66378D01*
X289586D01*
X289477Y66370D01*
X289353Y66349D01*
X289214Y66327D01*
X289083Y66290D01*
X288952Y66239D01*
X288937Y66232D01*
X288893Y66217D01*
X288835Y66181D01*
X288762Y66145D01*
X288675Y66086D01*
X288580Y66028D01*
X288492Y65955D01*
X288412Y65875D01*
X288405Y65868D01*
X288376Y65838D01*
X288339Y65787D01*
X288296Y65729D01*
X288245Y65656D01*
X288194Y65569D01*
X288143Y65474D01*
X288092Y65372D01*
Y65364D01*
X288084Y65350D01*
X288077Y65328D01*
X288062Y65292D01*
X288048Y65248D01*
X288033Y65197D01*
X288011Y65139D01*
X287997Y65073D01*
X287960Y64920D01*
X287931Y64745D01*
X287909Y64563D01*
X287902Y64359D01*
Y64351D01*
Y64329D01*
Y64293D01*
X287909Y64249D01*
Y64191D01*
X287917Y64118D01*
X287924Y64045D01*
X287931Y63965D01*
X287960Y63783D01*
X287997Y63593D01*
X288055Y63403D01*
X288128Y63221D01*
Y63214D01*
X288143Y63199D01*
X288150Y63178D01*
X288172Y63148D01*
X288223Y63068D01*
X288303Y62966D01*
X288398Y62857D01*
X288514Y62747D01*
X288653Y62645D01*
X288806Y62551D01*
X288813D01*
X288828Y62543D01*
X288850Y62529D01*
X288886Y62514D01*
X288923Y62499D01*
X288974Y62485D01*
X289090Y62441D01*
X289236Y62405D01*
X289397Y62368D01*
X289571Y62339D01*
X289754Y62332D01*
X289827D01*
X289870Y62339D01*
X289914D01*
X290023Y62354D01*
X290155Y62368D01*
X290293Y62397D01*
X290446Y62441D01*
X290599Y62492D01*
X290607D01*
X290621Y62499D01*
X290636Y62507D01*
X290665Y62521D01*
X290745Y62558D01*
X290833Y62602D01*
X290935Y62653D01*
X291044Y62711D01*
X291146Y62777D01*
X291233Y62849D01*
Y63797D01*
X289746D01*
Y64395D01*
X291890D01*
Y62521D01*
X291882Y62514D01*
X291868Y62507D01*
X291839Y62485D01*
X291802Y62456D01*
X291758Y62427D01*
X291707Y62390D01*
X291642Y62347D01*
X291576Y62303D01*
X291423Y62208D01*
X291248Y62106D01*
X291066Y62011D01*
X290869Y61931D01*
X290862D01*
X290847Y61924D01*
X290818Y61916D01*
X290782Y61902D01*
X290731Y61887D01*
X290672Y61865D01*
X290607Y61851D01*
X290541Y61836D01*
X290381Y61800D01*
X290198Y61763D01*
X290002Y61741D01*
X289797Y61734D01*
X289724D01*
X289673Y61741D01*
X289608D01*
X289528Y61749D01*
X289440Y61763D01*
X289345Y61771D01*
X289134Y61814D01*
X288908Y61865D01*
X288675Y61945D01*
X288558Y61989D01*
X288441Y62048D01*
X288434Y62055D01*
X288412Y62062D01*
X288383Y62084D01*
X288339Y62106D01*
X288288Y62142D01*
X288237Y62179D01*
X288099Y62281D01*
X287953Y62412D01*
X287800Y62572D01*
X287654Y62755D01*
X287523Y62966D01*
Y62973D01*
X287508Y62995D01*
X287494Y63024D01*
X287472Y63076D01*
X287450Y63126D01*
X287428Y63199D01*
X287399Y63272D01*
X287370Y63360D01*
X287341Y63455D01*
X287312Y63564D01*
X287290Y63673D01*
X287268Y63790D01*
X287231Y64045D01*
X287217Y64315D01*
Y64322D01*
Y64351D01*
Y64388D01*
X287224Y64439D01*
Y64504D01*
X287231Y64584D01*
X287246Y64665D01*
X287253Y64759D01*
X287275Y64862D01*
X287290Y64971D01*
X287348Y65204D01*
X287421Y65445D01*
X287523Y65685D01*
X287530Y65693D01*
X287538Y65714D01*
X287552Y65744D01*
X287581Y65787D01*
X287610Y65846D01*
X287647Y65904D01*
X287749Y66043D01*
X287873Y66203D01*
X288026Y66356D01*
X288201Y66509D01*
X288303Y66575D01*
X288405Y66640D01*
X288412Y66648D01*
X288434Y66655D01*
X288463Y66669D01*
X288507Y66691D01*
X288565Y66713D01*
X288631Y66742D01*
X288704Y66772D01*
X288791Y66801D01*
X288886Y66830D01*
X288988Y66852D01*
X289098Y66881D01*
X289214Y66903D01*
X289469Y66939D01*
X289601Y66954D01*
X289834D01*
X289878Y66947D01*
D02*
G37*
G36*
X279606Y61822D02*
X278913D01*
X276274Y65780D01*
Y61822D01*
X275633D01*
Y66866D01*
X276318D01*
X278964Y62901D01*
Y66866D01*
X279606D01*
Y61822D01*
D02*
G37*
G36*
X282857D02*
X282157D01*
X280204Y66866D01*
X280933D01*
X282245Y63199D01*
Y63192D01*
X282252Y63178D01*
X282259Y63156D01*
X282274Y63126D01*
X282281Y63083D01*
X282296Y63039D01*
X282332Y62930D01*
X282376Y62806D01*
X282420Y62667D01*
X282507Y62376D01*
Y62383D01*
X282515Y62397D01*
X282522Y62419D01*
X282529Y62449D01*
X282551Y62529D01*
X282588Y62638D01*
X282624Y62762D01*
X282668Y62901D01*
X282719Y63046D01*
X282777Y63199D01*
X284148Y66866D01*
X284826D01*
X282857Y61822D01*
D02*
G37*
G36*
X293515Y62419D02*
X296001D01*
Y61822D01*
X292845D01*
Y66866D01*
X293515D01*
Y62419D01*
D02*
G37*
G36*
X272622Y66859D02*
X272768Y66852D01*
X272914Y66837D01*
X273060Y66815D01*
X273183Y66793D01*
X273191D01*
X273205Y66786D01*
X273227D01*
X273256Y66772D01*
X273337Y66750D01*
X273439Y66713D01*
X273555Y66662D01*
X273679Y66597D01*
X273803Y66524D01*
X273920Y66429D01*
X273927Y66422D01*
X273934Y66414D01*
X273956Y66392D01*
X273985Y66370D01*
X274058Y66298D01*
X274146Y66196D01*
X274240Y66072D01*
X274343Y65926D01*
X274437Y65758D01*
X274518Y65569D01*
Y65561D01*
X274525Y65547D01*
X274539Y65518D01*
X274547Y65474D01*
X274569Y65423D01*
X274583Y65364D01*
X274598Y65299D01*
X274620Y65219D01*
X274641Y65139D01*
X274656Y65044D01*
X274693Y64840D01*
X274714Y64614D01*
X274722Y64366D01*
Y64359D01*
Y64344D01*
Y64307D01*
Y64271D01*
X274714Y64220D01*
Y64162D01*
X274707Y64023D01*
X274685Y63863D01*
X274663Y63695D01*
X274627Y63520D01*
X274583Y63345D01*
Y63338D01*
X274576Y63323D01*
X274569Y63301D01*
X274561Y63272D01*
X274532Y63192D01*
X274488Y63090D01*
X274445Y62973D01*
X274386Y62857D01*
X274313Y62733D01*
X274240Y62616D01*
X274233Y62602D01*
X274204Y62565D01*
X274160Y62514D01*
X274102Y62449D01*
X274036Y62376D01*
X273956Y62303D01*
X273876Y62222D01*
X273781Y62157D01*
X273767Y62150D01*
X273738Y62128D01*
X273687Y62099D01*
X273614Y62062D01*
X273526Y62018D01*
X273424Y61982D01*
X273307Y61938D01*
X273176Y61902D01*
X273162D01*
X273140Y61895D01*
X273118Y61887D01*
X273045Y61880D01*
X272943Y61865D01*
X272826Y61851D01*
X272688Y61836D01*
X272535Y61829D01*
X272367Y61822D01*
X270552D01*
Y66866D01*
X272491D01*
X272622Y66859D01*
D02*
G37*
G36*
X284221Y60018D02*
X283601D01*
Y60725D01*
X284221D01*
Y60018D01*
D02*
G37*
G36*
X300353Y59413D02*
X300433Y59398D01*
X300528Y59369D01*
X300630Y59333D01*
X300747Y59282D01*
X300871Y59216D01*
X300645Y58648D01*
X300638Y58655D01*
X300608Y58669D01*
X300565Y58691D01*
X300506Y58713D01*
X300441Y58735D01*
X300361Y58757D01*
X300280Y58771D01*
X300200Y58779D01*
X300164D01*
X300127Y58771D01*
X300076Y58764D01*
X300025Y58750D01*
X299960Y58728D01*
X299894Y58698D01*
X299836Y58655D01*
X299829Y58648D01*
X299807Y58633D01*
X299785Y58604D01*
X299748Y58567D01*
X299712Y58516D01*
X299675Y58458D01*
X299639Y58392D01*
X299610Y58312D01*
X299603Y58298D01*
X299595Y58254D01*
X299581Y58188D01*
X299559Y58101D01*
X299537Y57991D01*
X299522Y57867D01*
X299515Y57736D01*
X299508Y57591D01*
Y55681D01*
X298888D01*
Y59340D01*
X299449D01*
Y58786D01*
X299457Y58793D01*
X299486Y58844D01*
X299522Y58910D01*
X299581Y58990D01*
X299639Y59070D01*
X299705Y59158D01*
X299770Y59231D01*
X299836Y59289D01*
X299843Y59296D01*
X299865Y59311D01*
X299909Y59333D01*
X299952Y59355D01*
X300011Y59377D01*
X300084Y59398D01*
X300156Y59413D01*
X300237Y59420D01*
X300288D01*
X300353Y59413D01*
D02*
G37*
G36*
X272834Y55681D02*
X272280D01*
Y56213D01*
X272272Y56205D01*
X272258Y56183D01*
X272236Y56154D01*
X272199Y56118D01*
X272156Y56074D01*
X272105Y56016D01*
X272046Y55965D01*
X271973Y55906D01*
X271893Y55848D01*
X271806Y55797D01*
X271711Y55746D01*
X271609Y55695D01*
X271492Y55659D01*
X271376Y55629D01*
X271244Y55608D01*
X271113Y55600D01*
X271062D01*
X270996Y55608D01*
X270916Y55615D01*
X270821Y55629D01*
X270720Y55651D01*
X270617Y55681D01*
X270508Y55724D01*
X270494Y55731D01*
X270464Y55746D01*
X270413Y55775D01*
X270355Y55812D01*
X270282Y55855D01*
X270216Y55906D01*
X270151Y55965D01*
X270093Y56030D01*
X270085Y56038D01*
X270071Y56067D01*
X270049Y56103D01*
X270020Y56162D01*
X269983Y56227D01*
X269954Y56307D01*
X269925Y56395D01*
X269903Y56490D01*
Y56497D01*
X269896Y56526D01*
X269888Y56570D01*
Y56628D01*
X269881Y56716D01*
X269874Y56810D01*
X269867Y56934D01*
Y57073D01*
Y59340D01*
X270486D01*
Y57306D01*
Y57299D01*
Y57284D01*
Y57262D01*
Y57226D01*
Y57146D01*
X270494Y57044D01*
Y56934D01*
X270501Y56825D01*
X270508Y56730D01*
X270523Y56650D01*
Y56643D01*
X270537Y56614D01*
X270552Y56570D01*
X270574Y56511D01*
X270610Y56453D01*
X270654Y56388D01*
X270705Y56329D01*
X270771Y56271D01*
X270778Y56264D01*
X270807Y56249D01*
X270843Y56227D01*
X270902Y56205D01*
X270967Y56176D01*
X271047Y56154D01*
X271135Y56140D01*
X271237Y56133D01*
X271288D01*
X271339Y56140D01*
X271405Y56147D01*
X271485Y56169D01*
X271572Y56191D01*
X271667Y56227D01*
X271762Y56271D01*
X271777Y56278D01*
X271806Y56300D01*
X271849Y56329D01*
X271901Y56373D01*
X271959Y56431D01*
X272017Y56497D01*
X272068Y56570D01*
X272112Y56657D01*
X272119Y56672D01*
X272127Y56701D01*
X272141Y56759D01*
X272163Y56840D01*
X272185Y56942D01*
X272199Y57066D01*
X272207Y57211D01*
X272214Y57379D01*
Y59340D01*
X272834D01*
Y55681D01*
D02*
G37*
G36*
X289710Y58917D02*
X289717Y58925D01*
X289732Y58939D01*
X289754Y58961D01*
X289790Y58997D01*
X289827Y59034D01*
X289878Y59078D01*
X289943Y59121D01*
X290009Y59172D01*
X290082Y59216D01*
X290162Y59260D01*
X290352Y59340D01*
X290454Y59377D01*
X290563Y59398D01*
X290680Y59413D01*
X290796Y59420D01*
X290862D01*
X290942Y59413D01*
X291037Y59398D01*
X291146Y59384D01*
X291263Y59355D01*
X291379Y59311D01*
X291496Y59260D01*
X291511Y59253D01*
X291547Y59231D01*
X291598Y59194D01*
X291664Y59143D01*
X291729Y59078D01*
X291802Y59005D01*
X291868Y58917D01*
X291926Y58815D01*
X291933Y58801D01*
X291948Y58764D01*
X291970Y58698D01*
X291992Y58604D01*
X292014Y58487D01*
X292035Y58349D01*
X292050Y58181D01*
X292057Y57991D01*
Y55681D01*
X291438D01*
Y57999D01*
Y58006D01*
Y58021D01*
Y58042D01*
Y58072D01*
X291430Y58152D01*
X291416Y58254D01*
X291387Y58363D01*
X291350Y58473D01*
X291299Y58582D01*
X291233Y58669D01*
X291226Y58677D01*
X291197Y58706D01*
X291153Y58742D01*
X291088Y58779D01*
X291007Y58823D01*
X290913Y58852D01*
X290796Y58881D01*
X290665Y58888D01*
X290621D01*
X290570Y58881D01*
X290497Y58873D01*
X290424Y58852D01*
X290337Y58830D01*
X290249Y58793D01*
X290155Y58742D01*
X290147Y58735D01*
X290118Y58713D01*
X290074Y58684D01*
X290023Y58640D01*
X289965Y58582D01*
X289907Y58516D01*
X289856Y58436D01*
X289812Y58349D01*
X289805Y58334D01*
X289797Y58305D01*
X289783Y58247D01*
X289761Y58174D01*
X289739Y58079D01*
X289724Y57962D01*
X289717Y57831D01*
X289710Y57678D01*
Y55681D01*
X289090D01*
Y60725D01*
X289710D01*
Y58917D01*
D02*
G37*
G36*
X284221Y55681D02*
X283601D01*
Y59340D01*
X284221D01*
Y55681D01*
D02*
G37*
G36*
X282814Y60127D02*
X280073D01*
Y58567D01*
X282442D01*
Y57969D01*
X280073D01*
Y55681D01*
X279402D01*
Y60725D01*
X282814D01*
Y60127D01*
D02*
G37*
G36*
X278330Y55681D02*
X277711D01*
Y60725D01*
X278330D01*
Y55681D01*
D02*
G37*
G36*
X269094Y60127D02*
X266353D01*
Y58567D01*
X268722D01*
Y57969D01*
X266353D01*
Y55681D01*
X265682D01*
Y60725D01*
X269094D01*
Y60127D01*
D02*
G37*
G36*
X293734Y59340D02*
X294361D01*
Y58859D01*
X293734D01*
Y56708D01*
Y56694D01*
Y56665D01*
Y56621D01*
X293741Y56570D01*
X293749Y56453D01*
X293756Y56402D01*
X293763Y56366D01*
X293771Y56351D01*
X293792Y56322D01*
X293822Y56286D01*
X293872Y56249D01*
X293887Y56242D01*
X293923Y56227D01*
X293989Y56213D01*
X294084Y56205D01*
X294157D01*
X294193Y56213D01*
X294244D01*
X294303Y56220D01*
X294361Y56227D01*
X294441Y55681D01*
X294427D01*
X294397Y55673D01*
X294346Y55666D01*
X294281Y55659D01*
X294208Y55644D01*
X294128Y55637D01*
X293967Y55629D01*
X293909D01*
X293851Y55637D01*
X293778Y55644D01*
X293690Y55651D01*
X293603Y55673D01*
X293523Y55695D01*
X293442Y55731D01*
X293435Y55739D01*
X293413Y55753D01*
X293384Y55775D01*
X293340Y55812D01*
X293304Y55848D01*
X293260Y55899D01*
X293216Y55950D01*
X293187Y56016D01*
Y56023D01*
X293173Y56052D01*
X293165Y56103D01*
X293151Y56176D01*
X293136Y56271D01*
X293129Y56329D01*
Y56395D01*
X293122Y56475D01*
X293114Y56555D01*
Y56643D01*
Y56745D01*
Y58859D01*
X292655D01*
Y59340D01*
X293114D01*
Y60244D01*
X293734Y60616D01*
Y59340D01*
D02*
G37*
G36*
X296592Y59413D02*
X296650Y59406D01*
X296723Y59391D01*
X296803Y59377D01*
X296898Y59355D01*
X296985Y59333D01*
X297087Y59296D01*
X297182Y59260D01*
X297284Y59209D01*
X297386Y59150D01*
X297488Y59085D01*
X297583Y59005D01*
X297671Y58917D01*
X297678Y58910D01*
X297692Y58895D01*
X297714Y58866D01*
X297744Y58823D01*
X297780Y58771D01*
X297816Y58713D01*
X297860Y58640D01*
X297904Y58553D01*
X297948Y58458D01*
X297991Y58356D01*
X298028Y58239D01*
X298064Y58115D01*
X298093Y57977D01*
X298115Y57831D01*
X298130Y57678D01*
X298137Y57510D01*
Y57503D01*
Y57474D01*
Y57423D01*
X298130Y57350D01*
X295396D01*
Y57343D01*
Y57321D01*
X295403Y57292D01*
Y57248D01*
X295411Y57197D01*
X295425Y57139D01*
X295447Y57007D01*
X295491Y56862D01*
X295549Y56701D01*
X295629Y56555D01*
X295731Y56424D01*
X295739D01*
X295746Y56410D01*
X295790Y56373D01*
X295855Y56322D01*
X295943Y56271D01*
X296059Y56213D01*
X296191Y56162D01*
X296337Y56125D01*
X296417Y56118D01*
X296504Y56111D01*
X296563D01*
X296628Y56118D01*
X296708Y56133D01*
X296796Y56154D01*
X296898Y56183D01*
X296993Y56227D01*
X297087Y56286D01*
X297095Y56293D01*
X297131Y56322D01*
X297175Y56366D01*
X297226Y56424D01*
X297284Y56504D01*
X297350Y56606D01*
X297415Y56723D01*
X297474Y56862D01*
X298115Y56781D01*
Y56774D01*
X298108Y56759D01*
X298101Y56730D01*
X298086Y56687D01*
X298064Y56643D01*
X298042Y56584D01*
X297984Y56460D01*
X297911Y56322D01*
X297809Y56176D01*
X297692Y56038D01*
X297547Y55906D01*
X297539D01*
X297525Y55892D01*
X297503Y55877D01*
X297474Y55855D01*
X297430Y55834D01*
X297386Y55812D01*
X297328Y55783D01*
X297262Y55753D01*
X297189Y55724D01*
X297117Y55695D01*
X296934Y55651D01*
X296730Y55615D01*
X296504Y55600D01*
X296424D01*
X296373Y55608D01*
X296307Y55615D01*
X296227Y55629D01*
X296140Y55644D01*
X296045Y55659D01*
X295841Y55717D01*
X295731Y55761D01*
X295629Y55804D01*
X295520Y55863D01*
X295418Y55928D01*
X295323Y56001D01*
X295229Y56089D01*
X295221Y56096D01*
X295207Y56111D01*
X295185Y56140D01*
X295156Y56183D01*
X295119Y56235D01*
X295083Y56293D01*
X295039Y56366D01*
X294995Y56446D01*
X294951Y56541D01*
X294908Y56643D01*
X294871Y56759D01*
X294835Y56883D01*
X294806Y57015D01*
X294784Y57160D01*
X294769Y57313D01*
X294762Y57474D01*
Y57481D01*
Y57518D01*
Y57561D01*
X294769Y57627D01*
X294777Y57707D01*
X294784Y57795D01*
X294798Y57897D01*
X294820Y57999D01*
X294879Y58232D01*
X294915Y58349D01*
X294959Y58473D01*
X295017Y58589D01*
X295083Y58698D01*
X295156Y58808D01*
X295236Y58910D01*
X295243Y58917D01*
X295258Y58932D01*
X295287Y58954D01*
X295323Y58990D01*
X295367Y59027D01*
X295425Y59070D01*
X295491Y59121D01*
X295571Y59165D01*
X295651Y59216D01*
X295746Y59260D01*
X295848Y59304D01*
X295957Y59340D01*
X296074Y59377D01*
X296198Y59398D01*
X296329Y59413D01*
X296468Y59420D01*
X296541D01*
X296592Y59413D01*
D02*
G37*
G36*
X275422D02*
X275480Y59406D01*
X275553Y59391D01*
X275633Y59377D01*
X275728Y59355D01*
X275815Y59333D01*
X275917Y59296D01*
X276012Y59260D01*
X276114Y59209D01*
X276216Y59150D01*
X276318Y59085D01*
X276413Y59005D01*
X276501Y58917D01*
X276508Y58910D01*
X276522Y58895D01*
X276544Y58866D01*
X276573Y58823D01*
X276610Y58771D01*
X276646Y58713D01*
X276690Y58640D01*
X276734Y58553D01*
X276778Y58458D01*
X276821Y58356D01*
X276858Y58239D01*
X276894Y58115D01*
X276923Y57977D01*
X276945Y57831D01*
X276960Y57678D01*
X276967Y57510D01*
Y57503D01*
Y57474D01*
Y57423D01*
X276960Y57350D01*
X274226D01*
Y57343D01*
Y57321D01*
X274233Y57292D01*
Y57248D01*
X274240Y57197D01*
X274255Y57139D01*
X274277Y57007D01*
X274321Y56862D01*
X274379Y56701D01*
X274459Y56555D01*
X274561Y56424D01*
X274569D01*
X274576Y56410D01*
X274620Y56373D01*
X274685Y56322D01*
X274773Y56271D01*
X274889Y56213D01*
X275021Y56162D01*
X275166Y56125D01*
X275247Y56118D01*
X275334Y56111D01*
X275392D01*
X275458Y56118D01*
X275538Y56133D01*
X275626Y56154D01*
X275728Y56183D01*
X275822Y56227D01*
X275917Y56286D01*
X275924Y56293D01*
X275961Y56322D01*
X276005Y56366D01*
X276056Y56424D01*
X276114Y56504D01*
X276180Y56606D01*
X276245Y56723D01*
X276304Y56862D01*
X276945Y56781D01*
Y56774D01*
X276938Y56759D01*
X276931Y56730D01*
X276916Y56687D01*
X276894Y56643D01*
X276872Y56584D01*
X276814Y56460D01*
X276741Y56322D01*
X276639Y56176D01*
X276522Y56038D01*
X276377Y55906D01*
X276369D01*
X276355Y55892D01*
X276333Y55877D01*
X276304Y55855D01*
X276260Y55834D01*
X276216Y55812D01*
X276158Y55783D01*
X276092Y55753D01*
X276019Y55724D01*
X275946Y55695D01*
X275764Y55651D01*
X275560Y55615D01*
X275334Y55600D01*
X275254D01*
X275203Y55608D01*
X275137Y55615D01*
X275057Y55629D01*
X274970Y55644D01*
X274875Y55659D01*
X274671Y55717D01*
X274561Y55761D01*
X274459Y55804D01*
X274350Y55863D01*
X274248Y55928D01*
X274153Y56001D01*
X274058Y56089D01*
X274051Y56096D01*
X274036Y56111D01*
X274015Y56140D01*
X273985Y56183D01*
X273949Y56235D01*
X273913Y56293D01*
X273869Y56366D01*
X273825Y56446D01*
X273781Y56541D01*
X273738Y56643D01*
X273701Y56759D01*
X273665Y56883D01*
X273636Y57015D01*
X273614Y57160D01*
X273599Y57313D01*
X273592Y57474D01*
Y57481D01*
Y57518D01*
Y57561D01*
X273599Y57627D01*
X273606Y57707D01*
X273614Y57795D01*
X273628Y57897D01*
X273650Y57999D01*
X273708Y58232D01*
X273745Y58349D01*
X273789Y58473D01*
X273847Y58589D01*
X273913Y58698D01*
X273985Y58808D01*
X274066Y58910D01*
X274073Y58917D01*
X274088Y58932D01*
X274117Y58954D01*
X274153Y58990D01*
X274197Y59027D01*
X274255Y59070D01*
X274321Y59121D01*
X274401Y59165D01*
X274481Y59216D01*
X274576Y59260D01*
X274678Y59304D01*
X274787Y59340D01*
X274904Y59377D01*
X275028Y59398D01*
X275159Y59413D01*
X275298Y59420D01*
X275371D01*
X275422Y59413D01*
D02*
G37*
G36*
X286619D02*
X286670Y59406D01*
X286736Y59391D01*
X286808Y59377D01*
X286889Y59355D01*
X286969Y59325D01*
X287056Y59289D01*
X287144Y59245D01*
X287239Y59194D01*
X287326Y59136D01*
X287414Y59063D01*
X287501Y58983D01*
X287581Y58888D01*
Y59340D01*
X288150D01*
Y56176D01*
Y56169D01*
Y56140D01*
Y56096D01*
Y56038D01*
X288143Y55972D01*
Y55892D01*
X288135Y55804D01*
X288128Y55710D01*
X288106Y55513D01*
X288077Y55309D01*
X288055Y55214D01*
X288033Y55126D01*
X288004Y55046D01*
X287975Y54973D01*
Y54966D01*
X287968Y54959D01*
X287938Y54915D01*
X287902Y54849D01*
X287844Y54769D01*
X287764Y54682D01*
X287669Y54587D01*
X287552Y54492D01*
X287421Y54412D01*
X287414D01*
X287406Y54405D01*
X287384Y54390D01*
X287355Y54383D01*
X287319Y54361D01*
X287275Y54346D01*
X287166Y54310D01*
X287035Y54266D01*
X286874Y54237D01*
X286692Y54208D01*
X286495Y54201D01*
X286429D01*
X286386Y54208D01*
X286327D01*
X286269Y54215D01*
X286196Y54223D01*
X286116Y54237D01*
X285948Y54273D01*
X285773Y54325D01*
X285598Y54397D01*
X285438Y54500D01*
X285431Y54507D01*
X285423Y54514D01*
X285372Y54558D01*
X285314Y54623D01*
X285241Y54718D01*
X285168Y54842D01*
X285103Y54995D01*
X285081Y55083D01*
X285066Y55177D01*
X285052Y55272D01*
Y55382D01*
X285657Y55301D01*
Y55287D01*
X285664Y55258D01*
X285679Y55207D01*
X285693Y55141D01*
X285722Y55075D01*
X285759Y55010D01*
X285803Y54944D01*
X285861Y54893D01*
X285875Y54886D01*
X285905Y54864D01*
X285956Y54835D01*
X286029Y54806D01*
X286116Y54769D01*
X286225Y54740D01*
X286356Y54718D01*
X286495Y54711D01*
X286568D01*
X286641Y54718D01*
X286743Y54733D01*
X286845Y54755D01*
X286954Y54784D01*
X287064Y54827D01*
X287158Y54886D01*
X287166Y54893D01*
X287195Y54915D01*
X287239Y54959D01*
X287290Y55010D01*
X287341Y55083D01*
X287392Y55163D01*
X287443Y55258D01*
X287479Y55367D01*
Y55374D01*
X287487Y55404D01*
X287494Y55462D01*
X287501Y55535D01*
X287508Y55586D01*
Y55644D01*
X287516Y55710D01*
Y55783D01*
Y55863D01*
X287523Y55958D01*
Y56052D01*
Y56162D01*
X287516Y56154D01*
X287501Y56140D01*
X287479Y56118D01*
X287450Y56089D01*
X287414Y56052D01*
X287363Y56008D01*
X287304Y55965D01*
X287246Y55921D01*
X287093Y55834D01*
X286925Y55753D01*
X286830Y55724D01*
X286728Y55702D01*
X286619Y55688D01*
X286510Y55681D01*
X286473D01*
X286437Y55688D01*
X286386D01*
X286320Y55695D01*
X286247Y55710D01*
X286167Y55724D01*
X286080Y55746D01*
X285985Y55775D01*
X285890Y55812D01*
X285795Y55855D01*
X285693Y55906D01*
X285598Y55972D01*
X285504Y56045D01*
X285416Y56125D01*
X285336Y56220D01*
X285329Y56227D01*
X285321Y56242D01*
X285299Y56278D01*
X285270Y56315D01*
X285241Y56373D01*
X285205Y56431D01*
X285168Y56504D01*
X285132Y56592D01*
X285095Y56679D01*
X285059Y56781D01*
X285022Y56883D01*
X284993Y57000D01*
X284942Y57248D01*
X284935Y57386D01*
X284928Y57525D01*
Y57532D01*
Y57547D01*
Y57576D01*
Y57612D01*
X284935Y57663D01*
Y57714D01*
X284950Y57846D01*
X284971Y57991D01*
X285008Y58152D01*
X285052Y58319D01*
X285117Y58487D01*
Y58494D01*
X285124Y58509D01*
X285139Y58531D01*
X285154Y58560D01*
X285197Y58640D01*
X285256Y58742D01*
X285336Y58852D01*
X285431Y58961D01*
X285540Y59078D01*
X285664Y59172D01*
X285671D01*
X285679Y59180D01*
X285700Y59194D01*
X285730Y59209D01*
X285803Y59253D01*
X285905Y59296D01*
X286029Y59340D01*
X286174Y59384D01*
X286335Y59413D01*
X286510Y59420D01*
X286575D01*
X286619Y59413D01*
D02*
G37*
%LPC*%
G36*
X272389Y66268D02*
X271222D01*
Y62419D01*
X272418D01*
X272469Y62427D01*
X272578Y62434D01*
X272702Y62441D01*
X272834Y62456D01*
X272965Y62478D01*
X273074Y62507D01*
X273089Y62514D01*
X273125Y62521D01*
X273176Y62543D01*
X273242Y62572D01*
X273315Y62616D01*
X273388Y62660D01*
X273461Y62711D01*
X273533Y62769D01*
X273541Y62784D01*
X273570Y62813D01*
X273614Y62864D01*
X273665Y62937D01*
X273723Y63032D01*
X273789Y63141D01*
X273847Y63265D01*
X273898Y63403D01*
Y63411D01*
X273905Y63425D01*
X273913Y63447D01*
X273920Y63476D01*
X273927Y63513D01*
X273942Y63564D01*
X273956Y63615D01*
X273971Y63673D01*
X273993Y63819D01*
X274015Y63987D01*
X274029Y64176D01*
X274036Y64380D01*
Y64388D01*
Y64417D01*
Y64453D01*
X274029Y64512D01*
Y64577D01*
X274022Y64650D01*
X274015Y64738D01*
X274007Y64825D01*
X273971Y65022D01*
X273927Y65226D01*
X273862Y65416D01*
X273818Y65510D01*
X273774Y65591D01*
Y65598D01*
X273759Y65612D01*
X273745Y65634D01*
X273730Y65663D01*
X273672Y65736D01*
X273599Y65824D01*
X273504Y65919D01*
X273395Y66013D01*
X273271Y66093D01*
X273140Y66159D01*
X273125Y66166D01*
X273089Y66174D01*
X273023Y66196D01*
X272928Y66217D01*
X272812Y66232D01*
X272666Y66254D01*
X272578Y66261D01*
X272484D01*
X272389Y66268D01*
D02*
G37*
G36*
X296475Y58910D02*
X296431D01*
X296402Y58903D01*
X296322Y58895D01*
X296227Y58873D01*
X296111Y58837D01*
X295987Y58786D01*
X295870Y58713D01*
X295753Y58618D01*
X295739Y58604D01*
X295710Y58567D01*
X295659Y58502D01*
X295607Y58414D01*
X295549Y58312D01*
X295498Y58181D01*
X295454Y58028D01*
X295433Y57860D01*
X297481D01*
Y57867D01*
Y57882D01*
X297474Y57904D01*
Y57933D01*
X297459Y58021D01*
X297437Y58115D01*
X297401Y58232D01*
X297364Y58341D01*
X297306Y58451D01*
X297240Y58546D01*
Y58553D01*
X297226Y58560D01*
X297189Y58604D01*
X297124Y58662D01*
X297036Y58728D01*
X296927Y58793D01*
X296796Y58852D01*
X296643Y58895D01*
X296563Y58903D01*
X296475Y58910D01*
D02*
G37*
G36*
X275305D02*
X275261D01*
X275232Y58903D01*
X275152Y58895D01*
X275057Y58873D01*
X274940Y58837D01*
X274816Y58786D01*
X274700Y58713D01*
X274583Y58618D01*
X274569Y58604D01*
X274539Y58567D01*
X274488Y58502D01*
X274437Y58414D01*
X274379Y58312D01*
X274328Y58181D01*
X274284Y58028D01*
X274262Y57860D01*
X276311D01*
Y57867D01*
Y57882D01*
X276304Y57904D01*
Y57933D01*
X276289Y58021D01*
X276267Y58115D01*
X276231Y58232D01*
X276194Y58341D01*
X276136Y58451D01*
X276070Y58546D01*
Y58553D01*
X276056Y58560D01*
X276019Y58604D01*
X275954Y58662D01*
X275866Y58728D01*
X275757Y58793D01*
X275626Y58852D01*
X275473Y58895D01*
X275392Y58903D01*
X275305Y58910D01*
D02*
G37*
G36*
X286634D02*
X286517D01*
X286488Y58903D01*
X286408Y58895D01*
X286313Y58866D01*
X286196Y58830D01*
X286080Y58764D01*
X285963Y58684D01*
X285905Y58626D01*
X285846Y58567D01*
Y58560D01*
X285832Y58553D01*
X285817Y58531D01*
X285803Y58502D01*
X285781Y58473D01*
X285759Y58429D01*
X285730Y58378D01*
X285708Y58319D01*
X285679Y58254D01*
X285649Y58174D01*
X285628Y58094D01*
X285606Y58006D01*
X285591Y57904D01*
X285577Y57802D01*
X285562Y57692D01*
Y57569D01*
Y57561D01*
Y57539D01*
Y57503D01*
X285569Y57452D01*
Y57394D01*
X285577Y57321D01*
X285598Y57168D01*
X285635Y56993D01*
X285679Y56825D01*
X285752Y56657D01*
X285795Y56584D01*
X285846Y56519D01*
X285861Y56504D01*
X285897Y56468D01*
X285956Y56417D01*
X286043Y56358D01*
X286145Y56293D01*
X286269Y56242D01*
X286408Y56205D01*
X286480Y56198D01*
X286561Y56191D01*
X286604D01*
X286634Y56198D01*
X286714Y56205D01*
X286816Y56235D01*
X286925Y56271D01*
X287049Y56329D01*
X287166Y56410D01*
X287224Y56460D01*
X287282Y56519D01*
Y56526D01*
X287297Y56533D01*
X287312Y56555D01*
X287326Y56584D01*
X287348Y56614D01*
X287377Y56657D01*
X287399Y56708D01*
X287428Y56774D01*
X287457Y56840D01*
X287479Y56912D01*
X287508Y57000D01*
X287530Y57095D01*
X287545Y57190D01*
X287559Y57299D01*
X287574Y57423D01*
Y57547D01*
Y57554D01*
Y57576D01*
Y57612D01*
X287567Y57656D01*
Y57714D01*
X287559Y57780D01*
X287538Y57926D01*
X287501Y58094D01*
X287450Y58261D01*
X287377Y58429D01*
X287326Y58502D01*
X287275Y58567D01*
Y58575D01*
X287261Y58582D01*
X287224Y58618D01*
X287158Y58677D01*
X287071Y58742D01*
X286969Y58801D01*
X286845Y58859D01*
X286706Y58895D01*
X286634Y58910D01*
D02*
G37*
%LPD*%
D10*
X208988Y62094D02*
G03*
X208988Y62094I-1181J0D01*
G01*
D11*
X216665Y57153D02*
G03*
X216665Y57153I-492J0D01*
G01*
D12*
X178110Y234327D02*
G03*
X178110Y234327I-394J0D01*
G01*
X58724Y90453D02*
Y120621D01*
X76244Y83858D02*
X83921Y91535D01*
Y120621D01*
X58724D02*
X83921D01*
X65319Y83858D02*
X76244D01*
X58724Y90453D02*
X65319Y83858D01*
X95508Y90031D02*
Y120200D01*
X113028Y83437D02*
X120705Y91114D01*
Y120200D01*
X95508D02*
X120705D01*
X102102Y83437D02*
X113028D01*
X95508Y90031D02*
X102102Y83437D01*
X174209Y150879D02*
Y181047D01*
X149012Y179965D02*
X156689Y187642D01*
X149012Y150879D02*
Y179965D01*
Y150879D02*
X174209D01*
X156689Y187642D02*
X167614D01*
X174209Y181047D01*
X2500Y61847D02*
X42500D01*
X2500D02*
Y111846D01*
X17500Y126847D01*
X27500D01*
X42500Y111846D01*
Y61847D02*
Y111846D01*
X18500Y55862D02*
X26500D01*
X22500Y51862D02*
Y59862D01*
X1500Y148346D02*
X41500D01*
X1500D02*
Y198346D01*
X16500Y213347D01*
X26500D01*
X41500Y198346D01*
Y148346D02*
Y198346D01*
X17500Y142362D02*
X25500D01*
X21500Y138362D02*
Y146362D01*
X260563Y135000D02*
Y175000D01*
X310563D01*
X325563Y160000D01*
Y150000D02*
Y160000D01*
X310563Y135000D02*
X325563Y150000D01*
X260563Y135000D02*
X310563D01*
X254579Y151000D02*
Y159000D01*
X250579Y155000D02*
X258579D01*
X257000Y39598D02*
Y43596D01*
X258999Y45596D01*
X260999Y43596D01*
Y39598D01*
Y42597D01*
X257000D01*
X262998Y43596D02*
Y40597D01*
X263998Y39598D01*
X266997D01*
Y43596D01*
X269996Y44596D02*
Y43596D01*
X268996D01*
X270995D01*
X269996D01*
Y40597D01*
X270995Y39598D01*
X274994D02*
X276993D01*
X277993Y40597D01*
Y42597D01*
X276993Y43596D01*
X274994D01*
X273994Y42597D01*
Y40597D01*
X274994Y39598D01*
X279993D02*
Y43596D01*
X282992D01*
X283991Y42597D01*
Y39598D01*
X286990D02*
X288990D01*
X289989Y40597D01*
Y42597D01*
X288990Y43596D01*
X286990D01*
X285991Y42597D01*
Y40597D01*
X286990Y39598D01*
X291989D02*
Y43596D01*
X292988D01*
X293988Y42597D01*
Y39598D01*
Y42597D01*
X294988Y43596D01*
X295987Y42597D01*
Y39598D01*
X298986D02*
X300986D01*
X301985Y40597D01*
Y42597D01*
X300986Y43596D01*
X298986D01*
X297987Y42597D01*
Y40597D01*
X298986Y39598D01*
X303985Y43596D02*
Y40597D01*
X304984Y39598D01*
X307983D01*
Y43596D01*
X309983Y39598D02*
X312982D01*
X313982Y40597D01*
X312982Y41597D01*
X310982D01*
X309983Y42597D01*
X310982Y43596D01*
X313982D01*
X257000Y30000D02*
Y35998D01*
X259999D01*
X260999Y34998D01*
Y32999D01*
X259999Y31999D01*
X257000D01*
X262998Y35998D02*
Y30000D01*
X265997D01*
X266997Y31000D01*
Y34998D01*
X265997Y35998D01*
X262998D01*
X268996D02*
Y30000D01*
X271995D01*
X272995Y31000D01*
Y31999D01*
X271995Y32999D01*
X268996D01*
X271995D01*
X272995Y33999D01*
Y34998D01*
X271995Y35998D01*
X268996D01*
X280992Y33999D02*
X282992Y30000D01*
X284991Y33999D01*
X286990Y34998D02*
X287990Y35998D01*
X289989D01*
X290989Y34998D01*
Y31000D01*
X289989Y30000D01*
X287990D01*
X286990Y31000D01*
Y34998D01*
X292988Y30000D02*
Y31000D01*
X293988D01*
Y30000D01*
X292988D01*
X297987D02*
X299986D01*
X298986D01*
Y35998D01*
X297987Y34998D01*
X265215Y114498D02*
X264216Y115498D01*
X262216D01*
X261216Y114498D01*
Y113499D01*
X262216Y112499D01*
X264216D01*
X265215Y111499D01*
Y110500D01*
X264216Y109500D01*
X262216D01*
X261216Y110500D01*
X271213Y115498D02*
X267215D01*
Y109500D01*
X271213D01*
X267215Y112499D02*
X269214D01*
X273213Y109500D02*
Y115498D01*
X275212Y113499D01*
X277211Y115498D01*
Y109500D01*
X289208D02*
X285209D01*
X289208Y113499D01*
Y114498D01*
X288208Y115498D01*
X286209D01*
X285209Y114498D01*
X291207D02*
X292207Y115498D01*
X294206D01*
X295205Y114498D01*
Y110500D01*
X294206Y109500D01*
X292207D01*
X291207Y110500D01*
Y114498D01*
X301204Y109500D02*
X297205D01*
X301204Y113499D01*
Y114498D01*
X300204Y115498D01*
X298205D01*
X297205Y114498D01*
X303203D02*
X304203Y115498D01*
X306202D01*
X307202Y114498D01*
Y110500D01*
X306202Y109500D01*
X304203D01*
X303203Y110500D01*
Y114498D01*
X233500Y77500D02*
Y83498D01*
X236499D01*
X237499Y82498D01*
Y80499D01*
X236499Y79499D01*
X233500D01*
X235499D02*
X237499Y77500D01*
X243497Y83498D02*
X239498D01*
Y80499D01*
X241497Y81499D01*
X242497D01*
X243497Y80499D01*
Y78500D01*
X242497Y77500D01*
X240498D01*
X239498Y78500D01*
X201000Y30000D02*
Y35998D01*
X203999D01*
X204999Y34998D01*
Y32999D01*
X203999Y31999D01*
X201000D01*
X202999D02*
X204999Y30000D01*
X209997D02*
Y35998D01*
X206998Y32999D01*
X210997D01*
X238500Y206000D02*
Y211998D01*
X241499D01*
X242499Y210998D01*
Y208999D01*
X241499Y207999D01*
X238500D01*
X240499D02*
X242499Y206000D01*
X244498Y210998D02*
X245498Y211998D01*
X247497D01*
X248497Y210998D01*
Y209999D01*
X247497Y208999D01*
X246497D01*
X247497D01*
X248497Y207999D01*
Y207000D01*
X247497Y206000D01*
X245498D01*
X244498Y207000D01*
X215500Y192000D02*
X209502D01*
Y194999D01*
X210502Y195999D01*
X212501D01*
X213501Y194999D01*
Y192000D01*
Y193999D02*
X215500Y195999D01*
Y201997D02*
Y197998D01*
X211501Y201997D01*
X210502D01*
X209502Y200997D01*
Y198998D01*
X210502Y197998D01*
X180000Y193000D02*
X174002D01*
Y195999D01*
X175002Y196999D01*
X177001D01*
X178001Y195999D01*
Y193000D01*
Y194999D02*
X180000Y196999D01*
Y198998D02*
Y200997D01*
Y199998D01*
X174002D01*
X175002Y198998D01*
X48000Y192000D02*
X53998D01*
Y189001D01*
X52998Y188001D01*
X50999D01*
X49999Y189001D01*
Y192000D01*
X51999Y186002D02*
X49000D01*
X48000Y185002D01*
Y182003D01*
X51999D01*
X52998Y179004D02*
X51999D01*
Y180004D01*
Y178005D01*
Y179004D01*
X49000D01*
X48000Y178005D01*
X47000Y175005D02*
Y171007D01*
X48000Y169007D02*
Y167008D01*
Y168008D01*
X53998D01*
X52998Y169007D01*
X48000Y164009D02*
X51999D01*
X53998Y162010D01*
X51999Y160010D01*
X48000D01*
X50999D01*
Y164009D01*
X47500Y103500D02*
X53498D01*
Y100501D01*
X52498Y99501D01*
X50499D01*
X49499Y100501D01*
Y103500D01*
X51499Y97502D02*
X48500D01*
X47500Y96502D01*
Y93503D01*
X51499D01*
X52498Y90504D02*
X51499D01*
Y91504D01*
Y89504D01*
Y90504D01*
X48500D01*
X47500Y89504D01*
X46500Y86506D02*
Y82507D01*
X53498Y76509D02*
Y80507D01*
X50499D01*
X51499Y78508D01*
Y77508D01*
X50499Y76509D01*
X48500D01*
X47500Y77508D01*
Y79508D01*
X48500Y80507D01*
X47500Y74509D02*
X51499D01*
X53498Y72510D01*
X51499Y70511D01*
X47500D01*
X50499D01*
Y74509D01*
X289000Y178500D02*
Y184498D01*
X291999D01*
X292999Y183498D01*
Y181499D01*
X291999Y180499D01*
X289000D01*
X294998Y178500D02*
X296997D01*
X295998D01*
Y182499D01*
X294998D01*
X299996Y178500D02*
Y182499D01*
X302995D01*
X303995Y181499D01*
Y178500D01*
X305995D02*
Y182499D01*
X308994D01*
X309993Y181499D01*
Y178500D01*
X138500Y14498D02*
Y8500D01*
X142499D01*
X148497D02*
X144498D01*
X148497Y12499D01*
Y13498D01*
X147497Y14498D01*
X145498D01*
X144498Y13498D01*
X100500Y177998D02*
Y172000D01*
X104499D01*
X106498D02*
X108497D01*
X107498D01*
Y177998D01*
X106498Y176998D01*
X83502Y146999D02*
Y143000D01*
X86501D01*
Y144999D01*
Y143000D01*
X89500D01*
Y152997D02*
Y148998D01*
X85501Y152997D01*
X84502D01*
X83502Y151997D01*
Y149998D01*
X84502Y148998D01*
X45873Y14978D02*
X41874D01*
Y11979D01*
X43873D01*
X41874D01*
Y8980D01*
X47872D02*
X49871D01*
X48872D01*
Y14978D01*
X47872Y13979D01*
X191445Y87782D02*
Y81783D01*
X194444D01*
X195444Y82783D01*
Y86782D01*
X194444Y87782D01*
X191445D01*
X201442Y86782D02*
X200442Y87782D01*
X198443D01*
X197443Y86782D01*
Y82783D01*
X198443Y81783D01*
X200442D01*
X201442Y82783D01*
X203441Y87782D02*
Y81783D01*
X206440D01*
X207440Y82783D01*
Y86782D01*
X206440Y87782D01*
X203441D01*
X213438Y86782D02*
X212438Y87782D01*
X210439D01*
X209439Y86782D01*
Y82783D01*
X210439Y81783D01*
X212438D01*
X213438Y82783D01*
X219436Y81783D02*
X215437D01*
X219436Y85782D01*
Y86782D01*
X218436Y87782D01*
X216437D01*
X215437Y86782D01*
X176000Y245498D02*
Y239500D01*
X178999D01*
X179999Y240500D01*
Y244498D01*
X178999Y245498D01*
X176000D01*
X185997Y244498D02*
X184997Y245498D01*
X182998D01*
X181998Y244498D01*
Y240500D01*
X182998Y239500D01*
X184997D01*
X185997Y240500D01*
X187996Y245498D02*
Y239500D01*
X190995D01*
X191995Y240500D01*
Y244498D01*
X190995Y245498D01*
X187996D01*
X197993Y244498D02*
X196993Y245498D01*
X194994D01*
X193994Y244498D01*
Y240500D01*
X194994Y239500D01*
X196993D01*
X197993Y240500D01*
X199992Y239500D02*
X201992D01*
X200992D01*
Y245498D01*
X199992Y244498D01*
X232002Y13500D02*
X238000D01*
Y16499D01*
X237000Y17499D01*
X233002D01*
X232002Y16499D01*
Y13500D01*
X238000Y23497D02*
Y19498D01*
X234001Y23497D01*
X233002D01*
X232002Y22497D01*
Y20498D01*
X233002Y19498D01*
X91500Y248498D02*
Y242500D01*
X94499D01*
X95499Y243500D01*
Y247498D01*
X94499Y248498D01*
X91500D01*
X97498Y242500D02*
X99497D01*
X98498D01*
Y248498D01*
X97498Y247498D01*
X67999Y127998D02*
X66999Y128998D01*
X65000D01*
X64000Y127998D01*
Y124000D01*
X65000Y123000D01*
X66999D01*
X67999Y124000D01*
X69998Y123000D02*
X71997D01*
X70998D01*
Y128998D01*
X69998Y127998D01*
X74996D02*
X75996Y128998D01*
X77996D01*
X78995Y127998D01*
Y124000D01*
X77996Y123000D01*
X75996D01*
X74996Y124000D01*
Y127998D01*
X107499Y127498D02*
X106499Y128498D01*
X104500D01*
X103500Y127498D01*
Y123500D01*
X104500Y122500D01*
X106499D01*
X107499Y123500D01*
X109498D02*
X110498Y122500D01*
X112497D01*
X113497Y123500D01*
Y127498D01*
X112497Y128498D01*
X110498D01*
X109498Y127498D01*
Y126499D01*
X110498Y125499D01*
X113497D01*
X177999Y112498D02*
X176999Y113498D01*
X175000D01*
X174000Y112498D01*
Y108500D01*
X175000Y107500D01*
X176999D01*
X177999Y108500D01*
X179998Y112498D02*
X180998Y113498D01*
X182997D01*
X183997Y112498D01*
Y111499D01*
X182997Y110499D01*
X183997Y109499D01*
Y108500D01*
X182997Y107500D01*
X180998D01*
X179998Y108500D01*
Y109499D01*
X180998Y110499D01*
X179998Y111499D01*
Y112498D01*
X180998Y110499D02*
X182997D01*
X177999Y102998D02*
X176999Y103998D01*
X175000D01*
X174000Y102998D01*
Y99000D01*
X175000Y98000D01*
X176999D01*
X177999Y99000D01*
X179998Y103998D02*
X183997D01*
Y102998D01*
X179998Y99000D01*
Y98000D01*
X217999Y52498D02*
X216999Y53498D01*
X215000D01*
X214000Y52498D01*
Y48500D01*
X215000Y47500D01*
X216999D01*
X217999Y48500D01*
X223997Y53498D02*
X221997Y52498D01*
X219998Y50499D01*
Y48500D01*
X220998Y47500D01*
X222997D01*
X223997Y48500D01*
Y49499D01*
X222997Y50499D01*
X219998D01*
X226499Y211498D02*
X225499Y212498D01*
X223500D01*
X222500Y211498D01*
Y207500D01*
X223500Y206500D01*
X225499D01*
X226499Y207500D01*
X232497Y212498D02*
X228498D01*
Y209499D01*
X230497Y210499D01*
X231497D01*
X232497Y209499D01*
Y207500D01*
X231497Y206500D01*
X229498D01*
X228498Y207500D01*
X159999Y147498D02*
X158999Y148498D01*
X157000D01*
X156000Y147498D01*
Y143500D01*
X157000Y142500D01*
X158999D01*
X159999Y143500D01*
X164997Y142500D02*
Y148498D01*
X161998Y145499D01*
X165997D01*
X193999Y186498D02*
X192999Y187498D01*
X191000D01*
X190000Y186498D01*
Y182500D01*
X191000Y181500D01*
X192999D01*
X193999Y182500D01*
X195998Y186498D02*
X196998Y187498D01*
X198997D01*
X199997Y186498D01*
Y185499D01*
X198997Y184499D01*
X197997D01*
X198997D01*
X199997Y183499D01*
Y182500D01*
X198997Y181500D01*
X196998D01*
X195998Y182500D01*
X247499Y249998D02*
X246499Y250998D01*
X244500D01*
X243500Y249998D01*
Y246000D01*
X244500Y245000D01*
X246499D01*
X247499Y246000D01*
X253497Y245000D02*
X249498D01*
X253497Y248999D01*
Y249998D01*
X252497Y250998D01*
X250498D01*
X249498Y249998D01*
X154502Y236999D02*
X153502Y235999D01*
Y234000D01*
X154502Y233000D01*
X158500D01*
X159500Y234000D01*
Y235999D01*
X158500Y236999D01*
X159500Y238998D02*
Y240997D01*
Y239998D01*
X153502D01*
X154502Y238998D01*
X1000Y1000D02*
X342500D01*
X342500Y255000D02*
X342500Y1000D01*
X1000Y255000D02*
X342500D01*
X1000D02*
X1000Y1000D01*
D13*
X199146Y77842D02*
X211744D01*
X199146Y58157D02*
X211744D01*
X199146D02*
Y77842D01*
X211744Y58157D02*
Y77842D01*
X185634Y25433D02*
X227366D01*
X185634Y27402D02*
X227366D01*
X185634Y9291D02*
X227366D01*
X185634D02*
Y27402D01*
X227366Y9291D02*
Y27402D01*
X45134Y231067D02*
X86866D01*
X45134Y229098D02*
X86866D01*
X45134Y247209D02*
X86866D01*
Y229098D02*
Y247209D01*
X45134Y229098D02*
Y247209D01*
D14*
X181172Y213461D02*
Y233539D01*
X195572D01*
Y213461D02*
Y233539D01*
X181172Y213461D02*
X195572D01*
D15*
X195516Y1516D02*
X197484D01*
X196500D01*
Y7419D01*
X195516Y6435D01*
X214531D02*
X215515Y7419D01*
X217483D01*
X218467Y6435D01*
Y5451D01*
X217483Y4468D01*
X216499D01*
X217483D01*
X218467Y3484D01*
Y2500D01*
X217483Y1516D01*
X215515D01*
X214531Y2500D01*
X76984Y254984D02*
X75016D01*
X76000D01*
Y249081D01*
X76984Y250065D01*
X57968D02*
X56985Y249081D01*
X55017D01*
X54033Y250065D01*
Y251049D01*
X55017Y252032D01*
X56001D01*
X55017D01*
X54033Y253016D01*
Y254000D01*
X55017Y254984D01*
X56985D01*
X57968Y254000D01*
M02*
