%TF.GenerationSoftware,Altium Limited,Altium Designer,19.1.8 (144)*%
G04 Layer_Color=255*
%FSLAX26Y26*%
%MOIN*%
%TF.FileFunction,Pads,Bot*%
%TF.Part,Single*%
G01*
G75*
%TA.AperFunction,ComponentPad*%
%ADD29R,0.059055X0.039370*%
%ADD30R,0.039370X0.059055*%
%ADD31C,0.236220*%
%TA.AperFunction,ViaPad*%
%ADD32C,0.060000*%
%TA.AperFunction,ComponentPad*%
%ADD33R,0.066929X0.066929*%
%ADD34C,0.066929*%
D29*
X695000Y1997638D02*
D03*
X695197Y2178740D02*
D03*
X695000Y1600000D02*
D03*
X695197Y1416929D02*
D03*
D30*
X827638Y365000D02*
D03*
X1008740Y364803D02*
D03*
X430000Y365000D02*
D03*
X246929Y364803D02*
D03*
D31*
X225000Y1068465D02*
D03*
Y785000D02*
D03*
X215000Y1933465D02*
D03*
Y1650000D02*
D03*
X3055630Y1550000D02*
D03*
X2772165D02*
D03*
D32*
X3305000Y2420000D02*
D03*
X3275000Y160000D02*
D03*
X140000Y125000D02*
D03*
X160000Y2455000D02*
D03*
D33*
X1965000Y150000D02*
D03*
X760000Y2415000D02*
D03*
D34*
X2165000Y150000D02*
D03*
X560000Y2415000D02*
D03*
%TF.MD5,3d89dd4e35f80aa818b87ef72e376b12*%
M02*
