G04*
G04 #@! TF.GenerationSoftware,Altium Limited,Altium Designer,20.0.12 (288)*
G04*
G04 Layer_Color=255*
%FSLAX25Y25*%
%MOIN*%
G70*
G01*
G75*
%ADD16R,0.05118X0.04134*%
%ADD17R,0.04134X0.05118*%
%ADD18R,0.12402X0.49213*%
%ADD19R,0.10866X0.40630*%
%ADD20R,0.09843X0.11811*%
%ADD21O,0.05709X0.02362*%
%ADD22R,0.04331X0.01968*%
%ADD23R,0.08661X0.12205*%
%ADD24R,0.06299X0.12598*%
%ADD25R,0.04134X0.05512*%
%ADD26R,0.05512X0.04134*%
%ADD51C,0.25197*%
%ADD52R,0.09449X0.05512*%
%ADD53R,0.05512X0.09449*%
%ADD54R,0.06693X0.06693*%
%ADD55C,0.06693*%
%ADD56C,0.06000*%
D16*
X228217Y76858D02*
D03*
Y84142D02*
D03*
X204716Y200142D02*
D03*
Y192858D02*
D03*
X185216Y200500D02*
D03*
Y193217D02*
D03*
D17*
X201716Y41000D02*
D03*
X209000D02*
D03*
X240216Y217500D02*
D03*
X247500D02*
D03*
D18*
X174500Y50500D02*
D03*
X120268D02*
D03*
D19*
X103799Y207000D02*
D03*
X141201D02*
D03*
D20*
X205445Y68000D02*
D03*
D21*
X216173Y60500D02*
D03*
Y65500D02*
D03*
Y70500D02*
D03*
Y75500D02*
D03*
X194717Y60500D02*
D03*
Y65500D02*
D03*
Y70500D02*
D03*
Y75500D02*
D03*
D22*
X177717Y221000D02*
D03*
Y226000D02*
D03*
Y231000D02*
D03*
Y216000D02*
D03*
X198976D02*
D03*
Y231000D02*
D03*
Y226000D02*
D03*
Y221000D02*
D03*
D23*
X188445Y223697D02*
D03*
D24*
X71716Y112500D02*
D03*
Y92421D02*
D03*
X108500Y112079D02*
D03*
Y92000D02*
D03*
X161000Y153421D02*
D03*
Y173500D02*
D03*
D25*
X196500Y110500D02*
D03*
X189216D02*
D03*
X196000Y100500D02*
D03*
X188716D02*
D03*
X208858Y50000D02*
D03*
X201575D02*
D03*
X224433Y217500D02*
D03*
X231716D02*
D03*
D26*
X195217Y200284D02*
D03*
Y193000D02*
D03*
X248500Y233217D02*
D03*
Y240500D02*
D03*
X165000Y240283D02*
D03*
Y233000D02*
D03*
D51*
X277000Y104500D02*
D03*
X305346D02*
D03*
X277500Y204500D02*
D03*
Y232846D02*
D03*
X22500Y78500D02*
D03*
Y106846D02*
D03*
X21500Y165000D02*
D03*
Y193347D02*
D03*
X277217Y155000D02*
D03*
X305563D02*
D03*
D52*
X69500Y199764D02*
D03*
X69520Y217874D02*
D03*
X69500Y160000D02*
D03*
X69520Y141693D02*
D03*
D53*
X82764Y36500D02*
D03*
X100874Y36480D02*
D03*
X43000Y36500D02*
D03*
X24693Y36480D02*
D03*
D54*
X196500Y15000D02*
D03*
X76000Y241500D02*
D03*
D55*
X216500Y15000D02*
D03*
X56000Y241500D02*
D03*
D56*
X323000Y242500D02*
D03*
X322000Y12500D02*
D03*
X14000D02*
D03*
X16000Y245500D02*
D03*
M02*
