G04*
G04 #@! TF.GenerationSoftware,Altium Limited,Altium Designer,20.0.12 (288)*
G04*
G04 Layer_Color=16711935*
%FSLAX25Y25*%
%MOIN*%
G70*
G01*
G75*
%ADD14C,0.00394*%
D14*
X235299Y165701D02*
G03*
X235299Y165701I-1969J0D01*
G01*
X183768Y101520D02*
X192232D01*
X183768Y106480D02*
X192232D01*
Y101520D02*
Y106480D01*
X183768Y101520D02*
Y106480D01*
X247020Y193126D02*
Y201591D01*
X251980Y193126D02*
Y201591D01*
X247020Y193126D02*
X251980D01*
X247020Y201591D02*
X251980D01*
X245020Y167768D02*
Y176232D01*
X249980Y167768D02*
Y176232D01*
X245020Y167768D02*
X249980D01*
X245020Y176232D02*
X249980D01*
X174768Y158480D02*
X183232D01*
X174768Y153520D02*
X183232D01*
X174768D02*
Y158480D01*
X183232Y153520D02*
Y158480D01*
X164409Y139480D02*
X172874D01*
X164409Y134520D02*
X172874D01*
X164409D02*
Y139480D01*
X172874Y134520D02*
Y139480D01*
X139480Y142768D02*
Y151232D01*
X134520Y142768D02*
Y151232D01*
X139480D01*
X134520Y142768D02*
X139480D01*
X236874Y162157D02*
Y181843D01*
X221126Y162157D02*
Y181843D01*
Y162157D02*
X236874D01*
X221126Y181843D02*
X236874D01*
X137921Y169252D02*
X158000D01*
Y185000D01*
X137921D02*
X158000D01*
X137921Y169252D02*
Y185000D01*
X211768Y198520D02*
Y203480D01*
X220232Y198520D02*
Y203480D01*
X211768D02*
X220232D01*
X211768Y198520D02*
X220232D01*
X195232Y179520D02*
Y184480D01*
X186768Y179520D02*
Y184480D01*
Y179520D02*
X195232D01*
X186768Y184480D02*
X195232D01*
X233232Y145520D02*
Y150480D01*
X224768Y145520D02*
Y150480D01*
Y145520D02*
X233232D01*
X224768Y150480D02*
X233232D01*
X157768Y153520D02*
Y158480D01*
X166232Y153520D02*
Y158480D01*
X157768D02*
X166232D01*
X157768Y153520D02*
X166232D01*
X102520Y92409D02*
X107480D01*
X102520Y100874D02*
X107480D01*
X102520Y92409D02*
Y100874D01*
X107480Y92409D02*
Y100874D01*
X143520Y151232D02*
X148480D01*
X143520Y142768D02*
X148480D01*
Y151232D01*
X143520Y142768D02*
Y151232D01*
X178768Y196520D02*
Y201480D01*
X187232Y196520D02*
Y201480D01*
X178768D02*
X187232D01*
X178768Y196520D02*
X187232D01*
X165520Y182232D02*
X170480D01*
X165520Y173768D02*
X170480D01*
Y182232D01*
X165520Y173768D02*
Y182232D01*
M02*
