G04*
G04 #@! TF.GenerationSoftware,Altium Limited,Altium Designer,20.0.12 (288)*
G04*
G04 Layer_Color=8421504*
%FSLAX25Y25*%
%MOIN*%
G70*
G01*
G75*
%ADD16R,0.04134X0.05118*%
%ADD17R,0.05118X0.04134*%
%ADD18R,0.12795X0.09843*%
%ADD19R,0.09843X0.11811*%
%ADD20O,0.05709X0.02362*%
%ADD21R,0.01968X0.04331*%
%ADD22R,0.12205X0.08661*%
%ADD23R,0.12598X0.06299*%
%ADD24R,0.04134X0.05512*%
%ADD25R,0.05512X0.04134*%
%ADD26R,0.09055X0.11417*%
D16*
X191642Y104000D02*
D03*
X184358D02*
D03*
X175358Y156000D02*
D03*
X182642D02*
D03*
X165000Y137000D02*
D03*
X172283D02*
D03*
D17*
X249500Y193717D02*
D03*
Y201000D02*
D03*
X247500Y168358D02*
D03*
Y175642D02*
D03*
X137000Y150642D02*
D03*
Y143358D02*
D03*
D18*
X114000Y135953D02*
D03*
Y158000D02*
D03*
D19*
X229000Y172000D02*
D03*
D20*
X239728Y164500D02*
D03*
Y169500D02*
D03*
Y174500D02*
D03*
Y179500D02*
D03*
X218272Y164500D02*
D03*
Y169500D02*
D03*
Y174500D02*
D03*
Y179500D02*
D03*
D21*
X145461Y187756D02*
D03*
X150461D02*
D03*
X155461D02*
D03*
X140461D02*
D03*
Y166496D02*
D03*
X155461D02*
D03*
X150461D02*
D03*
X145461D02*
D03*
D22*
X148158Y177028D02*
D03*
D23*
X401079Y158500D02*
D03*
X381000D02*
D03*
X401079Y125500D02*
D03*
X381000D02*
D03*
D24*
X212358Y201000D02*
D03*
X219642D02*
D03*
X194642Y182000D02*
D03*
X187358D02*
D03*
X232642Y148000D02*
D03*
X225358D02*
D03*
X158358Y156000D02*
D03*
X165642D02*
D03*
X179358Y199000D02*
D03*
X186642D02*
D03*
D25*
X105000Y93000D02*
D03*
Y100284D02*
D03*
X146000Y150642D02*
D03*
Y143358D02*
D03*
X168000Y181642D02*
D03*
Y174358D02*
D03*
D26*
X267094Y134000D02*
D03*
X303906D02*
D03*
M02*
