G04*
G04 #@! TF.GenerationSoftware,Altium Limited,Altium Designer,20.0.12 (288)*
G04*
G04 Layer_Color=32768*
%FSLAX25Y25*%
%MOIN*%
G70*
G01*
G75*
%ADD12C,0.01000*%
D12*
X310760Y122799D02*
X333437D01*
Y145299D01*
X310602Y123026D02*
Y145142D01*
X310760Y145299D02*
X333437D01*
X310839Y85604D02*
X333516D01*
X310681Y85447D02*
X310839Y85604D01*
X310681Y63331D02*
Y85447D01*
X333516Y63104D02*
Y85604D01*
X310839Y63104D02*
X333516D01*
X237000Y246000D02*
X277000D01*
X237000Y99000D02*
Y109000D01*
X206999D02*
X237000D01*
X206999Y99000D02*
Y109000D01*
Y99000D02*
X237000D01*
X354000Y101500D02*
X394000D01*
X152000Y246000D02*
X192000D01*
X99039Y130441D02*
X131717D01*
Y163118D01*
X99039D02*
X131717D01*
X99039Y130441D02*
Y163118D01*
X384150Y146295D02*
X403835D01*
Y171492D01*
X378244Y165980D02*
X383756Y171492D01*
X383756D02*
X403835D01*
X378244Y152201D02*
X384150Y146295D01*
X378244Y152201D02*
Y165980D01*
X384150Y113295D02*
X403835D01*
Y138492D01*
X378244Y132980D02*
X383756Y138492D01*
X383756D02*
X403835D01*
X378244Y119201D02*
X384150Y113295D01*
X378244Y119201D02*
Y132980D01*
M02*
