G04*
G04 #@! TF.GenerationSoftware,Altium Limited,Altium Designer,20.0.12 (288)*
G04*
G04 Layer_Color=16711935*
%FSLAX25Y25*%
%MOIN*%
G70*
G01*
G75*
%ADD12C,0.01000*%
%ADD38R,0.10249X0.06312*%
%ADD39C,0.25997*%
%ADD40R,0.06706X0.06706*%
%ADD41C,0.06706*%
%ADD42C,0.06800*%
%ADD43R,0.06800X0.06800*%
%ADD44R,0.06706X0.06706*%
%ADD45R,0.07493X0.07493*%
%ADD46C,0.07493*%
%ADD47R,0.07493X0.07493*%
D12*
X347001Y194998D02*
X348001Y195998D01*
X350000D01*
X351000Y194998D01*
Y191000D01*
X350000Y190000D01*
X348001D01*
X347001Y191000D01*
X344002Y193999D02*
X342003D01*
X341003Y192999D01*
Y190000D01*
X344002D01*
X345002Y191000D01*
X344002Y191999D01*
X341003D01*
X339004Y193999D02*
Y190000D01*
Y191999D01*
X338004Y192999D01*
X337004Y193999D01*
X336005D01*
X333006Y190000D02*
X331007D01*
X332006D01*
Y195998D01*
X333006D01*
X322009D02*
X318011D01*
X320010D01*
Y190000D01*
X316011Y195998D02*
Y190000D01*
Y192999D01*
X315012Y193999D01*
X313012D01*
X312013Y192999D01*
Y190000D01*
X310013Y193999D02*
Y191000D01*
X309014Y190000D01*
X306015D01*
Y189000D01*
X307014Y188001D01*
X308014D01*
X306015Y190000D02*
Y193999D01*
X304015Y190000D02*
Y193999D01*
X301016D01*
X300016Y192999D01*
Y190000D01*
X295018D02*
X297018D01*
X298017Y191000D01*
Y192999D01*
X297018Y193999D01*
X295018D01*
X294018Y192999D01*
Y191999D01*
X298017D01*
X292019Y190000D02*
X289020D01*
X288020Y191000D01*
X289020Y191999D01*
X291019D01*
X292019Y192999D01*
X291019Y193999D01*
X288020D01*
X286021Y190000D02*
X283022D01*
X282022Y191000D01*
X283022Y191999D01*
X285021D01*
X286021Y192999D01*
X285021Y193999D01*
X282022D01*
X273025D02*
X271026D01*
X270026Y192999D01*
Y190000D01*
X273025D01*
X274025Y191000D01*
X273025Y191999D01*
X270026D01*
X268027Y190000D02*
Y193999D01*
X265028D01*
X264028Y192999D01*
Y190000D01*
X258030Y195998D02*
Y190000D01*
X261029D01*
X262029Y191000D01*
Y192999D01*
X261029Y193999D01*
X258030D01*
X250033Y190000D02*
Y195998D01*
X248033Y193999D01*
X246034Y195998D01*
Y190000D01*
X243035D02*
X241036D01*
X240036Y191000D01*
Y192999D01*
X241036Y193999D01*
X243035D01*
X244035Y192999D01*
Y191000D01*
X243035Y190000D01*
X237037Y194998D02*
Y193999D01*
X238036D01*
X236037D01*
X237037D01*
Y191000D01*
X236037Y190000D01*
X232038Y193999D02*
X230039D01*
X229039Y192999D01*
Y190000D01*
X232038D01*
X233038Y191000D01*
X232038Y191999D01*
X229039D01*
X227040Y193999D02*
X223041D01*
X227040Y190000D01*
X223041D01*
X215044Y195998D02*
X211045D01*
X213045D01*
Y190000D01*
X209046Y195998D02*
Y190000D01*
Y192999D01*
X208046Y193999D01*
X206047D01*
X205047Y192999D01*
Y190000D01*
X203048D02*
X201048D01*
X202048D01*
Y193999D01*
X203048D01*
X197050D02*
X195051D01*
X194051Y192999D01*
Y190000D01*
X197050D01*
X198049Y191000D01*
X197050Y191999D01*
X194051D01*
X192051Y195998D02*
Y190000D01*
X189052D01*
X188053Y191000D01*
Y191999D01*
Y192999D01*
X189052Y193999D01*
X192051D01*
D38*
X322000Y123764D02*
D03*
X322020Y141874D02*
D03*
X322000Y84000D02*
D03*
X322020Y65693D02*
D03*
D39*
X257000Y262653D02*
D03*
Y291000D02*
D03*
X374000Y84847D02*
D03*
Y56500D02*
D03*
X172000Y262653D02*
D03*
Y291000D02*
D03*
D40*
X212000Y104000D02*
D03*
D41*
X222000D02*
D03*
X232000D02*
D03*
X124000Y62067D02*
D03*
D42*
X257500Y69000D02*
D03*
X247500D02*
D03*
X237500D02*
D03*
X252500Y79000D02*
D03*
X242500D02*
D03*
X265000Y44000D02*
D03*
X225000D02*
D03*
X185000Y69000D02*
D03*
X175000D02*
D03*
X165000D02*
D03*
X180000Y79000D02*
D03*
X170000D02*
D03*
X192500Y44000D02*
D03*
X152500D02*
D03*
X408000Y36000D02*
D03*
X411417Y301181D02*
D03*
X99000Y34000D02*
D03*
Y303000D02*
D03*
D43*
X232500Y79000D02*
D03*
X160000D02*
D03*
D44*
X124000Y107933D02*
D03*
D45*
X277500Y181000D02*
D03*
D46*
X297500D02*
D03*
X114000Y258000D02*
D03*
D47*
Y238000D02*
D03*
M02*
