G04*
G04 #@! TF.GenerationSoftware,Altium Limited,Altium Designer,20.0.12 (288)*
G04*
G04 Layer_Color=8388736*
%FSLAX25Y25*%
%MOIN*%
G70*
G01*
G75*
%ADD27R,0.04934X0.05918*%
%ADD28R,0.05918X0.04934*%
%ADD29R,0.13595X0.10642*%
%ADD30R,0.10642X0.12611*%
%ADD31O,0.06509X0.03162*%
%ADD32R,0.02769X0.05131*%
%ADD33R,0.13005X0.09461*%
%ADD34R,0.13398X0.07099*%
%ADD35R,0.04934X0.06312*%
%ADD36R,0.06312X0.04934*%
%ADD37R,0.09855X0.12217*%
%ADD38R,0.10249X0.06312*%
%ADD39C,0.25997*%
%ADD40R,0.06706X0.06706*%
%ADD41C,0.06706*%
%ADD42C,0.06800*%
%ADD43R,0.06800X0.06800*%
%ADD44R,0.06706X0.06706*%
%ADD45R,0.07493X0.07493*%
%ADD46C,0.07493*%
%ADD47R,0.07493X0.07493*%
D27*
X191642Y104000D02*
D03*
X184358D02*
D03*
X175358Y156000D02*
D03*
X182642D02*
D03*
X165000Y137000D02*
D03*
X172283D02*
D03*
D28*
X249500Y193717D02*
D03*
Y201000D02*
D03*
X247500Y168358D02*
D03*
Y175642D02*
D03*
X137000Y150642D02*
D03*
Y143358D02*
D03*
D29*
X114000Y135953D02*
D03*
Y158000D02*
D03*
D30*
X229000Y172000D02*
D03*
D31*
X239728Y164500D02*
D03*
Y169500D02*
D03*
Y174500D02*
D03*
Y179500D02*
D03*
X218272Y164500D02*
D03*
Y169500D02*
D03*
Y174500D02*
D03*
Y179500D02*
D03*
D32*
X145461Y187756D02*
D03*
X150461D02*
D03*
X155461D02*
D03*
X140461D02*
D03*
Y166496D02*
D03*
X155461D02*
D03*
X150461D02*
D03*
X145461D02*
D03*
D33*
X148158Y177028D02*
D03*
D34*
X401079Y158500D02*
D03*
X381000D02*
D03*
X401079Y125500D02*
D03*
X381000D02*
D03*
D35*
X212358Y201000D02*
D03*
X219642D02*
D03*
X194642Y182000D02*
D03*
X187358D02*
D03*
X232642Y148000D02*
D03*
X225358D02*
D03*
X158358Y156000D02*
D03*
X165642D02*
D03*
X179358Y199000D02*
D03*
X186642D02*
D03*
D36*
X105000Y93000D02*
D03*
Y100284D02*
D03*
X146000Y150642D02*
D03*
Y143358D02*
D03*
X168000Y181642D02*
D03*
Y174358D02*
D03*
D37*
X267094Y134000D02*
D03*
X303906D02*
D03*
D38*
X322000Y123764D02*
D03*
X322020Y141874D02*
D03*
X322000Y84000D02*
D03*
X322020Y65693D02*
D03*
D39*
X257000Y262653D02*
D03*
Y291000D02*
D03*
X374000Y84847D02*
D03*
Y56500D02*
D03*
X172000Y262653D02*
D03*
Y291000D02*
D03*
D40*
X212000Y104000D02*
D03*
D41*
X222000D02*
D03*
X232000D02*
D03*
X124000Y62067D02*
D03*
D42*
X257500Y69000D02*
D03*
X247500D02*
D03*
X237500D02*
D03*
X252500Y79000D02*
D03*
X242500D02*
D03*
X265000Y44000D02*
D03*
X225000D02*
D03*
X185000Y69000D02*
D03*
X175000D02*
D03*
X165000D02*
D03*
X180000Y79000D02*
D03*
X170000D02*
D03*
X192500Y44000D02*
D03*
X152500D02*
D03*
X408000Y36000D02*
D03*
X411417Y301181D02*
D03*
X99000Y34000D02*
D03*
Y303000D02*
D03*
D43*
X232500Y79000D02*
D03*
X160000D02*
D03*
D44*
X124000Y107933D02*
D03*
D45*
X277500Y181000D02*
D03*
D46*
X297500D02*
D03*
X114000Y258000D02*
D03*
D47*
Y238000D02*
D03*
M02*
