G04*
G04 #@! TF.GenerationSoftware,Altium Limited,Altium Designer,20.0.12 (288)*
G04*
G04 Layer_Color=32768*
%FSLAX25Y25*%
%MOIN*%
G70*
G01*
G75*
%ADD12C,0.01000*%
%ADD14C,0.00394*%
%ADD65C,0.00197*%
D12*
X216500Y12110D02*
Y44500D01*
Y12110D02*
X273000D01*
Y87000D01*
X216500D02*
X273000D01*
X216500Y44000D02*
Y87000D01*
X144000Y12110D02*
Y44500D01*
Y12110D02*
X200500D01*
Y87000D01*
X144000D02*
X200500D01*
X144000Y44000D02*
Y87000D01*
D14*
X188000Y102032D02*
Y105968D01*
X186031Y104000D02*
X189969D01*
X247532Y197358D02*
X251468D01*
X249500Y195390D02*
Y199327D01*
X245532Y172000D02*
X249468D01*
X247500Y170031D02*
Y173969D01*
X179000Y154032D02*
Y157968D01*
X177032Y156000D02*
X180968D01*
X168642Y135031D02*
Y138969D01*
X166673Y137000D02*
X170610D01*
X135031Y147000D02*
X138969D01*
X137000Y145031D02*
Y148969D01*
X227031Y172000D02*
X230968D01*
X229000Y170031D02*
Y173969D01*
X161937Y161772D02*
Y192874D01*
X134378Y161772D02*
X161937D01*
X134378D02*
Y192874D01*
X161937D01*
X214032Y201000D02*
X217969D01*
X216000Y199031D02*
Y202969D01*
X189032Y182000D02*
X192968D01*
X191000Y180032D02*
Y183968D01*
X227031Y148000D02*
X230968D01*
X229000Y146031D02*
Y149969D01*
X160031Y156000D02*
X163969D01*
X162000Y154032D02*
Y157968D01*
X105000Y94673D02*
Y98610D01*
X103032Y96642D02*
X106968D01*
X146000Y145031D02*
Y148969D01*
X144032Y147000D02*
X147968D01*
X181032Y199000D02*
X184968D01*
X183000Y197031D02*
Y200969D01*
X168000Y176031D02*
Y179969D01*
X166032Y178000D02*
X169968D01*
D65*
X181307Y100457D02*
X194693D01*
X181307Y107543D02*
X194693D01*
Y100457D02*
Y107543D01*
X181307Y100457D02*
Y107543D01*
X245957Y190665D02*
Y204051D01*
X253043Y190665D02*
Y204051D01*
X245957Y190665D02*
X253043D01*
X245957Y204051D02*
X253043D01*
X243957Y165307D02*
Y178693D01*
X251043Y165307D02*
Y178693D01*
X243957Y165307D02*
X251043D01*
X243957Y178693D02*
X251043D01*
X172307Y159543D02*
X185693D01*
X172307Y152457D02*
X185693D01*
X172307D02*
Y159543D01*
X185693Y152457D02*
Y159543D01*
X161949Y140543D02*
X175335D01*
X161949Y133457D02*
X175335D01*
X161949D02*
Y140543D01*
X175335Y133457D02*
Y140543D01*
X140543Y140307D02*
Y153693D01*
X133457Y140307D02*
Y153693D01*
X140543D01*
X133457Y140307D02*
X140543D01*
X243567Y160976D02*
Y183024D01*
X214433Y160976D02*
Y183024D01*
Y160976D02*
X243567D01*
X214433Y183024D02*
X243567D01*
X209307Y197260D02*
Y204740D01*
X222693Y197260D02*
Y204740D01*
X209307D02*
X222693D01*
X209307Y197260D02*
X222693D01*
X197693Y178260D02*
Y185740D01*
X184307Y178260D02*
Y185740D01*
Y178260D02*
X197693D01*
X184307Y185740D02*
X197693D01*
X235693Y144260D02*
Y151740D01*
X222307Y144260D02*
Y151740D01*
Y144260D02*
X235693D01*
X222307Y151740D02*
X235693D01*
X155307Y152260D02*
Y159740D01*
X168693Y152260D02*
Y159740D01*
X155307D02*
X168693D01*
X155307Y152260D02*
X168693D01*
X101260Y89949D02*
X108740D01*
X101260Y103335D02*
X108740D01*
X101260Y89949D02*
Y103335D01*
X108740Y89949D02*
Y103335D01*
X142260Y153693D02*
X149740D01*
X142260Y140307D02*
X149740D01*
Y153693D01*
X142260Y140307D02*
Y153693D01*
X176307Y195260D02*
Y202740D01*
X189693Y195260D02*
Y202740D01*
X176307D02*
X189693D01*
X176307Y195260D02*
X189693D01*
X164260Y184693D02*
X171740D01*
X164260Y171307D02*
X171740D01*
Y184693D01*
X164260Y171307D02*
Y184693D01*
M02*
