G04*
G04 #@! TF.GenerationSoftware,Altium Limited,Altium Designer,20.0.12 (288)*
G04*
G04 Layer_Color=65535*
%FSLAX25Y25*%
%MOIN*%
G70*
G01*
G75*
%ADD10C,0.00984*%
%ADD11C,0.02362*%
%ADD12C,0.01000*%
%ADD13C,0.00787*%
%ADD14C,0.00394*%
%ADD15C,0.00591*%
G36*
X374123Y260605D02*
X375877D01*
Y260313D01*
X377630D01*
Y260021D01*
X379384D01*
Y259728D01*
X381138D01*
Y259436D01*
X382891D01*
Y259144D01*
X381138D01*
Y258852D01*
X379384D01*
Y258559D01*
X377630D01*
Y258267D01*
X375877D01*
Y257975D01*
X374123D01*
Y257682D01*
X373539D01*
Y257975D01*
X371785D01*
Y258267D01*
X370031D01*
Y258559D01*
X368278D01*
Y258852D01*
X366524D01*
Y259144D01*
X364771D01*
Y259436D01*
X366524D01*
Y259728D01*
X368278D01*
Y260021D01*
X370031D01*
Y260313D01*
X371785D01*
Y260605D01*
X373539D01*
Y260897D01*
X374123D01*
Y260605D01*
D02*
G37*
G36*
X390198Y253883D02*
X389906D01*
Y253591D01*
X389614D01*
Y253298D01*
X389321D01*
Y253006D01*
X389029D01*
Y252714D01*
X388737D01*
Y252421D01*
Y252129D01*
X388444D01*
Y251837D01*
X388152D01*
Y251545D01*
X387860D01*
Y251252D01*
X387568D01*
Y250960D01*
X387275D01*
Y250668D01*
Y250376D01*
X386983D01*
Y250083D01*
X386691D01*
Y249791D01*
X386399D01*
Y249499D01*
X386106D01*
Y249207D01*
X385814D01*
Y248914D01*
Y248622D01*
X385522D01*
Y248330D01*
X385229D01*
Y248038D01*
X384937D01*
Y247745D01*
X384645D01*
Y247453D01*
X384353D01*
Y247161D01*
Y246868D01*
X384060D01*
Y246576D01*
X383768D01*
Y246284D01*
X383476D01*
Y245992D01*
Y245699D01*
Y245407D01*
X383184D01*
Y245115D01*
Y244823D01*
X382891D01*
Y244530D01*
Y244238D01*
Y243946D01*
X382599D01*
Y243653D01*
Y243361D01*
X382307D01*
Y243069D01*
Y242777D01*
Y242484D01*
X382014D01*
Y242192D01*
Y241900D01*
X381722D01*
Y241607D01*
Y241315D01*
Y241023D01*
X381430D01*
Y240731D01*
Y240438D01*
X381138D01*
Y240146D01*
Y239854D01*
Y239562D01*
X380845D01*
Y239269D01*
Y238977D01*
X380553D01*
Y238685D01*
Y238392D01*
Y238100D01*
X380261D01*
Y237808D01*
Y237516D01*
X379969D01*
Y237223D01*
Y236931D01*
Y236639D01*
X379676D01*
Y236347D01*
Y236054D01*
X379384D01*
Y235762D01*
Y235470D01*
Y235177D01*
X379092D01*
Y234885D01*
Y234593D01*
X378800D01*
Y234301D01*
Y234008D01*
Y233716D01*
X378507D01*
Y234008D01*
Y234301D01*
Y234593D01*
Y234885D01*
Y235177D01*
Y235470D01*
X378800D01*
Y235762D01*
Y236054D01*
Y236347D01*
Y236639D01*
Y236931D01*
Y237223D01*
X379092D01*
Y237516D01*
Y237808D01*
Y238100D01*
Y238392D01*
Y238685D01*
Y238977D01*
X379384D01*
Y239269D01*
Y239562D01*
Y239854D01*
Y240146D01*
Y240438D01*
X379676D01*
Y240731D01*
Y241023D01*
Y241315D01*
Y241607D01*
Y241900D01*
Y242192D01*
X379969D01*
Y242484D01*
Y242777D01*
Y243069D01*
Y243361D01*
Y243653D01*
Y243946D01*
X380261D01*
Y244238D01*
Y244530D01*
Y244823D01*
Y245115D01*
Y245407D01*
Y245699D01*
X380553D01*
Y245992D01*
Y246284D01*
Y246576D01*
Y246868D01*
Y247161D01*
Y247453D01*
X380845D01*
Y247745D01*
Y248038D01*
Y248330D01*
Y248622D01*
X381430D01*
Y248914D01*
X381722D01*
Y249207D01*
X382307D01*
Y249499D01*
X382599D01*
Y249791D01*
X383184D01*
Y250083D01*
X383476D01*
Y250376D01*
X384060D01*
Y250668D01*
X384645D01*
Y250960D01*
X384937D01*
Y251252D01*
X385522D01*
Y251545D01*
X385814D01*
Y251837D01*
X386399D01*
Y252129D01*
X386691D01*
Y252421D01*
X387275D01*
Y252714D01*
X387860D01*
Y253006D01*
X388152D01*
Y253298D01*
X388737D01*
Y253591D01*
X389029D01*
Y253883D01*
X389614D01*
Y254175D01*
X390198D01*
Y253883D01*
D02*
G37*
G36*
X358048D02*
X358633D01*
Y253591D01*
X358925D01*
Y253298D01*
X359510D01*
Y253006D01*
X359802D01*
Y252714D01*
X360386D01*
Y252421D01*
X360679D01*
Y252129D01*
X361263D01*
Y251837D01*
X361848D01*
Y251545D01*
X362140D01*
Y251252D01*
X362725D01*
Y250960D01*
X363017D01*
Y250668D01*
X363601D01*
Y250376D01*
X363894D01*
Y250083D01*
X364478D01*
Y249791D01*
X365063D01*
Y249499D01*
X365355D01*
Y249207D01*
X365940D01*
Y248914D01*
X366232D01*
Y248622D01*
X366816D01*
Y248330D01*
Y248038D01*
Y247745D01*
Y247453D01*
X367109D01*
Y247161D01*
Y246868D01*
Y246576D01*
Y246284D01*
Y245992D01*
Y245699D01*
X367401D01*
Y245407D01*
Y245115D01*
Y244823D01*
Y244530D01*
Y244238D01*
Y243946D01*
X367693D01*
Y243653D01*
Y243361D01*
Y243069D01*
Y242777D01*
Y242484D01*
Y242192D01*
X367986D01*
Y241900D01*
Y241607D01*
Y241315D01*
Y241023D01*
Y240731D01*
Y240438D01*
X368278D01*
Y240146D01*
Y239854D01*
Y239562D01*
Y239269D01*
Y238977D01*
Y238685D01*
X368570D01*
Y238392D01*
Y238100D01*
Y237808D01*
Y237516D01*
Y237223D01*
Y236931D01*
X368862D01*
Y236639D01*
Y236347D01*
Y236054D01*
Y235762D01*
Y235470D01*
Y235177D01*
X369155D01*
Y234885D01*
Y234593D01*
Y234301D01*
Y234008D01*
Y233716D01*
X368862D01*
Y234008D01*
Y234301D01*
X368570D01*
Y234593D01*
Y234885D01*
Y235177D01*
X368278D01*
Y235470D01*
Y235762D01*
X367986D01*
Y236054D01*
Y236347D01*
Y236639D01*
X367693D01*
Y236931D01*
Y237223D01*
X367401D01*
Y237516D01*
Y237808D01*
Y238100D01*
X367109D01*
Y238392D01*
Y238685D01*
X366816D01*
Y238977D01*
Y239269D01*
Y239562D01*
X366524D01*
Y239854D01*
Y240146D01*
X366232D01*
Y240438D01*
Y240731D01*
Y241023D01*
X365940D01*
Y241315D01*
Y241607D01*
X365647D01*
Y241900D01*
Y242192D01*
Y242484D01*
X365355D01*
Y242777D01*
Y243069D01*
X365063D01*
Y243361D01*
Y243653D01*
Y243946D01*
X364771D01*
Y244238D01*
Y244530D01*
X364478D01*
Y244823D01*
Y245115D01*
Y245407D01*
X364186D01*
Y245699D01*
Y245992D01*
X363894D01*
Y246284D01*
Y246576D01*
X363601D01*
Y246868D01*
X363309D01*
Y247161D01*
Y247453D01*
X363017D01*
Y247745D01*
X362725D01*
Y248038D01*
X362432D01*
Y248330D01*
X362140D01*
Y248622D01*
X361848D01*
Y248914D01*
Y249207D01*
X361556D01*
Y249499D01*
X361263D01*
Y249791D01*
X360971D01*
Y250083D01*
X360679D01*
Y250376D01*
X360386D01*
Y250668D01*
Y250960D01*
X360094D01*
Y251252D01*
X359802D01*
Y251545D01*
X359510D01*
Y251837D01*
X359217D01*
Y252129D01*
X358925D01*
Y252421D01*
Y252714D01*
X358633D01*
Y253006D01*
X358341D01*
Y253298D01*
X358048D01*
Y253591D01*
X357756D01*
Y253883D01*
X357464D01*
Y254175D01*
X358048D01*
Y253883D01*
D02*
G37*
G36*
X389321Y257390D02*
X388737D01*
Y257098D01*
X388444D01*
Y256806D01*
X387860D01*
Y256513D01*
X387568D01*
Y256221D01*
X386983D01*
Y255929D01*
X386691D01*
Y255637D01*
X386106D01*
Y255344D01*
X385814D01*
Y255052D01*
X385229D01*
Y254760D01*
X384937D01*
Y254467D01*
X384353D01*
Y254175D01*
X383768D01*
Y253883D01*
X383476D01*
Y253591D01*
X382891D01*
Y253298D01*
X382599D01*
Y253006D01*
X382014D01*
Y252714D01*
X381722D01*
Y252421D01*
X381138D01*
Y252129D01*
X380845D01*
Y251837D01*
X380261D01*
Y251545D01*
X379969D01*
Y251252D01*
X379384D01*
Y250960D01*
X379092D01*
Y250668D01*
X378507D01*
Y250376D01*
Y250083D01*
Y249791D01*
X378215D01*
Y249499D01*
Y249207D01*
Y248914D01*
Y248622D01*
Y248330D01*
Y248038D01*
X377923D01*
Y247745D01*
Y247453D01*
Y247161D01*
Y246868D01*
Y246576D01*
Y246284D01*
Y245992D01*
X377630D01*
Y245699D01*
Y245407D01*
Y245115D01*
Y244823D01*
Y244530D01*
Y244238D01*
X377338D01*
Y243946D01*
Y243653D01*
Y243361D01*
Y243069D01*
Y242777D01*
Y242484D01*
X377046D01*
Y242192D01*
Y241900D01*
Y241607D01*
Y241315D01*
Y241023D01*
Y240731D01*
Y240438D01*
X376754D01*
Y240146D01*
Y239854D01*
Y239562D01*
Y239269D01*
Y238977D01*
Y238685D01*
X376461D01*
Y238392D01*
Y238100D01*
Y237808D01*
Y237516D01*
Y237223D01*
Y236931D01*
Y236639D01*
X376169D01*
Y236347D01*
Y236054D01*
Y235762D01*
Y235470D01*
Y235177D01*
Y234885D01*
X375877D01*
Y234593D01*
Y234301D01*
Y234008D01*
Y233716D01*
Y233424D01*
Y233132D01*
X375585D01*
Y232839D01*
Y232547D01*
Y232255D01*
Y231962D01*
Y231670D01*
Y231378D01*
Y231086D01*
X375292D01*
Y230793D01*
Y230501D01*
Y230209D01*
Y229917D01*
Y229624D01*
Y229332D01*
X375000D01*
Y229624D01*
Y229917D01*
Y230209D01*
Y230501D01*
Y230793D01*
Y231086D01*
Y231378D01*
Y231670D01*
Y231962D01*
Y232255D01*
Y232547D01*
Y232839D01*
Y233132D01*
Y233424D01*
Y233716D01*
Y234008D01*
Y234301D01*
Y234593D01*
Y234885D01*
Y235177D01*
Y235470D01*
Y235762D01*
Y236054D01*
Y236347D01*
Y236639D01*
Y236931D01*
Y237223D01*
Y237516D01*
Y237808D01*
Y238100D01*
Y238392D01*
Y238685D01*
Y238977D01*
Y239269D01*
Y239562D01*
Y239854D01*
Y240146D01*
Y240438D01*
Y240731D01*
Y241023D01*
Y241315D01*
Y241607D01*
Y241900D01*
Y242192D01*
Y242484D01*
Y242777D01*
Y243069D01*
Y243361D01*
Y243653D01*
Y243946D01*
Y244238D01*
Y244530D01*
Y244823D01*
Y245115D01*
Y245407D01*
Y245699D01*
Y245992D01*
Y246284D01*
Y246576D01*
Y246868D01*
Y247161D01*
Y247453D01*
Y247745D01*
Y248038D01*
Y248330D01*
Y248622D01*
Y248914D01*
Y249207D01*
Y249499D01*
Y249791D01*
Y250083D01*
Y250376D01*
Y250668D01*
Y250960D01*
Y251252D01*
Y251545D01*
Y251837D01*
Y252129D01*
Y252421D01*
Y252714D01*
Y253006D01*
Y253298D01*
Y253591D01*
Y253883D01*
Y254175D01*
Y254467D01*
Y254760D01*
Y255052D01*
Y255344D01*
X375292D01*
Y255637D01*
X377046D01*
Y255929D01*
X378800D01*
Y256221D01*
X380553D01*
Y256513D01*
X382307D01*
Y256806D01*
X384060D01*
Y257098D01*
X386106D01*
Y257390D01*
X387860D01*
Y257682D01*
X389321D01*
Y257390D01*
D02*
G37*
G36*
X359802D02*
X361556D01*
Y257098D01*
X363309D01*
Y256806D01*
X365355D01*
Y256513D01*
X367109D01*
Y256221D01*
X368862D01*
Y255929D01*
X370616D01*
Y255637D01*
X372370D01*
Y255344D01*
X372662D01*
Y255052D01*
Y254760D01*
Y254467D01*
Y254175D01*
Y253883D01*
Y253591D01*
Y253298D01*
Y253006D01*
Y252714D01*
Y252421D01*
Y252129D01*
Y251837D01*
Y251545D01*
Y251252D01*
Y250960D01*
Y250668D01*
Y250376D01*
Y250083D01*
Y249791D01*
Y249499D01*
Y249207D01*
Y248914D01*
Y248622D01*
Y248330D01*
Y248038D01*
Y247745D01*
Y247453D01*
Y247161D01*
Y246868D01*
Y246576D01*
Y246284D01*
Y245992D01*
Y245699D01*
Y245407D01*
Y245115D01*
Y244823D01*
Y244530D01*
Y244238D01*
Y243946D01*
Y243653D01*
Y243361D01*
Y243069D01*
Y242777D01*
Y242484D01*
Y242192D01*
Y241900D01*
Y241607D01*
Y241315D01*
Y241023D01*
Y240731D01*
Y240438D01*
Y240146D01*
Y239854D01*
Y239562D01*
Y239269D01*
Y238977D01*
Y238685D01*
Y238392D01*
Y238100D01*
Y237808D01*
Y237516D01*
Y237223D01*
Y236931D01*
Y236639D01*
Y236347D01*
Y236054D01*
Y235762D01*
Y235470D01*
Y235177D01*
Y234885D01*
Y234593D01*
Y234301D01*
Y234008D01*
Y233716D01*
Y233424D01*
Y233132D01*
Y232839D01*
Y232547D01*
Y232255D01*
Y231962D01*
Y231670D01*
Y231378D01*
Y231086D01*
Y230793D01*
Y230501D01*
Y230209D01*
Y229917D01*
Y229624D01*
Y229332D01*
Y229040D01*
X372370D01*
Y229332D01*
Y229624D01*
Y229917D01*
Y230209D01*
Y230501D01*
Y230793D01*
Y231086D01*
X372077D01*
Y231378D01*
Y231670D01*
Y231962D01*
Y232255D01*
Y232547D01*
Y232839D01*
X371785D01*
Y233132D01*
Y233424D01*
Y233716D01*
Y234008D01*
Y234301D01*
Y234593D01*
Y234885D01*
X371493D01*
Y235177D01*
Y235470D01*
Y235762D01*
Y236054D01*
Y236347D01*
Y236639D01*
X371200D01*
Y236931D01*
Y237223D01*
Y237516D01*
Y237808D01*
Y238100D01*
Y238392D01*
X370908D01*
Y238685D01*
Y238977D01*
Y239269D01*
Y239562D01*
Y239854D01*
Y240146D01*
Y240438D01*
X370616D01*
Y240731D01*
Y241023D01*
Y241315D01*
Y241607D01*
Y241900D01*
Y242192D01*
X370324D01*
Y242484D01*
Y242777D01*
Y243069D01*
Y243361D01*
Y243653D01*
Y243946D01*
Y244238D01*
X370031D01*
Y244530D01*
Y244823D01*
Y245115D01*
Y245407D01*
Y245699D01*
Y245992D01*
X369739D01*
Y246284D01*
Y246576D01*
Y246868D01*
Y247161D01*
Y247453D01*
Y247745D01*
X369447D01*
Y248038D01*
Y248330D01*
Y248622D01*
Y248914D01*
Y249207D01*
Y249499D01*
Y249791D01*
X369155D01*
Y250083D01*
Y250376D01*
Y250668D01*
X368570D01*
Y250960D01*
X368278D01*
Y251252D01*
X367693D01*
Y251545D01*
X367401D01*
Y251837D01*
X366816D01*
Y252129D01*
X366524D01*
Y252421D01*
X365940D01*
Y252714D01*
X365647D01*
Y253006D01*
X365063D01*
Y253298D01*
X364478D01*
Y253591D01*
X364186D01*
Y253883D01*
X363601D01*
Y254175D01*
X363309D01*
Y254467D01*
X362725D01*
Y254760D01*
X362432D01*
Y255052D01*
X361848D01*
Y255344D01*
X361556D01*
Y255637D01*
X360971D01*
Y255929D01*
X360679D01*
Y256221D01*
X360094D01*
Y256513D01*
X359802D01*
Y256806D01*
X359217D01*
Y257098D01*
X358925D01*
Y257390D01*
X358341D01*
Y257682D01*
X359802D01*
Y257390D01*
D02*
G37*
G36*
X380129Y225746D02*
X380187D01*
X380326Y225731D01*
X380479Y225709D01*
X380639Y225673D01*
X380814Y225629D01*
X380982Y225571D01*
X380989D01*
X381003Y225564D01*
X381025Y225556D01*
X381054Y225542D01*
X381135Y225498D01*
X381237Y225447D01*
X381346Y225374D01*
X381463Y225287D01*
X381572Y225192D01*
X381674Y225075D01*
X381689Y225061D01*
X381718Y225017D01*
X381762Y224951D01*
X381820Y224856D01*
X381878Y224740D01*
X381944Y224594D01*
X382010Y224434D01*
X382061Y224251D01*
X381455Y224091D01*
Y224098D01*
X381448Y224106D01*
X381441Y224128D01*
X381434Y224157D01*
X381412Y224222D01*
X381382Y224310D01*
X381339Y224412D01*
X381288Y224506D01*
X381237Y224609D01*
X381171Y224696D01*
X381164Y224703D01*
X381142Y224732D01*
X381098Y224769D01*
X381047Y224820D01*
X380982Y224878D01*
X380894Y224937D01*
X380799Y224995D01*
X380690Y225046D01*
X380675Y225053D01*
X380639Y225068D01*
X380573Y225090D01*
X380486Y225119D01*
X380384Y225141D01*
X380267Y225163D01*
X380136Y225177D01*
X379997Y225184D01*
X379917D01*
X379881Y225177D01*
X379837D01*
X379728Y225170D01*
X379604Y225148D01*
X379465Y225126D01*
X379334Y225090D01*
X379203Y225039D01*
X379188Y225031D01*
X379145Y225017D01*
X379086Y224980D01*
X379013Y224944D01*
X378926Y224886D01*
X378831Y224827D01*
X378744Y224754D01*
X378663Y224674D01*
X378656Y224667D01*
X378627Y224638D01*
X378590Y224587D01*
X378547Y224528D01*
X378496Y224455D01*
X378445Y224368D01*
X378394Y224273D01*
X378343Y224171D01*
Y224164D01*
X378335Y224149D01*
X378328Y224128D01*
X378313Y224091D01*
X378299Y224047D01*
X378284Y223996D01*
X378262Y223938D01*
X378248Y223872D01*
X378211Y223719D01*
X378182Y223544D01*
X378160Y223362D01*
X378153Y223158D01*
Y223151D01*
Y223129D01*
Y223092D01*
X378160Y223048D01*
Y222990D01*
X378168Y222917D01*
X378175Y222844D01*
X378182Y222764D01*
X378211Y222582D01*
X378248Y222392D01*
X378306Y222203D01*
X378379Y222021D01*
Y222013D01*
X378394Y221999D01*
X378401Y221977D01*
X378423Y221948D01*
X378474Y221868D01*
X378554Y221765D01*
X378649Y221656D01*
X378765Y221547D01*
X378904Y221445D01*
X379057Y221350D01*
X379064D01*
X379079Y221343D01*
X379101Y221328D01*
X379137Y221314D01*
X379174Y221299D01*
X379225Y221284D01*
X379341Y221241D01*
X379487Y221204D01*
X379647Y221168D01*
X379822Y221139D01*
X380005Y221131D01*
X380078D01*
X380121Y221139D01*
X380165D01*
X380275Y221153D01*
X380406Y221168D01*
X380544Y221197D01*
X380697Y221241D01*
X380850Y221292D01*
X380858D01*
X380872Y221299D01*
X380887Y221306D01*
X380916Y221321D01*
X380996Y221357D01*
X381084Y221401D01*
X381186Y221452D01*
X381295Y221510D01*
X381397Y221576D01*
X381485Y221649D01*
Y222597D01*
X379997D01*
Y223194D01*
X382141D01*
Y221321D01*
X382133Y221314D01*
X382119Y221306D01*
X382090Y221284D01*
X382053Y221255D01*
X382010Y221226D01*
X381958Y221190D01*
X381893Y221146D01*
X381827Y221102D01*
X381674Y221007D01*
X381499Y220905D01*
X381317Y220811D01*
X381120Y220730D01*
X381113D01*
X381098Y220723D01*
X381069Y220716D01*
X381033Y220701D01*
X380982Y220687D01*
X380923Y220665D01*
X380858Y220650D01*
X380792Y220636D01*
X380632Y220599D01*
X380449Y220563D01*
X380253Y220541D01*
X380048Y220533D01*
X379976D01*
X379925Y220541D01*
X379859D01*
X379779Y220548D01*
X379691Y220563D01*
X379596Y220570D01*
X379385Y220614D01*
X379159Y220665D01*
X378926Y220745D01*
X378809Y220789D01*
X378693Y220847D01*
X378685Y220854D01*
X378663Y220862D01*
X378634Y220883D01*
X378590Y220905D01*
X378539Y220942D01*
X378488Y220978D01*
X378350Y221080D01*
X378204Y221212D01*
X378051Y221372D01*
X377905Y221554D01*
X377774Y221765D01*
Y221773D01*
X377759Y221795D01*
X377745Y221824D01*
X377723Y221875D01*
X377701Y221926D01*
X377679Y221999D01*
X377650Y222072D01*
X377621Y222159D01*
X377592Y222254D01*
X377563Y222363D01*
X377541Y222473D01*
X377519Y222589D01*
X377482Y222844D01*
X377468Y223114D01*
Y223121D01*
Y223151D01*
Y223187D01*
X377475Y223238D01*
Y223304D01*
X377482Y223384D01*
X377497Y223464D01*
X377504Y223559D01*
X377526Y223661D01*
X377541Y223770D01*
X377599Y224004D01*
X377672Y224244D01*
X377774Y224485D01*
X377781Y224492D01*
X377789Y224514D01*
X377803Y224543D01*
X377832Y224587D01*
X377861Y224645D01*
X377898Y224703D01*
X378000Y224842D01*
X378124Y225002D01*
X378277Y225155D01*
X378452Y225308D01*
X378554Y225374D01*
X378656Y225440D01*
X378663Y225447D01*
X378685Y225454D01*
X378714Y225469D01*
X378758Y225491D01*
X378817Y225513D01*
X378882Y225542D01*
X378955Y225571D01*
X379043Y225600D01*
X379137Y225629D01*
X379239Y225651D01*
X379349Y225680D01*
X379465Y225702D01*
X379720Y225739D01*
X379852Y225753D01*
X380085D01*
X380129Y225746D01*
D02*
G37*
G36*
X369857Y220621D02*
X369164D01*
X366526Y224579D01*
Y220621D01*
X365884D01*
Y225666D01*
X366569D01*
X369215Y221700D01*
Y225666D01*
X369857D01*
Y220621D01*
D02*
G37*
G36*
X373108D02*
X372409D01*
X370455Y225666D01*
X371184D01*
X372496Y221999D01*
Y221991D01*
X372503Y221977D01*
X372511Y221955D01*
X372525Y221926D01*
X372533Y221882D01*
X372547Y221838D01*
X372584Y221729D01*
X372627Y221605D01*
X372671Y221467D01*
X372759Y221175D01*
Y221182D01*
X372766Y221197D01*
X372773Y221219D01*
X372780Y221248D01*
X372802Y221328D01*
X372839Y221437D01*
X372875Y221561D01*
X372919Y221700D01*
X372970Y221846D01*
X373028Y221999D01*
X374399Y225666D01*
X375077D01*
X373108Y220621D01*
D02*
G37*
G36*
X383766Y221219D02*
X386252D01*
Y220621D01*
X383096D01*
Y225666D01*
X383766D01*
Y221219D01*
D02*
G37*
G36*
X362873Y225658D02*
X363019Y225651D01*
X363165Y225637D01*
X363311Y225615D01*
X363435Y225593D01*
X363442D01*
X363456Y225586D01*
X363478D01*
X363508Y225571D01*
X363588Y225549D01*
X363690Y225513D01*
X363806Y225462D01*
X363930Y225396D01*
X364054Y225323D01*
X364171Y225228D01*
X364178Y225221D01*
X364185Y225214D01*
X364207Y225192D01*
X364236Y225170D01*
X364309Y225097D01*
X364397Y224995D01*
X364492Y224871D01*
X364594Y224725D01*
X364688Y224558D01*
X364769Y224368D01*
Y224361D01*
X364776Y224346D01*
X364791Y224317D01*
X364798Y224273D01*
X364820Y224222D01*
X364834Y224164D01*
X364849Y224098D01*
X364871Y224018D01*
X364893Y223938D01*
X364907Y223843D01*
X364944Y223639D01*
X364966Y223413D01*
X364973Y223165D01*
Y223158D01*
Y223143D01*
Y223107D01*
Y223070D01*
X364966Y223019D01*
Y222961D01*
X364958Y222823D01*
X364936Y222662D01*
X364914Y222495D01*
X364878Y222320D01*
X364834Y222145D01*
Y222137D01*
X364827Y222123D01*
X364820Y222101D01*
X364812Y222072D01*
X364783Y221991D01*
X364739Y221889D01*
X364696Y221773D01*
X364637Y221656D01*
X364564Y221532D01*
X364492Y221416D01*
X364484Y221401D01*
X364455Y221365D01*
X364411Y221314D01*
X364353Y221248D01*
X364287Y221175D01*
X364207Y221102D01*
X364127Y221022D01*
X364032Y220956D01*
X364018Y220949D01*
X363989Y220927D01*
X363938Y220898D01*
X363865Y220862D01*
X363777Y220818D01*
X363675Y220781D01*
X363559Y220738D01*
X363427Y220701D01*
X363413D01*
X363391Y220694D01*
X363369Y220687D01*
X363296Y220679D01*
X363194Y220665D01*
X363077Y220650D01*
X362939Y220636D01*
X362786Y220628D01*
X362618Y220621D01*
X360803D01*
Y225666D01*
X362742D01*
X362873Y225658D01*
D02*
G37*
G36*
X374472Y218817D02*
X373852D01*
Y219525D01*
X374472D01*
Y218817D01*
D02*
G37*
G36*
X390604Y218212D02*
X390685Y218198D01*
X390779Y218169D01*
X390881Y218132D01*
X390998Y218081D01*
X391122Y218016D01*
X390896Y217447D01*
X390889Y217454D01*
X390860Y217469D01*
X390816Y217491D01*
X390757Y217512D01*
X390692Y217534D01*
X390612Y217556D01*
X390531Y217571D01*
X390451Y217578D01*
X390415D01*
X390378Y217571D01*
X390327Y217564D01*
X390276Y217549D01*
X390211Y217527D01*
X390145Y217498D01*
X390087Y217454D01*
X390079Y217447D01*
X390058Y217432D01*
X390036Y217403D01*
X389999Y217367D01*
X389963Y217316D01*
X389926Y217257D01*
X389890Y217192D01*
X389861Y217112D01*
X389854Y217097D01*
X389846Y217053D01*
X389832Y216988D01*
X389810Y216900D01*
X389788Y216791D01*
X389773Y216667D01*
X389766Y216536D01*
X389759Y216390D01*
Y214480D01*
X389139D01*
Y218139D01*
X389700D01*
Y217585D01*
X389708Y217593D01*
X389737Y217644D01*
X389773Y217709D01*
X389832Y217790D01*
X389890Y217870D01*
X389956Y217957D01*
X390021Y218030D01*
X390087Y218088D01*
X390094Y218096D01*
X390116Y218110D01*
X390160Y218132D01*
X390203Y218154D01*
X390262Y218176D01*
X390335Y218198D01*
X390408Y218212D01*
X390488Y218220D01*
X390539D01*
X390604Y218212D01*
D02*
G37*
G36*
X363085Y214480D02*
X362531D01*
Y215012D01*
X362523Y215005D01*
X362509Y214983D01*
X362487Y214954D01*
X362450Y214917D01*
X362407Y214874D01*
X362356Y214815D01*
X362297Y214764D01*
X362224Y214706D01*
X362144Y214648D01*
X362057Y214597D01*
X361962Y214545D01*
X361860Y214494D01*
X361743Y214458D01*
X361627Y214429D01*
X361495Y214407D01*
X361364Y214400D01*
X361313D01*
X361248Y214407D01*
X361167Y214414D01*
X361073Y214429D01*
X360970Y214451D01*
X360869Y214480D01*
X360759Y214524D01*
X360745Y214531D01*
X360715Y214545D01*
X360664Y214575D01*
X360606Y214611D01*
X360533Y214655D01*
X360468Y214706D01*
X360402Y214764D01*
X360344Y214830D01*
X360336Y214837D01*
X360322Y214866D01*
X360300Y214903D01*
X360271Y214961D01*
X360234Y215027D01*
X360205Y215107D01*
X360176Y215194D01*
X360154Y215289D01*
Y215296D01*
X360147Y215325D01*
X360139Y215369D01*
Y215428D01*
X360132Y215515D01*
X360125Y215610D01*
X360118Y215734D01*
Y215872D01*
Y218139D01*
X360737D01*
Y216106D01*
Y216098D01*
Y216084D01*
Y216062D01*
Y216025D01*
Y215945D01*
X360745Y215843D01*
Y215734D01*
X360752Y215624D01*
X360759Y215530D01*
X360774Y215449D01*
Y215442D01*
X360788Y215413D01*
X360803Y215369D01*
X360825Y215311D01*
X360861Y215253D01*
X360905Y215187D01*
X360956Y215129D01*
X361022Y215070D01*
X361029Y215063D01*
X361058Y215049D01*
X361094Y215027D01*
X361153Y215005D01*
X361218Y214976D01*
X361299Y214954D01*
X361386Y214939D01*
X361488Y214932D01*
X361539D01*
X361590Y214939D01*
X361656Y214946D01*
X361736Y214968D01*
X361824Y214990D01*
X361918Y215027D01*
X362013Y215070D01*
X362028Y215078D01*
X362057Y215100D01*
X362101Y215129D01*
X362152Y215172D01*
X362210Y215231D01*
X362268Y215296D01*
X362319Y215369D01*
X362363Y215457D01*
X362370Y215471D01*
X362378Y215500D01*
X362392Y215559D01*
X362414Y215639D01*
X362436Y215741D01*
X362450Y215865D01*
X362458Y216011D01*
X362465Y216178D01*
Y218139D01*
X363085D01*
Y214480D01*
D02*
G37*
G36*
X379961Y217717D02*
X379968Y217724D01*
X379983Y217739D01*
X380005Y217760D01*
X380041Y217797D01*
X380078Y217833D01*
X380129Y217877D01*
X380194Y217921D01*
X380260Y217972D01*
X380333Y218016D01*
X380413Y218059D01*
X380603Y218139D01*
X380705Y218176D01*
X380814Y218198D01*
X380931Y218212D01*
X381047Y218220D01*
X381113D01*
X381193Y218212D01*
X381288Y218198D01*
X381397Y218183D01*
X381514Y218154D01*
X381630Y218110D01*
X381747Y218059D01*
X381762Y218052D01*
X381798Y218030D01*
X381849Y217994D01*
X381915Y217943D01*
X381980Y217877D01*
X382053Y217804D01*
X382119Y217717D01*
X382177Y217615D01*
X382184Y217600D01*
X382199Y217564D01*
X382221Y217498D01*
X382243Y217403D01*
X382265Y217286D01*
X382287Y217148D01*
X382301Y216980D01*
X382308Y216791D01*
Y214480D01*
X381689D01*
Y216798D01*
Y216805D01*
Y216820D01*
Y216842D01*
Y216871D01*
X381681Y216951D01*
X381667Y217053D01*
X381638Y217163D01*
X381601Y217272D01*
X381550Y217381D01*
X381485Y217469D01*
X381477Y217476D01*
X381448Y217505D01*
X381404Y217542D01*
X381339Y217578D01*
X381259Y217622D01*
X381164Y217651D01*
X381047Y217680D01*
X380916Y217688D01*
X380872D01*
X380821Y217680D01*
X380748Y217673D01*
X380675Y217651D01*
X380588Y217629D01*
X380501Y217593D01*
X380406Y217542D01*
X380398Y217534D01*
X380369Y217512D01*
X380326Y217483D01*
X380275Y217440D01*
X380216Y217381D01*
X380158Y217316D01*
X380107Y217235D01*
X380063Y217148D01*
X380056Y217133D01*
X380048Y217104D01*
X380034Y217046D01*
X380012Y216973D01*
X379990Y216878D01*
X379976Y216762D01*
X379968Y216630D01*
X379961Y216477D01*
Y214480D01*
X379341D01*
Y219525D01*
X379961D01*
Y217717D01*
D02*
G37*
G36*
X374472Y214480D02*
X373852D01*
Y218139D01*
X374472D01*
Y214480D01*
D02*
G37*
G36*
X373065Y218927D02*
X370324D01*
Y217367D01*
X372693D01*
Y216769D01*
X370324D01*
Y214480D01*
X369653D01*
Y219525D01*
X373065D01*
Y218927D01*
D02*
G37*
G36*
X368581Y214480D02*
X367962D01*
Y219525D01*
X368581D01*
Y214480D01*
D02*
G37*
G36*
X359345Y218927D02*
X356604D01*
Y217367D01*
X358973D01*
Y216769D01*
X356604D01*
Y214480D01*
X355933D01*
Y219525D01*
X359345D01*
Y218927D01*
D02*
G37*
G36*
X383985Y218139D02*
X384612D01*
Y217658D01*
X383985D01*
Y215508D01*
Y215493D01*
Y215464D01*
Y215420D01*
X383992Y215369D01*
X384000Y215253D01*
X384007Y215202D01*
X384014Y215165D01*
X384021Y215151D01*
X384043Y215121D01*
X384073Y215085D01*
X384124Y215049D01*
X384138Y215041D01*
X384175Y215027D01*
X384240Y215012D01*
X384335Y215005D01*
X384408D01*
X384444Y215012D01*
X384495D01*
X384554Y215019D01*
X384612Y215027D01*
X384692Y214480D01*
X384678D01*
X384648Y214473D01*
X384597Y214465D01*
X384532Y214458D01*
X384459Y214443D01*
X384379Y214436D01*
X384218Y214429D01*
X384160D01*
X384102Y214436D01*
X384029Y214443D01*
X383941Y214451D01*
X383854Y214473D01*
X383774Y214494D01*
X383694Y214531D01*
X383686Y214538D01*
X383664Y214553D01*
X383635Y214575D01*
X383591Y214611D01*
X383555Y214648D01*
X383511Y214699D01*
X383468Y214750D01*
X383438Y214815D01*
Y214823D01*
X383424Y214852D01*
X383416Y214903D01*
X383402Y214976D01*
X383387Y215070D01*
X383380Y215129D01*
Y215194D01*
X383373Y215275D01*
X383365Y215355D01*
Y215442D01*
Y215544D01*
Y217658D01*
X382906D01*
Y218139D01*
X383365D01*
Y219043D01*
X383985Y219415D01*
Y218139D01*
D02*
G37*
G36*
X386843Y218212D02*
X386901Y218205D01*
X386974Y218191D01*
X387054Y218176D01*
X387149Y218154D01*
X387236Y218132D01*
X387338Y218096D01*
X387433Y218059D01*
X387535Y218008D01*
X387637Y217950D01*
X387739Y217884D01*
X387834Y217804D01*
X387922Y217717D01*
X387929Y217709D01*
X387944Y217695D01*
X387965Y217666D01*
X387995Y217622D01*
X388031Y217571D01*
X388068Y217512D01*
X388111Y217440D01*
X388155Y217352D01*
X388199Y217257D01*
X388242Y217155D01*
X388279Y217039D01*
X388315Y216915D01*
X388345Y216776D01*
X388366Y216630D01*
X388381Y216477D01*
X388388Y216310D01*
Y216302D01*
Y216273D01*
Y216222D01*
X388381Y216149D01*
X385647D01*
Y216142D01*
Y216120D01*
X385654Y216091D01*
Y216047D01*
X385662Y215996D01*
X385676Y215938D01*
X385698Y215807D01*
X385742Y215661D01*
X385800Y215500D01*
X385880Y215355D01*
X385982Y215224D01*
X385990D01*
X385997Y215209D01*
X386041Y215172D01*
X386106Y215121D01*
X386194Y215070D01*
X386311Y215012D01*
X386442Y214961D01*
X386588Y214925D01*
X386668Y214917D01*
X386755Y214910D01*
X386814D01*
X386879Y214917D01*
X386959Y214932D01*
X387047Y214954D01*
X387149Y214983D01*
X387244Y215027D01*
X387338Y215085D01*
X387346Y215092D01*
X387382Y215121D01*
X387426Y215165D01*
X387477Y215224D01*
X387535Y215304D01*
X387601Y215406D01*
X387667Y215522D01*
X387725Y215661D01*
X388366Y215581D01*
Y215573D01*
X388359Y215559D01*
X388352Y215530D01*
X388337Y215486D01*
X388315Y215442D01*
X388294Y215384D01*
X388235Y215260D01*
X388162Y215121D01*
X388060Y214976D01*
X387944Y214837D01*
X387798Y214706D01*
X387790D01*
X387776Y214691D01*
X387754Y214677D01*
X387725Y214655D01*
X387681Y214633D01*
X387637Y214611D01*
X387579Y214582D01*
X387513Y214553D01*
X387440Y214524D01*
X387368Y214494D01*
X387185Y214451D01*
X386981Y214414D01*
X386755Y214400D01*
X386675D01*
X386624Y214407D01*
X386558Y214414D01*
X386478Y214429D01*
X386391Y214443D01*
X386296Y214458D01*
X386092Y214516D01*
X385982Y214560D01*
X385880Y214604D01*
X385771Y214662D01*
X385669Y214728D01*
X385574Y214801D01*
X385479Y214888D01*
X385472Y214895D01*
X385458Y214910D01*
X385436Y214939D01*
X385407Y214983D01*
X385370Y215034D01*
X385334Y215092D01*
X385290Y215165D01*
X385246Y215245D01*
X385203Y215340D01*
X385159Y215442D01*
X385122Y215559D01*
X385086Y215683D01*
X385057Y215814D01*
X385035Y215960D01*
X385020Y216113D01*
X385013Y216273D01*
Y216281D01*
Y216317D01*
Y216361D01*
X385020Y216426D01*
X385028Y216507D01*
X385035Y216594D01*
X385049Y216696D01*
X385071Y216798D01*
X385130Y217031D01*
X385166Y217148D01*
X385210Y217272D01*
X385268Y217389D01*
X385334Y217498D01*
X385407Y217607D01*
X385487Y217709D01*
X385494Y217717D01*
X385509Y217731D01*
X385538Y217753D01*
X385574Y217790D01*
X385618Y217826D01*
X385676Y217870D01*
X385742Y217921D01*
X385822Y217965D01*
X385902Y218016D01*
X385997Y218059D01*
X386099Y218103D01*
X386209Y218139D01*
X386325Y218176D01*
X386449Y218198D01*
X386580Y218212D01*
X386719Y218220D01*
X386792D01*
X386843Y218212D01*
D02*
G37*
G36*
X365673D02*
X365731Y218205D01*
X365804Y218191D01*
X365884Y218176D01*
X365979Y218154D01*
X366066Y218132D01*
X366168Y218096D01*
X366263Y218059D01*
X366365Y218008D01*
X366467Y217950D01*
X366569Y217884D01*
X366664Y217804D01*
X366752Y217717D01*
X366759Y217709D01*
X366773Y217695D01*
X366795Y217666D01*
X366824Y217622D01*
X366861Y217571D01*
X366897Y217512D01*
X366941Y217440D01*
X366985Y217352D01*
X367028Y217257D01*
X367072Y217155D01*
X367109Y217039D01*
X367145Y216915D01*
X367174Y216776D01*
X367196Y216630D01*
X367211Y216477D01*
X367218Y216310D01*
Y216302D01*
Y216273D01*
Y216222D01*
X367211Y216149D01*
X364477D01*
Y216142D01*
Y216120D01*
X364484Y216091D01*
Y216047D01*
X364492Y215996D01*
X364506Y215938D01*
X364528Y215807D01*
X364572Y215661D01*
X364630Y215500D01*
X364710Y215355D01*
X364812Y215224D01*
X364820D01*
X364827Y215209D01*
X364871Y215172D01*
X364936Y215121D01*
X365024Y215070D01*
X365140Y215012D01*
X365272Y214961D01*
X365417Y214925D01*
X365498Y214917D01*
X365585Y214910D01*
X365643D01*
X365709Y214917D01*
X365789Y214932D01*
X365877Y214954D01*
X365979Y214983D01*
X366073Y215027D01*
X366168Y215085D01*
X366176Y215092D01*
X366212Y215121D01*
X366256Y215165D01*
X366307Y215224D01*
X366365Y215304D01*
X366431Y215406D01*
X366496Y215522D01*
X366555Y215661D01*
X367196Y215581D01*
Y215573D01*
X367189Y215559D01*
X367182Y215530D01*
X367167Y215486D01*
X367145Y215442D01*
X367123Y215384D01*
X367065Y215260D01*
X366992Y215121D01*
X366890Y214976D01*
X366773Y214837D01*
X366628Y214706D01*
X366620D01*
X366606Y214691D01*
X366584Y214677D01*
X366555Y214655D01*
X366511Y214633D01*
X366467Y214611D01*
X366409Y214582D01*
X366343Y214553D01*
X366270Y214524D01*
X366197Y214494D01*
X366015Y214451D01*
X365811Y214414D01*
X365585Y214400D01*
X365505D01*
X365454Y214407D01*
X365388Y214414D01*
X365308Y214429D01*
X365221Y214443D01*
X365126Y214458D01*
X364922Y214516D01*
X364812Y214560D01*
X364710Y214604D01*
X364601Y214662D01*
X364499Y214728D01*
X364404Y214801D01*
X364309Y214888D01*
X364302Y214895D01*
X364287Y214910D01*
X364266Y214939D01*
X364236Y214983D01*
X364200Y215034D01*
X364164Y215092D01*
X364120Y215165D01*
X364076Y215245D01*
X364032Y215340D01*
X363989Y215442D01*
X363952Y215559D01*
X363916Y215683D01*
X363886Y215814D01*
X363865Y215960D01*
X363850Y216113D01*
X363843Y216273D01*
Y216281D01*
Y216317D01*
Y216361D01*
X363850Y216426D01*
X363857Y216507D01*
X363865Y216594D01*
X363879Y216696D01*
X363901Y216798D01*
X363959Y217031D01*
X363996Y217148D01*
X364040Y217272D01*
X364098Y217389D01*
X364164Y217498D01*
X364236Y217607D01*
X364317Y217709D01*
X364324Y217717D01*
X364338Y217731D01*
X364368Y217753D01*
X364404Y217790D01*
X364448Y217826D01*
X364506Y217870D01*
X364572Y217921D01*
X364652Y217965D01*
X364732Y218016D01*
X364827Y218059D01*
X364929Y218103D01*
X365038Y218139D01*
X365155Y218176D01*
X365279Y218198D01*
X365410Y218212D01*
X365549Y218220D01*
X365622D01*
X365673Y218212D01*
D02*
G37*
G36*
X376870D02*
X376921Y218205D01*
X376987Y218191D01*
X377060Y218176D01*
X377140Y218154D01*
X377220Y218125D01*
X377307Y218088D01*
X377395Y218045D01*
X377490Y217994D01*
X377577Y217935D01*
X377665Y217862D01*
X377752Y217782D01*
X377832Y217688D01*
Y218139D01*
X378401D01*
Y214976D01*
Y214968D01*
Y214939D01*
Y214895D01*
Y214837D01*
X378394Y214772D01*
Y214691D01*
X378386Y214604D01*
X378379Y214509D01*
X378357Y214312D01*
X378328Y214108D01*
X378306Y214013D01*
X378284Y213926D01*
X378255Y213846D01*
X378226Y213773D01*
Y213766D01*
X378219Y213758D01*
X378189Y213714D01*
X378153Y213649D01*
X378095Y213569D01*
X378015Y213481D01*
X377920Y213386D01*
X377803Y213292D01*
X377672Y213211D01*
X377665D01*
X377657Y213204D01*
X377636Y213190D01*
X377606Y213182D01*
X377570Y213160D01*
X377526Y213146D01*
X377417Y213109D01*
X377286Y213066D01*
X377125Y213036D01*
X376943Y213007D01*
X376746Y213000D01*
X376680D01*
X376637Y213007D01*
X376578D01*
X376520Y213015D01*
X376447Y213022D01*
X376367Y213036D01*
X376199Y213073D01*
X376024Y213124D01*
X375849Y213197D01*
X375689Y213299D01*
X375682Y213306D01*
X375675Y213314D01*
X375623Y213357D01*
X375565Y213423D01*
X375492Y213518D01*
X375419Y213642D01*
X375354Y213795D01*
X375332Y213882D01*
X375317Y213977D01*
X375303Y214072D01*
Y214181D01*
X375908Y214101D01*
Y214086D01*
X375915Y214057D01*
X375930Y214006D01*
X375944Y213940D01*
X375973Y213875D01*
X376010Y213809D01*
X376054Y213744D01*
X376112Y213692D01*
X376127Y213685D01*
X376156Y213663D01*
X376207Y213634D01*
X376279Y213605D01*
X376367Y213569D01*
X376476Y213540D01*
X376608Y213518D01*
X376746Y213510D01*
X376819D01*
X376892Y213518D01*
X376994Y213532D01*
X377096Y213554D01*
X377205Y213583D01*
X377315Y213627D01*
X377410Y213685D01*
X377417Y213692D01*
X377446Y213714D01*
X377490Y213758D01*
X377541Y213809D01*
X377592Y213882D01*
X377643Y213962D01*
X377694Y214057D01*
X377730Y214166D01*
Y214174D01*
X377737Y214203D01*
X377745Y214261D01*
X377752Y214334D01*
X377759Y214385D01*
Y214443D01*
X377767Y214509D01*
Y214582D01*
Y214662D01*
X377774Y214757D01*
Y214852D01*
Y214961D01*
X377767Y214954D01*
X377752Y214939D01*
X377730Y214917D01*
X377701Y214888D01*
X377665Y214852D01*
X377614Y214808D01*
X377555Y214764D01*
X377497Y214720D01*
X377344Y214633D01*
X377176Y214553D01*
X377081Y214524D01*
X376979Y214502D01*
X376870Y214487D01*
X376761Y214480D01*
X376724D01*
X376688Y214487D01*
X376637D01*
X376571Y214494D01*
X376498Y214509D01*
X376418Y214524D01*
X376331Y214545D01*
X376236Y214575D01*
X376141Y214611D01*
X376046Y214655D01*
X375944Y214706D01*
X375849Y214772D01*
X375755Y214844D01*
X375667Y214925D01*
X375587Y215019D01*
X375580Y215027D01*
X375572Y215041D01*
X375551Y215078D01*
X375521Y215114D01*
X375492Y215172D01*
X375456Y215231D01*
X375419Y215304D01*
X375383Y215391D01*
X375346Y215479D01*
X375310Y215581D01*
X375273Y215683D01*
X375244Y215799D01*
X375193Y216047D01*
X375186Y216186D01*
X375179Y216324D01*
Y216332D01*
Y216346D01*
Y216375D01*
Y216412D01*
X375186Y216463D01*
Y216514D01*
X375201Y216645D01*
X375222Y216791D01*
X375259Y216951D01*
X375303Y217119D01*
X375368Y217286D01*
Y217294D01*
X375376Y217308D01*
X375390Y217330D01*
X375405Y217359D01*
X375448Y217440D01*
X375507Y217542D01*
X375587Y217651D01*
X375682Y217760D01*
X375791Y217877D01*
X375915Y217972D01*
X375922D01*
X375930Y217979D01*
X375952Y217994D01*
X375981Y218008D01*
X376054Y218052D01*
X376156Y218096D01*
X376279Y218139D01*
X376425Y218183D01*
X376586Y218212D01*
X376761Y218220D01*
X376826D01*
X376870Y218212D01*
D02*
G37*
%LPC*%
G36*
X362640Y225068D02*
X361473D01*
Y221219D01*
X362669D01*
X362720Y221226D01*
X362829Y221233D01*
X362953Y221241D01*
X363085Y221255D01*
X363216Y221277D01*
X363325Y221306D01*
X363340Y221314D01*
X363376Y221321D01*
X363427Y221343D01*
X363493Y221372D01*
X363566Y221416D01*
X363639Y221459D01*
X363712Y221510D01*
X363785Y221569D01*
X363792Y221583D01*
X363821Y221612D01*
X363865Y221663D01*
X363916Y221736D01*
X363974Y221831D01*
X364040Y221940D01*
X364098Y222064D01*
X364149Y222203D01*
Y222210D01*
X364156Y222225D01*
X364164Y222247D01*
X364171Y222276D01*
X364178Y222312D01*
X364193Y222363D01*
X364207Y222414D01*
X364222Y222473D01*
X364244Y222618D01*
X364266Y222786D01*
X364280Y222976D01*
X364287Y223180D01*
Y223187D01*
Y223216D01*
Y223253D01*
X364280Y223311D01*
Y223377D01*
X364273Y223449D01*
X364266Y223537D01*
X364258Y223624D01*
X364222Y223821D01*
X364178Y224025D01*
X364112Y224215D01*
X364069Y224310D01*
X364025Y224390D01*
Y224397D01*
X364011Y224412D01*
X363996Y224434D01*
X363981Y224463D01*
X363923Y224536D01*
X363850Y224623D01*
X363755Y224718D01*
X363646Y224813D01*
X363522Y224893D01*
X363391Y224958D01*
X363376Y224966D01*
X363340Y224973D01*
X363274Y224995D01*
X363179Y225017D01*
X363063Y225031D01*
X362917Y225053D01*
X362829Y225061D01*
X362735D01*
X362640Y225068D01*
D02*
G37*
G36*
X386726Y217709D02*
X386682D01*
X386653Y217702D01*
X386573Y217695D01*
X386478Y217673D01*
X386362Y217636D01*
X386238Y217585D01*
X386121Y217512D01*
X386004Y217418D01*
X385990Y217403D01*
X385961Y217367D01*
X385910Y217301D01*
X385859Y217214D01*
X385800Y217112D01*
X385749Y216980D01*
X385705Y216827D01*
X385684Y216660D01*
X387732D01*
Y216667D01*
Y216681D01*
X387725Y216703D01*
Y216733D01*
X387710Y216820D01*
X387688Y216915D01*
X387652Y217031D01*
X387615Y217141D01*
X387557Y217250D01*
X387492Y217345D01*
Y217352D01*
X387477Y217359D01*
X387440Y217403D01*
X387375Y217461D01*
X387287Y217527D01*
X387178Y217593D01*
X387047Y217651D01*
X386894Y217695D01*
X386814Y217702D01*
X386726Y217709D01*
D02*
G37*
G36*
X365556D02*
X365512D01*
X365483Y217702D01*
X365403Y217695D01*
X365308Y217673D01*
X365191Y217636D01*
X365068Y217585D01*
X364951Y217512D01*
X364834Y217418D01*
X364820Y217403D01*
X364791Y217367D01*
X364739Y217301D01*
X364688Y217214D01*
X364630Y217112D01*
X364579Y216980D01*
X364535Y216827D01*
X364513Y216660D01*
X366562D01*
Y216667D01*
Y216681D01*
X366555Y216703D01*
Y216733D01*
X366540Y216820D01*
X366518Y216915D01*
X366482Y217031D01*
X366445Y217141D01*
X366387Y217250D01*
X366321Y217345D01*
Y217352D01*
X366307Y217359D01*
X366270Y217403D01*
X366205Y217461D01*
X366117Y217527D01*
X366008Y217593D01*
X365877Y217651D01*
X365724Y217695D01*
X365643Y217702D01*
X365556Y217709D01*
D02*
G37*
G36*
X376885D02*
X376768D01*
X376739Y217702D01*
X376659Y217695D01*
X376564Y217666D01*
X376447Y217629D01*
X376331Y217564D01*
X376214Y217483D01*
X376156Y217425D01*
X376097Y217367D01*
Y217359D01*
X376083Y217352D01*
X376068Y217330D01*
X376054Y217301D01*
X376032Y217272D01*
X376010Y217228D01*
X375981Y217177D01*
X375959Y217119D01*
X375930Y217053D01*
X375901Y216973D01*
X375879Y216893D01*
X375857Y216805D01*
X375842Y216703D01*
X375828Y216601D01*
X375813Y216492D01*
Y216368D01*
Y216361D01*
Y216339D01*
Y216302D01*
X375820Y216251D01*
Y216193D01*
X375828Y216120D01*
X375849Y215967D01*
X375886Y215792D01*
X375930Y215624D01*
X376003Y215457D01*
X376046Y215384D01*
X376097Y215318D01*
X376112Y215304D01*
X376148Y215267D01*
X376207Y215216D01*
X376294Y215158D01*
X376396Y215092D01*
X376520Y215041D01*
X376659Y215005D01*
X376731Y214998D01*
X376812Y214990D01*
X376855D01*
X376885Y214998D01*
X376965Y215005D01*
X377067Y215034D01*
X377176Y215070D01*
X377300Y215129D01*
X377417Y215209D01*
X377475Y215260D01*
X377533Y215318D01*
Y215325D01*
X377548Y215333D01*
X377563Y215355D01*
X377577Y215384D01*
X377599Y215413D01*
X377628Y215457D01*
X377650Y215508D01*
X377679Y215573D01*
X377708Y215639D01*
X377730Y215712D01*
X377759Y215799D01*
X377781Y215894D01*
X377796Y215989D01*
X377810Y216098D01*
X377825Y216222D01*
Y216346D01*
Y216353D01*
Y216375D01*
Y216412D01*
X377818Y216456D01*
Y216514D01*
X377810Y216579D01*
X377789Y216725D01*
X377752Y216893D01*
X377701Y217060D01*
X377628Y217228D01*
X377577Y217301D01*
X377526Y217367D01*
Y217374D01*
X377512Y217381D01*
X377475Y217418D01*
X377410Y217476D01*
X377322Y217542D01*
X377220Y217600D01*
X377096Y217658D01*
X376958Y217695D01*
X376885Y217709D01*
D02*
G37*
%LPD*%
D10*
X240220Y161153D02*
G03*
X240220Y161153I-492J0D01*
G01*
D11*
X232543Y166095D02*
G03*
X232543Y166095I-1181J0D01*
G01*
D12*
X159181Y187756D02*
G03*
X159181Y187756I-394J0D01*
G01*
X257000Y236016D02*
Y244016D01*
X253000Y240016D02*
X261000D01*
X277000Y246000D02*
Y296000D01*
X262000Y311000D02*
X277000Y296000D01*
X252000Y311000D02*
X262000D01*
X237000Y296000D02*
X252000Y311000D01*
X237000Y246000D02*
Y296000D01*
Y246000D02*
X277000D01*
X374000Y103484D02*
Y111484D01*
X370000Y107484D02*
X378000D01*
X354000Y51500D02*
Y101500D01*
Y51500D02*
X369000Y36500D01*
X379000D01*
X394000Y51500D01*
Y101500D01*
X354000D02*
X394000D01*
X172000Y236016D02*
Y244016D01*
X168000Y240016D02*
X176000D01*
X192000Y246000D02*
Y296000D01*
X177000Y311000D02*
X192000Y296000D01*
X167000Y311000D02*
X177000D01*
X152000Y296000D02*
X167000Y311000D01*
X152000Y246000D02*
Y296000D01*
Y246000D02*
X192000D01*
X378638Y171492D02*
X409200D01*
Y146295D02*
Y171492D01*
X372437Y152594D02*
Y165291D01*
X378638Y171492D01*
X378736Y146295D02*
X409200D01*
X372437Y152594D02*
X378736Y146295D01*
X378638Y138492D02*
X409200D01*
Y113295D02*
Y138492D01*
X372437Y119595D02*
Y132291D01*
X378638Y138492D01*
X378736Y113295D02*
X409200D01*
X372437Y119595D02*
X378736Y113295D01*
X309055Y299213D02*
Y305211D01*
X312054D01*
X313054Y304211D01*
Y302212D01*
X312054Y301212D01*
X309055D01*
X311054D02*
X313054Y299213D01*
X318052D02*
X316053D01*
X315053Y300212D01*
Y302212D01*
X316053Y303211D01*
X318052D01*
X319052Y302212D01*
Y301212D01*
X315053D01*
X322051Y303211D02*
X324050D01*
X325050Y302212D01*
Y299213D01*
X322051D01*
X321051Y300212D01*
X322051Y301212D01*
X325050D01*
X327049Y303211D02*
Y299213D01*
Y301212D01*
X328049Y302212D01*
X329049Y303211D01*
X330048D01*
X339045Y299213D02*
Y305211D01*
X342044D01*
X343044Y304211D01*
Y302212D01*
X342044Y301212D01*
X339045D01*
X345043Y305211D02*
Y299213D01*
X348042D01*
X349042Y300212D01*
Y304211D01*
X348042Y305211D01*
X345043D01*
X351042D02*
Y299213D01*
X354041D01*
X355040Y300212D01*
Y301212D01*
X354041Y302212D01*
X351042D01*
X354041D01*
X355040Y303211D01*
Y304211D01*
X354041Y305211D01*
X351042D01*
X363038Y303211D02*
X365037Y299213D01*
X367036Y303211D01*
X373034Y299213D02*
X369036D01*
X373034Y303211D01*
Y304211D01*
X372035Y305211D01*
X370035D01*
X369036Y304211D01*
X375034Y299213D02*
Y300212D01*
X376033D01*
Y299213D01*
X375034D01*
X380032Y304211D02*
X381032Y305211D01*
X383031D01*
X384031Y304211D01*
Y300212D01*
X383031Y299213D01*
X381032D01*
X380032Y300212D01*
Y304211D01*
X355599Y274198D02*
X354599Y275198D01*
X352600D01*
X351600Y274198D01*
Y273199D01*
X352600Y272199D01*
X354599D01*
X355599Y271199D01*
Y270200D01*
X354599Y269200D01*
X352600D01*
X351600Y270200D01*
X361597Y275198D02*
X357598D01*
Y269200D01*
X361597D01*
X357598Y272199D02*
X359597D01*
X363596Y269200D02*
Y275198D01*
X365596Y273199D01*
X367595Y275198D01*
Y269200D01*
X379591D02*
X375592D01*
X379591Y273199D01*
Y274198D01*
X378591Y275198D01*
X376592D01*
X375592Y274198D01*
X381590D02*
X382590Y275198D01*
X384589D01*
X385589Y274198D01*
Y270200D01*
X384589Y269200D01*
X382590D01*
X381590Y270200D01*
Y274198D01*
X391587Y269200D02*
X387588D01*
X391587Y273199D01*
Y274198D01*
X390587Y275198D01*
X388588D01*
X387588Y274198D01*
X393586D02*
X394586Y275198D01*
X396585D01*
X397585Y274198D01*
Y270200D01*
X396585Y269200D01*
X394586D01*
X393586Y270200D01*
Y274198D01*
X321000Y54999D02*
X317002D01*
Y52000D01*
X319001D01*
X317002D01*
Y49001D01*
X326998D02*
X323000D01*
X326998Y53000D01*
Y53999D01*
X325999Y54999D01*
X323999D01*
X323000Y53999D01*
X260700Y164398D02*
Y158400D01*
X264699D01*
X270697D02*
X266698D01*
X270697Y162399D01*
Y163398D01*
X269697Y164398D01*
X267698D01*
X266698Y163398D01*
X182258Y110600D02*
Y116598D01*
X185257D01*
X186257Y115598D01*
Y113599D01*
X185257Y112599D01*
X182258D01*
X184258D02*
X186257Y110600D01*
X188256Y115598D02*
X189256Y116598D01*
X191255D01*
X192255Y115598D01*
Y114599D01*
X191255Y113599D01*
X192255Y112599D01*
Y111600D01*
X191255Y110600D01*
X189256D01*
X188256Y111600D01*
Y112599D01*
X189256Y113599D01*
X188256Y114599D01*
Y115598D01*
X189256Y113599D02*
X191255D01*
X246900Y207100D02*
Y213098D01*
X249899D01*
X250899Y212098D01*
Y210099D01*
X249899Y209099D01*
X246900D01*
X248899D02*
X250899Y207100D01*
X256897Y213098D02*
X252898D01*
Y210099D01*
X254897Y211099D01*
X255897D01*
X256897Y210099D01*
Y208100D01*
X255897Y207100D01*
X253898D01*
X252898Y208100D01*
X244900Y181800D02*
Y187798D01*
X247899D01*
X248899Y186798D01*
Y184799D01*
X247899Y183799D01*
X244900D01*
X246899D02*
X248899Y181800D01*
X253897D02*
Y187798D01*
X250898Y184799D01*
X254897D01*
X174000Y144000D02*
Y149998D01*
X176999D01*
X177999Y148998D01*
Y146999D01*
X176999Y145999D01*
X174000D01*
X175999D02*
X177999Y144000D01*
X179998Y148998D02*
X180998Y149998D01*
X182997D01*
X183997Y148998D01*
Y147999D01*
X182997Y146999D01*
X181997D01*
X182997D01*
X183997Y145999D01*
Y145000D01*
X182997Y144000D01*
X180998D01*
X179998Y145000D01*
X164000Y125000D02*
Y130998D01*
X166999D01*
X167999Y129998D01*
Y127999D01*
X166999Y126999D01*
X164000D01*
X165999D02*
X167999Y125000D01*
X173997D02*
X169998D01*
X173997Y128999D01*
Y129998D01*
X172997Y130998D01*
X170998D01*
X169998Y129998D01*
X134000Y133000D02*
Y138998D01*
X136999D01*
X137999Y137998D01*
Y135999D01*
X136999Y134999D01*
X134000D01*
X135999D02*
X137999Y133000D01*
X139998D02*
X141997D01*
X140998D01*
Y138998D01*
X139998Y137998D01*
X233000Y250000D02*
X227002D01*
Y252999D01*
X228002Y253999D01*
X230001D01*
X231001Y252999D01*
Y250000D01*
X233000Y258997D02*
X227002D01*
X230001Y255998D01*
Y259997D01*
X207500Y112500D02*
Y118498D01*
X210499D01*
X211499Y117498D01*
Y115499D01*
X210499Y114499D01*
X207500D01*
X213498Y117498D02*
X214498Y118498D01*
X216497D01*
X217497Y117498D01*
Y116499D01*
X216497Y115499D01*
X215497D01*
X216497D01*
X217497Y114499D01*
Y113500D01*
X216497Y112500D01*
X214498D01*
X213498Y113500D01*
X402000Y99500D02*
X407998D01*
Y96501D01*
X406998Y95501D01*
X404999D01*
X403999Y96501D01*
Y99500D01*
X402000Y89503D02*
Y93502D01*
X405999Y89503D01*
X406998D01*
X407998Y90503D01*
Y92502D01*
X406998Y93502D01*
X146000Y257000D02*
X140002D01*
Y259999D01*
X141002Y260999D01*
X143001D01*
X144001Y259999D01*
Y257000D01*
X146000Y262998D02*
Y264997D01*
Y263998D01*
X140002D01*
X141002Y262998D01*
X88002Y132000D02*
X94000D01*
Y135999D01*
Y137998D02*
Y139997D01*
Y138998D01*
X88002D01*
X89002Y137998D01*
X221049Y96448D02*
X219049D01*
X220049D01*
Y91450D01*
X219049Y90450D01*
X218050D01*
X217050Y91450D01*
X227047Y90450D02*
X223048D01*
X227047Y94449D01*
Y95448D01*
X226047Y96448D01*
X224048D01*
X223048Y95448D01*
X148549Y96448D02*
X146549D01*
X147549D01*
Y91450D01*
X146549Y90450D01*
X145550D01*
X144550Y91450D01*
X150548Y90450D02*
X152547D01*
X151548D01*
Y96448D01*
X150548Y95448D01*
X123099Y120298D02*
X119100D01*
Y117299D01*
X121099D01*
X119100D01*
Y114300D01*
X125098D02*
X127097D01*
X126098D01*
Y120298D01*
X125098Y119298D01*
X215300Y192098D02*
Y186100D01*
X218299D01*
X219299Y187100D01*
Y191098D01*
X218299Y192098D01*
X215300D01*
X225297Y191098D02*
X224297Y192098D01*
X222298D01*
X221298Y191098D01*
Y187100D01*
X222298Y186100D01*
X224297D01*
X225297Y187100D01*
X227296Y192098D02*
Y186100D01*
X230295D01*
X231295Y187100D01*
Y191098D01*
X230295Y192098D01*
X227296D01*
X237293Y191098D02*
X236293Y192098D01*
X234294D01*
X233294Y191098D01*
Y187100D01*
X234294Y186100D01*
X236293D01*
X237293Y187100D01*
X243291Y186100D02*
X239292D01*
X243291Y190099D01*
Y191098D01*
X242291Y192098D01*
X240292D01*
X239292Y191098D01*
X135200Y202098D02*
Y196100D01*
X138199D01*
X139199Y197100D01*
Y201098D01*
X138199Y202098D01*
X135200D01*
X145197Y201098D02*
X144197Y202098D01*
X142198D01*
X141198Y201098D01*
Y197100D01*
X142198Y196100D01*
X144197D01*
X145197Y197100D01*
X147196Y202098D02*
Y196100D01*
X150195D01*
X151195Y197100D01*
Y201098D01*
X150195Y202098D01*
X147196D01*
X157193Y201098D02*
X156193Y202098D01*
X154194D01*
X153194Y201098D01*
Y197100D01*
X154194Y196100D01*
X156193D01*
X157193Y197100D01*
X159192Y196100D02*
X161192D01*
X160192D01*
Y202098D01*
X159192Y201098D01*
X267200Y202798D02*
Y196800D01*
X270199D01*
X271199Y197800D01*
Y201798D01*
X270199Y202798D01*
X267200D01*
X277197Y196800D02*
X273198D01*
X277197Y200799D01*
Y201798D01*
X276197Y202798D01*
X274198D01*
X273198Y201798D01*
X102200Y278298D02*
Y272300D01*
X105199D01*
X106199Y273300D01*
Y277298D01*
X105199Y278298D01*
X102200D01*
X108198Y272300D02*
X110197D01*
X109198D01*
Y278298D01*
X108198Y277298D01*
X418998Y161501D02*
X419998Y162501D01*
Y164500D01*
X418998Y165500D01*
X415000D01*
X414000Y164500D01*
Y162501D01*
X415000Y161501D01*
X414000Y159502D02*
Y157503D01*
Y158502D01*
X419998D01*
X418998Y159502D01*
Y154504D02*
X419998Y153504D01*
Y151505D01*
X418998Y150505D01*
X415000D01*
X414000Y151505D01*
Y153504D01*
X415000Y154504D01*
X418998D01*
X417998Y126501D02*
X418998Y127501D01*
Y129500D01*
X417998Y130500D01*
X414000D01*
X413000Y129500D01*
Y127501D01*
X414000Y126501D01*
Y124502D02*
X413000Y123502D01*
Y121503D01*
X414000Y120503D01*
X417998D01*
X418998Y121503D01*
Y123502D01*
X417998Y124502D01*
X416999D01*
X415999Y123502D01*
Y120503D01*
X214199Y212798D02*
X213199Y213798D01*
X211200D01*
X210200Y212798D01*
Y208800D01*
X211200Y207800D01*
X213199D01*
X214199Y208800D01*
X216198Y212798D02*
X217198Y213798D01*
X219197D01*
X220197Y212798D01*
Y211799D01*
X219197Y210799D01*
X220197Y209799D01*
Y208800D01*
X219197Y207800D01*
X217198D01*
X216198Y208800D01*
Y209799D01*
X217198Y210799D01*
X216198Y211799D01*
Y212798D01*
X217198Y210799D02*
X219197D01*
X189199Y193798D02*
X188199Y194798D01*
X186200D01*
X185200Y193798D01*
Y189800D01*
X186200Y188800D01*
X188199D01*
X189199Y189800D01*
X191198Y194798D02*
X195197D01*
Y193798D01*
X191198Y189800D01*
Y188800D01*
X227199Y159798D02*
X226199Y160798D01*
X224200D01*
X223200Y159798D01*
Y155800D01*
X224200Y154800D01*
X226199D01*
X227199Y155800D01*
X233197Y160798D02*
X231197Y159798D01*
X229198Y157799D01*
Y155800D01*
X230198Y154800D01*
X232197D01*
X233197Y155800D01*
Y156799D01*
X232197Y157799D01*
X229198D01*
X160999Y148998D02*
X159999Y149998D01*
X158000D01*
X157000Y148998D01*
Y145000D01*
X158000Y144000D01*
X159999D01*
X160999Y145000D01*
X166997Y149998D02*
X162998D01*
Y146999D01*
X164997Y147999D01*
X165997D01*
X166997Y146999D01*
Y145000D01*
X165997Y144000D01*
X163998D01*
X162998Y145000D01*
X106199Y111398D02*
X105199Y112398D01*
X103200D01*
X102200Y111398D01*
Y107400D01*
X103200Y106400D01*
X105199D01*
X106199Y107400D01*
X111197Y106400D02*
Y112398D01*
X108198Y109399D01*
X112197D01*
X149999Y137998D02*
X148999Y138998D01*
X147000D01*
X146000Y137998D01*
Y134000D01*
X147000Y133000D01*
X148999D01*
X149999Y134000D01*
X151998Y137998D02*
X152998Y138998D01*
X154997D01*
X155997Y137998D01*
Y136999D01*
X154997Y135999D01*
X153997D01*
X154997D01*
X155997Y134999D01*
Y134000D01*
X154997Y133000D01*
X152998D01*
X151998Y134000D01*
X181199Y210798D02*
X180199Y211798D01*
X178200D01*
X177200Y210798D01*
Y206800D01*
X178200Y205800D01*
X180199D01*
X181199Y206800D01*
X187197Y205800D02*
X183198D01*
X187197Y209799D01*
Y210798D01*
X186197Y211798D01*
X184198D01*
X183198Y210798D01*
X169199Y192798D02*
X168199Y193798D01*
X166200D01*
X165200Y192798D01*
Y188800D01*
X166200Y187800D01*
X168199D01*
X169199Y188800D01*
X171198Y187800D02*
X173197D01*
X172198D01*
Y193798D01*
X171198Y192798D01*
D13*
X118488Y74567D02*
Y95433D01*
X129512Y74567D02*
Y95433D01*
X118488D02*
X129512D01*
X118488Y74567D02*
X129512D01*
X235299Y162157D02*
Y181843D01*
X222701Y162157D02*
Y181843D01*
Y162157D02*
X235299D01*
X222701Y181843D02*
X235299D01*
X266634Y191433D02*
X308366D01*
X266634Y193402D02*
X308366D01*
X266634Y175291D02*
X308366D01*
X266634D02*
Y193402D01*
X308366Y175291D02*
Y193402D01*
X103567Y227134D02*
Y268866D01*
X101598Y227134D02*
Y268866D01*
X119709Y227134D02*
Y268866D01*
X101598Y227134D02*
X119709D01*
X101598Y268866D02*
X119709D01*
X262862Y154276D02*
X308138D01*
X262862Y113724D02*
X308138D01*
X262862Y141284D02*
Y154276D01*
X308138Y141284D02*
Y154276D01*
X262862Y113724D02*
Y126716D01*
X308138Y113724D02*
Y126716D01*
D14*
X137921Y184300D02*
X158000D01*
Y169900D02*
Y184300D01*
X137921Y169900D02*
X158000D01*
X137921D02*
Y184300D01*
D15*
X276516Y167516D02*
X278484D01*
X277500D01*
Y173419D01*
X276516Y172435D01*
X295532D02*
X296515Y173419D01*
X298483D01*
X299467Y172435D01*
Y171451D01*
X298483Y170467D01*
X297499D01*
X298483D01*
X299467Y169484D01*
Y168500D01*
X298483Y167516D01*
X296515D01*
X295532Y168500D01*
X127484Y237016D02*
Y238984D01*
Y238000D01*
X121581D01*
X122565Y237016D01*
Y256031D02*
X121581Y257015D01*
Y258983D01*
X122565Y259967D01*
X123549D01*
X124532Y258983D01*
Y257999D01*
Y258983D01*
X125516Y259967D01*
X126500D01*
X127484Y258983D01*
Y257015D01*
X126500Y256031D01*
M02*
