M48
;Layer_Color=9474304
;FILE_FORMAT=2:5
INCH,LZ
;TYPE=PLATED
T1F00S00C0.01181
T3F00S00C0.03504
T4F00S00C0.03543
T5F00S00C0.04016
T6F00S00C0.04331
T7F00S00C0.17717
;TYPE=NON_PLATED
T8F00S00C0.12795
T9F00S00C0.15748
%
T01
X0168Y0166
X0123476
T03
X0165Y0069
X0175
X0185
X018Y0079
X017
X016
X02325
X02425
X02525
X02575Y0069
X02475
X02375
T04
X0124Y0062067
Y0107933
T05
X0212Y0104
X0222
X0232
T06
X02775Y0181
X02975
X0114Y0238
Y0258
T07
X0374Y00565
Y0084847
X0257Y0262653
Y0291
X0172
Y0262653
T08
X01525Y0044
X01925
X0225
X0265
T09
X0099Y0034
X0408Y0036
X0411417Y0301181
X0099Y0303
M30
